<?xml version="1.0" encoding="utf-8"?>
<!-- Generator: Adobe Illustrator 22.0.0, SVG Export Plug-In . SVG Version: 6.00 Build 0)  -->
<svg version="1.1" id="Layer_1" xmlns="http://www.w3.org/2000/svg" xmlns:xlink="http://www.w3.org/1999/xlink" x="0px" y="0px"
	 viewBox="0 0 67 65.5" style="enable-background:new 0 0 67 65.5;" xml:space="preserve">
<style type="text/css">
	.st0{opacity:0.95;fill:url(#SVGID_1_);}
	.st1{fill:url(#SVGID_2_);}
	.st2{opacity:0.1;}
	.st3{fill:url(#SVGID_3_);}
	.st4{fill:url(#SVGID_4_);}
</style>
<g>
	<g>
		<linearGradient id="SVGID_1_" gradientUnits="userSpaceOnUse" x1="5.4634" y1="4.1847" x2="61.3922" y2="60.1135">
			<stop  offset="0" style="stop-color:#2F2965"/>
			<stop  offset="1" style="stop-color:#2C2B53"/>
		</linearGradient>
		<rect x="5" y="4.6" class="st0" width="56.8" height="55.1"/>
		<g>
			
				<image style="overflow:visible;opacity:0.4;" width="68" height="66" xlink:href="93541F2.png"  transform="matrix(1 0 0 1 -0.5172 -1.723438e-02)">
			</image>
			<g>
				<g>
					<linearGradient id="SVGID_2_" gradientUnits="userSpaceOnUse" x1="2.5999" y1="1.9001" x2="64.1273" y2="62.0117">
						<stop  offset="0" style="stop-color:#D199FE"/>
						<stop  offset="1" style="stop-color:#C179FF"/>
					</linearGradient>
					<path class="st1" d="M2.6,1.9V62h61.5V1.9H2.6z M59.2,57.2H7.6V6.8h51.6V57.2z"/>
				</g>
			</g>
		</g>
		<g>
			<g class="st2">
				<path d="M19.3,37.9l-2.2,7.4h-4.9l8.3-26h6.1l8.4,26h-5.1l-2.4-7.4H19.3z M26.8,34.3l-2-6.4c-0.5-1.6-0.9-3.4-1.3-4.9h-0.1
					c-0.4,1.5-0.8,3.3-1.2,4.9l-2,6.4H26.8z"/>
			</g>
			<g>
				<linearGradient id="SVGID_3_" gradientUnits="userSpaceOnUse" x1="12.3827" y1="31.3835" x2="53.7013" y2="31.3835">
					<stop  offset="0" style="stop-color:#D199FE"/>
					<stop  offset="1" style="stop-color:#C179FF"/>
				</linearGradient>
				<path class="st3" d="M19.3,37l-2.2,7.4h-4.9l8.3-26h6.1l8.4,26h-5.1L27.6,37H19.3z M26.8,33.4l-2-6.4c-0.5-1.6-0.9-3.4-1.3-4.9
					h-0.1c-0.4,1.5-0.8,3.3-1.2,4.9l-2,6.4H26.8z"/>
			</g>
		</g>
		<g>
			<g class="st2">
				<path d="M41.3,37.2c0.1,3.4,2.8,4.9,5.8,4.9c2.2,0,3.8-0.3,5.2-0.8l0.7,3.3c-1.6,0.7-3.9,1.2-6.6,1.2c-6.1,0-9.7-3.8-9.7-9.5
					c0-5.2,3.2-10.1,9.2-10.1c6.1,0,8.1,5,8.1,9.1c0,0.9-0.1,1.6-0.2,2H41.3z M49.6,33.8c0-1.7-0.7-4.6-3.9-4.6
					c-2.9,0-4.2,2.7-4.4,4.6H49.6z"/>
			</g>
			<g>
				<linearGradient id="SVGID_4_" gradientUnits="userSpaceOnUse" x1="12.3832" y1="34.9883" x2="53.7008" y2="34.9883">
					<stop  offset="0" style="stop-color:#D199FE"/>
					<stop  offset="1" style="stop-color:#C179FF"/>
				</linearGradient>
				<path class="st4" d="M41.3,36.3c0.1,3.4,2.8,4.9,5.8,4.9c2.2,0,3.8-0.3,5.2-0.8l0.7,3.3c-1.6,0.7-3.9,1.2-6.6,1.2
					c-6.1,0-9.7-3.8-9.7-9.5c0-5.2,3.2-10.1,9.2-10.1c6.1,0,8.1,5,8.1,9.1c0,0.9-0.1,1.6-0.2,2H41.3z M49.6,33
					c0-1.7-0.7-4.6-3.9-4.6c-2.9,0-4.2,2.7-4.4,4.6H49.6z"/>
			</g>
		</g>
	</g>
</g>
</svg>
