<?xml version="1.0" encoding="utf-8"?>
<!-- Generator: Adobe Illustrator 22.0.0, SVG Export Plug-In . SVG Version: 6.00 Build 0)  -->
<svg version="1.1" id="Layer_1" xmlns="http://www.w3.org/2000/svg" xmlns:xlink="http://www.w3.org/1999/xlink" x="0px" y="0px"
	 viewBox="0 0 67 65.5" style="enable-background:new 0 0 67 65.5;" xml:space="preserve">
<style type="text/css">
	.st0{fill:#5D5C61;}
	.st1{fill:#3B3838;}
	.st2{opacity:0.1;}
	.st3{fill:#FFFFFF;}
</style>
<rect x="5" y="4.6" class="st0" width="56.8" height="55.2"/>
<g>
	<g>
		<path class="st1" d="M2.6,1.9v60.2h61.6V1.9H2.6z M59.3,57.3H7.6V6.8h51.7V57.3z"/>
	</g>
</g>
<g>
	<g class="st2">
		<path d="M19.3,37.9l-2.2,7.4h-4.9l8.3-26h6.1l8.5,26H30l-2.4-7.4H19.3z M26.8,34.3l-2-6.4c-0.5-1.6-0.9-3.4-1.3-4.9h-0.1
			c-0.4,1.5-0.8,3.3-1.2,4.9l-2,6.4H26.8z"/>
	</g>
	<g>
		<path class="st3" d="M19.3,37.1l-2.2,7.4h-4.9l8.3-26h6.1l8.5,26H30l-2.4-7.4H19.3z M26.8,33.5l-2-6.4c-0.5-1.6-0.9-3.4-1.3-4.9
			h-0.1c-0.4,1.5-0.8,3.3-1.2,4.9l-2,6.4H26.8z"/>
	</g>
</g>
<g>
	<g class="st2">
		<path d="M41.4,37.2c0.1,3.4,2.8,4.9,5.8,4.9c2.2,0,3.8-0.3,5.2-0.8l0.7,3.3c-1.6,0.7-3.9,1.2-6.6,1.2c-6.1,0-9.7-3.8-9.7-9.5
			c0-5.2,3.2-10.1,9.2-10.1c6.1,0,8.1,5,8.1,9.2c0,0.9-0.1,1.6-0.2,2H41.4V37.2z M49.6,33.9c0-1.7-0.7-4.6-3.9-4.6
			c-2.9,0-4.2,2.7-4.4,4.6H49.6z"/>
	</g>
	<g>
		<path class="st3" d="M41.4,36.4c0.1,3.4,2.8,4.9,5.8,4.9c2.2,0,3.8-0.3,5.2-0.8l0.7,3.3c-1.6,0.7-3.9,1.2-6.6,1.2
			c-6.1,0-9.7-3.8-9.7-9.5c0-5.2,3.2-10.1,9.2-10.1c6.1,0,8.1,5,8.1,9.2c0,0.9-0.1,1.6-0.2,2H41.4V36.4z M49.6,33.1
			c0-1.7-0.7-4.6-3.9-4.6c-2.9,0-4.2,2.7-4.4,4.6H49.6z"/>
	</g>
</g>
</svg>
