<?xml version="1.0" encoding="utf-8"?>
<!-- Generator: Adobe Illustrator 22.0.0, SVG Export Plug-In . SVG Version: 6.00 Build 0)  -->
<svg version="1.1" id="Layer_1" xmlns="http://www.w3.org/2000/svg" xmlns:xlink="http://www.w3.org/1999/xlink" x="0px" y="0px"
	 viewBox="0 0 67 65.5" style="enable-background:new 0 0 67 65.5;" xml:space="preserve">
<style type="text/css">
	.st0{opacity:0.95;fill:url(#SVGID_1_);}
	.st1{fill:url(#SVGID_2_);}
	.st2{opacity:0.1;}
	.st3{fill:url(#SVGID_3_);}
	.st4{fill:url(#SVGID_4_);}
</style>
<g>
	<linearGradient id="SVGID_1_" gradientUnits="userSpaceOnUse" x1="5.4678" y1="4.1883" x2="61.478" y2="60.1985">
		<stop  offset="0" style="stop-color:#5E4421"/>
		<stop  offset="1" style="stop-color:#373100"/>
	</linearGradient>
	<rect x="5" y="4.6" class="st0" width="56.8" height="55.2"/>
	<g>
		
			<image style="overflow:visible;opacity:0.4;" width="68" height="66" xlink:href="E0E8BF2F.png"  transform="matrix(1 0 0 1 -0.5209 -2.092746e-02)">
		</image>
		<g>
			<g>
				<linearGradient id="SVGID_2_" gradientUnits="userSpaceOnUse" x1="2.6" y1="1.9" x2="64.2182" y2="62.1001">
					<stop  offset="0" style="stop-color:#FDC45E"/>
					<stop  offset="1" style="stop-color:#FC9C0D"/>
				</linearGradient>
				<path class="st1" d="M2.6,1.9v60.2h61.6V1.9H2.6z M59.3,57.3H7.6V6.8h51.7V57.3z"/>
			</g>
		</g>
	</g>
	<g>
		<g class="st2">
			<path d="M25.1,37.9l-2.2,7.2h-4.8l8.2-25.5h5.9l8.3,25.5h-5l-2.3-7.2H25.1z M32.3,34.4l-2-6.3c-0.5-1.5-0.9-3.3-1.3-4.8H29
				c-0.4,1.5-0.8,3.2-1.2,4.8l-2,6.3H32.3z"/>
		</g>
		<g>
			<linearGradient id="SVGID_3_" gradientUnits="userSpaceOnUse" x1="17.618" y1="31.5909" x2="46.8146" y2="31.5909">
				<stop  offset="0" style="stop-color:#FDC45E"/>
				<stop  offset="1" style="stop-color:#FC9C0D"/>
			</linearGradient>
			<path class="st3" d="M25.1,37.1l-2.2,7.2h-4.8l8.2-25.5h5.9l8.3,25.5h-5l-2.3-7.2H25.1z M32.3,33.6l-2-6.3
				c-0.5-1.5-0.9-3.3-1.3-4.8H29c-0.4,1.5-0.8,3.2-1.2,4.8l-2,6.3H32.3z"/>
		</g>
	</g>
	<g>
		<g class="st2">
			<path d="M47.2,21.6c0,1.4-1,2.5-2.6,2.5C43,24.1,42,23,42,21.6c0-1.4,1.1-2.5,2.6-2.5C46.2,19.1,47.2,20.2,47.2,21.6z M42.2,45.2
				V26.8h4.7v18.4H42.2z"/>
		</g>
		<g>
			<linearGradient id="SVGID_4_" gradientUnits="userSpaceOnUse" x1="17.6139" y1="31.2884" x2="46.8156" y2="31.2884">
				<stop  offset="0" style="stop-color:#FDC45E"/>
				<stop  offset="1" style="stop-color:#FC9C0D"/>
			</linearGradient>
			<path class="st4" d="M47.2,20.8c0,1.4-1,2.5-2.6,2.5c-1.5,0-2.6-1.1-2.6-2.5c0-1.4,1.1-2.5,2.6-2.5
				C46.2,18.3,47.2,19.3,47.2,20.8z M42.2,44.3V25.9h4.7v18.4H42.2z"/>
		</g>
	</g>
</g>
</svg>
