<?xml version="1.0" encoding="utf-8"?>
<!-- Generator: Adobe Illustrator 22.0.0, SVG Export Plug-In . SVG Version: 6.00 Build 0)  -->
<svg version="1.1" id="Layer_1" xmlns="http://www.w3.org/2000/svg" xmlns:xlink="http://www.w3.org/1999/xlink" x="0px" y="0px"
	 viewBox="0 0 67 65.5" style="enable-background:new 0 0 67 65.5;" xml:space="preserve">
<style type="text/css">
	.st0{fill:#5D5C61;}
	.st1{fill:#3B3838;}
	.st2{opacity:0.1;}
	.st3{fill:#7496AF;}
	.st4{fill:#FFFFFF;}
</style>
<g>
	<rect x="5" y="4.6" class="st0" width="56.8" height="55.2"/>
	<g>
		<g>
			<g>
				<path class="st1" d="M2.6,1.9v60.2h61.6V1.9H2.6z M59.3,57.3H7.6V6.8h51.7V57.3z"/>
			</g>
		</g>
	</g>
	<g>
		<g class="st2">
			<path class="st3" d="M25,38l-2.2,7.2H18l8.2-25.5h5.9l8.3,25.5h-5L33.1,38H25z M32.3,34.4l-2-6.3c-0.5-1.5-0.9-3.3-1.3-4.8l0,0
				c-0.4,1.5-0.8,3.2-1.2,4.8l-2,6.3H32.3z"/>
		</g>
		<g>
			<g>
				<path class="st4" d="M25,37.1l-2.2,7.2H18l8.2-25.5h5.9l8.3,25.5h-5l-2.3-7.2H25z M32.3,33.6l-2-6.3c-0.5-1.5-0.9-3.3-1.3-4.8
					l0,0c-0.4,1.5-0.8,3.2-1.2,4.8l-2,6.3H32.3z"/>
			</g>
		</g>
	</g>
	<g>
		<g class="st2">
			<path class="st3" d="M47.2,21.6c0,1.4-1,2.5-2.6,2.5C43,24.1,42,23,42,21.6s1.1-2.5,2.6-2.5C46.2,19.1,47.1,20.2,47.2,21.6z
				 M42.2,45.2V26.8h4.7v18.4C46.9,45.2,42.2,45.2,42.2,45.2z"/>
		</g>
		<g>
			<g>
				<path class="st4" d="M47.2,20.8c0,1.4-1,2.5-2.6,2.5c-1.5,0-2.6-1.1-2.6-2.5s1.1-2.5,2.6-2.5C46.2,18.3,47.1,19.4,47.2,20.8z
					 M42.2,44.3V25.9h4.7v18.4H42.2z"/>
			</g>
		</g>
	</g>
</g>
</svg>
