<?xml version="1.0" encoding="utf-8"?>
<!-- Generator: Adobe Illustrator 22.0.0, SVG Export Plug-In . SVG Version: 6.00 Build 0)  -->
<svg version="1.1" id="Layer_1" xmlns="http://www.w3.org/2000/svg" xmlns:xlink="http://www.w3.org/1999/xlink" x="0px" y="0px"
	 viewBox="0 0 67 65.5" style="enable-background:new 0 0 67 65.5;" xml:space="preserve">
<style type="text/css">
	.st0{fill:#265787;}
	.st1{fill:#EA7600;}
</style>
<g transform="matrix(11.1 0 0 11.1 -2215 4153)">
	<path class="st0" d="M202.8-371.2c0-0.2,0.1-0.3,0.2-0.5c0.1-0.1,0.3-0.2,0.5-0.2c0.2,0,0.4,0.1,0.5,0.2c0.1,0.1,0.2,0.3,0.2,0.5
		c0,0.2-0.1,0.4-0.2,0.5c-0.1,0.1-0.3,0.2-0.5,0.2c-0.2,0-0.4-0.1-0.5-0.2C202.8-370.9,202.7-371.1,202.8-371.2L202.8-371.2z"/>
	<g>
		
			<image style="overflow:visible;opacity:0.5;" width="75" height="64" xlink:href="A77047DE.png"  transform="matrix(9.009009e-02 0 0 9.009009e-02 199.3461 -374.3026)">
		</image>
		<g>
			<path class="st1" d="M201.6-370.9c0,0.1,0,0.2,0.1,0.3c0.1,0.2,0.2,0.4,0.4,0.6c0.2,0.2,0.4,0.3,0.6,0.5c0.3,0.1,0.5,0.2,0.8,0.2
				c0.3,0,0.6-0.1,0.8-0.2c0.2-0.1,0.5-0.3,0.6-0.5c0.2-0.2,0.3-0.4,0.4-0.6c0-0.1,0.1-0.2,0.1-0.3c0-0.1,0-0.2,0-0.3
				c0-0.2-0.1-0.4-0.2-0.6c-0.1-0.2-0.3-0.3-0.4-0.5l0,0l-1.7-1.3c0,0,0,0,0,0c-0.1-0.1-0.3-0.1-0.4,0c-0.1,0.1-0.1,0.2,0,0.3l0,0
				l0.7,0.6l-2.2,0h0c-0.2,0-0.4,0.1-0.4,0.3c0,0.2,0.1,0.3,0.3,0.3l0,0l1.1,0l-2,1.5c0,0,0,0,0,0c-0.2,0.1-0.2,0.4-0.1,0.5
				c0.1,0.2,0.4,0.2,0.6,0l1.1-0.9C201.6-371.1,201.6-370.9,201.6-370.9L201.6-370.9z M204.4-370.5c-0.2,0.2-0.5,0.4-0.9,0.4
				c-0.3,0-0.6-0.1-0.9-0.3c-0.1-0.1-0.2-0.2-0.2-0.4c0-0.1-0.1-0.3-0.1-0.4c0-0.1,0.1-0.3,0.1-0.4c0.1-0.1,0.2-0.2,0.3-0.3
				c0.2-0.2,0.5-0.3,0.8-0.3c0.3,0,0.6,0.1,0.8,0.3c0.1,0.1,0.2,0.2,0.3,0.3c0.1,0.1,0.1,0.2,0.1,0.4c0,0.1,0,0.3-0.1,0.4
				C204.5-370.7,204.5-370.6,204.4-370.5L204.4-370.5z"/>
		</g>
	</g>
</g>
</svg>
