<?xml version="1.0" encoding="utf-8"?>
<!-- Generator: Adobe Illustrator 22.0.0, SVG Export Plug-In . SVG Version: 6.00 Build 0)  -->
<svg version="1.1" id="Layer_1" xmlns="http://www.w3.org/2000/svg" xmlns:xlink="http://www.w3.org/1999/xlink" x="0px" y="0px"
	 viewBox="0 0 67 65.5" style="enable-background:new 0 0 67 65.5;" xml:space="preserve">
<style type="text/css">
	.st0{fill:#3B3838;}
	.st1{fill:#5D5C61;}
</style>
<g>
	<g>
		<path class="st0" d="M22.3,35c0,1.1-0.6,2.7,0.5,5.5c1.1,2.2,2.2,4.4,4.4,6.7s3,3.3,6.9,5.3c3.3,1.6,6.5,2.1,8.7,2.1
			c3.3,0,6.7-0.7,8.9-1.9c3.4-1.6,5.4-3.4,7-5.4c2-2.4,2.9-3.8,4-6c0.5-1.1,1.2-3,1.2-5.2c0-1.1,0-2.2,0-4.4c0-2.2-0.9-4.2-2.2-6.7
			c-1.1-2.2-2.5-3.7-4.4-5.6l0,0L38.3,4.9l0,0c-1.1-1.1-3.3-1.1-4.4,0c-1.1,1.1-1.1,2.2,0,3.3l0,0l7.8,6.7H17.2l0,0
			c-2.2,0-4.4,1.1-4.4,3.3c0,2.2,1.1,3.3,3.3,3.3l0,0h12.2L6.1,38.2l0,0c-2.2,1.1-2.2,4.4-1.1,5.5c1.1,2.2,4.4,2.2,6.7,0l12.2-10
			C21.7,34.9,22.3,35,22.3,35L22.3,35z M52.7,41.6c-2.2,2.2-5.5,4.4-10,4.4c-3.3,0-7.3-1.5-10.1-4.3c-1-1.3-1.6-2.4-2.3-4.5
			c-0.6-1.7-0.9-3.4-0.9-4.5c0-1.1,0.4-3.2,1.1-4.3c1.1-1.3,2.2-2.4,3.4-3.5c2.2-2.2,5.6-3.3,8.9-3.3s6.2,1.1,8.9,3.3
			c1.8,1.3,2.1,1.9,3.3,3.3c1.1,1.8,1.1,3.3,1.1,4.4c0,1.1,0.1,2.5-0.6,4.5C54.6,39.5,53.8,40.4,52.7,41.6L52.7,41.6z"/>
	</g>
</g>
<circle class="st1" cx="42.7" cy="32.7" r="7.8"/>
</svg>
