<?xml version="1.0" encoding="utf-8"?>
<!-- Generator: Adobe Illustrator 22.0.0, SVG Export Plug-In . SVG Version: 6.00 Build 0)  -->
<svg version="1.1" id="Layer_1" xmlns="http://www.w3.org/2000/svg" xmlns:xlink="http://www.w3.org/1999/xlink" x="0px" y="0px"
	 viewBox="0 0 67 65.5" style="enable-background:new 0 0 67 65.5;" xml:space="preserve">
<style type="text/css">
	.st0{fill:#1473B5;}
	.st1{fill:#34A8DB;}
	.st2{fill:#EAEAEA;}
	.st3{fill:#EAEAEB;}
	.st4{fill:#FFFFFF;}
</style>
<g>
	
		<image style="overflow:visible;opacity:0.3;" width="83" height="91" xlink:href="F1B3BA4D.png"  transform="matrix(1 0 0 1 -7.2095 -10.7095)">
	</image>
	<g>
		<g>
			<path class="st0" d="M33,65c-2.7-0.9-5.5-1.6-8.2-2.4c-4.4-1.3-8.8-2.5-13.3-3.7c-0.5-0.1-0.7-0.3-0.8-0.9
				c-0.7-7.7-1.3-15.3-2-23C8,26.7,7.2,18.3,6.5,10C6.3,7.7,6.1,5.4,5.8,3.1C5.8,2.5,5.9,2.4,6.4,2.4c1.1,0,2.2,0,3.2,0
				c16.7,0,33.5,0,50.2,0c0.8,0,1.1,0.1,1,1c-0.4,4.5-0.8,8.9-1.2,13.4c-0.4,4.6-0.8,9.1-1.2,13.7C58,35.7,57.5,41,57,46.2
				c-0.3,3.7-0.7,7.4-1,11.2c-0.1,1-0.3,1.4-1.3,1.6c-6.9,1.9-13.9,3.8-20.8,5.7c-0.1,0-0.3,0.1-0.4,0.2C33.4,65,33.2,65,33,65z"/>
			<path class="st1" d="M33.4,13.3c0-1.9,0-3.7,0-5.6c0-0.7,0.1-0.9,0.9-0.9c6.9,0,13.9,0,20.8,0c0.6,0,0.9,0.2,0.8,0.8
				c-0.2,2.4-0.4,4.8-0.6,7.2c-0.2,1.8-0.3,3.6-0.5,5.3c-0.2,2.5-0.5,5-0.7,7.4c-0.1,1.6-0.3,3.3-0.4,4.9c-0.2,2.6-0.5,5.2-0.7,7.8
				c-0.2,2.4-0.4,4.7-0.6,7.1c-0.2,2.3-0.4,4.5-0.6,6.8c-0.1,0.6-0.3,1-1,1.1C45.2,56.9,39.6,58.4,34,60c-0.7,0.2-0.6-0.2-0.6-0.6
				c0-2.3,0-4.6,0-6.9c0.1-0.2,0.3-0.3,0.5-0.4c4-1.2,8-2.2,12-3.4c1.4-0.4,1.5-0.5,1.6-2c0.3-3.1,0.6-6.2,0.8-9.3
				c0.3-3.1,0.5-6.2,0.8-9.2c0.4-3.8,0.7-7.7,1-11.5c0.1-1,0.4-1.9,0-2.9c-0.4-0.3-0.8-0.2-1.2-0.2c-4.8,0-9.5,0-14.3,0
				C34.3,13.6,33.8,13.7,33.4,13.3z"/>
			<path class="st2" d="M33.8,52.3c-0.1,0.1-0.3,0.1-0.4,0.2c-4.5-1.2-8.9-2.5-13.4-3.7c-0.5-0.1-0.9-0.2-0.9-0.8
				c-0.2-3.2-0.5-6.4-0.8-9.6c-0.1-0.6,0.1-0.7,0.6-0.7c1.9,0,3.8,0,5.7,0c0.5,0,0.6,0.2,0.7,0.6c0.1,1.4,0.2,2.9,0.4,4.3
				c0,0.3,0.1,0.6,0.5,0.7c2.5,0.6,4.8,1.4,7.3,1.9c0,0,0.1,0.1,0.1,0.1c0.2,0.5,0.2,1,0.2,1.5C33.7,48.7,33.6,50.5,33.8,52.3z"/>
			<path class="st3" d="M33.4,13.3c5.4,0,10.9,0,16.3,0c0.3,0,0.7-0.2,0.9,0.2c-0.4,0.4-1,0.3-1.5,0.3c-4.6,0-9.2,0-13.8,0
				c-1.6,0-1.6,0-1.6,1.7c0,1.2,0,2.3,0,3.5c0,0.4,0,0.9-0.3,1.2c-0.5,0.1-0.9,0.1-1.4,0.1c-4.8,0-9.6,0-14.3,0
				c-0.3,0-0.7,0.1-1-0.1c-0.2-1.9-0.4-3.8-0.6-5.7c-0.1-0.8,0.1-1.2,1-1.2c5,0.1,10.1,0,15.1,0C32.7,13.4,33,13.4,33.4,13.3z"/>
			<path class="st1" d="M33.4,45.2c0-3.6,0-7.3,0-10.9c0.2-0.2,0.5-0.3,0.8-0.3c2.4,0,4.8,0,7.2,0c0.2,0,0.3,0,0.4,0.1
				c0.4,0.2,0.3,0.6,0.3,0.9c-0.2,2.5-0.5,5-0.6,7.5c0,0.6-0.3,0.9-0.8,1.1c-2.2,0.6-4.3,1.2-6.5,1.8C33.9,45.5,33.6,45.5,33.4,45.2
				L33.4,45.2z"/>
			<path class="st1" d="M16.7,20.2c5.6,0,11.1,0,16.7,0c0.3-0.3,0.7-0.3,1.1-0.3c2.4,0,4.9,0,7.3,0c1.2,0,1.5,0.3,1.4,1.5
				c-0.1,1.7-0.3,3.4-0.4,5.1c-0.1,1.1-0.4,1.3-1.4,1.3c-2.7,0-5.3,0-8,0c-2.2,0-4.4,0-6.5,0c-0.6,0-1.2,0-1.7,0.3
				c-0.4-0.8,0.1-0.7,0.6-0.7c2.2,0,4.4,0,6.7,0c0.7,0,0.9-0.1,0.9-0.9c-0.1-1.7-0.1-3.5,0-5.2c0-0.7-0.3-0.9-0.9-0.9
				c-4.9,0-9.9,0-14.8,0C17.4,20.4,17,20.5,16.7,20.2z"/>
			<path class="st2" d="M25.2,28c0-0.5,0.3-0.6,0.7-0.6c2.5,0,5,0,7.5,0c0.3,0.4,0.3,0.8,0.3,1.2c0,1.3,0,2.6,0,3.9
				c0,1.2,0,1.3,1.2,1.3c2,0,3.9,0,5.9,0c0.4,0,1-0.2,1.1,0.5c-2.8,0-5.7,0-8.5,0c-2.3,0-4.5-0.1-6.8,0c-0.7,0-0.9-0.2-1-0.9
				C25.5,31.6,25.4,29.8,25.2,28z"/>
			<path class="st4" d="M41.9,34.4c-0.2-0.4-0.6-0.2-0.9-0.2c-2.3,0-4.5,0-6.8,0c-0.7,0-0.8-0.2-0.8-0.8c0-1.9,0-3.9,0-5.8
				c2.7,0,5.4-0.1,8.2,0c0.7,0,1-0.1,1-0.9c0.1-1.8,0.3-3.7,0.5-5.5c0.1-0.6-0.2-0.8-0.8-0.8c-3,0-5.9,0-8.9,0c0-1.9,0-3.8,0-5.7
				c0-0.7,0.2-0.9,0.9-0.9c5.4,0,10.9,0,16.3,0c-0.1,1.7-0.2,3.5-0.4,5.2c-0.3,3.2-0.6,6.3-0.9,9.5c-0.4,3.9-0.7,7.7-1.1,11.6
				c-0.2,2.4-0.4,4.8-0.6,7.3c-0.1,0.9-0.3,1.5-1.4,1.8c-4.1,1-8.1,2.2-12.1,3.3c-0.1,0-0.3,0-0.5,0.1c-0.6-0.1-0.4-0.6-0.4-0.9
				c0-2,0-4.1,0-6.1c2.3-0.6,4.6-1.3,7-1.9c0.6-0.2,0.8-0.5,0.9-1.1C41.4,39.7,41.7,37,41.9,34.4z"/>
		</g>
	</g>
</g>
</svg>
