<?xml version="1.0" encoding="utf-8"?>
<!-- Generator: Adobe Illustrator 22.0.0, SVG Export Plug-In . SVG Version: 6.00 Build 0)  -->
<svg version="1.1" id="Layer_1" xmlns="http://www.w3.org/2000/svg" xmlns:xlink="http://www.w3.org/1999/xlink" x="0px" y="0px"
	 viewBox="0 0 67 65.5" style="enable-background:new 0 0 67 65.5;" xml:space="preserve">
<style type="text/css">
	.st0{fill:#E45026;}
	.st1{fill:#F0682B;}
	.st2{fill:#EAEAEA;}
	.st3{fill:#EBEAEA;}
	.st4{fill:#FFFFFF;}
	.st5{fill:#E45126;}
</style>
<g>
	
		<image style="overflow:visible;opacity:0.3;" width="81" height="88" xlink:href="1B64BD73.png"  transform="matrix(1 0 0 1 -5.4237 -9.9237)">
	</image>
	<g>
		<g>
			<g>
				<path class="st0" d="M33.6,63.8c-2.5-0.9-5-1.5-7.5-2.2c-4.6-1.3-9.1-2.6-13.7-3.8c-0.5-0.1-0.7-0.4-0.8-0.9
					c-0.6-7.3-1.3-14.6-2-22c-0.6-6.5-1.1-13-1.7-19.5C7.6,11.2,7.3,7.1,6.8,2.9C6.8,2.1,7,2,7.7,2c9.9,0,19.8,0,29.7,0
					C45,2,52.7,2,60.3,2c0.7,0,1,0.1,0.9,0.9c-0.7,7.2-1.3,14.4-1.9,21.6c-0.7,7.8-1.4,15.7-2.1,23.5c-0.3,2.9-0.5,5.9-0.8,8.8
					c0,0.6-0.2,0.8-0.8,0.9c-6.8,1.9-13.6,3.7-20.3,5.6c-0.3,0.1-0.7,0.1-0.9,0.4C34.1,63.8,33.9,63.8,33.6,63.8z"/>
			</g>
			<path class="st1" d="M16.9,14c-0.4-0.7,0.1-0.7,0.6-0.7c3.2,0,6.4,0,9.5,0c2,0,4,0,6,0c0.8,0,1-0.3,1-1C34,10.6,34,9,34,7.4
				c0-0.6,0.1-0.8,0.8-0.8c6.9,0,13.8,0,20.7,0c0.6,0,0.8,0.2,0.7,0.7c-0.1,1.8-0.3,3.6-0.4,5.4c-0.1,1.7-0.3,3.3-0.5,5
				c-0.2,2.6-0.5,5.1-0.7,7.7c-0.1,1.6-0.2,3.3-0.4,4.9c-0.2,2.4-0.5,4.9-0.7,7.3c-0.1,1.6-0.3,3.2-0.4,4.8
				c-0.2,2.6-0.5,5.1-0.7,7.7c-0.1,0.9-0.2,1.8-0.2,2.7c0.1,0.9-0.3,1.3-1.1,1.5c-2.5,0.7-5,1.4-7.5,2.1c-2.9,0.8-5.8,1.6-8.7,2.4
				c-0.7,0.2-0.9,0-0.9-0.7c0-1.8,0-3.5,0-5.3c0-0.4,0-0.7-0.4-1c0.1-0.2,0.2-0.2,0.4-0.3c4.2-1.1,8.4-2.3,12.6-3.4
				c0.8-0.2,1.1-0.7,1.2-1.5c0.3-3.9,0.7-7.7,1-11.6c0.2-2.2,0.4-4.4,0.6-6.7c0.1-0.9-0.1-1.1-1.1-1.1c-4.3,0-8.5,0-12.8,0
				c-0.5,0-1,0.1-1.4-0.1c-0.1-0.1-0.2-0.1-0.2-0.2c-0.2-2.2-0.2-4.5,0-6.7c0.1-0.1,0.1-0.2,0.2-0.2c0.5-0.2,1-0.1,1.4-0.1
				c4.4,0,8.8,0,13.2,0c1.4,0,1.5,0,1.6-1.4c0.1-1.3,0.2-2.6,0.3-3.8c0.1-0.7-0.2-0.9-0.9-0.9c-1.6,0-3.2,0-4.8,0
				c-3.7,0-7.4,0-11.1,0c-5.1,0-10.1,0-15.2,0C18.2,13.7,17.5,13.7,16.9,14z"/>
			<path class="st2" d="M16.9,14c0-0.4,0.1-0.6,0.6-0.6c5.5,0,11,0,16.5,0c0.2,0.3,0.3,0.6,0.3,0.9c0,1.6,0,3.3,0,4.9
				c0,0.3,0,0.7-0.3,0.9l0,0.1c-0.4,0.3-0.9,0.2-1.3,0.2c-2.3,0-4.6,0-6.9,0c-1,0-1.1,0.1-1,1.1c0.1,1.5,0.3,2.9,0.4,4.4
				c0,0.7,0.4,1,1.1,1c2.1,0,4.3,0,6.4,0c0.5,0,0.9-0.1,1.3,0.2l0,0.1c0.3,0.3,0.3,0.6,0.3,0.9c0,1.7,0,3.3,0,5c0,0.3,0,0.6-0.2,0.9
				c-0.3,0.1-0.5,0.1-0.8,0.1c-4.5,0-9.1,0-13.6,0c-0.4,0-0.9,0.2-1-0.5c-0.3-3.2-0.5-6.4-0.8-9.7C17.6,20.6,17.2,17.3,16.9,14z"/>
			<path class="st3" d="M34,51.9c-0.1,0-0.2,0-0.4,0c-4.2-1.2-8.4-2.4-12.7-3.5c-0.8-0.2-1-0.5-1.1-1.3c-0.2-3-0.5-6-0.8-9
				c-0.1-0.5,0-0.7,0.6-0.7c1.9,0,3.7,0,5.6,0c0.5,0,0.7,0.1,0.7,0.6c0.1,1.4,0.2,2.8,0.4,4.2c0,0.4,0.1,0.6,0.5,0.7
				c2.3,0.6,4.7,1.2,7,1.8c0.2,0,0.3,0.2,0.4,0.3c0.2,2.1,0.1,4.1,0.1,6.2C34.3,51.5,34.1,51.7,34,51.9z"/>
			<path class="st1" d="M34,44.9c-0.1-0.1-0.1-0.1-0.2-0.2c0.3-0.2,0.2-0.6,0.2-0.8c0-2.9,0-5.9,0-8.8c0-0.8-0.2-1-1-1
				c-4.5,0-9,0-13.5,0c-0.4,0-0.9,0.2-0.8-0.6c0.1,0.3,0.3,0.4,0.7,0.4c4.9,0,9.8,0,14.7,0c0.3-0.3,0.7-0.3,1-0.3c2.1,0,4.2,0,6.2,0
				c1.1,0,1.3,0.2,1.3,1.4c-0.1,2.3-0.4,4.7-0.6,7c0,0.6-0.3,1-0.9,1.2c-2.2,0.6-4.4,1.3-6.6,1.8C34.3,45,34.2,45,34,44.9z"/>
			<path class="st4" d="M34,44.9c2.2-0.6,4.5-1.3,6.8-1.9c0.6-0.2,0.9-0.4,0.9-1.1c0.2-2.4,0.3-4.7,0.6-7.1c0.1-0.8-0.2-0.9-0.9-0.9
				c-2.5,0-4.9,0-7.4,0c0-2.2,0-4.5,0-6.7c5.1,0,10.2,0,15.3,0c0.6,0,0.5,0.3,0.5,0.7c-0.3,3.1-0.5,6.3-0.8,9.4
				c-0.3,3.2-0.6,6.5-0.9,9.7c-0.1,0.9-0.3,1.3-1.3,1.5c-4,1-8,2.2-12.1,3.3c-0.3,0.1-0.5,0.1-0.8,0.1C34,49.6,34,47.2,34,44.9z"/>
			<path class="st4" d="M34,20.2c0-2.2,0-4.5,0-6.7c4.1,0,8.3,0,12.4,0c1.3,0,2.6,0,3.9,0c0.5,0,0.7,0.1,0.7,0.6
				c-0.2,1.9-0.4,3.8-0.5,5.7c0,0.6-0.5,0.4-0.8,0.4c-3.4,0-6.7,0-10.1,0C37.8,20.2,35.9,20.2,34,20.2z"/>
			<path class="st5" d="M34,27.1c-2.8,0-5.7,0-8.5,0c-0.4,0-0.5-0.1-0.6-0.5c-0.2-2-0.3-4-0.5-6c-0.1-0.5,0.2-0.5,0.5-0.4
				c3,0,6,0,9.1,0C34,22.5,34,24.8,34,27.1z"/>
		</g>
	</g>
</g>
</svg>
