<?xml version="1.0" encoding="utf-8"?>
<!-- Generator: Adobe Illustrator 22.0.0, SVG Export Plug-In . SVG Version: 6.00 Build 0)  -->
<svg version="1.1" id="Layer_1" xmlns="http://www.w3.org/2000/svg" xmlns:xlink="http://www.w3.org/1999/xlink" x="0px" y="0px"
	 viewBox="0 0 67 65.5" style="enable-background:new 0 0 67 65.5;" xml:space="preserve">
<style type="text/css">
	.st0{fill:#3B3838;}
	.st1{fill:#FFFFFF;}
</style>
<g>
	<g>
		<g>
			<g>
				<path class="st0" d="M1.4,64.2V1.3C1.4,1,1.7,0.7,2,0.7h62.9c0.3,0,0.6,0.3,0.6,0.6v62.9c0,0.3-0.3,0.6-0.6,0.6H2
					C1.7,64.8,1.4,64.5,1.4,64.2z M40.1,53.3c-0.3,0.2-0.4,0.5-0.2,0.8c0.7,1.3,1.6,2.3,2.8,3.2c3.5,2.6,7.5,3.1,11.7,2
					c4.5-1.2,6.8-4.7,6.3-9.3c-0.3-2.7-1.7-4.7-3.9-6c-2-1.1-4.1-2-6.1-3.1c-0.8-0.4-1.7-0.9-2.4-1.5c-0.8-0.7-0.9-1.6-0.6-2.6
					c0.2-1,0.9-1.5,1.9-1.7c1.6-0.3,3,0.1,4,1.4c0.1,0.2,0.3,0.4,0.4,0.5c0.2,0.3,0.6,0.4,0.9,0.2c1.2-0.8,2.5-1.6,3.7-2.4
					c0.3-0.2,0.4-0.6,0.2-0.9c-1-1.7-2.3-2.9-4.2-3.6c-2.1-0.8-4.3-1-6.5-0.5c-7.3,1.6-7.8,9.3-4.8,13.1c1.3,1.6,3,2.6,4.9,3.5
					c1.7,0.8,3.4,1.5,5,2.4c1.1,0.6,1.7,1.6,1.5,2.8c-0.2,1.3-1.1,2-2.3,2.4c-2.9,1-5.6,0-7.4-2.5c-0.1-0.1-0.1-0.2-0.2-0.3
					C44.6,51,44.3,50.9,44,51C42.7,51.8,41.4,52.5,40.1,53.3z M18.7,54c-0.3,0.2-0.4,0.5-0.2,0.8c0.9,1.7,2.1,3,3.7,3.8
					c3,1.5,6.1,1.6,9.2,0.5c2.2-0.8,3.7-2.4,4.3-4.6c0.3-1.1,0.6-2.3,0.6-3.5c0.1-6.8,0-13.5,0-20.3l0,0c0-0.3-0.3-0.6-0.6-0.6h-4.9
					c-0.3,0-0.6,0.3-0.6,0.6V31c0,6.3,0,12.6,0,18.9c0,0.6,0,1.2-0.1,1.8c-0.1,1.5-0.9,2.4-2.4,2.6c-1.5,0.2-2.7-0.2-3.6-1.5
					c-0.2-0.3-0.5-0.7-0.7-1s-0.6-0.4-0.9-0.2C21.4,52.4,20.1,53.2,18.7,54z"/>
				<path class="st1" d="M39.6,53.6c1.7-1,3.3-1.9,4.9-2.9c0.2,0.3,0.4,0.5,0.5,0.8c1.7,2.5,4.5,3.5,7.2,2.6
					c1.2-0.4,2.1-1.1,2.3-2.4c0.2-1.3-0.4-2.3-1.5-2.8c-1.6-0.9-3.3-1.6-5-2.4c-1.8-0.9-3.6-1.9-4.9-3.5c-2.9-3.8-2.5-11.5,4.8-13.1
					c2.2-0.5,4.4-0.3,6.5,0.5c2,0.8,3.4,2.3,4.5,4.2c-1.6,1-3.1,2-4.7,3c-0.3-0.4-0.5-0.7-0.7-1c-1-1.4-2.4-1.7-4-1.4
					c-0.9,0.2-1.6,0.8-1.9,1.7c-0.2,1-0.2,1.9,0.6,2.6c0.7,0.6,1.5,1,2.4,1.5c2,1,4.2,1.9,6.1,3.1c2.3,1.3,3.6,3.4,3.9,6
					c0.5,4.6-1.7,8.1-6.3,9.3c-4.1,1.1-8.1,0.6-11.7-2C41.3,56.4,40.3,55.1,39.6,53.6z"/>
				<path class="st1" d="M18.3,54.3c1.7-1,3.3-2,4.9-3c0.4,0.5,0.7,1.1,1,1.6c0.9,1.3,2.1,1.7,3.6,1.5s2.3-1.1,2.4-2.6
					c0-0.6,0.1-1.2,0.1-1.8c0-6.3,0-12.6,0-18.9c0-0.3,0-0.6,0-0.9c2.1,0,4,0,6.1,0c0,0.2,0,0.4,0,0.6c0,6.8,0,13.5,0,20.3
					c0,1.2-0.2,2.4-0.6,3.5c-0.7,2.2-2.2,3.8-4.3,4.6c-3.1,1.1-6.2,1-9.2-0.5C20.4,57.7,19.2,56.2,18.3,54.3z"/>
			</g>
		</g>
	</g>
</g>
</svg>
