<?xml version="1.0" encoding="utf-8"?>
<!-- Generator: Adobe Illustrator 22.0.0, SVG Export Plug-In . SVG Version: 6.00 Build 0)  -->
<svg version="1.1" id="Layer_1" xmlns="http://www.w3.org/2000/svg" xmlns:xlink="http://www.w3.org/1999/xlink" x="0px" y="0px"
	 viewBox="0 0 67 65.5" style="enable-background:new 0 0 67 65.5;" xml:space="preserve">
<style type="text/css">
	.st0{opacity:0.2;}
	.st1{fill:#FFFFFF;}
	.st2{opacity:0.12;}
	.st3{clip-path:url(#SVGID_12_);fill:url(#SVGID_13_);}
	.st4{clip-path:url(#SVGID_15_);fill:url(#SVGID_16_);}
	.st5{clip-path:url(#SVGID_18_);fill:url(#SVGID_19_);}
	.st6{filter:url(#Adobe_OpacityMaskFilter);}
	.st7{clip-path:url(#SVGID_21_);fill:url(#SVGID_23_);}
	.st8{clip-path:url(#SVGID_21_);mask:url(#SVGID_22_);fill:url(#SVGID_24_);}
	.st9{filter:url(#Adobe_OpacityMaskFilter_1_);}
	.st10{clip-path:url(#SVGID_26_);fill:url(#SVGID_28_);}
	.st11{clip-path:url(#SVGID_26_);mask:url(#SVGID_27_);fill:url(#SVGID_29_);}
</style>
<g>
	
		<image style="overflow:visible;opacity:0.5;" width="99" height="101" xlink:href="541F5084.png"  transform="matrix(1 0 0 1 -23.4475 -23.9475)">
	</image>
	<g>
		<g>
			<g>
				<defs>
					<path id="SVGID_1_" d="M40.5,12.5v36.5l-4.5,13L53,57c2.6-0.7,4.4-3.1,4.4-5.9V12.7c0-2.7-1.8-5.1-4.4-5.9L35.9,2L40.5,12.5z"
						/>
				</defs>
				<clipPath id="SVGID_2_">
					<use xlink:href="#SVGID_1_"  style="overflow:visible;"/>
				</clipPath>
			</g>
			<g>
				<defs>
					<path id="SVGID_3_" d="M34.2,1.7C33.1,1.7,32,2,31,2.6L12.6,13.1c-1.9,1.1-3.1,3.1-3.1,5.3v27.3v0c0,1.8,1.4,3.2,3.2,3.2
						c0.5,0,1.1-0.1,1.5-0.4l5-2.7c1.4-0.8,2.3-2.2,2.3-3.8V22.4c0-1.8,1.2-3.5,2.9-4.1l16.1-5.8V8c0-2.8-1.9-5.3-4.6-6.1
						C35.4,1.8,34.8,1.7,34.2,1.7C34.2,1.7,34.2,1.7,34.2,1.7"/>
				</defs>
				<clipPath id="SVGID_4_">
					<use xlink:href="#SVGID_3_"  style="overflow:visible;"/>
				</clipPath>
			</g>
			<g>
				<defs>
					<path id="SVGID_5_" d="M21.4,48.9c-1.8,0-3.2,1.5-3.2,3.2c0,1.1,0.6,2.2,1.6,2.8l11.3,6.4c0.9,0.5,2,0.8,3.1,0.8
						c0.6,0,1.2-0.1,1.7-0.2c2.7-0.8,4.5-3.2,4.5-6v-7H21.4z"/>
				</defs>
				<clipPath id="SVGID_6_">
					<use xlink:href="#SVGID_5_"  style="overflow:visible;"/>
				</clipPath>
			</g>
			<g>
				<defs>
					<path id="SVGID_7_" d="M34.2,1.7C33.1,1.7,32,2,31,2.6L12.6,13.1c-1.9,1.1-3.1,3.1-3.1,5.3v27.3v0c0,1.8,1.4,3.2,3.2,3.2
						c0.5,0,1.1-0.1,1.5-0.4l5-2.7c1.4-0.8,2.3-2.2,2.3-3.8V22.4c0-1.8,1.2-3.5,2.9-4.1l16.1-5.8V8c0-2.8-1.9-5.3-4.6-6.1
						C35.4,1.8,34.8,1.7,34.2,1.7C34.2,1.7,34.2,1.7,34.2,1.7"/>
				</defs>
				<clipPath id="SVGID_8_">
					<use xlink:href="#SVGID_7_"  style="overflow:visible;"/>
				</clipPath>
			</g>
			<g>
				<defs>
					<path id="SVGID_9_" d="M21.4,48.9c-1.8,0-3.2,1.5-3.2,3.2c0,1.1,0.6,2.2,1.6,2.8l11.3,6.4c0.9,0.5,2,0.8,3.1,0.8
						c0.6,0,1.2-0.1,1.7-0.2c2.7-0.8,4.5-3.2,4.5-6v-7H21.4z"/>
				</defs>
				<clipPath id="SVGID_10_">
					<use xlink:href="#SVGID_9_"  style="overflow:visible;"/>
				</clipPath>
			</g>
		</g>
		<g>
			<g>
				<g class="st0">
					<g>
						<path class="st1" d="M21.4,48.9c-1.8,0-3.2,1.5-3.2,3.2c0,1.1,0.6,2.2,1.6,2.8l11.3,6.4c0.9,0.5,2,0.8,3.1,0.8
							c0.6,0,1.2-0.1,1.7-0.2L53,57c2.6-0.7,4.4-3.1,4.4-5.9v-2.3H21.4z"/>
					</g>
				</g>
				<g class="st2">
					<g>
						<path class="st1" d="M21.4,48.9c-1.8,0-3.2,1.5-3.2,3.2c0,1.1,0.6,2.2,1.6,2.8l11.3,6.4c0.9,0.5,2,0.8,3.1,0.8
							c0.6,0,1.2-0.1,1.7-0.2L53,57c2.6-0.7,4.4-3.1,4.4-5.9v-2.3H21.4z"/>
					</g>
				</g>
			</g>
			<g>
				<defs>
					<path id="SVGID_11_" d="M40.5,12.5v36.5l-4.5,13L53,57c2.6-0.7,4.4-3.1,4.4-5.9V12.7c0-2.7-1.8-5.1-4.4-5.9L35.9,2L40.5,12.5z"
						/>
				</defs>
				<clipPath id="SVGID_12_">
					<use xlink:href="#SVGID_11_"  style="overflow:visible;"/>
				</clipPath>
				
					<linearGradient id="SVGID_13_" gradientUnits="userSpaceOnUse" x1="-245.562" y1="232.8087" x2="-245.3195" y2="232.8087" gradientTransform="matrix(0 243.8152 -243.8152 0 56809.0078 59870.3438)">
					<stop  offset="0" style="stop-color:#FFB900"/>
					<stop  offset="0.17" style="stop-color:#EF8400"/>
					<stop  offset="0.31" style="stop-color:#E25C01"/>
					<stop  offset="0.43" style="stop-color:#DB4401"/>
					<stop  offset="0.5" style="stop-color:#D83B01"/>
					<stop  offset="1" style="stop-color:#D83B01"/>
				</linearGradient>
				<rect x="35.9" y="2" class="st3" width="21.6" height="59.9"/>
			</g>
			<g>
				<defs>
					<path id="SVGID_14_" d="M34.2,1.7C33.1,1.7,32,2,31,2.6L12.6,13.1c-1.9,1.1-3.1,3.1-3.1,5.3v27.3v0c0,1.8,1.4,3.2,3.2,3.2
						c0.5,0,1.1-0.1,1.5-0.4l5-2.7c1.4-0.8,2.3-2.2,2.3-3.8V22.4c0-1.8,1.2-3.5,2.9-4.1l16.1-5.8V8c0-2.8-1.9-5.3-4.6-6.1
						C35.4,1.8,34.8,1.7,34.2,1.7C34.2,1.7,34.2,1.7,34.2,1.7"/>
				</defs>
				<clipPath id="SVGID_15_">
					<use xlink:href="#SVGID_14_"  style="overflow:visible;"/>
				</clipPath>
				
					<linearGradient id="SVGID_16_" gradientUnits="userSpaceOnUse" x1="-245.6138" y1="232.39" x2="-245.3713" y2="232.39" gradientTransform="matrix(-129.1126 184.3642 -184.3642 -129.1126 11172.7754 75290.4531)">
					<stop  offset="0" style="stop-color:#800600"/>
					<stop  offset="0.6" style="stop-color:#C72127"/>
					<stop  offset="0.73" style="stop-color:#C13959"/>
					<stop  offset="0.85" style="stop-color:#BC4B81"/>
					<stop  offset="0.94" style="stop-color:#B95799"/>
					<stop  offset="1" style="stop-color:#B85BA2"/>
				</linearGradient>
				<polygon class="st4" points="19.7,-12.8 -12.6,33.4 30.3,63.5 62.7,17.3 				"/>
			</g>
			<g>
				<defs>
					<path id="SVGID_17_" d="M21.4,48.9c-1.8,0-3.2,1.5-3.2,3.2c0,1.1,0.6,2.2,1.6,2.8l11.3,6.4c0.9,0.5,2,0.8,3.1,0.8
						c0.6,0,1.2-0.1,1.7-0.2c2.7-0.8,4.5-3.2,4.5-6v-7H21.4z"/>
				</defs>
				<clipPath id="SVGID_18_">
					<use xlink:href="#SVGID_17_"  style="overflow:visible;"/>
				</clipPath>
				
					<linearGradient id="SVGID_19_" gradientUnits="userSpaceOnUse" x1="-245.7532" y1="232.2159" x2="-245.5107" y2="232.2159" gradientTransform="matrix(168.5545 0 0 168.5545 41442.8203 -39085.4883)">
					<stop  offset="0" style="stop-color:#F32B44"/>
					<stop  offset="0.6" style="stop-color:#A4070A"/>
					<stop  offset="1" style="stop-color:#A4070A"/>
				</linearGradient>
				<rect x="18.3" y="48.9" class="st5" width="22.2" height="13.2"/>
			</g>
			<g>
				<defs>
					<path id="SVGID_20_" d="M34.2,1.7C33.1,1.7,32,2,31,2.6L12.6,13.1c-1.9,1.1-3.1,3.1-3.1,5.3v27.3v0c0,1.8,1.4,3.2,3.2,3.2
						c0.5,0,1.1-0.1,1.5-0.4l5-2.7c1.4-0.8,2.3-2.2,2.3-3.8V22.4c0-1.8,1.2-3.5,2.9-4.1l16.1-5.8V8c0-2.8-1.9-5.3-4.6-6.1
						C35.4,1.8,34.8,1.7,34.2,1.7C34.2,1.7,34.2,1.7,34.2,1.7"/>
				</defs>
				<clipPath id="SVGID_21_">
					<use xlink:href="#SVGID_20_"  style="overflow:visible;"/>
				</clipPath>
				<defs>
					<filter id="Adobe_OpacityMaskFilter" filterUnits="userSpaceOnUse" x="-12.6" y="-12.8" width="75.3" height="76.3">
						<feColorMatrix  type="matrix" values="1 0 0 0 0  0 1 0 0 0  0 0 1 0 0  0 0 0 1 0"/>
					</filter>
				</defs>
				<mask maskUnits="userSpaceOnUse" x="-12.6" y="-12.8" width="75.3" height="76.3" id="SVGID_22_">
					<g class="st6">
						
							<linearGradient id="SVGID_23_" gradientUnits="userSpaceOnUse" x1="-244.1032" y1="231.4672" x2="-243.8606" y2="231.4672" gradientTransform="matrix(-27.3376 39.0302 -39.0302 -27.3376 2401.8767 15857.8525)">
							<stop  offset="0" style="stop-color:#666666"/>
							<stop  offset="1" style="stop-color:#000000"/>
						</linearGradient>
						<polygon class="st7" points="19.7,-12.8 -12.6,33.4 30.3,63.5 62.7,17.3 						"/>
					</g>
				</mask>
				
					<linearGradient id="SVGID_24_" gradientUnits="userSpaceOnUse" x1="-244.1032" y1="231.4672" x2="-243.8606" y2="231.4672" gradientTransform="matrix(-27.3376 39.0302 -39.0302 -27.3376 2401.8772 15857.8525)">
					<stop  offset="0" style="stop-color:#000000"/>
					<stop  offset="1" style="stop-color:#000000"/>
				</linearGradient>
				<polygon class="st8" points="19.7,-12.8 -12.6,33.4 30.3,63.5 62.7,17.3 				"/>
			</g>
			<g>
				<defs>
					<path id="SVGID_25_" d="M21.4,48.9c-1.8,0-3.2,1.5-3.2,3.2c0,1.1,0.6,2.2,1.6,2.8l11.3,6.4c0.9,0.5,2,0.8,3.1,0.8
						c0.6,0,1.2-0.1,1.7-0.2c2.7-0.8,4.5-3.2,4.5-6v-7H21.4z"/>
				</defs>
				<clipPath id="SVGID_26_">
					<use xlink:href="#SVGID_25_"  style="overflow:visible;"/>
				</clipPath>
				<defs>
					<filter id="Adobe_OpacityMaskFilter_1_" filterUnits="userSpaceOnUse" x="17.1" y="47" width="24.5" height="17.1">
						<feColorMatrix  type="matrix" values="1 0 0 0 0  0 1 0 0 0  0 0 1 0 0  0 0 0 1 0"/>
					</filter>
				</defs>
				<mask maskUnits="userSpaceOnUse" x="17.1" y="47" width="24.5" height="17.1" id="SVGID_27_">
					<g class="st9">
						
							<linearGradient id="SVGID_28_" gradientUnits="userSpaceOnUse" x1="-245.3212" y1="233.55" x2="-245.0786" y2="233.55" gradientTransform="matrix(-75.4666 -6.5874 6.5874 -75.4666 -20004.3047 16066.3477)">
							<stop  offset="0" style="stop-color:#666666"/>
							<stop  offset="1" style="stop-color:#000000"/>
						</linearGradient>
						<polygon class="st10" points="41.6,49 18.4,47 17.1,62.1 40.3,64.1 						"/>
					</g>
				</mask>
				
					<linearGradient id="SVGID_29_" gradientUnits="userSpaceOnUse" x1="-245.3212" y1="233.55" x2="-245.0786" y2="233.55" gradientTransform="matrix(-75.4666 -6.5874 6.5874 -75.4666 -20004.3027 16066.3457)">
					<stop  offset="0" style="stop-color:#000000"/>
					<stop  offset="1" style="stop-color:#000000"/>
				</linearGradient>
				<polygon class="st11" points="41.6,49 18.4,47 17.1,62.1 40.3,64.1 				"/>
			</g>
		</g>
		<g>
			<g>
				<defs>
					<path id="SVGID_30_" d="M40.5,12.5v36.5l-4.5,13L53,57c2.6-0.7,4.4-3.1,4.4-5.9V12.7c0-2.7-1.8-5.1-4.4-5.9L35.9,2L40.5,12.5z"
						/>
				</defs>
				<clipPath id="SVGID_31_">
					<use xlink:href="#SVGID_30_"  style="overflow:visible;"/>
				</clipPath>
			</g>
			<g>
				<defs>
					<path id="SVGID_32_" d="M34.2,1.7C33.1,1.7,32,2,31,2.6L12.6,13.1c-1.9,1.1-3.1,3.1-3.1,5.3v27.3v0c0,1.8,1.4,3.2,3.2,3.2
						c0.5,0,1.1-0.1,1.5-0.4l5-2.7c1.4-0.8,2.3-2.2,2.3-3.8V22.4c0-1.8,1.2-3.5,2.9-4.1l16.1-5.8V8c0-2.8-1.9-5.3-4.6-6.1
						C35.4,1.8,34.8,1.7,34.2,1.7C34.2,1.7,34.2,1.7,34.2,1.7"/>
				</defs>
				<clipPath id="SVGID_33_">
					<use xlink:href="#SVGID_32_"  style="overflow:visible;"/>
				</clipPath>
			</g>
			<g>
				<defs>
					<path id="SVGID_34_" d="M21.4,48.9c-1.8,0-3.2,1.5-3.2,3.2c0,1.1,0.6,2.2,1.6,2.8l11.3,6.4c0.9,0.5,2,0.8,3.1,0.8
						c0.6,0,1.2-0.1,1.7-0.2c2.7-0.8,4.5-3.2,4.5-6v-7H21.4z"/>
				</defs>
				<clipPath id="SVGID_35_">
					<use xlink:href="#SVGID_34_"  style="overflow:visible;"/>
				</clipPath>
			</g>
			<g>
				<defs>
					<path id="SVGID_36_" d="M34.2,1.7C33.1,1.7,32,2,31,2.6L12.6,13.1c-1.9,1.1-3.1,3.1-3.1,5.3v27.3v0c0,1.8,1.4,3.2,3.2,3.2
						c0.5,0,1.1-0.1,1.5-0.4l5-2.7c1.4-0.8,2.3-2.2,2.3-3.8V22.4c0-1.8,1.2-3.5,2.9-4.1l16.1-5.8V8c0-2.8-1.9-5.3-4.6-6.1
						C35.4,1.8,34.8,1.7,34.2,1.7C34.2,1.7,34.2,1.7,34.2,1.7"/>
				</defs>
				<clipPath id="SVGID_37_">
					<use xlink:href="#SVGID_36_"  style="overflow:visible;"/>
				</clipPath>
			</g>
			<g>
				<defs>
					<path id="SVGID_38_" d="M21.4,48.9c-1.8,0-3.2,1.5-3.2,3.2c0,1.1,0.6,2.2,1.6,2.8l11.3,6.4c0.9,0.5,2,0.8,3.1,0.8
						c0.6,0,1.2-0.1,1.7-0.2c2.7-0.8,4.5-3.2,4.5-6v-7H21.4z"/>
				</defs>
				<clipPath id="SVGID_39_">
					<use xlink:href="#SVGID_38_"  style="overflow:visible;"/>
				</clipPath>
			</g>
		</g>
	</g>
</g>
</svg>
