<?xml version="1.0" encoding="utf-8"?>
<!-- Generator: Adobe Illustrator 22.0.0, SVG Export Plug-In . SVG Version: 6.00 Build 0)  -->
<svg version="1.1" id="Layer_1" xmlns="http://www.w3.org/2000/svg" xmlns:xlink="http://www.w3.org/1999/xlink" x="0px" y="0px"
	 viewBox="0 0 67 65.5" style="enable-background:new 0 0 67 65.5;" xml:space="preserve">
<style type="text/css">
	.st0{opacity:0.2;}
	.st1{fill:#FFFFFF;}
	.st2{opacity:0.12;}
	.st3{clip-path:url(#SVGID_2_);fill:url(#SVGID_3_);}
	.st4{clip-path:url(#SVGID_5_);fill:url(#SVGID_6_);}
	.st5{clip-path:url(#SVGID_8_);fill:url(#SVGID_9_);}
	.st6{clip-path:url(#SVGID_11_);fill:url(#SVGID_12_);}
	.st7{clip-path:url(#SVGID_14_);fill:url(#SVGID_15_);}
</style>
<g>
	<g>
		
			<image style="overflow:visible;opacity:0.5;enable-background:new    ;" width="413" height="425" xlink:href="EDC81537.png"  transform="matrix(0.2366 0 0 0.2366 -23.0439 -24.3849)">
		</image>
		<g>
			<g>
				<g>
					<g class="st0">
						<g>
							<path class="st1" d="M21.5,48.9c-1.7,0-3.2,1.5-3.2,3.2c0,1.1,0.6,2.2,1.6,2.8l11.3,6.4c0.9,0.5,2,0.8,3.1,0.8
								c0.6,0,1.1-0.1,1.7-0.2L53,57c2.6-0.7,4.4-3.1,4.4-5.8V49L21.5,48.9L21.5,48.9z"/>
						</g>
					</g>
					<g class="st2">
						<g>
							<path class="st1" d="M21.5,48.9c-1.7,0-3.2,1.5-3.2,3.2c0,1.1,0.6,2.2,1.6,2.8l11.3,6.4c0.9,0.5,2,0.8,3.1,0.8
								c0.6,0,1.1-0.1,1.7-0.2L53,57c2.6-0.7,4.4-3.1,4.4-5.8V49L21.5,48.9L21.5,48.9z"/>
						</g>
					</g>
				</g>
				<g>
					<g>
						<defs>
							<path id="SVGID_1_" d="M40.4,12.6v36.3l-4.5,12.9L53,57c2.6-0.7,4.4-3.1,4.4-5.8V12.8c0-2.7-1.8-5.1-4.4-5.9L35.9,2.1
								L40.4,12.6z"/>
						</defs>
						<clipPath id="SVGID_2_">
							<use xlink:href="#SVGID_1_"  style="overflow:visible;"/>
						</clipPath>
						
							<linearGradient id="SVGID_3_" gradientUnits="userSpaceOnUse" x1="-414.883" y1="151.9769" x2="-414.6413" y2="151.9769" gradientTransform="matrix(0 243.8152 243.8152 0 -37007.6289 101153.5234)">
							<stop  offset="0" style="stop-color:#A9A5A9"/>
							<stop  offset="0.17" style="stop-color:#5F5E63"/>
							<stop  offset="0.31" style="stop-color:#989499"/>
							<stop  offset="0.43" style="stop-color:#89888C"/>
							<stop  offset="0.5" style="stop-color:#848387"/>
							<stop  offset="1" style="stop-color:#848387"/>
						</linearGradient>
						<rect x="35.9" y="2.1" class="st3" width="21.5" height="59.7"/>
					</g>
				</g>
				<g>
					<g>
						<defs>
							<path id="SVGID_4_" d="M34.2,1.9c-1.1,0-2.2,0.3-3.1,0.8L12.7,13.2c-1.9,1.1-3.1,3.1-3.1,5.3v27.2l0,0c0,1.8,1.4,3.2,3.2,3.2
								c0.5,0,1.1-0.1,1.5-0.4l5-2.7c1.4-0.8,2.3-2.2,2.2-3.8V22.5c0-1.8,1.1-3.5,2.9-4.1l16.1-5.8V8.2c0-2.8-1.9-5.3-4.6-6
								C35.3,2,34.8,1.9,34.2,1.9L34.2,1.9"/>
						</defs>
						<clipPath id="SVGID_5_">
							<use xlink:href="#SVGID_4_"  style="overflow:visible;"/>
						</clipPath>
						
							<linearGradient id="SVGID_6_" gradientUnits="userSpaceOnUse" x1="-415.52" y1="153.1253" x2="-415.2747" y2="153.1253" gradientTransform="matrix(-129.1126 184.3642 184.3642 129.1126 -81839.2891 56839.5273)">
							<stop  offset="0" style="stop-color:#A9A5A9"/>
							<stop  offset="0.6" style="stop-color:#747377"/>
							<stop  offset="0.73" style="stop-color:#848387"/>
							<stop  offset="0.85" style="stop-color:#938E94"/>
							<stop  offset="0.94" style="stop-color:#989499"/>
							<stop  offset="1" style="stop-color:#9C979D"/>
						</linearGradient>
						<polygon class="st4" points="19.7,-13.6 -12.5,33.4 30.3,63.4 62.5,17.4 						"/>
					</g>
				</g>
				<g>
					<g>
						<defs>
							<path id="SVGID_7_" d="M21.5,48.9c-1.7,0-3.2,1.5-3.2,3.2c0,1.1,0.6,2.2,1.6,2.8l11.3,6.4c0.9,0.5,2,0.8,3.1,0.8
								c0.6,0,1.1-0.1,1.7-0.2c2.7-0.8,4.5-3.2,4.5-6v-7H21.5z"/>
						</defs>
						<clipPath id="SVGID_8_">
							<use xlink:href="#SVGID_7_"  style="overflow:visible;"/>
						</clipPath>
						
							<linearGradient id="SVGID_9_" gradientUnits="userSpaceOnUse" x1="-415.3648" y1="149.9866" x2="-415.1231" y2="149.9866" gradientTransform="matrix(168.5545 0 0 -168.5545 70031.6484 25336.418)">
							<stop  offset="0" style="stop-color:#89888C"/>
							<stop  offset="0.6" style="stop-color:#5D5C61"/>
							<stop  offset="1" style="stop-color:#5D5C61"/>
						</linearGradient>
						<rect x="18.3" y="48.9" class="st5" width="22.2" height="13.2"/>
					</g>
				</g>
				<g>
					<g>
						<defs>
							<path id="SVGID_10_" d="M34.2,1.9c-1.1,0-2.2,0.3-3.1,0.8L12.7,13.2c-1.9,1.1-3.1,3.1-3.1,5.3v27.2l0,0
								c0,1.8,1.4,3.2,3.2,3.2c0.5,0,1.1-0.1,1.5-0.4l5-2.7c1.4-0.8,2.3-2.2,2.2-3.8V22.5c0-1.8,1.1-3.5,2.9-4.1l16.1-5.8V8.2
								c0-2.8-1.9-5.3-4.6-6C35.3,2,34.8,1.9,34.2,1.9L34.2,1.9"/>
						</defs>
						<clipPath id="SVGID_11_">
							<use xlink:href="#SVGID_10_"  style="overflow:visible;"/>
						</clipPath>
						
							<linearGradient id="SVGID_12_" gradientUnits="userSpaceOnUse" x1="-411.3372" y1="159.37" x2="-411.092" y2="159.37" gradientTransform="matrix(-27.3376 39.0302 39.0302 27.3376 -17424.1543 11699.8174)">
							<stop  offset="0" style="stop-color:#3B3838"/>
							<stop  offset="1" style="stop-color:#3B3838"/>
						</linearGradient>
						<polygon class="st6" points="19.8,-13.6 -12.5,33.4 30.3,63.4 62.5,17.4 						"/>
					</g>
				</g>
				<g>
					<g>
						<defs>
							<path id="SVGID_13_" d="M21.5,48.9c-1.7,0-3.2,1.5-3.2,3.2c0,1.1,0.6,2.2,1.6,2.8l11.3,6.4c0.9,0.5,2,0.8,3.1,0.8
								c0.6,0,1.1-0.1,1.7-0.2c2.7-0.8,4.5-3.2,4.5-6v-7H21.5z"/>
						</defs>
						<clipPath id="SVGID_14_">
							<use xlink:href="#SVGID_13_"  style="overflow:visible;"/>
						</clipPath>
						
							<linearGradient id="SVGID_15_" gradientUnits="userSpaceOnUse" x1="-418.5526" y1="154.5154" x2="-418.3109" y2="154.5154" gradientTransform="matrix(-75.4666 -6.5874 -6.5874 75.4666 -30521.2031 -14360.8271)">
							<stop  offset="0" style="stop-color:#3B3838"/>
							<stop  offset="1" style="stop-color:#3B3838"/>
						</linearGradient>
						<polygon class="st7" points="41.6,49 18.5,47 17.2,62 40.3,64 						"/>
					</g>
				</g>
			</g>
		</g>
	</g>
</g>
</svg>
