<?xml version="1.0" encoding="utf-8"?>
<!-- Generator: Adobe Illustrator 22.0.0, SVG Export Plug-In . SVG Version: 6.00 Build 0)  -->
<svg version="1.1" id="Layer_1" xmlns="http://www.w3.org/2000/svg" xmlns:xlink="http://www.w3.org/1999/xlink" x="0px" y="0px"
	 viewBox="0 0 67 65.5" style="enable-background:new 0 0 67 65.5;" xml:space="preserve">
<style type="text/css">
	.st0{opacity:0.95;fill:url(#SVGID_1_);}
	.st1{fill:url(#SVGID_2_);}
	.st2{fill:url(#SVGID_3_);}
	.st3{fill:url(#SVGID_4_);}
</style>
<g>
	<g>
		<linearGradient id="SVGID_1_" gradientUnits="userSpaceOnUse" x1="5.4675" y1="4.1876" x2="61.4619" y2="60.182">
			<stop  offset="0" style="stop-color:#52315C"/>
			<stop  offset="1" style="stop-color:#352941"/>
		</linearGradient>
		<rect x="5" y="4.6" class="st0" width="56.8" height="55.2"/>
		<g>
			
				<image style="overflow:visible;opacity:0.4;" width="68" height="66" xlink:href="B2E901C0.png"  transform="matrix(1 0 0 1 -0.5202 -2.020620e-02)">
			</image>
			<g>
				<g>
					<linearGradient id="SVGID_2_" gradientUnits="userSpaceOnUse" x1="2.5999" y1="1.9" x2="64.2001" y2="62.0826">
						<stop  offset="0" style="stop-color:#DC87FC"/>
						<stop  offset="1" style="stop-color:#D13FFA"/>
					</linearGradient>
					<path class="st1" d="M2.6,1.9v60.2h61.6V1.9H2.6z M59.3,57.3H7.6V6.8h51.7V57.3z"/>
				</g>
			</g>
		</g>
		<linearGradient id="SVGID_3_" gradientUnits="userSpaceOnUse" x1="18.8367" y1="31.5799" x2="50.0251" y2="31.5799">
			<stop  offset="0" style="stop-color:#DC87FC"/>
			<stop  offset="1" style="stop-color:#D13FFA"/>
		</linearGradient>
		<path class="st2" d="M18.8,19c1.7-0.3,4.1-0.5,7.3-0.5c3.5,0,6,0.7,7.7,2.1c1.5,1.3,2.5,3.3,2.5,5.8c0,2.5-0.8,4.5-2.2,5.9
			c-1.9,1.9-4.9,2.8-8.2,2.8c-0.9,0-1.7,0-2.3-0.2v9.8h-4.7V19z M23.5,31.1c0.6,0.2,1.4,0.2,2.3,0.2c3.6,0,5.7-1.7,5.7-4.8
			c0-2.9-2-4.4-5.3-4.4c-1.3,0-2.2,0.1-2.7,0.2V31.1z"/>
		<linearGradient id="SVGID_4_" gradientUnits="userSpaceOnUse" x1="18.8392" y1="35.0728" x2="50.0245" y2="35.0728">
			<stop  offset="0" style="stop-color:#DC87FC"/>
			<stop  offset="1" style="stop-color:#D13FFA"/>
		</linearGradient>
		<path class="st3" d="M39.7,31.9c0-2.5,0-4.4-0.2-6.1h4.1l0.2,3.6H44c0.9-2.7,3.1-4,5.1-4c0.5,0,0.7,0,1.1,0.1v4.5
			c-0.4-0.1-0.8-0.2-1.4-0.2c-2.3,0-3.8,1.5-4.2,3.6c-0.1,0.4-0.2,0.9-0.2,1.5v9.7h-4.7V31.9z"/>
	</g>
</g>
</svg>
