<?xml version="1.0" encoding="utf-8"?>
<!-- Generator: Adobe Illustrator 22.0.0, SVG Export Plug-In . SVG Version: 6.00 Build 0)  -->
<svg version="1.1" id="Layer_1" xmlns="http://www.w3.org/2000/svg" xmlns:xlink="http://www.w3.org/1999/xlink" x="0px" y="0px"
	 viewBox="0 0 67 65.5" style="enable-background:new 0 0 67 65.5;" xml:space="preserve">
<style type="text/css">
	.st0{fill:none;}
	.st1{opacity:0.95;fill:url(#SVGID_1_);}
	.st2{fill:url(#SVGID_2_);}
	.st3{opacity:0.1;}
	.st4{fill:url(#SVGID_3_);}
	.st5{fill:url(#SVGID_4_);}
</style>
<g>
	<g>
		<linearGradient id="SVGID_1_" gradientUnits="userSpaceOnUse" x1="5.4682" y1="4.1881" x2="61.4792" y2="60.199">
			<stop  offset="0" style="stop-color:#32297C"/>
			<stop  offset="1" style="stop-color:#282761"/>
		</linearGradient>
		<rect x="5" y="4.6" class="st1" width="56.8" height="55.2"/>
		<g>
			
				<image style="overflow:visible;opacity:0.4;" width="68" height="66" xlink:href="5AE5A24B.png"  transform="matrix(1 0 0 1 -0.5209 -2.092997e-02)">
			</image>
			<g>
				<g>
					<linearGradient id="SVGID_2_" gradientUnits="userSpaceOnUse" x1="2.6" y1="1.9" x2="64.2182" y2="62.1001">
						<stop  offset="0" style="stop-color:#95C8FD"/>
						<stop  offset="1" style="stop-color:#73B4F4"/>
					</linearGradient>
					<path class="st2" d="M2.6,1.9v60.2h61.6V1.9H2.6z M59.3,57.3H7.6V6.8h51.7V57.3z"/>
				</g>
			</g>
		</g>
		<g>
			<g class="st3">
				<path d="M18.8,20c1.7-0.3,4-0.5,7.1-0.5c3.4,0,5.9,0.7,7.5,2.1c1.5,1.2,2.5,3.3,2.5,5.6c0,2.4-0.8,4.4-2.2,5.8
					c-1.9,1.9-4.8,2.7-8,2.7c-0.9,0-1.7,0-2.3-0.2v9.6h-4.6V20z M23.4,31.8C24,32,24.7,32,25.7,32c3.5,0,5.6-1.7,5.6-4.7
					c0-2.8-2-4.3-5.2-4.3c-1.3,0-2.2,0.1-2.7,0.2V31.8z"/>
			</g>
			<g>
				<linearGradient id="SVGID_3_" gradientUnits="userSpaceOnUse" x1="18.6334" y1="31.4291" x2="49.3138" y2="31.4291">
					<stop  offset="0" style="stop-color:#95C8FD"/>
					<stop  offset="1" style="stop-color:#73B4F4"/>
				</linearGradient>
				<path class="st4" d="M18.8,19.1c1.7-0.3,4-0.5,7.1-0.5c3.4,0,5.9,0.7,7.5,2.1c1.5,1.2,2.5,3.3,2.5,5.6c0,2.4-0.8,4.4-2.2,5.8
					c-1.9,1.9-4.8,2.7-8,2.7c-0.9,0-1.7,0-2.3-0.2v9.6h-4.6V19.1z M23.4,31c0.6,0.2,1.3,0.2,2.3,0.2c3.5,0,5.6-1.7,5.6-4.7
					c0-2.8-2-4.3-5.2-4.3c-1.3,0-2.2,0.1-2.7,0.2V31z"/>
			</g>
		</g>
		<g>
			<g class="st3">
				<path d="M37.4,40.8c1.1,0.6,3.1,1.3,4.7,1.3c2,0,2.9-0.8,2.9-2c0-1.2-0.8-1.9-3-2.7c-3.6-1.2-5.1-3.2-5.1-5.4
					c0-3.2,2.7-5.8,7-5.8c2,0,3.8,0.5,4.9,1.1l-0.9,3.3c-0.8-0.5-2.3-1.1-3.9-1.1c-1.7,0-2.6,0.8-2.6,1.9c0,1.2,0.9,1.7,3.2,2.6
					c3.3,1.2,4.9,2.9,4.9,5.6c0,3.3-2.6,5.8-7.5,5.8c-2.2,0-4.2-0.6-5.6-1.3L37.4,40.8z"/>
			</g>
			<g>
				<linearGradient id="SVGID_4_" gradientUnits="userSpaceOnUse" x1="18.6345" y1="35.0573" x2="49.3141" y2="35.0573">
					<stop  offset="0" style="stop-color:#95C8FD"/>
					<stop  offset="1" style="stop-color:#73B4F4"/>
				</linearGradient>
				<path class="st5" d="M37.4,40c1.1,0.6,3.1,1.3,4.7,1.3c2,0,2.9-0.8,2.9-2c0-1.2-0.8-1.9-3-2.7c-3.6-1.2-5.1-3.2-5.1-5.4
					c0-3.2,2.7-5.8,7-5.8c2,0,3.8,0.5,4.9,1.1l-0.9,3.3c-0.8-0.5-2.3-1.1-3.9-1.1c-1.7,0-2.6,0.8-2.6,1.9c0,1.2,0.9,1.7,3.2,2.6
					c3.3,1.2,4.9,2.9,4.9,5.6c0,3.3-2.6,5.8-7.5,5.8c-2.2,0-4.2-0.6-5.6-1.3L37.4,40z"/>
			</g>
		</g>
	</g>
</g>
</svg>
