<?xml version="1.0" encoding="utf-8"?>
<!-- Generator: Adobe Illustrator 22.0.0, SVG Export Plug-In . SVG Version: 6.00 Build 0)  -->
<svg version="1.1" id="Layer_1" xmlns="http://www.w3.org/2000/svg" xmlns:xlink="http://www.w3.org/1999/xlink" x="0px" y="0px"
	 viewBox="0 0 67 65.5" style="enable-background:new 0 0 67 65.5;" xml:space="preserve">
<style type="text/css">
	.st0{fill:#5D5C61;}
	.st1{fill:#3B3838;}
	.st2{opacity:0.1;}
	.st3{fill:#FFFFFF;}
	.st4{fill:none;}
</style>
<g>
	<rect x="5" y="4.6" class="st0" width="56.8" height="55.2"/>
	<g>
		<g>
			<g>
				<path class="st1" d="M2.6,1.9v60.2h61.6V1.9H2.6z M59.3,57.3H7.6V6.8h51.7V57.3z"/>
			</g>
		</g>
	</g>
	<g>
		<g class="st2">
			<path d="M18.8,20c1.7-0.3,4-0.5,7.1-0.5c3.4,0,5.9,0.7,7.5,2.1c1.5,1.2,2.5,3.3,2.5,5.6c0,2.4-0.8,4.4-2.2,5.8
				c-1.9,1.9-4.8,2.7-8,2.7c-0.9,0-1.7,0-2.3-0.2v9.6h-4.6C18.8,45.1,18.8,20,18.8,20z M23.4,31.8C24,32,24.7,32,25.7,32
				c3.5,0,5.6-1.7,5.6-4.7c0-2.8-2-4.3-5.2-4.3c-1.3,0-2.2,0.1-2.7,0.2C23.4,23.2,23.4,31.8,23.4,31.8z"/>
		</g>
		<g>
			<path class="st3" d="M18.8,19.1c1.7-0.3,4-0.5,7.1-0.5c3.4,0,5.9,0.7,7.5,2.1c1.5,1.2,2.5,3.3,2.5,5.6c0,2.4-0.8,4.4-2.2,5.8
				c-1.9,1.9-4.8,2.7-8,2.7c-0.9,0-1.7,0-2.3-0.2v9.6h-4.6C18.8,44.2,18.8,19.1,18.8,19.1z M23.4,31c0.6,0.2,1.3,0.2,2.3,0.2
				c3.5,0,5.6-1.7,5.6-4.7c0-2.8-2-4.3-5.2-4.3c-1.3,0-2.2,0.1-2.7,0.2C23.4,22.4,23.4,31,23.4,31z"/>
		</g>
	</g>
	<g>
		<g class="st2">
			<path d="M37.3,40.8c1.1,0.6,3.1,1.3,4.7,1.3c2,0,2.9-0.8,2.9-2s-0.8-1.9-3-2.7c-3.6-1.2-5.1-3.2-5.1-5.4c0-3.2,2.7-5.8,7-5.8
				c2,0,3.8,0.5,4.9,1.1l-0.9,3.3c-0.8-0.5-2.3-1.1-3.9-1.1c-1.7,0-2.6,0.8-2.6,1.9c0,1.2,0.9,1.7,3.2,2.6c3.3,1.2,4.9,2.9,4.9,5.6
				c0,3.3-2.6,5.8-7.5,5.8c-2.2,0-4.2-0.6-5.6-1.3L37.3,40.8z"/>
		</g>
		<g>
			<path class="st3" d="M37.3,40c1.1,0.6,3.1,1.3,4.7,1.3c2,0,2.9-0.8,2.9-2s-0.8-1.9-3-2.7c-3.6-1.2-5.1-3.2-5.1-5.4
				c0-3.2,2.7-5.8,7-5.8c2,0,3.8,0.5,4.9,1.1l-0.9,3.3c-0.8-0.5-2.3-1.1-3.9-1.1c-1.7,0-2.6,0.8-2.6,1.9c0,1.2,0.9,1.7,3.2,2.6
				c3.3,1.2,4.9,2.9,4.9,5.6c0,3.3-2.6,5.8-7.5,5.8c-2.2,0-4.2-0.6-5.6-1.3L37.3,40z"/>
		</g>
	</g>
</g>
<line class="st4" x1="142.5" y1="47.4" x2="142.5" y2="54.8"/>
</svg>
