<?xml version="1.0" encoding="utf-8"?>
<!-- Generator: Adobe Illustrator 22.0.0, SVG Export Plug-In . SVG Version: 6.00 Build 0)  -->
<svg version="1.1" id="Layer_1" xmlns="http://www.w3.org/2000/svg" xmlns:xlink="http://www.w3.org/1999/xlink" x="0px" y="0px"
	 viewBox="0 0 67 65.5" style="enable-background:new 0 0 67 65.5;" xml:space="preserve">
<style type="text/css">
	.st0{fill:url(#path1948_1_);}
	.st1{fill:url(#path1950_1_);}
</style>
<g>
	
		<linearGradient id="path1948_1_" gradientUnits="userSpaceOnUse" x1="275.0313" y1="-164.697" x2="336.5948" y2="-217.6641" gradientTransform="matrix(0.5625 0 0 -0.568 -154.0862 -90.7426)">
		<stop  offset="0" style="stop-color:#5A9FD4"/>
		<stop  offset="1" style="stop-color:#306998"/>
	</linearGradient>
	<path id="path1948" class="st0" d="M33.2,1c-2.6,0-5.1,0.2-7.2,0.6c-6.4,1.1-7.6,3.5-7.6,7.9v5.8h15.1v1.9H18.4h-5.7
		c-4.4,0-8.3,2.6-9.5,7.7c-1.4,5.8-1.5,9.4,0,15.4c1.1,4.5,3.6,7.7,8,7.7h5.2V41c0-5,4.3-9.4,9.5-9.4h15.1c4.2,0,7.6-3.5,7.6-7.7
		V9.5c0-4.1-3.5-7.2-7.6-7.9C38.5,1.2,35.8,1,33.2,1z M25,5.6c1.6,0,2.8,1.3,2.8,2.9c0,1.6-1.3,2.9-2.8,2.9c-1.6,0-2.8-1.3-2.8-2.9
		C22.1,6.9,23.4,5.6,25,5.6z"/>
	
		<linearGradient id="path1950_1_" gradientUnits="userSpaceOnUse" x1="360.3941" y1="-249.7167" x2="338.4109" y2="-218.6145" gradientTransform="matrix(0.5625 0 0 -0.568 -154.0862 -90.7426)">
		<stop  offset="0" style="stop-color:#FFD43B"/>
		<stop  offset="1" style="stop-color:#FFE873"/>
	</linearGradient>
	<path id="path1950" class="st1" d="M50.5,17.2v6.7c0,5.2-4.4,9.6-9.5,9.6H25.9c-4.1,0-7.6,3.5-7.6,7.7v14.4c0,4.1,3.6,6.5,7.6,7.7
		c4.8,1.4,9.4,1.7,15.1,0c3.8-1.1,7.6-3.3,7.6-7.7v-5.8H33.5v-1.9h15.1h7.6c4.4,0,6-3.1,7.6-7.7c1.6-4.7,1.5-9.3,0-15.4
		c-1.1-4.4-3.2-7.7-7.6-7.7H50.5z M42,53.7c1.6,0,2.8,1.3,2.8,2.9c0,1.6-1.3,2.9-2.8,2.9c-1.6,0-2.8-1.3-2.8-2.9
		C39.2,55,40.4,53.7,42,53.7z"/>
</g>
</svg>
