<?xml version="1.0" encoding="utf-8"?>
<!-- Generator: Adobe Illustrator 22.0.0, SVG Export Plug-In . SVG Version: 6.00 Build 0)  -->
<svg version="1.1" id="Layer_1" xmlns="http://www.w3.org/2000/svg" xmlns:xlink="http://www.w3.org/1999/xlink" x="0px" y="0px"
	 viewBox="0 0 67 65.5" style="enable-background:new 0 0 67 65.5;" xml:space="preserve">
<style type="text/css">
	.st0{fill:url(#path1948_2_);}
	.st1{fill:url(#path1950_2_);}
</style>
<g>
	
		<linearGradient id="path1948_2_" gradientUnits="userSpaceOnUse" x1="407.5729" y1="1107.8956" x2="469.1561" y2="1160.8798" gradientTransform="matrix(0.5625 0 0 0.568 -228.7342 -626.4396)">
		<stop  offset="0" style="stop-color:#938E94"/>
		<stop  offset="1" style="stop-color:#A9A5A9"/>
	</linearGradient>
	<path id="path1948_1_" class="st0" d="M33.1,1c-2.6,0-5.1,0.2-7.2,0.6c-6.4,1.1-7.6,3.5-7.6,7.9v5.8h15.1v1.9H18.3h-5.7
		c-4.4,0-8.3,2.6-9.5,7.7c-1.4,5.8-1.5,9.4,0,15.4c1.1,4.5,3.6,7.7,8,7.7h5.2v-7c0-5,4.3-9.4,9.5-9.4H41c4.2,0,7.6-3.5,7.6-7.7V9.5
		c0-4.1-3.5-7.2-7.6-7.9C38.4,1.2,35.7,1,33.1,1z M24.9,5.7c1.6,0,2.8,1.3,2.8,2.9s-1.3,2.9-2.8,2.9c-1.6,0-2.8-1.3-2.8-2.9
		S23.3,5.7,24.9,5.7z"/>
	
		<linearGradient id="path1950_2_" gradientUnits="userSpaceOnUse" x1="493.0084" y1="1192.8955" x2="471.0182" y2="1161.7832" gradientTransform="matrix(0.5625 0 0 0.568 -228.7342 -626.4396)">
		<stop  offset="0" style="stop-color:#5D5C61"/>
		<stop  offset="1" style="stop-color:#3B3838"/>
	</linearGradient>
	<path id="path1950_1_" class="st1" d="M50.5,17.2v6.7c0,5.2-4.4,9.6-9.5,9.6H25.9c-4.1,0-7.6,3.5-7.6,7.7v14.4
		c0,4.1,3.6,6.5,7.6,7.7c4.8,1.4,9.4,1.7,15.1,0c3.8-1.1,7.6-3.3,7.6-7.7v-5.8H33.4V48h15.1h7.6c4.4,0,6-3.1,7.6-7.7
		c1.6-4.7,1.5-9.3,0-15.4c-1.1-4.4-3.2-7.7-7.6-7.7H50.5z M41.9,53.7c1.6,0,2.8,1.3,2.8,2.9c0,1.6-1.3,2.9-2.8,2.9
		c-1.6,0-2.8-1.3-2.8-2.9C39.1,55,40.4,53.7,41.9,53.7z"/>
</g>
</svg>
