<?xml version="1.0" encoding="utf-8"?>
<!-- Generator: Adobe Illustrator 22.0.0, SVG Export Plug-In . SVG Version: 6.00 Build 0)  -->
<svg version="1.1" id="Layer_1" xmlns="http://www.w3.org/2000/svg" xmlns:xlink="http://www.w3.org/1999/xlink" x="0px" y="0px"
	 viewBox="0 0 149.2 152.2" style="enable-background:new 0 0 149.2 152.2;" xml:space="preserve">
<style type="text/css">
	.st0{fill:#FFFFFF;}
</style>
<path class="st0" d="M140.6,56l-20,20.8c-9.5,9.9-24.3,12-35.9,5.7l16.3-16.9c1.8-0.4,3.6-1.3,5-2.9l20-20.8
	c4-4.1,3.8-10.4-0.3-14.4l-4.9-4.8c-4.1-4-10.4-3.8-14.4,0.3l-19.8,21c-1.2,1.2-2,2.9-2.5,4.5L67.3,65.9c-6.3-11.4-4.9-26,4.6-35.9
	L92.1,9.2c11.5-12,30.9-12.3,42.9-0.8l4.9,4.8C151.9,24.7,152.3,43.9,140.6,56z M58,107.4l47.8-49.7c3.8-3.9,3.7-10.2-0.3-14.2
	c-3.9-3.8-10.2-3.7-14.2,0.3L43.6,93.7c-3.8,3.9-3.7,10.2,0.3,14.2C47.7,111.6,54,111.5,58,107.4z M81.5,85.9l-16.3,16.9
	c-0.4,1.8-1.1,3.7-2.7,5.1l-20,21c-4,4.1-10.2,4.2-14.4,0.3l-4.9-4.8c-4.1-4-4.2-10.2-0.3-14.4l20-20.8c1.2-1.2,2.8-2.1,4.4-2.7
	l16.7-17.3c-11.6-5.8-26.2-4-35.7,5.9l-19.8,21c-11.5,12-11.1,31.4,0.8,42.9l4.9,4.8c12,11.5,31.4,11.1,42.9-0.8l20-21
	C86.6,112.1,87.9,97.3,81.5,85.9z"/>
</svg>
