<?xml version="1.0" encoding="utf-8"?>
<!-- Generator: Adobe Illustrator 22.0.0, SVG Export Plug-In . SVG Version: 6.00 Build 0)  -->
<svg version="1.1" id="Layer_1" xmlns="http://www.w3.org/2000/svg" xmlns:xlink="http://www.w3.org/1999/xlink" x="0px" y="0px"
	 viewBox="0 0 883.2 34.5" style="enable-background:new 0 0 883.2 34.5;" xml:space="preserve">
<style type="text/css">
	.st0{fill:none;stroke:#938E94;stroke-width:0.5853;stroke-miterlimit:10;}
	.st1{fill:#938E94;}
	.st2{fill:none;}
	.st3{fill:#FFFFFF;}
	.st4{opacity:0.6;}
	.st5{fill:#12172B;}
	.st6{opacity:0.6;fill:#12172B;enable-background:new    ;}
	.st7{fill:#938E94;stroke:#938E94;stroke-width:0.5;stroke-miterlimit:10;}
</style>
<g>
	<rect x="509" y="0.3" class="st0" width="33.9" height="33.9"/>
	<rect x="542.9" y="0.3" class="st0" width="33.9" height="33.9"/>
	<rect x="576.9" y="0.3" class="st0" width="33.9" height="33.9"/>
	<rect x="610.8" y="0.3" class="st0" width="33.9" height="33.9"/>
	<rect x="644.7" y="0.3" class="st0" width="33.9" height="33.9"/>
	<rect x="678.7" y="0.3" class="st0" width="33.9" height="33.9"/>
	<rect x="712.6" y="0.3" class="st0" width="33.9" height="33.9"/>
	<rect x="746.6" y="0.3" class="st0" width="33.9" height="33.9"/>
	<rect x="780.5" y="0.3" class="st0" width="33.9" height="33.9"/>
	<rect x="814.5" y="0.3" class="st0" width="33.9" height="33.9"/>
	<rect x="848.5" y="0.3" class="st0" width="33.9" height="33.9"/>
	<g>
		<path class="st1" d="M531.6,17.4c0,1.1-0.4,2.1-1.2,3s-1.8,1.4-2.8,1.4c-0.7,0-1.1-0.3-1.3-1c-0.3,0.3-0.6,0.5-1,0.7
			c-0.4,0.2-0.7,0.3-1.1,0.3c-0.7,0-1.2-0.2-1.6-0.7c-0.4-0.5-0.6-1-0.6-1.7c0-0.5,0.1-1,0.3-1.5c0.2-0.5,0.4-1,0.8-1.4
			c0.7-0.9,1.6-1.4,2.6-1.4c0.8,0,1.4,0.4,1.7,1.1l0.3-0.9h1l-1.5,4.5c-0.1,0.4-0.2,0.6-0.2,0.8c0,0.1,0.1,0.3,0.2,0.5
			c0.1,0.1,0.3,0.2,0.5,0.2c0.9,0,1.6-0.4,2.2-1.3c0.6-0.8,0.9-1.6,0.9-2.5c0-1.4-0.5-2.5-1.5-3.4s-2.2-1.3-3.6-1.3
			c-1.6,0-2.9,0.5-4,1.6c-1.1,1.1-1.7,2.4-1.7,4s0.5,3,1.6,4.1c0.5,0.6,1.1,1,1.8,1.3c0.6,0.3,1.4,0.4,2.2,0.4c0.5,0,1-0.1,1.5-0.2
			s0.9-0.3,1.4-0.5c0.8-0.5,1.5-1.1,2.1-2h0.8c-0.5,1.1-1.2,1.9-2.3,2.5c-1,0.6-2.2,0.9-3.4,0.9c-1.8,0-3.2-0.7-4.4-2
			c-0.6-0.7-1-1.4-1.3-2.1c-0.3-0.8-0.4-1.6-0.4-2.5c0-1.7,0.6-3.1,1.9-4.4s2.8-1.8,4.5-1.8c1.6,0,2.9,0.5,4,1.5
			C531.1,14.6,531.6,15.9,531.6,17.4z M527.2,16.9c0-0.2,0-0.4-0.1-0.5c0-0.1-0.1-0.3-0.2-0.4c-0.2-0.3-0.5-0.4-0.8-0.4
			c-0.8,0-1.5,0.5-2,1.5c-0.2,0.4-0.4,0.8-0.5,1.3c-0.1,0.5-0.2,0.9-0.2,1.3s0.1,0.8,0.2,1.1c0.2,0.3,0.5,0.5,0.9,0.5
			c0.5,0,1-0.2,1.4-0.7c0.2-0.3,0.5-0.8,0.8-1.4l0.2-1.2C527.1,17.6,527.2,17.3,527.2,16.9z"/>
	</g>
	<g>
		<path class="st1" d="M564.1,16.4h-1.3v7.8c0,0.6-0.1,1.2-0.3,1.6c-0.2,0.4-0.5,0.8-0.8,1.1c-0.7,0.6-1.7,0.9-3,0.9s-2.4-0.3-3-0.8
			c-0.5-0.4-0.8-1-0.8-1.7h1.8c0.1,0.5,0.3,0.8,0.7,1c0.1,0.1,0.3,0.2,0.6,0.2c0.1,0,0.2,0,0.4,0.1c0.1,0,0.3,0,0.4,0
			c0.7,0,1.2-0.2,1.7-0.5s0.7-0.8,0.7-1.5v-2c-0.2,0.6-0.5,1-1.1,1.3c-0.5,0.3-1.1,0.5-1.8,0.5c-1.3,0-2.3-0.5-3-1.5
			c-0.6-0.9-0.9-2-0.9-3.4c0-1.3,0.3-2.3,0.9-3.2c0.7-1,1.6-1.4,2.9-1.4c0.4,0,0.7,0,1,0.1c0.2,0,0.3,0.1,0.4,0.2
			c0.1,0.1,0.3,0.1,0.4,0.3c0.5,0.3,0.9,0.9,1.1,1.5v-1.9h2.9L564.1,16.4L564.1,16.4z M561.1,19.8c0-0.5,0-0.9-0.1-1.3
			c-0.1-0.4-0.2-0.7-0.4-1c-0.4-0.8-1.1-1.2-2-1.2c-0.8,0-1.4,0.4-1.9,1.2c-0.4,0.7-0.5,1.4-0.5,2.3c0,0.5,0,0.9,0.1,1.3
			c0,0.2,0.1,0.4,0.1,0.6c0.1,0.2,0.1,0.3,0.2,0.5c0.4,0.9,1.1,1.3,1.9,1.3c0.2,0,0.4,0,0.5,0c0.1,0,0.2-0.1,0.3-0.1
			s0.2-0.1,0.3-0.1c0.3-0.2,0.6-0.4,0.8-0.8c0.1-0.1,0.1-0.2,0.2-0.3c0.1-0.1,0.1-0.2,0.1-0.2l0.2-0.6l0.1-0.7L561.1,19.8z"/>
	</g>
	<g>
		<path class="st1" d="M601.8,24.7h-4.2v-1.2h1.3v-4.8c0-0.7-0.1-1.2-0.3-1.6c-0.3-0.5-0.7-0.8-1.4-0.8c-0.7,0-1.2,0.3-1.6,1
			c-0.1,0.2-0.2,0.5-0.3,0.9c0,0.2,0,0.3-0.1,0.5c-0.1,0.2,0,0.4,0,0.6v4.3h1.2v1.2h-4.3v-1.2h1.3v-4.8c0-0.2,0-0.3,0-0.5
			c0-0.1,0-0.3,0-0.4s-0.1-0.3-0.1-0.4s-0.1-0.2-0.1-0.3c-0.1-0.2-0.3-0.4-0.5-0.6c-0.2-0.1-0.5-0.2-0.8-0.2c-0.7,0-1.2,0.3-1.6,1
			c-0.1,0.3-0.2,0.6-0.3,0.9s-0.1,0.7-0.1,1.1v4.1h1.3v1.2h-4.3v-1.2h1.3v-7.1h-1.3v-1.2h2.9V17c0.5-1.3,1.4-2,2.9-2
			c1.3,0,2.2,0.6,2.6,1.8c0.2-0.5,0.5-1,1.1-1.3c0.6-0.3,1.1-0.5,1.7-0.5c0.5,0,0.9,0.1,1.2,0.2c0.3,0.1,0.6,0.3,0.9,0.6
			c0.5,0.6,0.7,1.3,0.7,2.3v5.3h1.2v1.3C602.1,24.7,601.8,24.7,601.8,24.7z"/>
	</g>
	<g>
		<path class="st1" d="M631.7,24.7h-2.8v-1.8c-0.3,0.7-0.6,1.1-1.1,1.4s-1.1,0.5-1.9,0.5c-0.8,0-1.5-0.2-2.1-0.7
			c-0.5-0.5-0.8-1.2-0.8-2c0-1.2,0.5-2,1.4-2.5c0.7-0.4,1.7-0.5,3-0.5h1.4v-0.5c0-0.7-0.1-1.3-0.3-1.7c-0.3-0.5-0.8-0.7-1.5-0.7
			c-1.3,0-1.9,0.6-1.9,1.9h-1.8c0-0.5,0.1-0.9,0.3-1.3s0.5-0.7,0.8-1c0.6-0.5,1.5-0.7,2.6-0.7c1.2,0,2.1,0.3,2.7,0.9
			c0.5,0.6,0.8,1.5,0.8,2.8v4.8h1.3v1.1C631.8,24.7,631.7,24.7,631.7,24.7z M628.8,20.1h-0.9c-1,0-1.7,0.1-2.1,0.3
			c-0.7,0.3-1,0.8-1,1.7c0,0.5,0.1,0.9,0.4,1.2c0.3,0.3,0.7,0.5,1.1,0.5c0.9,0,1.6-0.4,2-1.1c0.2-0.3,0.3-0.7,0.4-1.1
			C628.8,21,628.8,20.6,628.8,20.1z"/>
	</g>
	<g>
		<path class="st1" d="M663.3,24.7h-4.4v-1.2h1.4v-7.1h-1.4v-1.2h3.2v8.3h1.3L663.3,24.7L663.3,24.7z M662.1,13.7h-1.9v-1.8h1.9
			V13.7z"/>
	</g>
	<g>
		<path class="st1" d="M698.3,24.7h-4.4v-1.2h1.4V12.9h-1.4v-1.1h3.1v11.7h1.3L698.3,24.7L698.3,24.7z"/>
	</g>
	<g>
		<path class="st1" d="M731.2,23.6c0,0.4-0.1,0.7-0.3,0.9c-0.2,0.2-0.5,0.3-0.9,0.3s-0.7-0.1-0.9-0.3c-0.2-0.2-0.3-0.5-0.3-0.9
			s0.1-0.7,0.3-0.9c0.2-0.2,0.5-0.3,0.9-0.3s0.7,0.1,0.9,0.3C731.1,23,731.2,23.3,731.2,23.6z"/>
	</g>
	<g>
		<path class="st1" d="M802.1,20c0,1.4-0.4,2.5-1.1,3.5c-0.8,1-1.9,1.5-3.2,1.5c-1.4,0-2.5-0.5-3.3-1.4c-0.7-1-1.1-2.2-1.1-3.6
			s0.4-2.5,1.2-3.5c0.8-0.9,1.9-1.4,3.2-1.4s2.4,0.5,3.2,1.5c0.3,0.5,0.6,1,0.8,1.5C802,18.6,802.1,19.3,802.1,20z M800.2,19.9
			c0-1-0.2-1.8-0.5-2.4c-0.4-0.9-1.1-1.3-2-1.3c-0.4,0-0.8,0.1-1.1,0.3s-0.6,0.5-0.9,1c-0.4,0.7-0.6,1.5-0.6,2.5s0.2,1.8,0.5,2.5
			c0.4,0.9,1.1,1.3,2,1.3s1.6-0.4,2-1.3C800,21.7,800.2,20.9,800.2,19.9z"/>
	</g>
	<g>
		<path class="st1" d="M839.4,24.7h-4.2v-1.2h1.3v-4.8c0-0.7-0.1-1.2-0.3-1.6c-0.3-0.5-0.7-0.8-1.4-0.8s-1.2,0.3-1.6,1
			c-0.1,0.2-0.2,0.5-0.3,0.9c0,0.2,0,0.3-0.1,0.5s0,0.4,0,0.6v4.3h1.2v1.2h-4.3v-1.2h1.3v-4.8c0-0.2,0-0.3,0-0.5c0-0.1,0-0.3,0-0.4
			s-0.1-0.3-0.1-0.4s-0.1-0.2-0.1-0.3c-0.1-0.2-0.3-0.4-0.5-0.6c-0.2-0.1-0.5-0.2-0.8-0.2c-0.7,0-1.2,0.3-1.6,1
			c-0.1,0.3-0.2,0.6-0.3,0.9s-0.1,0.7-0.1,1.1v4.1h1.3v1.2h-4.3v-1.2h1.3v-7.1h-1.3v-1.2h2.9V17c0.5-1.3,1.4-2,2.9-2
			c1.3,0,2.2,0.6,2.6,1.8c0.2-0.5,0.5-1,1.1-1.3s1.1-0.5,1.7-0.5c0.5,0,0.9,0.1,1.2,0.2c0.3,0.1,0.6,0.3,0.9,0.6
			c0.5,0.6,0.7,1.3,0.7,2.3v5.3h1.2v1.3C839.7,24.7,839.4,24.7,839.4,24.7z"/>
	</g>
	<g>
		<path class="st1" d="M766.2,21.6c0,0.4-0.1,0.8-0.2,1.2l-0.3,0.6c-0.7,1-1.7,1.5-3.1,1.5c-1.3,0-2.4-0.5-3.2-1.5
			c-0.3-0.5-0.6-1-0.8-1.5s-0.3-1.2-0.3-2c0-0.7,0.1-1.3,0.2-1.8c0.2-0.5,0.4-1,0.7-1.5c0.7-1,1.7-1.5,2.9-1.5c0.3,0,0.6,0,0.9,0.1
			c0.3,0.1,0.5,0.1,0.8,0.3c0.5,0.2,0.8,0.6,1,1.1v-1.3h1.4v3.5h-1.4c0-0.3-0.1-0.7-0.2-1s-0.2-0.6-0.4-0.8
			c-0.4-0.5-0.9-0.8-1.6-0.8c-0.8,0-1.5,0.4-1.9,1.2c-0.4,0.6-0.5,1.4-0.5,2.4s0.2,1.8,0.5,2.5c0.4,0.9,1.1,1.3,2,1.3
			c0.3,0,0.6,0,0.8-0.1s0.4-0.2,0.6-0.5c0.1-0.1,0.3-0.3,0.4-0.6c0.1-0.1,0.1-0.2,0.1-0.4c0-0.1,0.1-0.3,0.1-0.5L766.2,21.6
			L766.2,21.6z"/>
	</g>
	<g>
		<line class="st2" x1="882.7" y1="34.2" x2="882.7" y2="0.3"/>
	</g>
	<rect x="848.7" y="-0.2" class="st3" width="34" height="0.9"/>
	<rect x="881.9" y="-0.1" class="st3" width="0.9" height="34"/>
</g>
<rect x="0.2" y="0.5" class="st1" width="0.6" height="34"/>
<rect x="0.3" y="0.3" class="st0" width="33.9" height="33.9"/>
<rect x="34.2" y="0.3" class="st0" width="33.9" height="33.9"/>
<rect x="68.2" y="0.3" class="st0" width="33.9" height="33.9"/>
<rect x="102.1" y="0.3" class="st0" width="33.9" height="33.9"/>
<rect x="136.1" y="0.3" class="st0" width="33.9" height="33.9"/>
<rect x="170" y="0.3" class="st0" width="33.9" height="33.9"/>
<rect x="204" y="0.3" class="st0" width="33.9" height="33.9"/>
<rect x="237.9" y="0.3" class="st0" width="33.9" height="33.9"/>
<rect x="271.8" y="0.3" class="st0" width="33.9" height="33.9"/>
<rect x="305.8" y="0.3" class="st0" width="33.9" height="33.9"/>
<g class="st4">
	<path class="st5" d="M51.9,18.1c0,0.4-0.1,0.7-0.3,0.9c-0.1,0.1-0.2,0.2-0.4,0.3c-0.1,0-0.2,0-0.2,0.1c-0.1,0-0.2,0-0.3,0
		c-0.2,0-0.3,0-0.5-0.1c-0.1-0.1-0.3-0.1-0.4-0.3c-0.2-0.2-0.4-0.5-0.4-0.9s0.1-0.7,0.3-0.9c0.2-0.2,0.5-0.3,0.9-0.3
		c0.3,0,0.6,0.1,0.9,0.3C51.8,17.5,51.9,17.8,51.9,18.1z M51.9,24.6c0,0.4-0.1,0.7-0.3,0.9c-0.2,0.2-0.5,0.3-0.9,0.3
		s-0.7-0.1-0.9-0.3c-0.2-0.2-0.3-0.5-0.3-0.9s0.1-0.7,0.3-0.9c0.2-0.2,0.5-0.3,0.9-0.3s0.7,0.1,0.9,0.3C51.8,24,51.9,24.3,51.9,24.6
		z"/>
</g>
<rect x="339.7" y="0.3" class="st0" width="33.9" height="33.9"/>
<rect x="373.3" y="0.3" class="st0" width="33.9" height="33.9"/>
<rect x="407.2" y="0.3" class="st0" width="33.9" height="33.9"/>
<rect x="441.1" y="0.3" class="st0" width="33.9" height="33.9"/>
<rect x="475.1" y="0.3" class="st0" width="33.9" height="33.9"/>
<path class="st6" d="M24.9,10.7H10.1c-1.7,0-3,1.4-3,3V24c0,1.7,1.4,3,3,3h14.8c1.7,0,3-1.4,3-3V13.7C27.9,12,26.5,10.7,24.9,10.7z
	 M24.9,12.1c0.1,0,0.2,0,0.4,0L19,19.2c-0.4,0.4-0.9,0.7-1.5,0.7s-1.1-0.2-1.5-0.7l-6.3-7.1c0.1,0,0.2,0,0.4,0H24.9z M26.5,24
	c0,0.9-0.7,1.6-1.6,1.6H10.1c-0.9,0-1.6-0.7-1.6-1.6V13.7c0-0.2,0-0.4,0.1-0.6l6.3,7.1c0.7,0.7,1.6,1.2,2.6,1.2s1.9-0.4,2.6-1.2
	l6.3-7.1c0.1,0.2,0.1,0.4,0.1,0.6C26.5,13.7,26.5,24,26.5,24z"/>
<rect x="0.2" y="0.5" class="st1" width="0.6" height="34"/>
<path class="st7" d="M115.1,25.1h1.6V12.4h-1.6v-0.8h2.6v6h0c0.6-1.2,1.5-1.8,2.8-1.8c1.3,0,2.2,0.4,2.7,1.2
	c0.4,0.6,0.5,1.6,0.5,3.1v5h1.5v0.8h-4.1v-0.8h1.6v-4.2c0-2-0.2-3.2-0.7-3.6c-0.3-0.3-0.8-0.5-1.5-0.5c-1.8,0-2.8,1.4-2.8,4.1v4.2
	h1.6v0.8h-4.2V25.1z"/>
<g>
	<path class="st7" d="M87.5,15.5h-2.9v5.9c0,0.8,0,1.3,0.1,1.6c0.1,0.6,0.5,0.9,1,0.9c0.9,0,1.3-0.8,1.3-2.3h1
		c0,2.2-0.8,3.2-2.3,3.2c-1.4,0-2.1-1-2.1-3.1v-6.2h-1.7v-0.8h1.7v-2.4l1-0.4v2.8h2.9V15.5z"/>
	<path class="st7" d="M156.5,22.6L156.5,22.6c-0.6,1.5-1.7,2.2-3.4,2.2c-1,0-1.8-0.3-2.3-0.8c-0.6-0.6-0.8-1.3-0.8-2.3
		c0-1.5,0.8-2.5,2.5-2.8c0.6-0.1,1.4-0.2,2.2-0.2h1.9v-0.7c0-1.8-0.8-2.6-2.5-2.6c-1.5,0-2.4,0.7-2.6,2.1h-1.1c0.2-2,1.5-3,3.6-3
		c2.4,0,3.6,1.2,3.6,3.5v5.8h1.4v0.8h-2.4V22.6z M151.1,21.7c0,0.7,0.2,1.2,0.6,1.6c0.4,0.4,1,0.7,1.6,0.7c2.1,0,3.2-1.5,3.2-4.5h-2
		C152.2,19.5,151.1,20.2,151.1,21.7z"/>
	<path class="st7" d="M181.7,23.8h1.6v-8.3h-1.6v-0.8h2.6v1.5h0c0.6-1.2,1.5-1.8,2.8-1.8c1.3,0,2.2,0.4,2.7,1.2
		c0.4,0.6,0.5,1.6,0.5,3.1v5h1.5v0.8h-4.1v-0.8h1.6v-4.2c0-2-0.2-3.2-0.7-3.6c-0.3-0.3-0.8-0.5-1.5-0.5c-1.8,0-2.8,1.4-2.8,4.1v4.2
		h1.6v0.8h-4.2V23.8z"/>
	<path class="st7" d="M223,22.6L223,22.6c-0.6,1.5-1.7,2.2-3.4,2.2c-1,0-1.8-0.3-2.3-0.8c-0.6-0.6-0.8-1.3-0.8-2.3
		c0-1.5,0.8-2.5,2.5-2.8c0.6-0.1,1.4-0.2,2.2-0.2h1.9v-0.7c0-1.8-0.8-2.6-2.5-2.6c-1.5,0-2.4,0.7-2.6,2.1h-1.1c0.2-2,1.5-3,3.6-3
		c2.4,0,3.6,1.2,3.6,3.5v5.8h1.4v0.8H223V22.6z M217.6,21.7c0,0.7,0.2,1.2,0.6,1.6c0.4,0.4,1,0.7,1.6,0.7c2.1,0,3.2-1.5,3.2-4.5h-2
		C218.7,19.5,217.6,20.2,217.6,21.7z"/>
	<path class="st7" d="M261.7,15.5h-0.9l-2.8,9.1h-1.3l-2.5-8.9h0l-2.6,8.9h-1.3l-2.6-9.1h-1v-0.8h3.7v0.8h-1.6l2.3,8.1h0l2.6-8.9
		h1.3l2.6,8.9h0l2.3-8.1h-1.6v-0.8h3.5V15.5z"/>
	<path class="st7" d="M290.6,22.6L290.6,22.6c-0.6,1.5-1.7,2.2-3.4,2.2c-1,0-1.8-0.3-2.3-0.8c-0.6-0.6-0.8-1.3-0.8-2.3
		c0-1.5,0.8-2.5,2.5-2.8c0.6-0.1,1.4-0.2,2.2-0.2h1.9v-0.7c0-1.8-0.8-2.6-2.5-2.6c-1.5,0-2.4,0.7-2.6,2.1h-1.1c0.2-2,1.5-3,3.6-3
		c2.4,0,3.6,1.2,3.6,3.5v5.8h1.4v0.8h-2.4V22.6z M285.1,21.7c0,0.7,0.2,1.2,0.6,1.6c0.4,0.4,1,0.7,1.6,0.7c2.1,0,3.2-1.5,3.2-4.5h-2
		C286.3,19.5,285.1,20.2,285.1,21.7z"/>
	<path class="st7" d="M325.3,15.5h-2.9v5.9c0,0.8,0,1.3,0.1,1.6c0.1,0.6,0.5,0.9,1,0.9c0.9,0,1.3-0.8,1.3-2.3h1
		c0,2.2-0.8,3.2-2.3,3.2c-1.4,0-2.1-1-2.1-3.1v-6.2h-1.7v-0.8h1.7v-2.4l1-0.4v2.8h2.9V15.5z"/>
	<path class="st7" d="M355.3,23.1h1.4v1.5h-1.4V23.1z"/>
	<path class="st7" d="M388.4,23.8h1.5v-8.3h-1.5v-0.8h2.5v2h0c0.3-1.5,1.1-2.2,2.4-2.2c0.3,0,0.6,0,0.7,0.1v1c-0.2,0-0.3,0-0.4,0
		c-0.1,0-0.2,0-0.3,0c-1.6,0-2.4,1.4-2.4,4.1v4.2h2v0.8h-4.4V23.8z"/>
	<path class="st7" d="M422.2,23.8h2v-8.3h-2v-0.8h3v9.1h1.6v0.8h-4.6V23.8z M425.2,12.2H424v-1.5h1.2V12.2z"/>
	<path class="st7" d="M455.6,19.8c0,1.2,0.2,2.2,0.7,2.9c0.6,0.8,1.4,1.3,2.5,1.3c0.8,0,1.4-0.2,2-0.7c0.5-0.4,0.9-1,1-1.8h1
		c0,1-0.5,1.8-1.2,2.4c-0.7,0.6-1.6,0.9-2.6,0.9c-3,0-4.5-1.8-4.5-5.4c0-1.4,0.4-2.6,1.1-3.5c0.8-1,1.8-1.5,3.3-1.5
		c2.8,0,4.2,1.8,4.2,5.4H455.6z M461.9,19c0-1.1-0.3-1.9-0.8-2.6c-0.6-0.7-1.3-1.1-2.4-1.1c-0.9,0-1.7,0.4-2.3,1.2
		c-0.5,0.7-0.8,1.5-0.8,2.5H461.9z"/>
	<path class="st7" d="M488,23.8h1.6v-8.3H488v-0.8h2.6v1.5h0c0.6-1.2,1.5-1.8,2.8-1.8c1.3,0,2.2,0.4,2.7,1.2
		c0.4,0.6,0.5,1.6,0.5,3.1v5h1.5v0.8H494v-0.8h1.6v-4.2c0-2-0.2-3.2-0.7-3.6c-0.3-0.3-0.8-0.5-1.5-0.5c-1.8,0-2.8,1.4-2.8,4.1v4.2
		h1.6v0.8H488V23.8z"/>
</g>
</svg>
