<?xml version="1.0" encoding="utf-8"?>
<!-- Generator: Adobe Illustrator 22.0.0, SVG Export Plug-In . SVG Version: 6.00 Build 0)  -->
<svg version="1.1" id="Layer_1" xmlns="http://www.w3.org/2000/svg" xmlns:xlink="http://www.w3.org/1999/xlink" x="0px" y="0px"
	 viewBox="0 0 780.8 34.5" style="enable-background:new 0 0 780.8 34.5;" xml:space="preserve">
<style type="text/css">
	.st0{fill:none;stroke:#938E94;stroke-width:0.5853;stroke-miterlimit:10;}
	.st1{fill:#938E94;}
	.st2{fill:none;}
	.st3{fill:#FFFFFF;}
</style>
<rect x="0.3" y="0.3" class="st0" width="33.9" height="33.9"/>
<rect x="34.2" y="0.3" class="st0" width="33.9" height="33.9"/>
<rect x="68.2" y="0.3" class="st0" width="33.9" height="33.9"/>
<rect x="102.1" y="0.3" class="st0" width="33.9" height="33.9"/>
<rect x="136.1" y="0.3" class="st0" width="33.9" height="33.9"/>
<rect x="170" y="0.3" class="st0" width="33.9" height="33.9"/>
<rect x="204" y="0.3" class="st0" width="33.9" height="33.9"/>
<rect x="237.9" y="0.3" class="st0" width="33.9" height="33.9"/>
<rect x="271.8" y="0.3" class="st0" width="33.9" height="33.9"/>
<rect x="305.8" y="0.3" class="st0" width="33.9" height="33.9"/>
<g>
	<path class="st1" d="M121.8,16.8l-0.6-0.1c-0.8,0-1.4,0.3-1.9,1c-0.2,0.3-0.3,0.6-0.4,1c0,0.2-0.1,0.4-0.1,0.6s0,0.4,0,0.6v3.6h1.6
		v1.1h-4.6v-1.1h1.3v-7.1h-1.3v-1.1h2.9v1.9c0.1-0.6,0.4-1.1,0.9-1.5c0.4-0.4,1-0.6,1.6-0.6l0.6,0.1V16.8z"/>
</g>
<g>
	<path class="st1" d="M154.1,24.7h-4.4v-1.2h1.4v-7.1h-1.4v-1.2h3.2v8.3h1.3v1.2H154.1z M152.8,13.7h-1.9v-1.8h1.9V13.7z"/>
</g>
<g>
	<path class="st1" d="M192.4,24.7h-4.3v-1.2h1.3v-5c0-0.7-0.1-1.2-0.3-1.5c-0.3-0.5-0.7-0.7-1.3-0.7c-0.7,0-1.2,0.3-1.7,0.8
		c-0.2,0.3-0.3,0.6-0.4,0.9c0,0.2-0.1,0.3-0.1,0.5s0,0.4,0,0.6v4.4h1.3v1.2h-4.4v-1.2h1.3v-7.1h-1.3v-1.2h3V17
		c0.2-0.6,0.5-1.1,1-1.4c0.2-0.1,0.5-0.3,0.8-0.4c0.1,0,0.3-0.1,0.5-0.1s0.3,0,0.5,0s0.4,0,0.6,0c0.2,0,0.4,0.1,0.6,0.1
		c0.3,0.1,0.6,0.3,0.9,0.6c0.5,0.5,0.8,1.2,0.8,2.1v5.6h1.2L192.4,24.7L192.4,24.7z"/>
</g>
<g>
	<path class="st1" d="M257.5,13l-0.5-0.1l-0.5-0.1c-0.6,0-1,0.2-1.2,0.5c-0.1,0.1-0.1,0.4-0.2,0.6c0,0.2-0.1,0.4-0.1,0.6
		c0,0.2,0,0.3,0,0.4v0.4h1.8v1.2H255v7.1h1.6v1.1h-4.7v-1.1h1.3v-7.1h-1.4v-1.2h1.4v-0.8c0-0.9,0.2-1.6,0.7-2.2
		c0.4-0.5,1.1-0.8,2.1-0.8h0.3h0.4c0.2,0,0.5,0.1,0.7,0.2V13H257.5z"/>
</g>
<g>
	<path class="st1" d="M359,24.7h-4.4v-1.2h1.4v-7.1h-1.4v-1.2h3.2v8.3h1.3v1.2H359z M357.7,13.7h-1.9v-1.8h1.9V13.7z"/>
</g>
<g>
	<path class="st1" d="M293.7,19.9c0,1.4-0.3,2.5-0.8,3.4c-0.7,1.1-1.7,1.6-3,1.6c-1.4,0-2.4-0.6-2.9-1.9v3.6h1.4v1.1H284v-1.1h1.3
		V16.4H284v-1.1h2.9v2c0.2-0.7,0.5-1.3,1.1-1.6c0.6-0.4,1.2-0.5,1.9-0.5c1.2,0,2.2,0.5,2.9,1.5c0.3,0.4,0.5,0.9,0.6,1.4
		C293.6,18.6,293.7,19.2,293.7,19.9z M291.9,19.8c0-0.9-0.2-1.7-0.5-2.3c-0.4-0.8-1.1-1.2-1.9-1.2s-1.5,0.4-2,1.3
		c-0.3,0.6-0.5,1.5-0.5,2.5c0,0.9,0.2,1.7,0.5,2.4c0.4,0.8,1.1,1.3,1.9,1.3c0.9,0,1.6-0.4,2-1.3C291.8,21.7,291.9,20.8,291.9,19.8z"
		/>
</g>
<g>
	<path class="st1" d="M324.4,16.8l-0.6-0.1c-0.8,0-1.4,0.3-1.9,1c-0.2,0.3-0.3,0.6-0.4,1c0,0.2-0.1,0.4-0.1,0.6s0,0.4,0,0.6v3.6h1.6
		v1.1h-4.6v-1.1h1.3v-7.1h-1.3v-1.1h2.9v1.9c0.1-0.6,0.4-1.1,0.9-1.5c0.4-0.4,1-0.6,1.6-0.6l0.6,0.1V16.8z"/>
</g>
<g>
	<path class="st1" d="M90,19.9c0,1.4-0.3,2.5-0.8,3.4c-0.7,1.1-1.7,1.6-3,1.6c-1.4,0-2.4-0.6-2.9-1.9v3.6h1.4v1.1h-4.5v-1.1h1.3
		V16.4h-1.3v-1.1h2.9v2c0.2-0.7,0.5-1.3,1.1-1.6c0.6-0.4,1.2-0.5,1.9-0.5c1.2,0,2.2,0.5,2.9,1.5c0.3,0.4,0.5,0.9,0.6,1.4
		C90,18.6,90,19.2,90,19.9z M88.3,19.8c0-0.9-0.2-1.7-0.5-2.3c-0.4-0.8-1.1-1.2-1.9-1.2s-1.5,0.4-2,1.3c-0.3,0.6-0.5,1.5-0.5,2.5
		c0,0.9,0.2,1.7,0.5,2.4c0.4,0.8,1.1,1.3,1.9,1.3c0.9,0,1.6-0.4,2-1.3C88.1,21.7,88.3,20.8,88.3,19.8z"/>
</g>
<g>
	<path class="st1" d="M51.9,18.1c0,0.4-0.1,0.7-0.3,0.9c-0.1,0.1-0.2,0.2-0.4,0.3c-0.1,0-0.2,0-0.2,0.1c-0.1,0-0.2,0-0.3,0
		c-0.2,0-0.3,0-0.5-0.1c-0.1-0.1-0.3-0.1-0.4-0.3c-0.2-0.2-0.4-0.5-0.4-0.9s0.1-0.7,0.3-0.9c0.2-0.2,0.5-0.3,0.9-0.3
		c0.3,0,0.6,0.1,0.9,0.3C51.8,17.5,51.9,17.8,51.9,18.1z M51.9,24.6c0,0.4-0.1,0.7-0.3,0.9c-0.2,0.2-0.5,0.3-0.9,0.3
		s-0.7-0.1-0.9-0.3c-0.2-0.2-0.3-0.5-0.3-0.9s0.1-0.7,0.3-0.9c0.2-0.2,0.5-0.3,0.9-0.3s0.7,0.1,0.9,0.3C51.8,24,51.9,24.3,51.9,24.6
		z"/>
</g>
<g>
	<path class="st1" d="M224.8,20c0,1.4-0.4,2.5-1.1,3.5c-0.8,1-1.9,1.5-3.2,1.5c-1.4,0-2.5-0.5-3.3-1.4c-0.7-1-1.1-2.2-1.1-3.6
		s0.4-2.5,1.2-3.5c0.8-0.9,1.9-1.4,3.2-1.4s2.4,0.5,3.2,1.5c0.3,0.5,0.6,1,0.8,1.5C224.7,18.6,224.8,19.3,224.8,20z M223,19.9
		c0-1-0.2-1.8-0.5-2.4c-0.4-0.9-1.1-1.3-2-1.3c-0.4,0-0.8,0.1-1.1,0.3s-0.6,0.5-0.9,1c-0.4,0.7-0.6,1.5-0.6,2.5s0.2,1.8,0.5,2.5
		c0.4,0.9,1.1,1.3,2,1.3s1.6-0.4,2-1.3C222.8,21.7,223,20.9,223,19.9z"/>
</g>
<rect x="339.7" y="0.3" class="st0" width="33.9" height="33.9"/>
<rect x="373.3" y="0.3" class="st0" width="33.9" height="33.9"/>
<rect x="407.1" y="0.3" class="st0" width="33.9" height="33.9"/>
<rect x="441" y="0.3" class="st0" width="33.9" height="33.9"/>
<rect x="475" y="0.3" class="st0" width="33.9" height="33.9"/>
<rect x="508.9" y="0.3" class="st0" width="33.9" height="33.9"/>
<rect x="542.8" y="0.3" class="st0" width="33.9" height="33.9"/>
<rect x="576.8" y="0.3" class="st0" width="33.9" height="33.9"/>
<rect x="610.7" y="0.3" class="st0" width="33.9" height="33.9"/>
<rect x="644.7" y="0.3" class="st0" width="33.9" height="33.9"/>
<rect x="678.6" y="0.3" class="st0" width="33.9" height="33.9"/>
<rect x="712.6" y="0.3" class="st0" width="33.9" height="33.9"/>
<rect x="746.6" y="0.3" class="st0" width="33.9" height="33.9"/>
<g>
	<path class="st1" d="M429.7,17.4c0,1.1-0.4,2.1-1.2,3c-0.8,0.9-1.8,1.4-2.8,1.4c-0.7,0-1.1-0.3-1.3-1c-0.3,0.3-0.6,0.5-1,0.7
		s-0.7,0.3-1.1,0.3c-0.7,0-1.2-0.2-1.6-0.7s-0.6-1-0.6-1.7c0-0.5,0.1-1,0.3-1.5s0.4-1,0.8-1.4c0.7-0.9,1.6-1.4,2.6-1.4
		c0.8,0,1.4,0.4,1.7,1.1l0.3-0.9h1l-1.5,4.5c-0.1,0.4-0.2,0.6-0.2,0.8c0,0.1,0.1,0.3,0.2,0.5c0.1,0.1,0.3,0.2,0.5,0.2
		c0.9,0,1.6-0.4,2.2-1.3c0.6-0.8,0.9-1.6,0.9-2.5c0-1.4-0.5-2.5-1.5-3.4s-2.2-1.3-3.6-1.3c-1.6,0-2.9,0.5-4,1.6s-1.7,2.4-1.7,4
		s0.5,3,1.6,4.1c0.5,0.6,1.1,1,1.8,1.3c0.6,0.3,1.4,0.4,2.2,0.4c0.5,0,1-0.1,1.5-0.2s0.9-0.3,1.4-0.5c0.8-0.5,1.5-1.1,2.1-2h0.8
		c-0.5,1.1-1.2,1.9-2.3,2.5c-1,0.6-2.2,0.9-3.4,0.9c-1.8,0-3.2-0.7-4.4-2c-0.6-0.7-1-1.4-1.3-2.1c-0.3-0.8-0.4-1.6-0.4-2.5
		c0-1.7,0.6-3.1,1.9-4.4s2.8-1.8,4.5-1.8c1.6,0,2.9,0.5,4,1.5S429.7,15.9,429.7,17.4z M425.3,16.9c0-0.2,0-0.4-0.1-0.5
		c0-0.1-0.1-0.3-0.2-0.4c-0.2-0.3-0.5-0.4-0.8-0.4c-0.8,0-1.5,0.5-2,1.5c-0.2,0.4-0.4,0.8-0.5,1.3s-0.2,0.9-0.2,1.3s0.1,0.8,0.2,1.1
		c0.2,0.3,0.5,0.5,0.9,0.5c0.5,0,1-0.2,1.4-0.7c0.2-0.3,0.5-0.8,0.8-1.4L425,18C425.2,17.6,425.3,17.3,425.3,16.9z"/>
</g>
<g>
	<path class="st1" d="M395.8,24.7h-4.3v-1.2h1.3v-5c0-0.7-0.1-1.2-0.3-1.5c-0.3-0.5-0.7-0.7-1.3-0.7c-0.7,0-1.2,0.3-1.7,0.8
		c-0.2,0.3-0.3,0.6-0.4,0.9c0,0.2-0.1,0.3-0.1,0.5s0,0.4,0,0.6v4.4h1.3v1.2h-4.4v-1.2h1.3v-7.1h-1.3v-1.2h3V17
		c0.2-0.6,0.5-1.1,1-1.4c0.2-0.1,0.5-0.3,0.8-0.4c0.1,0,0.3-0.1,0.5-0.1s0.3,0,0.5,0s0.4,0,0.6,0s0.4,0.1,0.6,0.1
		c0.3,0.1,0.6,0.3,0.9,0.6c0.5,0.5,0.8,1.2,0.8,2.1v5.6h1.2V24.7z"/>
</g>
<g>
	<path class="st1" d="M462.2,16.4h-1.3v7.8c0,0.6-0.1,1.2-0.3,1.6s-0.5,0.8-0.8,1.1c-0.7,0.6-1.7,0.9-3,0.9s-2.4-0.3-3-0.8
		c-0.5-0.4-0.8-1-0.8-1.7h1.8c0.1,0.5,0.3,0.8,0.7,1c0.1,0.1,0.3,0.2,0.6,0.2c0.1,0,0.2,0,0.4,0.1c0.1,0,0.3,0,0.4,0
		c0.7,0,1.2-0.2,1.7-0.5s0.7-0.8,0.7-1.5v-2c-0.2,0.6-0.5,1-1.1,1.3c-0.5,0.3-1.1,0.5-1.8,0.5c-1.3,0-2.3-0.5-3-1.5
		c-0.6-0.9-0.9-2-0.9-3.4c0-1.3,0.3-2.3,0.9-3.2c0.7-1,1.6-1.4,2.9-1.4c0.4,0,0.7,0,1,0.1c0.2,0,0.3,0.1,0.4,0.2
		c0.1,0.1,0.3,0.1,0.4,0.3c0.5,0.3,0.9,0.9,1.1,1.5v-1.9h2.9L462.2,16.4L462.2,16.4z M459.2,19.8c0-0.5,0-0.9-0.1-1.3
		s-0.2-0.7-0.4-1c-0.4-0.8-1.1-1.2-2-1.2c-0.8,0-1.4,0.4-1.9,1.2c-0.4,0.7-0.5,1.4-0.5,2.3c0,0.5,0,0.9,0.1,1.3
		c0,0.2,0.1,0.4,0.1,0.6c0.1,0.2,0.1,0.3,0.2,0.5c0.4,0.9,1.1,1.3,1.9,1.3c0.2,0,0.4,0,0.5,0s0.2-0.1,0.3-0.1c0.1,0,0.2-0.1,0.3-0.1
		c0.3-0.2,0.6-0.4,0.8-0.8c0.1-0.1,0.1-0.2,0.2-0.3s0.1-0.2,0.1-0.2l0.2-0.6l0.1-0.7L459.2,19.8z"/>
</g>
<g>
	<path class="st1" d="M499.9,24.7h-4.2v-1.2h1.3v-4.8c0-0.7-0.1-1.2-0.3-1.6c-0.3-0.5-0.7-0.8-1.4-0.8c-0.7,0-1.2,0.3-1.6,1
		c-0.1,0.2-0.2,0.5-0.3,0.9c0,0.2,0,0.3-0.1,0.5s0,0.4,0,0.6v4.3h1.2v1.2h-4.3v-1.2h1.3v-4.8c0-0.2,0-0.3,0-0.5c0-0.1,0-0.3,0-0.4
		s-0.1-0.3-0.1-0.4s-0.1-0.2-0.1-0.3c-0.1-0.2-0.3-0.4-0.5-0.6c-0.2-0.1-0.5-0.2-0.8-0.2c-0.7,0-1.2,0.3-1.6,1
		c-0.1,0.3-0.2,0.6-0.3,0.9c-0.1,0.3-0.1,0.7-0.1,1.1v4.1h1.3v1.2H485v-1.2h1.3v-7.1H485v-1.2h2.9V17c0.5-1.3,1.4-2,2.9-2
		c1.3,0,2.2,0.6,2.6,1.8c0.2-0.5,0.5-1,1.1-1.3s1.1-0.5,1.7-0.5c0.5,0,0.9,0.1,1.2,0.2c0.3,0.1,0.6,0.3,0.9,0.6
		c0.5,0.6,0.7,1.3,0.7,2.3v5.3h1.2v1.3C500.2,24.7,499.9,24.7,499.9,24.7z"/>
</g>
<g>
	<path class="st1" d="M529.8,24.7H527v-1.8c-0.3,0.7-0.6,1.1-1.1,1.4s-1.1,0.5-1.9,0.5c-0.8,0-1.5-0.2-2.1-0.7
		c-0.5-0.5-0.8-1.2-0.8-2c0-1.2,0.5-2,1.4-2.5c0.7-0.4,1.7-0.5,3-0.5h1.4v-0.5c0-0.7-0.1-1.3-0.3-1.7c-0.3-0.5-0.8-0.7-1.5-0.7
		c-1.3,0-1.9,0.6-1.9,1.9h-1.8c0-0.5,0.1-0.9,0.3-1.3s0.5-0.7,0.8-1c0.6-0.5,1.5-0.7,2.6-0.7c1.2,0,2.1,0.3,2.7,0.9
		c0.5,0.6,0.8,1.5,0.8,2.8v4.8h1.3v1.1C529.9,24.7,529.8,24.7,529.8,24.7z M526.9,20.1H526c-1,0-1.7,0.1-2.1,0.3
		c-0.7,0.3-1,0.8-1,1.7c0,0.5,0.1,0.9,0.4,1.2c0.3,0.3,0.7,0.5,1.1,0.5c0.9,0,1.6-0.4,2-1.1c0.2-0.3,0.3-0.7,0.4-1.1
		C526.9,21,526.9,20.6,526.9,20.1z"/>
</g>
<g>
	<path class="st1" d="M561.4,24.7H557v-1.2h1.4v-7.1H557v-1.2h3.2v8.3h1.3L561.4,24.7L561.4,24.7z M560.2,13.7h-1.9v-1.8h1.9V13.7z"
		/>
</g>
<g>
	<path class="st1" d="M596.4,24.7H592v-1.2h1.4V12.9H592v-1.1h3.1v11.7h1.3L596.4,24.7L596.4,24.7z"/>
</g>
<g>
	<path class="st1" d="M629.3,23.6c0,0.4-0.1,0.7-0.3,0.9c-0.2,0.2-0.5,0.3-0.9,0.3s-0.7-0.1-0.9-0.3c-0.2-0.2-0.3-0.5-0.3-0.9
		s0.1-0.7,0.3-0.9c0.2-0.2,0.5-0.3,0.9-0.3s0.7,0.1,0.9,0.3C629.2,23,629.3,23.3,629.3,23.6z"/>
</g>
<g>
	<path class="st1" d="M700.2,20c0,1.4-0.4,2.5-1.1,3.5c-0.8,1-1.9,1.5-3.2,1.5c-1.4,0-2.5-0.5-3.3-1.4c-0.7-1-1.1-2.2-1.1-3.6
		s0.4-2.5,1.2-3.5c0.8-0.9,1.9-1.4,3.2-1.4s2.4,0.5,3.2,1.5c0.3,0.5,0.6,1,0.8,1.5C700.1,18.6,700.2,19.3,700.2,20z M698.3,19.9
		c0-1-0.2-1.8-0.5-2.4c-0.4-0.9-1.1-1.3-2-1.3c-0.4,0-0.8,0.1-1.1,0.3s-0.6,0.5-0.9,1c-0.4,0.7-0.6,1.5-0.6,2.5s0.2,1.8,0.5,2.5
		c0.4,0.9,1.1,1.3,2,1.3s1.6-0.4,2-1.3C698.1,21.7,698.3,20.9,698.3,19.9z"/>
</g>
<g>
	<path class="st1" d="M737.5,24.7h-4.2v-1.2h1.3v-4.8c0-0.7-0.1-1.2-0.3-1.6c-0.3-0.5-0.7-0.8-1.4-0.8s-1.2,0.3-1.6,1
		c-0.1,0.2-0.2,0.5-0.3,0.9c0,0.2,0,0.3-0.1,0.5s0,0.4,0,0.6v4.3h1.2v1.2h-4.3v-1.2h1.3v-4.8c0-0.2,0-0.3,0-0.5c0-0.1,0-0.3,0-0.4
		s-0.1-0.3-0.1-0.4s-0.1-0.2-0.1-0.3c-0.1-0.2-0.3-0.4-0.5-0.6c-0.2-0.1-0.5-0.2-0.8-0.2c-0.7,0-1.2,0.3-1.6,1
		c-0.1,0.3-0.2,0.6-0.3,0.9s-0.1,0.7-0.1,1.1v4.1h1.3v1.2h-4.3v-1.2h1.3v-7.1h-1.3v-1.2h2.9V17c0.5-1.3,1.4-2,2.9-2
		c1.3,0,2.2,0.6,2.6,1.8c0.2-0.5,0.5-1,1.1-1.3s1.1-0.5,1.7-0.5c0.5,0,0.9,0.1,1.2,0.2c0.3,0.1,0.6,0.3,0.9,0.6
		c0.5,0.6,0.7,1.3,0.7,2.3v5.3h1.2v1.3C737.8,24.7,737.5,24.7,737.5,24.7z"/>
</g>
<g>
	<path class="st1" d="M664.3,21.6c0,0.4-0.1,0.8-0.2,1.2l-0.3,0.6c-0.7,1-1.7,1.5-3.1,1.5c-1.3,0-2.4-0.5-3.2-1.5
		c-0.3-0.5-0.6-1-0.8-1.5s-0.3-1.2-0.3-2c0-0.7,0.1-1.3,0.2-1.8c0.2-0.5,0.4-1,0.7-1.5c0.7-1,1.7-1.5,2.9-1.5c0.3,0,0.6,0,0.9,0.1
		c0.3,0.1,0.5,0.1,0.8,0.3c0.5,0.2,0.8,0.6,1,1.1v-1.3h1.4v3.5h-1.4c0-0.3-0.1-0.7-0.2-1s-0.2-0.6-0.4-0.8c-0.4-0.5-0.9-0.8-1.6-0.8
		c-0.8,0-1.5,0.4-1.9,1.2c-0.4,0.6-0.5,1.4-0.5,2.4s0.2,1.8,0.5,2.5c0.4,0.9,1.1,1.3,2,1.3c0.3,0,0.6,0,0.8-0.1s0.4-0.2,0.6-0.5
		c0.1-0.1,0.3-0.3,0.4-0.6c0.1-0.1,0.1-0.2,0.1-0.4c0-0.1,0.1-0.3,0.1-0.5L664.3,21.6L664.3,21.6z"/>
</g>
<path class="st1" d="M24.9,10.7H10.1c-1.7,0-3,1.4-3,3V24c0,1.7,1.4,3,3,3h14.8c1.7,0,3-1.4,3-3V13.7C27.9,12,26.5,10.7,24.9,10.7z
	 M24.9,12.1c0.1,0,0.2,0,0.4,0L19,19.2c-0.4,0.4-0.9,0.7-1.5,0.7s-1.1-0.2-1.5-0.7l-6.3-7.1c0.1,0,0.2,0,0.4,0H24.9z M26.5,24
	c0,0.9-0.7,1.6-1.6,1.6H10.1c-0.9,0-1.6-0.7-1.6-1.6V13.7c0-0.2,0-0.4,0.1-0.6l6.3,7.1c0.7,0.7,1.6,1.2,2.6,1.2s1.9-0.4,2.6-1.2
	l6.3-7.1c0.1,0.2,0.1,0.4,0.1,0.6C26.5,13.7,26.5,24,26.5,24z"/>
<g>
	<line class="st2" x1="780.8" y1="34.2" x2="780.8" y2="0.3"/>
</g>
<rect x="763.4" y="-16.7" transform="matrix(6.123234e-17 -1 1 6.123234e-17 763.5062 764.1063)" class="st3" width="0.9" height="34"/>
<rect x="780.1" y="-0.1" transform="matrix(-1 -1.224647e-16 1.224647e-16 -1 1561 33.8438)" class="st3" width="0.9" height="34"/>
<rect x="0.2" y="0.5" transform="matrix(-1 -1.224647e-16 1.224647e-16 -1 1.0048 35.0082)" class="st1" width="0.6" height="34"/>
</svg>
