<?xml version="1.0" encoding="utf-8"?>
<!-- Generator: Adobe Illustrator 22.0.0, SVG Export Plug-In . SVG Version: 6.00 Build 0)  -->
<svg version="1.1" id="Layer_1" xmlns="http://www.w3.org/2000/svg" xmlns:xlink="http://www.w3.org/1999/xlink" x="0px" y="0px"
	 viewBox="0 0 73.4 114.6" style="enable-background:new 0 0 73.4 114.6;" xml:space="preserve">
<style type="text/css">
	.st0{fill:#1B1B1B;}
	.st1{fill:#FFFFFF;}
</style>
<g>
	<rect y="46.9" class="st0" width="73.4" height="67.7"/>
	<g>
		<path class="st1" d="M73.3,58.6L73.3,58.6c0,3.6-2.9,6.6-6.6,6.6H6.6C3,65.2,0,62.3,0,58.6V24c0-0.4,0-0.8,0.1-1.1l34.6,21.6
			c0,0,0.1,0,0.1,0.1c0,0,0.1,0,0.1,0.1c0.2,0.1,0.5,0.2,0.8,0.3h0.1c0.3,0.1,0.6,0.1,0.9,0.1l0,0c0.3,0,0.6,0,0.9-0.1h0.1
			c0.3-0.1,0.5-0.2,0.8-0.3c0,0,0.1,0,0.1-0.1c0,0,0.1,0,0.1-0.1l34.6-21.6c0.1,0.4,0.1,0.7,0.1,1.1L73.3,58.6L73.3,58.6z"/>
	</g>
</g>
</svg>
