<?xml version="1.0" encoding="utf-8"?>
<!-- Generator: Adobe Illustrator 25.0.1, SVG Export Plug-In . SVG Version: 6.00 Build 0)  -->
<svg version="1.1" id="Layer_1" xmlns="http://www.w3.org/2000/svg" xmlns:xlink="http://www.w3.org/1999/xlink" x="0px" y="0px"
	 viewBox="0 0 33.43 34.85" style="enable-background:new 0 0 33.43 34.85;" xml:space="preserve">
<style type="text/css">
	.st0{fill:#1A1A1A;stroke:#FFFFFF;stroke-width:0.5;stroke-miterlimit:10;}
</style>
<path class="st0" d="M29.15,19.4c0.03-0.2,0.06-0.4,0.08-0.61c0.01-0.1,0.02-0.2,0.03-0.3c0.02-0.2,0.03-0.41,0.04-0.61
	c0-0.02,0-0.04,0-0.06c0-0.01,0-0.03,0-0.04c0-0.08,0-0.15,0-0.23c0-0.08,0-0.15,0-0.23c0-0.01,0-0.03,0-0.04
	c-0.01-0.76-0.09-1.52-0.24-2.28l3.74-3.44l-2.75-4.87l-4.87,1.43C25,7.95,24.83,7.8,24.65,7.65c-0.16-0.13-0.32-0.25-0.49-0.37
	c-0.08-0.06-0.17-0.12-0.25-0.18c-0.17-0.12-0.34-0.23-0.51-0.34c-0.02-0.01-0.04-0.02-0.05-0.03c-0.01-0.01-0.03-0.02-0.04-0.02
	c-0.07-0.04-0.13-0.08-0.2-0.12c-0.07-0.04-0.13-0.08-0.2-0.12c-0.01-0.01-0.03-0.01-0.04-0.02c-0.02-0.01-0.04-0.02-0.05-0.03
	C22.55,6.27,22.28,6.13,22,6c-0.4-0.18-0.8-0.35-1.22-0.49l-1.11-4.96L14.08,0.5l-1.2,4.93c-0.42,0.13-0.83,0.29-1.23,0.47
	c-0.28,0.12-0.55,0.26-0.82,0.4c-0.02,0.01-0.04,0.02-0.05,0.03c-0.01,0.01-0.03,0.01-0.04,0.02c-0.07,0.04-0.14,0.07-0.2,0.11
	c-0.01,0.01-0.02,0.01-0.03,0.02c-0.06,0.03-0.11,0.07-0.17,0.1C10.32,6.59,10.3,6.6,10.29,6.6c-0.1,0.06-0.21,0.13-0.31,0.19
	C9.89,6.85,9.81,6.9,9.72,6.96c-0.45,0.3-0.88,0.63-1.29,0.99L3.59,6.43l-2.84,4.82l3.67,3.51c-0.07,0.32-0.13,0.64-0.17,0.96
	c-0.02,0.11-0.03,0.23-0.04,0.34c-0.02,0.2-0.04,0.39-0.05,0.59c0,0.01,0,0.02,0,0.03c-0.01,0.12-0.01,0.24-0.02,0.35
	c0,0.01,0,0.03,0,0.04c0,0.07,0,0.13,0,0.2c0,0.01,0,0.02,0,0.03c0,0.08,0,0.15,0,0.23c0,0.01,0,0.03,0,0.04
	c0.01,0.76,0.09,1.52,0.24,2.28l-3.74,3.44l2.75,4.87l4.87-1.43c0.4,0.37,0.83,0.7,1.27,1.01c0.17,0.12,0.34,0.23,0.51,0.34
	c0.02,0.01,0.03,0.02,0.05,0.03c0.01,0.01,0.03,0.02,0.04,0.03c0.06,0.04,0.13,0.08,0.2,0.12c0.07,0.04,0.14,0.08,0.2,0.12
	c0.01,0.01,0.02,0.01,0.04,0.02c0.02,0.01,0.04,0.02,0.05,0.03c0.27,0.15,0.54,0.29,0.82,0.41c0.4,0.18,0.8,0.35,1.22,0.49
	l1.11,4.96l5.59,0.05l1.2-4.93c0.42-0.13,0.83-0.29,1.23-0.47c0.28-0.12,0.55-0.26,0.82-0.4c0.02-0.01,0.04-0.02,0.05-0.03
	c0.01-0.01,0.02-0.01,0.04-0.02c0.07-0.04,0.14-0.07,0.21-0.11c0.01-0.01,0.02-0.01,0.03-0.02c0.06-0.03,0.11-0.07,0.17-0.1
	c0.01-0.01,0.03-0.02,0.04-0.02c0.65-0.39,1.27-0.84,1.85-1.34l4.85,1.52l2.84-4.82l-3.67-3.51C29.06,19.86,29.11,19.63,29.15,19.4z
	 M20.43,24.32c-0.01,0.01-0.02,0.01-0.03,0.02c-1.1,0.58-2.32,0.9-3.56,0.92c-0.01,0-0.03,0-0.04,0c-0.06,0-0.11,0-0.17,0
	c-0.05,0-0.1,0-0.15,0c-0.01,0-0.03,0-0.04,0c-1.24-0.04-2.46-0.38-3.54-0.99c-0.01-0.01-0.02-0.01-0.03-0.02
	c-0.05-0.03-0.09-0.06-0.14-0.08c-0.04-0.03-0.09-0.05-0.13-0.08c-0.01-0.01-0.02-0.01-0.03-0.02c-1.05-0.66-1.94-1.56-2.57-2.62
	c-0.01-0.01-0.01-0.02-0.02-0.03c-0.03-0.05-0.05-0.1-0.08-0.14c-0.02-0.04-0.05-0.09-0.07-0.13c-0.01-0.01-0.01-0.02-0.02-0.03
	c-0.58-1.1-0.9-2.32-0.92-3.56c0-0.01,0-0.03,0-0.04c0-0.06,0-0.11,0-0.17c0-0.05,0-0.1,0-0.15c0-0.01,0-0.03,0-0.04
	c0.04-1.24,0.38-2.46,0.99-3.54c0.01-0.01,0.01-0.02,0.02-0.03c0.03-0.05,0.06-0.1,0.09-0.14c0.03-0.04,0.05-0.09,0.08-0.13
	c0.01-0.01,0.01-0.02,0.02-0.03c0.66-1.05,1.56-1.94,2.63-2.58c0.01-0.01,0.02-0.01,0.03-0.02c0.04-0.03,0.09-0.05,0.13-0.07
	c0.05-0.03,0.1-0.06,0.15-0.08c0.01-0.01,0.02-0.01,0.03-0.02c1.1-0.58,2.32-0.9,3.56-0.92c0.01,0,0.03,0,0.04,0
	c0.05,0,0.1,0,0.15,0c0.05,0,0.11,0,0.16,0c0.01,0,0.02,0,0.04,0c1.24,0.04,2.46,0.38,3.54,0.99c0.01,0.01,0.02,0.01,0.03,0.02
	c0.05,0.03,0.09,0.05,0.13,0.08c0.05,0.03,0.09,0.05,0.14,0.08c0.01,0.01,0.02,0.01,0.03,0.02c1.05,0.66,1.94,1.56,2.58,2.63
	c0.01,0.01,0.01,0.02,0.02,0.03c0.03,0.04,0.05,0.09,0.08,0.13c0.03,0.05,0.05,0.09,0.08,0.14c0.01,0.01,0.01,0.02,0.02,0.03
	c0.58,1.1,0.9,2.32,0.92,3.56c0,0.01,0,0.02,0,0.04c0,0.05,0,0.1,0,0.15c0,0.05,0,0.11,0,0.16c0,0.01,0,0.02,0,0.04
	c-0.04,1.24-0.38,2.46-0.99,3.54c-0.01,0.01-0.01,0.02-0.02,0.04c-0.02,0.04-0.05,0.08-0.07,0.13c-0.03,0.05-0.06,0.1-0.08,0.14
	c-0.01,0.01-0.01,0.02-0.02,0.03c-0.66,1.05-1.56,1.93-2.62,2.57c-0.01,0.01-0.02,0.01-0.03,0.02c-0.05,0.03-0.1,0.06-0.15,0.08
	C20.52,24.27,20.47,24.3,20.43,24.32z"/>
</svg>
