<?xml version="1.0" encoding="utf-8"?>
<!-- Generator: Adobe Illustrator 25.0.1, SVG Export Plug-In . SVG Version: 6.00 Build 0)  -->
<svg version="1.1" id="Layer_1" xmlns="http://www.w3.org/2000/svg" xmlns:xlink="http://www.w3.org/1999/xlink" x="0px" y="0px"
	 viewBox="0 0 82.35 82.35" style="enable-background:new 0 0 82.35 82.35;" xml:space="preserve">
<style type="text/css">
	.st0{fill:#1B1B1B;stroke:#FFFFFF;stroke-width:0.5;stroke-miterlimit:10;}
</style>
<path class="st0" d="M21.09,58.75c0.12,0.13,0.23,0.26,0.35,0.39c0.07,0.08,0.14,0.15,0.21,0.23c0.07,0.07,0.14,0.15,0.21,0.22
	c0.12,0.13,0.24,0.25,0.37,0.38c0.02,0.02,0.04,0.04,0.06,0.07c0.03,0.03,0.07,0.07,0.1,0.1c0.31,0.31,0.63,0.61,0.95,0.9
	c0.12,0.11,0.24,0.21,0.36,0.32l-3.09,7.52l4.66,2.91l5.41-6.07c0.59,0.25,1.19,0.48,1.8,0.69c0.03,0.01,0.06,0.02,0.09,0.03
	c0.17,0.06,0.33,0.11,0.5,0.17c0.1,0.03,0.2,0.06,0.29,0.09c0.1,0.03,0.2,0.06,0.3,0.09c0.17,0.05,0.34,0.1,0.51,0.14
	c0.03,0.01,0.06,0.02,0.09,0.02c0.62,0.17,1.25,0.31,1.88,0.43l1.08,8.06l5.49,0.19l1.65-7.96c0.64-0.08,1.27-0.18,1.91-0.3
	c0.03-0.01,0.06-0.01,0.09-0.02c0.17-0.03,0.34-0.07,0.51-0.11c0.1-0.02,0.2-0.05,0.3-0.07s0.2-0.05,0.3-0.07
	c0.17-0.04,0.34-0.08,0.51-0.13c0.03-0.01,0.06-0.02,0.09-0.02c0.62-0.17,1.24-0.36,1.84-0.57l4.97,6.44l4.85-2.58l-2.55-7.72
	c0.51-0.38,1.01-0.79,1.5-1.21c0.02-0.02,0.05-0.04,0.07-0.06c0.11-0.09,0.21-0.19,0.32-0.28c0.03-0.02,0.05-0.05,0.08-0.07
	c0.08-0.07,0.15-0.14,0.23-0.21c0.07-0.07,0.15-0.14,0.22-0.21c0.13-0.12,0.25-0.24,0.38-0.37c0.02-0.02,0.04-0.03,0.05-0.05
	l0.01-0.01c0.46-0.46,0.9-0.93,1.31-1.41l7.52,3.09l2.91-4.66l-6.07-5.41c0.06-0.15,0.13-0.29,0.19-0.44
	c0.16-0.4,0.32-0.81,0.46-1.22c0.02-0.04,0.03-0.09,0.05-0.13c0-0.01,0-0.01,0.01-0.02c0.01-0.02,0.02-0.05,0.02-0.07
	c0.06-0.17,0.11-0.33,0.17-0.5c0.03-0.1,0.06-0.2,0.09-0.29c0.03-0.1,0.06-0.2,0.09-0.3c0.01-0.03,0.02-0.07,0.03-0.1
	c0.04-0.14,0.08-0.27,0.11-0.41c0.01-0.03,0.02-0.06,0.02-0.09c0.17-0.62,0.31-1.25,0.43-1.88l8.06-1.08l0.19-5.49L67.67,38
	c-0.08-0.64-0.18-1.27-0.3-1.91c-0.01-0.03-0.01-0.06-0.02-0.09c-0.03-0.17-0.07-0.34-0.11-0.51c-0.02-0.1-0.05-0.2-0.07-0.3
	s-0.05-0.2-0.07-0.3c-0.04-0.17-0.09-0.34-0.13-0.51c-0.01-0.03-0.01-0.06-0.02-0.09c-0.17-0.62-0.36-1.24-0.57-1.84l6.44-4.97
	l-2.58-4.85l-7.72,2.55c-0.38-0.51-0.79-1.01-1.21-1.5c-0.02-0.02-0.04-0.05-0.06-0.07c-0.12-0.13-0.23-0.26-0.35-0.39
	c-0.07-0.08-0.14-0.15-0.21-0.23c-0.07-0.07-0.14-0.15-0.21-0.22c-0.12-0.13-0.24-0.25-0.37-0.38c-0.02-0.02-0.04-0.04-0.07-0.07
	c-0.46-0.46-0.93-0.9-1.41-1.31l3.09-7.52l-4.66-2.91l-5.41,6.07c-0.59-0.25-1.19-0.48-1.8-0.69c-0.03-0.01-0.06-0.02-0.09-0.03
	c-0.17-0.06-0.33-0.11-0.5-0.17c-0.1-0.03-0.2-0.06-0.29-0.09c-0.1-0.03-0.2-0.06-0.3-0.09c-0.17-0.05-0.34-0.1-0.51-0.14
	c-0.03-0.01-0.06-0.02-0.09-0.02c-0.62-0.17-1.25-0.31-1.88-0.43l-1.08-8.06l-5.49-0.19L38,14.68c-0.64,0.08-1.27,0.18-1.91,0.3
	C36.06,14.99,36.03,14.99,36,15c-0.17,0.03-0.35,0.07-0.52,0.11c-0.1,0.02-0.2,0.05-0.3,0.07c-0.1,0.02-0.2,0.05-0.3,0.07
	c-0.17,0.04-0.34,0.08-0.51,0.13c-0.03,0.01-0.06,0.02-0.09,0.02c-0.62,0.17-1.24,0.36-1.84,0.56l-4.97-6.44l-4.85,2.58l2.55,7.72
	c-0.51,0.38-1.01,0.79-1.5,1.21c-0.02,0.02-0.05,0.04-0.07,0.06c-0.11,0.09-0.21,0.18-0.32,0.28c-0.03,0.02-0.05,0.05-0.08,0.07
	c-0.08,0.07-0.15,0.14-0.23,0.21c-0.07,0.07-0.15,0.14-0.22,0.21c-0.13,0.12-0.25,0.24-0.38,0.37c-0.02,0.02-0.04,0.03-0.05,0.05
	l-0.01,0.01c-0.46,0.46-0.9,0.93-1.31,1.41l-7.52-3.09l-2.91,4.66l6.07,5.41c-0.25,0.59-0.48,1.19-0.69,1.8c0,0.01,0,0.01-0.01,0.02
	c-0.01,0.02-0.01,0.04-0.02,0.07c-0.06,0.17-0.11,0.33-0.17,0.5c-0.03,0.1-0.06,0.19-0.09,0.29c-0.03,0.1-0.06,0.2-0.09,0.3
	c-0.01,0.03-0.02,0.06-0.03,0.1c-0.04,0.13-0.08,0.27-0.11,0.4c-0.01,0.03-0.02,0.06-0.03,0.09c-0.17,0.62-0.31,1.25-0.43,1.88
	l-8.06,1.08L6.72,42.7l7.96,1.65c0.08,0.64,0.18,1.27,0.3,1.91c0.01,0.03,0.01,0.06,0.02,0.09c0.03,0.17,0.07,0.34,0.11,0.52
	c0,0.01,0,0.02,0.01,0.03c0,0.01,0,0.02,0.01,0.03c0.02,0.08,0.04,0.16,0.06,0.24c0.02,0.1,0.05,0.2,0.07,0.3
	c0.04,0.17,0.09,0.34,0.13,0.51c0.01,0.03,0.02,0.06,0.02,0.09c0.17,0.62,0.36,1.24,0.57,1.84l-6.44,4.97l2.58,4.85l7.72-2.55
	c0.38,0.51,0.79,1.01,1.21,1.5C21.05,58.7,21.07,58.72,21.09,58.75z M25.58,31.85c0.07-0.11,0.13-0.22,0.2-0.32
	c0.06-0.1,0.12-0.2,0.19-0.3c0.02-0.03,0.03-0.05,0.05-0.07c1.59-2.4,3.73-4.39,6.24-5.81c0.03-0.01,0.05-0.03,0.08-0.04
	c0.11-0.06,0.23-0.12,0.34-0.18c0.1-0.05,0.2-0.11,0.31-0.16c0.03-0.01,0.05-0.03,0.08-0.04c2.58-1.28,5.43-1.94,8.31-1.91
	c0.03,0,0.06,0,0.09,0c0.13,0,0.25,0.01,0.38,0.01c0.12,0,0.23,0.01,0.35,0.01c0.03,0,0.06,0,0.09,0.01
	c2.87,0.18,5.67,1.04,8.15,2.5c0.03,0.01,0.05,0.03,0.08,0.04c0.11,0.07,0.22,0.14,0.33,0.2c0.1,0.06,0.19,0.12,0.29,0.18
	c0.02,0.02,0.05,0.03,0.07,0.05c2.4,1.59,4.4,3.73,5.81,6.24c0.01,0.02,0.03,0.05,0.04,0.07c0.06,0.11,0.12,0.23,0.18,0.34
	c0.05,0.1,0.11,0.21,0.16,0.31c0.01,0.02,0.02,0.05,0.04,0.07c1.28,2.58,1.94,5.43,1.92,8.31c0,0.03,0,0.06,0,0.09
	c0,0.12-0.01,0.23-0.01,0.35c0,0.13-0.01,0.26-0.01,0.38c0,0.03,0,0.06-0.01,0.09c-0.18,2.87-1.04,5.67-2.5,8.15
	c-0.01,0.02-0.03,0.05-0.04,0.07c-0.06,0.1-0.13,0.2-0.19,0.3c-0.07,0.11-0.13,0.21-0.2,0.32c-0.02,0.02-0.03,0.05-0.05,0.07
	c-1.59,2.4-3.73,4.39-6.24,5.81c-0.03,0.01-0.05,0.03-0.08,0.04c-0.11,0.06-0.21,0.11-0.32,0.17c-0.11,0.06-0.22,0.12-0.33,0.17
	c-0.03,0.01-0.05,0.03-0.08,0.04c-2.58,1.28-5.43,1.94-8.31,1.91c-0.03,0-0.06,0-0.09,0c-0.12,0-0.24-0.01-0.36-0.01
	s-0.25-0.01-0.37-0.01c-0.03,0-0.06,0-0.09-0.01c-2.87-0.18-5.67-1.04-8.15-2.5c-0.03-0.01-0.05-0.03-0.07-0.04
	c-0.1-0.06-0.2-0.12-0.29-0.18c-0.11-0.07-0.22-0.13-0.33-0.2c-0.02-0.02-0.05-0.03-0.07-0.05c-2.4-1.59-4.39-3.73-5.81-6.24
	c-0.02-0.03-0.03-0.05-0.05-0.08c-0.06-0.1-0.11-0.21-0.16-0.31c-0.06-0.11-0.12-0.22-0.18-0.33c-0.01-0.03-0.03-0.06-0.04-0.08
	c-1.28-2.58-1.94-5.43-1.91-8.3c0-0.03,0-0.06,0-0.09c0-0.13,0.01-0.26,0.01-0.39c0-0.11,0.01-0.23,0.01-0.34
	c0-0.03,0-0.06,0.01-0.09c0.18-2.87,1.04-5.67,2.5-8.15C25.55,31.9,25.57,31.88,25.58,31.85z"/>
</svg>
