<?xml version="1.0" encoding="utf-8"?>
<!-- Generator: Adobe Illustrator 22.0.0, SVG Export Plug-In . SVG Version: 6.00 Build 0)  -->
<svg version="1.1" id="Layer_1" xmlns="http://www.w3.org/2000/svg" xmlns:xlink="http://www.w3.org/1999/xlink" x="0px" y="0px"
	 viewBox="0 0 19.3 19.3" style="enable-background:new 0 0 19.3 19.3;" xml:space="preserve">
<style type="text/css">
	.st0{fill:#FFFFFF;}
	.st1{fill:#1B1B1B;}
</style>
<g>
	<path class="st0" d="M0.1,7.8c0,1.6,0.6,3.2,2.1,4.7l0,0c2,2.4,6.6,5.2,7.6,5.6s0.8-0.3,0.8-0.5c-0.1-0.1-0.2-0.8-0.2-0.8
		c-0.1-0.2-0.1-0.6,0-0.8c0.1-0.3,0.5-0.4,0.8-0.5c4.7-0.6,8-3.9,8-7.7c0-4.4-4.1-7.8-9.5-7.8C4.3,0,0.1,3.5,0.1,7.8"/>
	<path class="st1" d="M16.1,10.2h-2.7l0,0c-0.1,0-0.2-0.1-0.2-0.2l0,0l0,0V5.9l0,0l0,0c0-0.1,0.1-0.2,0.2-0.2l0,0h2.7
		c0.1,0,0.2,0.1,0.2,0.2v0.7c0,0.1-0.1,0.2-0.2,0.2h-1.8v0.7h1.8c0.1,0,0.2,0.1,0.2,0.2v0.7c0,0.1-0.1,0.2-0.2,0.2h-1.8v0.7h1.8
		c0.1,0,0.2,0.1,0.2,0.2v0.7C16.3,10.1,16.2,10.2,16.1,10.2"/>
	<path class="st1" d="M6.2,10.2c0.1,0,0.2-0.1,0.2-0.2V9.3c0-0.1-0.1-0.2-0.2-0.2h-2V5.9c0-0.1-0.1-0.2-0.2-0.2H3.4
		c-0.1,0-0.2,0.1-0.2,0.2v4.2l0,0l0,0c0,0.1,0.1,0.2,0.2,0.2l0,0L6.2,10.2L6.2,10.2z"/>
	<path class="st1" d="M7.7,5.7H7.1C7,5.7,6.9,5.8,6.9,5.8V10c0,0.1,0.1,0.2,0.2,0.2h0.7C7.9,10.2,8,10.1,8,10V5.8
		C7.9,5.8,7.9,5.7,7.7,5.7"/>
	<path class="st1" d="M12.3,5.7h-0.7c-0.1,0-0.2,0.1-0.2,0.2v2.4L9.6,5.7l0,0l0,0l0,0l0,0l0,0l0,0l0,0l0,0l0,0l0,0l0,0l0,0l0,0l0,0
		l0,0l0,0l0,0l0,0l0,0H8.9c-0.1,0-0.2,0.1-0.2,0.2v4.2c0,0.1,0.1,0.2,0.2,0.2h0.7c0.1,0,0.2-0.1,0.2-0.2V7.6l1.9,2.6
		c0,0,0,0,0.1,0.1l0,0l0,0l0,0l0,0l0,0l0,0l0,0l0,0c0,0,0,0,0.1,0h0.7c0.1,0,0.2-0.1,0.2-0.2V5.9C12.5,5.8,12.4,5.7,12.3,5.7"/>
</g>
</svg>
