<?xml version="1.0" encoding="utf-8"?>
<!-- Generator: Adobe Illustrator 22.0.0, SVG Export Plug-In . SVG Version: 6.00 Build 0)  -->
<svg version="1.1" id="Layer_1" xmlns="http://www.w3.org/2000/svg" xmlns:xlink="http://www.w3.org/1999/xlink" x="0px" y="0px"
	 viewBox="0 0 81.1 80.9" style="enable-background:new 0 0 81.1 80.9;" xml:space="preserve">
<style type="text/css">
	.st0{fill:#969198;}
</style>
<g>
	<g>
		<circle class="st0" cx="40.5" cy="8.3" r="0.8"/>
	</g>
	<g>
		<circle class="st0" cx="37.3" cy="8.5" r="0.8"/>
	</g>
	<g>
		<circle class="st0" cx="34.2" cy="8.9" r="0.8"/>
	</g>
	<g>
		<circle class="st0" cx="31.1" cy="9.7" r="0.8"/>
	</g>
	<g>
		<circle class="st0" cx="28.1" cy="10.8" r="0.8"/>
	</g>
	<g>
		<circle class="st0" cx="25.2" cy="12.2" r="0.8"/>
	</g>
	<g>
		<circle class="st0" cx="22.5" cy="13.9" r="0.8"/>
	</g>
	<g>
		<circle class="st0" cx="19.9" cy="15.8" r="0.8"/>
	</g>
	<g>
		<circle class="st0" cx="17.6" cy="18" r="0.8"/>
	</g>
	<g>
		<circle class="st0" cx="15.5" cy="20.4" r="0.8"/>
	</g>
	<g>
		<circle class="st0" cx="13.6" cy="23" r="0.8"/>
	</g>
	<g>
		<circle class="st0" cx="12" cy="25.7" r="0.8"/>
	</g>
	<g>
		<circle class="st0" cx="10.7" cy="28.6" r="0.8"/>
	</g>
	<g>
		<circle class="st0" cx="9.7" cy="31.7" r="0.8"/>
	</g>
	<g>
		<circle class="st0" cx="8.9" cy="34.8" r="0.8"/>
	</g>
	<g>
		<circle class="st0" cx="8.5" cy="38" r="0.8"/>
	</g>
	<g>
		<circle class="st0" cx="8.5" cy="41.2" r="0.8"/>
	</g>
	<g>
		<circle class="st0" cx="8.7" cy="44.3" r="0.8"/>
	</g>
	<g>
		<circle class="st0" cx="9.3" cy="47.5" r="0.8"/>
	</g>
	<g>
		<circle class="st0" cx="10.1" cy="50.6" r="0.8"/>
	</g>
	<g>
		<circle class="st0" cx="11.3" cy="53.6" r="0.8"/>
	</g>
	<g>
		<circle class="st0" cx="12.7" cy="56.4" r="0.8"/>
	</g>
	<g>
		<circle class="st0" cx="14.5" cy="59.1" r="0.8"/>
	</g>
	<g>
		<circle class="st0" cx="16.5" cy="61.6" r="0.8"/>
	</g>
	<g>
		<circle class="st0" cx="18.7" cy="63.9" r="0.8"/>
	</g>
	<g>
		<circle class="st0" cx="21.1" cy="65.9" r="0.8"/>
	</g>
	<g>
		<circle class="st0" cx="23.8" cy="67.7" r="0.8"/>
	</g>
	<g>
		<circle class="st0" cx="26.6" cy="69.3" r="0.8"/>
	</g>
	<g>
		<circle class="st0" cx="29.5" cy="70.5" r="0.8"/>
	</g>
	<g>
		<circle class="st0" cx="32.6" cy="71.4" r="0.8"/>
	</g>
	<g>
		<circle class="st0" cx="35.7" cy="72.1" r="0.8"/>
	</g>
	<g>
		<circle class="st0" cx="38.9" cy="72.4" r="0.8"/>
	</g>
	<g>
		<circle class="st0" cx="42.1" cy="72.4" r="0.8"/>
	</g>
	<g>
		<circle class="st0" cx="45.3" cy="72.1" r="0.8"/>
	</g>
	<g>
		<circle class="st0" cx="48.4" cy="71.5" r="0.8"/>
	</g>
	<g>
		<circle class="st0" cx="51.5" cy="70.5" r="0.8"/>
	</g>
	<g>
		<circle class="st0" cx="54.4" cy="69.3" r="0.8"/>
	</g>
	<g>
		<circle class="st0" cx="57.2" cy="67.8" r="0.8"/>
	</g>
	<g>
		<circle class="st0" cx="59.9" cy="66" r="0.8"/>
	</g>
	<g>
		<circle class="st0" cx="62.3" cy="63.9" r="0.8"/>
	</g>
	<g>
		<circle class="st0" cx="64.5" cy="61.6" r="0.8"/>
	</g>
	<g>
		<circle class="st0" cx="66.5" cy="59.1" r="0.8"/>
	</g>
	<g>
		<circle class="st0" cx="68.3" cy="56.4" r="0.8"/>
	</g>
	<g>
		<circle class="st0" cx="69.7" cy="53.6" r="0.8"/>
	</g>
	<g>
		<circle class="st0" cx="70.9" cy="50.6" r="0.8"/>
	</g>
	<g>
		<circle class="st0" cx="71.8" cy="47.5" r="0.8"/>
	</g>
	<g>
		<circle class="st0" cx="72.3" cy="44.4" r="0.8"/>
	</g>
	<g>
		<circle class="st0" cx="72.6" cy="41.2" r="0.8"/>
	</g>
	<g>
		<circle class="st0" cx="72.5" cy="38" r="0.8"/>
	</g>
	<g>
		<circle class="st0" cx="72.1" cy="34.8" r="0.8"/>
	</g>
	<g>
		<circle class="st0" cx="71.4" cy="31.7" r="0.8"/>
	</g>
	<g>
		<circle class="st0" cx="70.4" cy="28.7" r="0.8"/>
	</g>
	<g>
		<circle class="st0" cx="69.1" cy="25.8" r="0.8"/>
	</g>
	<g>
		<circle class="st0" cx="67.5" cy="23" r="0.8"/>
	</g>
	<g>
		<circle class="st0" cx="65.6" cy="20.4" r="0.8"/>
	</g>
	<g>
		<circle class="st0" cx="63.5" cy="18" r="0.8"/>
	</g>
	<g>
		<circle class="st0" cx="61.1" cy="15.8" r="0.8"/>
	</g>
	<g>
		<circle class="st0" cx="58.6" cy="13.9" r="0.8"/>
	</g>
	<g>
		<circle class="st0" cx="55.9" cy="12.2" r="0.8"/>
	</g>
	<g>
		<circle class="st0" cx="53" cy="10.8" r="0.8"/>
	</g>
	<g>
		<circle class="st0" cx="50" cy="9.7" r="0.8"/>
	</g>
	<g>
		<circle class="st0" cx="46.9" cy="9" r="0.8"/>
	</g>
	<g>
		<circle class="st0" cx="43.7" cy="8.5" r="0.8"/>
	</g>
</g>
<g>
	<path class="st0" d="M78.5,32.1c-1.2-2.1-2.4-4.1-3.6-5.9c-0.5-2.1-1-4.4-1.7-6.7c-1.6-5.9-4.3-9.3-10.7-11.4
		c-2.6-0.9-5.3-1.6-7.9-2.1c-1.8-1.2-3.8-2.3-5.8-3.5C43.5-0.5,39.2-1,33.2,2c-2.4,1.2-4.8,2.6-7,4c-2.6,0.6-5.2,1.3-7.8,2.1
		c-6.3,2.1-9.1,5.5-10.7,11.4c-0.6,2.3-1.2,4.5-1.6,6.6c-1.5,2.3-2.8,4.6-4.1,7.1c-3,6-2.6,10.3,0.5,15.6c1.2,2.1,2.4,4.1,3.6,5.9
		c0.5,2.1,1,4.4,1.7,6.7c1.6,5.9,4.3,9.3,10.7,11.4c2.6,0.9,5.3,1.6,7.9,2.1c1.8,1.2,3.8,2.3,5.8,3.5c5.3,3,9.6,3.5,15.6,0.5
		c2.4-1.2,4.8-2.6,7-4c2.6-0.6,5.2-1.3,7.8-2.1c6.3-2.1,9.1-5.5,10.7-11.4c0.6-2.3,1.2-4.5,1.6-6.6c1.5-2.3,2.8-4.6,4.1-7.1
		C82,41.7,81.6,37.3,78.5,32.1z M40.5,75.1c-19.2,0-34.8-15.6-34.8-34.8S21.3,5.5,40.5,5.5s34.8,15.6,34.8,34.8
		C75.3,59.5,59.7,75.1,40.5,75.1z"/>
</g>
<g>
	<g>
		<path class="st0" d="M20.4,27.1L20.4,27.1c0.2,0.2,0.4,0.5,0.5,0.7l-1.1,1l0,0c-0.1-0.3-0.3-0.5-0.6-0.8l-3-2.2l0.8-1.1l2.4,1.8
			c0.7,0,1.2-0.3,1.5-0.7c0.4-0.5,0.2-1-0.5-1.5l-2-1.5l0.8-1.1l2.2,1.6c1.1,0.8,1.4,1.9,0.6,2.9C21.8,26.8,21.2,27.1,20.4,27.1z"/>
	</g>
	<g>
		<path class="st0" d="M21,20l1.1-0.9l0.9,1.1l0.3-0.3c0.7-0.7,0.8-1.4,0.7-2.5l1.3-0.7l0,0c0.2,0.6,0.2,1.2-0.2,2.1
			c0.8-0.4,1.4-0.2,1.9,0.4l1,1.3l-1.1,1l-1-1.2c-0.3-0.4-0.7-0.4-1.1-0.1l-1.2,1l1.5,1.8L24,23.9L21,20z"/>
	</g>
	<g>
		<path class="st0" d="M29.4,16.7c-0.2-0.5-0.6-0.6-1.2-0.4c-0.3,0.2-0.6,0.4-0.8,0.8l-0.9-0.7c0.3-0.5,0.7-0.9,1.3-1.2
			c1.2-0.6,2.2-0.3,2.7,0.8l1.3,2.7l-1.2,0.6L29.4,16.7z"/>
	</g>
	<g>
		<path class="st0" d="M32.4,17.7l0.5-1.1c0.4,0.2,0.9,0.2,1.4,0.1c0.8-0.2,1.2-0.8,1-1.7c-0.2-0.8-0.8-1.2-1.6-1
			c-0.4,0.1-0.8,0.4-1.2,0.7L31.6,14c0.4-0.5,1-0.9,1.9-1.1c1.6-0.4,2.9,0.3,3.3,1.8c0.4,1.5-0.4,2.7-2,3.1C33.8,18,33,18,32.4,17.7
			z"/>
	</g>
	<g>
		<polygon class="st0" points="31.4,11.6 35.4,10.9 35.6,11.9 31.6,12.6 		"/>
	</g>
	<g>
		<path class="st0" d="M38.2,12.2h1.3V13l0,0c0.5-0.6,1.1-0.9,1.8-0.9c1.2,0,2,0.9,2,2.3v2.7l-1.4,0.1v-2.5c0-0.9-0.3-1.3-1-1.3
			c-0.5,0-1,0.2-1.4,0.8v3h-1.4L38.2,12.2z"/>
	</g>
	<g>
		<path class="st0" d="M50.5,14l-0.9,3.1c-0.3,1.1-1.3,1.4-2.9,1c-1.6-0.4-2.3-1.2-2-2.1c0.1-0.4,0.4-0.6,0.7-0.8
			c-0.3-0.4-0.4-0.8-0.3-1.3c0.3-0.9,1.1-1.2,2.3-0.9c0.3,0.1,0.6,0.2,0.9,0.3l-0.3,1c-0.2-0.1-0.4-0.2-0.6-0.2
			c-0.6-0.2-0.9-0.1-1,0.2c-0.1,0.3,0.2,0.6,0.7,0.7c0.2,0.1,0.4,0.1,0.6,0.1L47.4,16c-0.3,0-0.6-0.1-1-0.2c-0.1,0-0.2-0.1-0.3-0.1
			c-0.1,0.1-0.2,0.2-0.2,0.3c-0.1,0.4,0.2,0.7,0.9,0.9c0.7,0.2,1.2,0.1,1.3-0.4l0.8-3L50.5,14z"/>
	</g>
	<g>
		<path class="st0" d="M53.3,17.5c0.3-0.5,0.1-0.9-0.4-1.2c-0.3-0.2-0.7-0.3-1.1-0.2V15c0.6-0.1,1.2,0,1.8,0.4
			c1.2,0.7,1.5,1.6,0.9,2.7L53,20.8l-1.1-0.7L53.3,17.5z"/>
	</g>
	<g>
		<path class="st0" d="M59.8,22.1l-2.1,2.4l-1-0.9l1.2-1.4c-0.2-0.3-0.4-0.6-0.7-0.8c-0.5-0.5-1-0.6-1.2-0.3c-0.2,0.2-0.1,0.6,0.4,1
			c0.2,0.1,0.3,0.3,0.5,0.4l-0.7,0.8c-0.3-0.1-0.5-0.3-0.8-0.6c-1-0.9-1.2-1.8-0.5-2.5c0.7-0.8,1.7-0.7,2.8,0.3
			c0.4,0.3,0.7,0.7,0.9,1l0.1-0.1c0.4-0.4,0.2-1-0.5-1.5c-0.4-0.4-0.9-0.6-1.3-0.7l0.4-1c0.6,0.2,1.3,0.5,1.9,1.1
			C60.3,20.2,60.5,21.3,59.8,22.1z"/>
	</g>
	<g>
		<path class="st0" d="M60.7,18c0.1-0.1,0.3-0.2,0.4-0.3l0.8,0.9c-0.1,0-0.1,0.1-0.2,0.1c-0.2,0.2-0.2,0.4,0,0.7l1,1.1L62,21.1
			l-1.3-1.4C60.2,19.1,60.2,18.5,60.7,18z"/>
	</g>
	<g>
		<path class="st0" d="M65.2,26.7l-2.7,1.8c-0.9,0.6-2,0.2-2.9-1.1s-1-2.4-0.2-2.9c0.3-0.2,0.7-0.3,1-0.1c0-0.5,0.2-0.9,0.6-1.1
			c0.8-0.5,1.6-0.2,2.3,0.8c0.2,0.3,0.3,0.6,0.4,0.8l-0.8,0.6c-0.1-0.2-0.2-0.4-0.3-0.6c-0.3-0.5-0.6-0.6-0.9-0.5
			c-0.3,0.2-0.2,0.5,0.1,1c0.1,0.2,0.3,0.3,0.4,0.5l-0.8,0.5c-0.2-0.2-0.4-0.4-0.6-0.7c-0.1-0.1-0.1-0.2-0.2-0.3c-0.1,0-0.3,0-0.4,0
			c-0.3,0.2-0.3,0.7,0.1,1.3c0.4,0.6,0.9,0.8,1.3,0.6l2.6-1.7L65.2,26.7z"/>
	</g>
</g>
<g>
	<g>
		<g>
			<rect x="34.4" y="25.1" class="st0" width="0.6" height="30.2"/>
		</g>
		<g>
			<rect x="40.3" y="24" class="st0" width="0.6" height="32.7"/>
		</g>
		<g>
			<rect x="46.1" y="25.1" class="st0" width="0.6" height="30.2"/>
		</g>
		<g>
			<rect x="52" y="27.1" class="st0" width="0.6" height="26.1"/>
		</g>
		<g>
			<rect x="28.6" y="27.1" class="st0" width="0.6" height="26.1"/>
		</g>
		<g>
			<rect x="27.5" y="28.4" class="st0" width="26.1" height="0.6"/>
		</g>
		<g>
			<rect x="25.5" y="34.2" class="st0" width="30.3" height="0.6"/>
		</g>
		<g>
			<rect x="23.8" y="40.1" class="st0" width="33.4" height="0.6"/>
		</g>
		<g>
			<rect x="25.5" y="46" class="st0" width="30.3" height="0.6"/>
		</g>
		<g>
			<rect x="27.5" y="51.8" class="st0" width="26.1" height="0.6"/>
		</g>
	</g>
	<g>
		<rect x="39.3" y="27" class="st0" width="2.4" height="26.6"/>
	</g>
	<g>
		<rect x="27" y="39.1" class="st0" width="27" height="2.4"/>
	</g>
	<path class="st0" d="M27,35.3v2.4c0,0,18.9,1.5,23.5-9.4l-2.2-1.1C48.3,27.3,45.6,36.6,27,35.3"/>
</g>
<g>
	<g>
		<path class="st0" d="M18.2,48.9L18.2,48.9c-0.4-0.1-0.8-0.3-1.2-0.7c-0.2,0.3-0.5,0.4-0.9,0.5l-2.9,0.7l-0.3-1.3l2.7-0.6
			c0.7-0.2,0.9-0.7,0.7-1.5c-0.2-0.8-0.6-1.2-1.3-1l-0.6,0.2l0,0c0.5,0.1,0.8,0.5,0.9,1c0,0.1,0,0.3,0,0.4l-1.2,0.3
			c0-0.1,0-0.2-0.1-0.4c-0.2-0.8-0.5-1.1-1.2-1l-0.6,0.1l-0.3-1.3l2.9-0.7c1.2-0.3,2.1,0.5,2.5,2.1c0.1,0.6,0.2,1.1,0.1,1.5
			c0.2,0.2,0.4,0.3,0.7,0.4L18.2,48.9z"/>
	</g>
	<g>
		<path class="st0" d="M14.5,51.5h1.1c0,0.5,0.1,1.2,0.5,1.8c0.3,0.5,0.6,0.8,0.8,0.7c0.2-0.1,0.2-0.6-0.1-1.5
			c-0.4-1.2-0.1-1.9,0.5-2.2c0.8-0.4,1.7,0,2.3,1.1c0.4,0.7,0.6,1.5,0.6,2.2h-1.1c0-0.5-0.1-1.1-0.4-1.6c-0.2-0.4-0.5-0.7-0.7-0.6
			c-0.2,0.1-0.2,0.6,0.1,1.6c0.4,1.3,0.1,1.9-0.6,2.3c-0.9,0.5-1.7,0-2.4-1.4C14.8,53,14.5,52.2,14.5,51.5z"/>
	</g>
	<g>
		<polygon class="st0" points="21.7,50.8 22.3,51.7 21,52.6 18.8,49.2 19.6,48.7 21.3,51.2 		"/>
	</g>
	<g>
		<path class="st0" d="M19.1,56.1l2-1.8l0.9,1L20.1,57c-0.7,0.6-0.8,1.1-0.3,1.6c0.3,0.4,0.9,0.6,1.5,0.5l2.2-2l0.9,1l-2.7,2.4
			c-0.3,0.3-0.5,0.6-0.5,0.8l0,0l-1.1-0.8c0.1-0.3,0.2-0.5,0.5-0.7l0,0c-0.7,0-1.4-0.2-1.9-0.7C17.9,58.1,18.1,57,19.1,56.1z"/>
	</g>
	<g>
		<path class="st0" d="M28.8,63.2l-1.6,2.5L26,64.9l1.5-2.3c0.4-0.6,0.2-1.1-0.5-1.6c-0.7-0.4-1.3-0.4-1.6,0.2L25,61.8l0,0
			c0.5-0.3,0.9-0.2,1.4,0.1c0.1,0.1,0.2,0.2,0.3,0.3l-0.6,1C26,63.1,25.9,63,25.8,63c-0.7-0.4-1.1-0.4-1.6,0.1l-0.3,0.5l-1.2-0.8
			l1.6-2.5c0.7-1.1,1.9-1.1,3.3-0.2C29.1,61.1,29.5,62.2,28.8,63.2z"/>
	</g>
	<g>
		<path class="st0" d="M29.1,66.2l0.8-0.7c0.4,0.4,0.9,0.8,1.6,1c0.6,0.2,1,0.2,1.1-0.1c0.1-0.3-0.2-0.5-1.1-1.1
			c-1.1-0.7-1.4-1.3-1.1-2c0.3-0.9,1.2-1.2,2.5-0.7c0.8,0.3,1.5,0.7,2,1.2l-1,0.8c-0.3-0.4-0.8-0.7-1.4-0.9
			c-0.5-0.2-0.9-0.2-0.9,0.1c-0.1,0.3,0.2,0.6,1.1,1.1c1.1,0.7,1.4,1.4,1.1,2c-0.3,0.9-1.3,1.1-2.7,0.6
			C30.3,67.2,29.6,66.7,29.1,66.2z"/>
	</g>
	<g>
		<polygon class="st0" points="30.9,60.7 34.9,61.6 34.7,62.5 30.7,61.6 		"/>
	</g>
	<g>
		<path class="st0" d="M35.6,66.5l0.2-2.7l1.4,0.1L37,66.4c-0.1,0.9,0.2,1.3,0.8,1.4c0.5,0,1.1-0.2,1.5-0.7l0.3-3l1.3,0.1l-0.3,3.6
			c0,0.4,0,0.7,0.2,1l0,0L39.4,69c-0.1-0.2-0.2-0.5-0.1-0.9l0,0c-0.5,0.5-1.1,0.8-1.9,0.7C36.1,68.7,35.4,67.8,35.6,66.5z"/>
	</g>
	<g>
		<path class="st0" d="M42.1,64.1l1.3-0.2l0.1,0.8l0,0c0.3-0.6,0.9-1.1,1.6-1.2c1.2-0.2,2.1,0.5,2.3,1.9l0.5,2.7l-1.4,0.2l-0.4-2.4
			c-0.2-0.9-0.6-1.2-1.2-1.1c-0.5,0.1-1,0.4-1.3,1l0.5,3l-1.2,0.1L42.1,64.1z"/>
	</g>
	<g>
		<path class="st0" d="M49.7,67.1l0.1-1.1c0.5,0,1.2-0.1,1.8-0.3c0.5-0.2,0.9-0.5,0.7-0.8c-0.1-0.3-0.5-0.2-1.6,0
			c-1.1,0.3-1.8-0.1-2-0.7c-0.4-0.8,0.1-1.7,1.3-2.2c0.7-0.3,1.5-0.5,2.2-0.5l-0.1,1.1c-0.5,0-1.1,0-1.6,0.3
			c-0.4,0.2-0.7,0.4-0.6,0.7c0.1,0.3,0.6,0.2,1.6,0c1.3-0.3,1.9,0.1,2.2,0.7c0.4,0.9-0.2,1.7-1.5,2.3C51.3,67,50.4,67.1,49.7,67.1z"
			/>
	</g>
	<g>
		<path class="st0" d="M55.2,64.3v-1.2c0.5,0,0.9-0.2,1.3-0.5c0.7-0.5,0.8-1.2,0.3-1.9s-1.2-0.8-1.9-0.3c-0.3,0.3-0.6,0.7-0.8,1.1
			L53,61.2c0.2-0.6,0.6-1.3,1.3-1.8c1.3-1,2.8-0.8,3.7,0.4s0.7,2.7-0.7,3.7C56.6,64.1,55.9,64.3,55.2,64.3z"/>
	</g>
	<g>
		<polygon class="st0" points="51.9,59.8 54.9,57 55.6,57.7 52.6,60.5 		"/>
	</g>
	<g>
		<path class="st0" d="M59.6,59.6l-2.2-2.1c-0.5-0.4-1-0.6-1.3-0.3l-0.2,0.2l-0.7-0.7l2.5-2.6l0.7,0.6L57,56.2c0.4-0.3,1,0,1.4,0.3
			l2,1.9c0.3,0.3,0.6,0.3,0.8,0c0.1-0.1,0.1-0.2,0.2-0.3l0.8,0.8c-0.1,0.2-0.3,0.4-0.5,0.6C61.1,60.3,60.4,60.2,59.6,59.6z"/>
	</g>
	<g>
		<path class="st0" d="M62.8,57.8l-0.5-1c0.5-0.3,1-0.7,1.3-1.3c0.3-0.5,0.4-0.9,0.2-1.1c-0.2-0.2-0.6,0.1-1.3,0.8
			c-0.9,0.9-1.6,1-2.2,0.6c-0.8-0.5-0.8-1.4-0.1-2.6c0.4-0.7,1-1.2,1.6-1.6l0.5,1c-0.4,0.2-0.9,0.6-1.2,1.1
			c-0.3,0.4-0.4,0.8-0.2,0.9c0.2,0.2,0.6-0.1,1.3-0.8c0.9-0.9,1.7-1,2.3-0.6c0.8,0.6,0.8,1.5-0.1,2.8C64,56.9,63.4,57.5,62.8,57.8z"
			/>
	</g>
	<g>
		<path class="st0" d="M67.5,47L67.5,47c0.3,0.1,0.6,0.3,0.8,0.5l-0.7,1.3l0,0c-0.2-0.2-0.5-0.4-0.8-0.5l-1.7-0.5
			c-0.4-0.1-0.8,0-1,0.3l0.2,0.6L64.2,49l-0.5,0.4c0.1,0.6,0.5,1,1.2,1.2s1.3-0.1,1.5-0.9c0-0.2,0.1-0.4,0.1-0.5l1.1,0.3
			c0,0.3-0.1,0.6-0.1,0.9c-0.4,1.4-1.4,2-2.9,1.6c-1.4-0.4-2.1-1.4-1.9-2.9l0.7-0.5l0,0l-0.3-0.8c0.5-1.2,1.3-1.6,2.4-1.3l1.2,0.3
			c0.5-0.2,0.9-0.6,1-1c0.1-0.5-0.1-0.9-0.9-1.1L64.3,44l0.4-1.3l2.8,0.8c1.2,0.3,1.8,1.2,1.5,2.3C68.6,46.3,68.2,46.8,67.5,47z"/>
	</g>
</g>
<g>
	<g>
		<path class="st0" d="M65.3,35.3l-0.4,1.3c0,0.1-0.2,0.2-0.3,0l-0.7-1l0.1-1.2c0-0.1,0.2-0.2,0.3-0.1L65.3,35.3z"/>
	</g>
	<g>
		<path class="st0" d="M65.5,35l-1.1-1.1c-0.1-0.1-0.2-0.3-0.2-0.5l0.1-2.5l1.5,2.1c0.1,0.2,0.1,0.4,0.1,0.6L65.5,35z"/>
	</g>
	<g>
		<path class="st0" d="M65.8,35.2l0.3-1.3c0-0.1,0.2-0.2,0.3,0l0.7,1L67,36.1c0,0.1-0.2,0.2-0.3,0.1L65.8,35.2z"/>
	</g>
	<g>
		<path class="st0" d="M65.6,35.5l1.1,1c0.1,0.1,0.2,0.3,0.2,0.5l-0.1,2.6l-1.4-2.1c-0.1-0.1-0.1-0.3-0.1-0.5L65.6,35.5z"/>
	</g>
</g>
<g>
	<g>
		<path class="st0" d="M15.8,35.3l0.4,1.3c0,0.1,0.2,0.2,0.3,0l0.7-1l-0.1-1.2c0-0.1-0.2-0.2-0.3-0.1L15.8,35.3z"/>
	</g>
	<g>
		<path class="st0" d="M15.6,35l1.1-1.1c0.1-0.1,0.2-0.3,0.2-0.5l-0.1-2.5L15.3,33c-0.1,0.1-0.1,0.3-0.1,0.5L15.6,35z"/>
	</g>
	<g>
		<path class="st0" d="M15.3,35.2l-0.4-1.3c0-0.1-0.2-0.2-0.3,0l-0.7,1l0.1,1.2c0,0.1,0.2,0.2,0.3,0.1L15.3,35.2z"/>
	</g>
	<g>
		<path class="st0" d="M15.5,35.5l-1.1,1c-0.1,0.1-0.2,0.3-0.2,0.5l0.1,2.6l1.4-2.1c0.1-0.1,0.1-0.3,0.1-0.5L15.5,35.5z"/>
	</g>
</g>
<g>
	<g>
		<g>
			<path class="st0" d="M40,21.3L40,21.3h-1.2l1.1-0.7l0,0l-1,0.7H40c0,0,0.4,0,0.6-0.3c0.2-0.2,0.3-0.4,0.7-0.4l0,0
				c-0.4,0-0.5,0.2-0.7,0.4C40.4,21.3,40.1,21.3,40,21.3z"/>
		</g>
		<g>
			<path class="st0" d="M41.3,20.6h-1.4l0,0l-1.1-0.8h1.1c0.3,0,0.5,0.1,0.7,0.3l0,0c0,0,0,0,0.1,0.1C40.8,20.4,40.9,20.5,41.3,20.6
				L41.3,20.6z M40,20.5h1.1c-0.3-0.1-0.4-0.2-0.4-0.3c0,0,0,0-0.1-0.1l0,0c-0.2-0.2-0.4-0.3-0.6-0.3h-1L40,20.5z"/>
		</g>
	</g>
	<g>
		<g>
			<path class="st0" d="M36.9,21.5l1.1-0.8l0,0l-0.9,0.8l1-0.1c0,0,0.4,0,0.6-0.3c0.1-0.2,0.3-0.4,0.7-0.5l0,0
				c-0.4,0.1-0.5,0.2-0.6,0.4c-0.2,0.3-0.6,0.4-0.7,0.4L36.9,21.5z"/>
		</g>
		<g>
			<path class="st0" d="M38,20.7L38,20.7L36.8,20l1.1-0.1c0.3,0,0.5,0.1,0.7,0.3l0,0c0,0,0,0,0.1,0.1s0.2,0.2,0.7,0.3l0,0L38,20.7z
				 M36.9,20.1l1.1,0.6l1.1-0.1c-0.3,0-0.4-0.1-0.5-0.3c0,0,0,0-0.1-0.1l0,0c-0.2-0.2-0.4-0.3-0.7-0.2L36.9,20.1z"/>
		</g>
	</g>
	<g>
		<g>
			<path class="st0" d="M35.1,22l1-0.9l0,0l-0.9,0.8l1-0.2c0,0,0.4-0.1,0.6-0.4c0.1-0.2,0.2-0.4,0.6-0.5l0,0
				c-0.4,0.1-0.5,0.3-0.6,0.5c-0.2,0.3-0.6,0.4-0.6,0.4L35.1,22z"/>
		</g>
		<g>
			<path class="st0" d="M36.1,21.1l-1.3-0.5l1.1-0.2c0.3,0,0.5,0,0.7,0.2l0,0c0,0,0,0,0.1,0.1s0.2,0.2,0.7,0.2l0,0L36.1,21.1z
				 M34.9,20.6l1.1,0.5l1.1-0.2c-0.3,0-0.4-0.1-0.5-0.2c0,0,0,0-0.1-0.1l0,0c-0.2-0.2-0.4-0.2-0.7-0.2L34.9,20.6z"/>
		</g>
	</g>
	<g>
		<g>
			<path class="st0" d="M33.3,22.6l0.9-1l0,0l-0.8,0.9l1-0.3c0,0,0.4-0.1,0.5-0.5c0.1-0.3,0.2-0.4,0.6-0.6l0,0
				c-0.4,0.1-0.5,0.3-0.5,0.6c-0.1,0.4-0.6,0.5-0.6,0.5L33.3,22.6z"/>
		</g>
		<g>
			<path class="st0" d="M34.2,21.6l-1.3-0.4l1.1-0.3c0.3-0.1,0.5,0,0.7,0.1c0,0,0,0,0.1,0.1s0.3,0.2,0.7,0.1l0,0L34.2,21.6z
				 M33,21.2l1.2,0.4l1.1-0.3c-0.3,0-0.4-0.1-0.5-0.2c0,0,0,0-0.1,0l0,0C34.5,21,34.3,20.9,34,21L33,21.2z"/>
		</g>
	</g>
	<g>
		<g>
			<path class="st0" d="M31.6,23.4l0.8-1.1l0,0l-0.7,1l0.9-0.4c0,0,0.4-0.2,0.5-0.5s0.1-0.5,0.5-0.6l0,0c-0.4,0.2-0.4,0.4-0.5,0.6
				c-0.1,0.4-0.5,0.5-0.5,0.5L31.6,23.4z"/>
		</g>
		<g>
			<path class="st0" d="M32.3,22.4L32.3,22.4L31,22.1l1.1-0.4c0.3-0.1,0.5-0.1,0.8,0l0,0H33c0.2,0.1,0.3,0.2,0.7,0.1l0,0L32.3,22.4z
				 M31.1,22.1l1.2,0.3l1.1-0.4c-0.3,0-0.4,0-0.5-0.1c0,0,0,0-0.1,0l0,0c-0.2-0.1-0.5-0.1-0.7,0L31.1,22.1z"/>
		</g>
	</g>
	<g>
		<g>
			<path class="st0" d="M29.9,24.4l0.6-1.2l0,0l-0.6,1.1l0.9-0.5c0,0,0.4-0.2,0.4-0.6c0-0.3,0.1-0.5,0.4-0.7l0,0
				c-0.3,0.2-0.4,0.4-0.4,0.7c-0.1,0.4-0.4,0.6-0.5,0.6L29.9,24.4z"/>
		</g>
		<g>
			<path class="st0" d="M30.6,23.3L30.6,23.3l-1.4-0.1l1-0.5c0.3-0.1,0.5-0.1,0.7,0l0,0H31c0.2,0.1,0.3,0.1,0.7,0l0,0L30.6,23.3z
				 M29.4,23.1l1.2,0.1l1-0.5c-0.3,0.1-0.4,0-0.5-0.1c0,0,0,0-0.1,0l0,0c-0.2-0.1-0.5-0.1-0.7,0L29.4,23.1z"/>
		</g>
	</g>
	<g>
		<g>
			<path class="st0" d="M28.4,25.5l0.5-1.2l0,0l-0.5,1.1l0.8-0.6c0,0,0.4-0.2,0.4-0.6c0-0.3,0.1-0.5,0.4-0.7l0,0
				c-0.3,0.2-0.3,0.4-0.4,0.7c0,0.4-0.4,0.6-0.4,0.6L28.4,25.5z"/>
		</g>
		<g>
			<path class="st0" d="M28.9,24.3h-1.4l1-0.6c0.2-0.2,0.5-0.2,0.7-0.1l0,0h0.1c0.2,0.1,0.3,0.1,0.7-0.1l0,0L28.9,24.3z M27.7,24.3
				h1.2l1-0.6c-0.3,0.1-0.4,0-0.5,0h-0.1l0,0c-0.2-0.1-0.5,0-0.7,0.1L27.7,24.3z"/>
		</g>
	</g>
	<g>
		<g>
			<path class="st0" d="M27,26.8l0.4-1.3l0,0L27,26.8l0.8-0.7c0,0,0.3-0.3,0.3-0.6c0-0.3,0-0.5,0.3-0.8l0,0
				c-0.3,0.3-0.3,0.5-0.3,0.7c0,0.4-0.3,0.7-0.3,0.7L27,26.8z"/>
		</g>
		<g>
			<path class="st0" d="M26,25.7l0.9-0.7c0.2-0.2,0.5-0.2,0.7-0.2l0,0h0.1c0.2,0,0.3,0.1,0.7-0.2l0,0l-1.1,0.9L26,25.7z M27.5,24.8
				c-0.2,0-0.4,0.1-0.5,0.2l-0.8,0.6l1.2-0.1l0.9-0.7c-0.3,0.1-0.4,0.1-0.5,0.1h-0.1l0,0C27.6,24.8,27.6,24.8,27.5,24.8z"/>
		</g>
	</g>
	<g>
		<g>
			<path class="st0" d="M25.7,28.2l0.3-1.3l0,0L25.7,28.2l0.8-0.8c0,0,0.3-0.3,0.3-0.7c0-0.3,0-0.5,0.2-0.8l0,0
				c-0.3,0.3-0.2,0.5-0.2,0.8c0.1,0.4-0.3,0.7-0.3,0.7L25.7,28.2z"/>
		</g>
		<g>
			<path class="st0" d="M24.7,27.2l0.8-0.8c0.2-0.2,0.4-0.3,0.7-0.3l0,0h0.1c0.2,0,0.3,0,0.7-0.2l0,0l-1,1l0,0L24.7,27.2z
				 M26.1,26.2c-0.2,0-0.4,0.1-0.6,0.3l-0.7,0.7L26,27l0.8-0.8c-0.3,0-0.4,0-0.5,0S26.2,26.2,26.1,26.2L26.1,26.2
				C26.2,26.2,26.1,26.2,26.1,26.2z"/>
		</g>
	</g>
	<g>
		<g>
			<path class="st0" d="M24.6,29.8l0.1-1.3l0,0L24.6,29.8l0.6-0.9c0,0,0.3-0.3,0.2-0.7c-0.1-0.3-0.1-0.5,0.1-0.8l0,0
				c-0.2,0.3-0.2,0.5-0.1,0.8c0.1,0.4-0.2,0.7-0.2,0.7L24.6,29.8z"/>
		</g>
		<g>
			<path class="st0" d="M23.4,28.8l0.8-0.9c0.2-0.2,0.4-0.3,0.7-0.3l0,0l0,0H25c0.2,0,0.3,0,0.7-0.3l0,0l-0.9,1.1L23.4,28.8z
				 M24.8,27.7c-0.2,0-0.5,0.1-0.6,0.3l-0.7,0.8l1.2-0.3l0.7-0.9C25.2,27.7,25.1,27.7,24.8,27.7C24.9,27.7,24.9,27.7,24.8,27.7z"/>
		</g>
	</g>
	<g>
		<g>
			<path class="st0" d="M23.6,31.4v-1.3l0,0V31.4l0.5-0.9c0,0,0.2-0.4,0.1-0.7s-0.1-0.5,0.1-0.8l0,0c-0.2,0.3-0.1,0.5-0.1,0.8
				c0.1,0.4-0.1,0.7-0.1,0.7L23.6,31.4z"/>
		</g>
		<g>
			<path class="st0" d="M22.4,30.6l0.7-0.9c0.2-0.2,0.4-0.4,0.6-0.4l0,0h0.1c0.2,0,0.3,0,0.6-0.4l0,0l-0.8,1.2l0,0L22.4,30.6z
				 M23.7,29.3c-0.2,0-0.4,0.2-0.6,0.4l-0.6,0.8l1.1-0.5l0.6-0.9C24,29.3,23.9,29.3,23.7,29.3L23.7,29.3L23.7,29.3z"/>
		</g>
	</g>
	<g>
		<g>
			<path class="st0" d="M22.8,33.1l-0.1-1.3l0,0L22.8,33.1l0.5-1c0,0,0.2-0.4,0.1-0.7c-0.1-0.2-0.2-0.4,0-0.8l0,0
				c-0.2,0.4-0.1,0.5,0,0.8c0.2,0.4,0,0.7-0.1,0.7L22.8,33.1z"/>
		</g>
		<g>
			<path class="st0" d="M21.5,32.5l0.6-1c0.1-0.3,0.3-0.4,0.6-0.5l0,0h0.1c0.2,0,0.3-0.1,0.6-0.4l0,0l-0.7,1.2l0,0L21.5,32.5z
				 M22.7,31c-0.2,0-0.4,0.2-0.6,0.4l-0.5,0.9l1.1-0.6l0.5-1C23,31,22.9,31,22.7,31L22.7,31L22.7,31z"/>
		</g>
	</g>
	<g>
		<g>
			<path class="st0" d="M22.2,34.9l-0.3-1.3l0,0L22.2,34.9l0.3-1c0,0,0.2-0.4,0-0.7c-0.1-0.2-0.2-0.4-0.1-0.8l0,0
				c-0.1,0.4,0,0.6,0.1,0.8c0.2,0.3,0,0.7,0,0.7L22.2,34.9z"/>
		</g>
		<g>
			<path class="st0" d="M20.8,34.4l0.5-1c0.1-0.3,0.3-0.4,0.5-0.5l0,0h0.1c0.2,0,0.3-0.1,0.5-0.5l0,0l-0.5,1.2l0,0L20.8,34.4z
				 M21.8,32.9c-0.2,0.1-0.4,0.2-0.5,0.5l-0.4,0.9l1-0.7l0.4-1.1C22.2,32.8,22,32.8,21.8,32.9C21.9,32.8,21.8,32.9,21.8,32.9
				L21.8,32.9z"/>
		</g>
	</g>
	<g>
		<g>
			<path class="st0" d="M21.7,36.8l-0.4-1.3l0,0L21.7,36.8l0.3-1.1c0,0,0.1-0.4-0.1-0.7c-0.2-0.2-0.3-0.4-0.2-0.8l0,0
				c-0.1,0.4,0,0.6,0.2,0.8c0.2,0.3,0.1,0.7,0.1,0.7L21.7,36.8z"/>
		</g>
		<g>
			<path class="st0" d="M20.3,36.4l0.4-1.1c0.1-0.3,0.3-0.5,0.5-0.6l0,0h0.1c0.2-0.1,0.3-0.1,0.5-0.5l0,0l-0.4,1.3l0,0L20.3,36.4z
				 M21.7,34.4c-0.1,0.2-0.3,0.3-0.4,0.3h-0.1l0,0c-0.2,0.1-0.4,0.3-0.5,0.5l-0.3,1l0.9-0.8L21.7,34.4z"/>
		</g>
	</g>
	<g>
		<g>
			<path class="st0" d="M21.5,38.7l-0.6-1.3l0,0l0.5,1.1l0.2-1c0,0,0.1-0.4-0.2-0.7c-0.2-0.2-0.3-0.4-0.3-0.8l0,0
				c0,0.4,0.1,0.6,0.3,0.7c0.3,0.3,0.2,0.7,0.2,0.7L21.5,38.7z"/>
		</g>
		<g>
			<path class="st0" d="M20,38.4l0.2-1.1c0.1-0.3,0.2-0.5,0.4-0.6l0,0h0.1c0.2-0.1,0.3-0.1,0.4-0.6l0,0l-0.3,1.4l0,0L20,38.4z
				 M20.7,36.7c-0.2,0.1-0.4,0.3-0.4,0.6l-0.2,1l0.9-0.9l0.2-1.1C21,36.5,20.9,36.6,20.7,36.7C20.8,36.7,20.7,36.7,20.7,36.7
				L20.7,36.7z"/>
		</g>
	</g>
	<g>
		<g>
			<path class="st0" d="M21.4,40.6l-0.6-1.2l0,0l0.6,1.1l0.1-1c0,0,0-0.4-0.2-0.7c-0.2-0.2-0.3-0.3-0.3-0.7l0,0
				c0,0.4,0.1,0.5,0.3,0.7c0.3,0.3,0.2,0.7,0.2,0.7L21.4,40.6z"/>
		</g>
		<g>
			<path class="st0" d="M19.9,40.5l0.1-1.1c0-0.3,0.2-0.5,0.4-0.7l0,0c0,0,0,0,0.1,0c0.2-0.1,0.3-0.2,0.4-0.6l0,0l-0.1,1.4
				L19.9,40.5z M20.5,38.7L20.5,38.7c-0.2,0.1-0.3,0.3-0.4,0.6l-0.1,1l0.8-0.9l0.1-1.2C20.8,38.5,20.6,38.6,20.5,38.7L20.5,38.7
				L20.5,38.7z"/>
		</g>
	</g>
	<g>
		<g>
			<path class="st0" d="M21.5,42.5l-0.8-1.1l0,0L21.5,42.5l-0.1-1.1c0,0,0-0.4-0.3-0.6c-0.2-0.2-0.4-0.3-0.4-0.7l0,0
				c0,0.4,0.2,0.5,0.4,0.7c0.3,0.2,0.3,0.7,0.3,0.7L21.5,42.5z"/>
		</g>
		<g>
			<path class="st0" d="M20,42.5v-1.1c0-0.3,0.1-0.5,0.3-0.7l0,0c0,0,0,0,0.1-0.1s0.3-0.2,0.3-0.6l0,0v1.4L20,42.5z M20.4,40.7
				c-0.2,0.2-0.3,0.4-0.3,0.7v1l0.7-1v-1.1C20.7,40.5,20.6,40.6,20.4,40.7L20.4,40.7L20.4,40.7z"/>
		</g>
	</g>
	<g>
		<g>
			<path class="st0" d="M21.8,44.4l-0.9-1l0,0l0.8,0.9l-0.1-1c0,0,0-0.4-0.4-0.6c-0.2-0.1-0.4-0.3-0.5-0.7l0,0
				c0.1,0.4,0.2,0.5,0.5,0.6c0.3,0.2,0.4,0.6,0.4,0.6L21.8,44.4z"/>
		</g>
		<g>
			<path class="st0" d="M20.4,44.5l-0.1-1.1c0-0.3,0.1-0.5,0.2-0.7l0,0c0,0,0,0,0.1-0.1s0.2-0.2,0.2-0.7l0,0l0.1,1.4l0,0L20.4,44.5z
				 M20.8,42.2c0,0.3-0.1,0.4-0.2,0.5c0,0,0,0-0.1,0.1l0,0c-0.2,0.2-0.2,0.4-0.2,0.7l0.1,1l0.6-1.1L20.8,42.2z"/>
		</g>
	</g>
	<g>
		<g>
			<path class="st0" d="M22.3,46.2l-1-0.9l0,0l0.9,0.8l-0.2-1c0,0-0.1-0.4-0.4-0.6c-0.2-0.1-0.4-0.2-0.5-0.6l0,0
				c0.1,0.4,0.3,0.5,0.5,0.6c0.4,0.2,0.4,0.6,0.4,0.6L22.3,46.2z"/>
		</g>
		<g>
			<path class="st0" d="M20.9,46.5l-0.2-1.1c-0.1-0.3,0-0.5,0.2-0.7l0,0c0,0,0,0,0.1-0.1s0.2-0.2,0.2-0.7l0,0l0.3,1.4L20.9,46.5z
				 M20.9,44.7c-0.2,0.2-0.2,0.4-0.2,0.7l0.2,1l0.5-1.1l-0.2-1.1C21.1,44.4,21,44.5,20.9,44.7C20.9,44.6,20.9,44.7,20.9,44.7
				L20.9,44.7z"/>
		</g>
	</g>
	<g>
		<g>
			<path class="st0" d="M23,48l-1.1-0.9l0,0l0.9,0.8l-0.3-1c0,0-0.1-0.4-0.5-0.5c-0.3-0.1-0.4-0.2-0.6-0.6l0,0
				c0.2,0.4,0.3,0.4,0.6,0.5c0.4,0.1,0.5,0.5,0.5,0.6L23,48z"/>
		</g>
		<g>
			<path class="st0" d="M21.6,48.4l-0.3-1.1c-0.1-0.3-0.1-0.5,0.1-0.7l0,0c0,0,0,0,0-0.1c0.1-0.1,0.2-0.3,0.1-0.7l0,0l0.4,1.3l0,0
				L21.6,48.4z M21.6,46c0,0.3-0.1,0.4-0.1,0.5c0,0,0,0,0,0.1l0,0c-0.1,0.2-0.2,0.4-0.1,0.7l0.3,1l0.3-1.2L21.6,46z"/>
		</g>
	</g>
	<g>
		<g>
			<path class="st0" d="M23.8,49.7L22.7,49l0,0l1,0.7l-0.4-0.9c0,0-0.2-0.4-0.5-0.5s-0.5-0.1-0.7-0.5l0,0c0.2,0.3,0.4,0.4,0.6,0.5
				c0.4,0.1,0.5,0.5,0.5,0.5L23.8,49.7z"/>
		</g>
		<g>
			<path class="st0" d="M22.5,50.3l-0.4-1.1c-0.1-0.3-0.1-0.5,0-0.8v-0.1c0.1-0.2,0.2-0.3,0-0.7l0,0l0.5,1.3L22.5,50.3z M22.2,47.9
				c0,0.3,0,0.4-0.1,0.5c0,0,0,0,0,0.1l0,0c-0.1,0.2-0.1,0.5,0,0.7l0.4,0.9l0.2-1.2L22.2,47.9z"/>
		</g>
	</g>
	<g>
		<g>
			<path class="st0" d="M24.8,51.3l-1.2-0.6l0,0l1.1,0.6l-0.5-0.9c0,0-0.2-0.4-0.6-0.4c-0.3,0-0.5-0.1-0.7-0.4l0,0
				c0.2,0.3,0.4,0.4,0.7,0.4c0.4,0.1,0.6,0.4,0.6,0.5L24.8,51.3z"/>
		</g>
		<g>
			<path class="st0" d="M23.6,52l-0.5-1c-0.1-0.3-0.2-0.5-0.1-0.7l0,0v-0.1c0.1-0.2,0.1-0.3,0-0.7l0,0l0.7,1.2l0,0L23.6,52z
				 M23,50.3L23,50.3c-0.1,0.2,0,0.5,0.1,0.7l0.5,0.9l0.1-1.2l-0.6-1C23.2,49.9,23.1,50.1,23,50.3C23,50.2,23,50.3,23,50.3L23,50.3z
				"/>
		</g>
	</g>
	<g>
		<g>
			<path class="st0" d="M26,52.8l-1.3-0.5l0,0l1.1,0.4l-0.6-0.8c0,0-0.2-0.4-0.6-0.4c-0.3,0-0.5,0-0.7-0.4l0,0
				c0.3,0.3,0.4,0.3,0.7,0.3c0.4,0,0.6,0.4,0.6,0.4L26,52.8z"/>
		</g>
		<g>
			<path class="st0" d="M24.8,53.7l-0.6-1C24,52.5,24,52.2,24.1,52l0,0l0,0v-0.1c0.1-0.2,0.1-0.3-0.1-0.7l0,0l0.8,1.1l0,0L24.8,53.7
				z M24.1,51.4c0.1,0.3,0.1,0.4,0,0.5V52l0,0c-0.1,0.2,0,0.5,0.1,0.7l0.6,0.8v-1.2L24.1,51.4z"/>
		</g>
	</g>
	<g>
		<g>
			<path class="st0" d="M27.3,54.2L26,53.8l0,0l1.2,0.3l-0.7-0.8c0,0-0.3-0.3-0.6-0.3c-0.3,0-0.5,0-0.8-0.3l0,0
				c0.3,0.3,0.5,0.3,0.7,0.3c0.4,0,0.7,0.3,0.7,0.3L27.3,54.2z"/>
		</g>
		<g>
			<path class="st0" d="M26.2,55.2l-0.7-0.9c-0.2-0.2-0.3-0.5-0.2-0.7l0,0l0,0v-0.1c0-0.2,0.1-0.3-0.2-0.7l0,0l0.9,1.1L26.2,55.2z
				 M25.3,52.9c0.1,0.3,0.1,0.4,0.1,0.5v0.1c0,0.2,0,0.5,0.2,0.7l0.6,0.8l-0.1-1.2L25.3,52.9z"/>
		</g>
	</g>
	<g>
		<g>
			<path class="st0" d="M28.8,55.4l-1.4-0.2l0,0l1.2,0.2l-0.7-0.7c0,0-0.3-0.3-0.7-0.2c-0.3,0-0.5,0.1-0.8-0.2l0,0
				c0.3,0.2,0.5,0.2,0.8,0.2c0.4-0.1,0.7,0.2,0.7,0.3L28.8,55.4z"/>
		</g>
		<g>
			<path class="st0" d="M27.8,56.5L27,55.7c-0.2-0.2-0.3-0.4-0.3-0.7v-0.1c0-0.2,0-0.3-0.2-0.7l0,0l1,1L27.8,56.5z M26.7,55
				c0,0.2,0.1,0.5,0.3,0.7l0.7,0.7l-0.3-1.2l-0.8-0.8C26.8,54.6,26.7,54.8,26.7,55C26.7,54.9,26.7,55,26.7,55L26.7,55z"/>
		</g>
	</g>
	<g>
		<g>
			<path class="st0" d="M30.3,56.5L29,56.4l0,0L30.3,56.5l-0.9-0.6c0,0-0.3-0.3-0.7-0.2c-0.3,0.1-0.5,0.1-0.8-0.1l0,0
				c0.3,0.2,0.5,0.2,0.8,0.1c0.4-0.1,0.7,0.2,0.7,0.2L30.3,56.5z"/>
		</g>
		<g>
			<path class="st0" d="M29.4,57.7L28.5,57c-0.2-0.2-0.3-0.4-0.3-0.7l0,0v-0.1c0-0.2,0-0.3-0.3-0.7l0,0l1.1,0.9l0,0L29.4,57.7z
				 M28.2,56.3c0,0.2,0.1,0.5,0.3,0.6l0.8,0.6l-0.4-1.2L28,55.6C28.3,55.9,28.3,56.1,28.2,56.3C28.2,56.2,28.2,56.3,28.2,56.3
				L28.2,56.3z"/>
		</g>
	</g>
	<g>
		<g>
			<path class="st0" d="M30.6,57.5L30.6,57.5l1.2-0.1l-0.9-0.5c0,0-0.4-0.2-0.7-0.1c-0.3,0.1-0.5,0.1-0.8,0l0,0
				c0.4,0.2,0.5,0.1,0.8,0c0.4-0.1,0.7,0.1,0.7,0.1l1,0.6H30.6z"/>
		</g>
		<g>
			<path class="st0" d="M31.2,58.7l-1-0.6c-0.2-0.2-0.4-0.4-0.4-0.6l0,0v-0.1c0-0.2,0-0.3-0.4-0.6l0,0l1.2,0.7l0,0L31.2,58.7z
				 M29.9,57.4c0,0.2,0.2,0.4,0.4,0.6l0.8,0.6l-0.5-1.1l-1-0.6C29.9,57.1,29.9,57.2,29.9,57.4L29.9,57.4L29.9,57.4z"/>
		</g>
	</g>
	<g>
		<g>
			<path class="st0" d="M32.4,58.4L32.4,58.4l1.2-0.2l-0.9-0.4c0,0-0.4-0.2-0.7,0c-0.2,0.1-0.4,0.2-0.8,0l0,0c0.4,0.1,0.5,0.1,0.8,0
				c0.3-0.2,0.7,0,0.7,0l1,0.5L32.4,58.4z"/>
		</g>
		<g>
			<path class="st0" d="M33.1,59.5l-1-0.5c-0.3-0.1-0.4-0.3-0.5-0.6l0,0v-0.1c0-0.2-0.1-0.3-0.4-0.6l0,0l1.2,0.6l0,0L33.1,59.5z
				 M31.4,57.9c0.2,0.2,0.2,0.3,0.3,0.5v0.1l0,0c0.1,0.2,0.2,0.4,0.5,0.6l0.9,0.5l-0.6-1.1L31.4,57.9z"/>
		</g>
	</g>
	<g>
		<g>
			<path class="st0" d="M34.2,59.1L34.2,59.1l1.2-0.3l-0.9-0.3c0,0-0.4-0.2-0.7,0c-0.2,0.1-0.4,0.2-0.8,0.1l0,0
				c0.4,0.1,0.6,0,0.8-0.1c0.3-0.2,0.7,0,0.7,0l1.1,0.4L34.2,59.1z"/>
		</g>
		<g>
			<path class="st0" d="M35,60.2l-1.1-0.4c-0.3-0.1-0.4-0.3-0.5-0.5l0,0v-0.1c0-0.2-0.1-0.3-0.5-0.5l0,0l1.3,0.5L35,60.2z
				 M33.5,59.2c0.1,0.2,0.2,0.4,0.5,0.5l0.9,0.4l-0.7-1l-1.1-0.4C33.4,58.8,33.4,59,33.5,59.2C33.5,59.1,33.5,59.2,33.5,59.2
				L33.5,59.2z"/>
		</g>
	</g>
	<g>
		<g>
			<path class="st0" d="M36.1,59.6L36.1,59.6l1.1-0.4l-1-0.3c0,0-0.4-0.1-0.7,0.1c-0.2,0.2-0.4,0.3-0.8,0.2l0,0
				c0.4,0.1,0.6,0,0.8-0.2c0.3-0.2,0.7-0.1,0.7-0.1l1.1,0.3L36.1,59.6z"/>
		</g>
		<g>
			<path class="st0" d="M37,60.6l-1.1-0.3c-0.3-0.1-0.5-0.2-0.6-0.5l0,0v-0.1c-0.1-0.2-0.1-0.3-0.5-0.5l0,0l1.3,0.4L37,60.6z
				 M35,59.3c0.2,0.1,0.3,0.3,0.4,0.4v0.1c0.1,0.2,0.3,0.4,0.6,0.5l1,0.3l-0.8-0.9L35,59.3z"/>
		</g>
	</g>
	<g>
		<g>
			<path class="st0" d="M38.1,60L38.1,60l1.1-0.5l-1-0.2c0,0-0.4-0.1-0.7,0.2c-0.2,0.2-0.4,0.3-0.8,0.3l0,0c0.4,0,0.5-0.1,0.7-0.3
				c0.3-0.3,0.7-0.2,0.7-0.2l1.1,0.2L38.1,60z"/>
		</g>
		<g>
			<path class="st0" d="M39.1,60.9L38,60.7c-0.3-0.1-0.5-0.2-0.6-0.4l0,0v-0.1c-0.1-0.2-0.2-0.3-0.6-0.4l0,0l1.4,0.2l0,0L39.1,60.9z
				 M37.4,60.2c0.1,0.2,0.3,0.3,0.6,0.4l1,0.2L38.1,60l-1.2-0.2C37.2,59.9,37.3,60,37.4,60.2C37.3,60.2,37.4,60.2,37.4,60.2
				L37.4,60.2z"/>
		</g>
	</g>
	<g>
		<g>
			<path class="st0" d="M40,60.1L40,60.1l1-0.6l-1-0.1c0,0-0.4,0-0.7,0.2c-0.2,0.2-0.3,0.3-0.7,0.4l0,0c0.4,0,0.5-0.1,0.7-0.3
				c0.3-0.3,0.7-0.3,0.7-0.3l1.1,0.1L40,60.1z"/>
		</g>
		<g>
			<path class="st0" d="M41.1,60.9L40,60.8c-0.3,0-0.5-0.1-0.7-0.4l0,0c0,0,0,0,0-0.1c-0.1-0.1-0.2-0.3-0.6-0.4l0,0l1.4,0.1l0,0
				L41.1,60.9z M39.4,60.4c0.1,0.2,0.4,0.3,0.6,0.3l1,0.1l-1-0.7L38.9,60C39.2,60.1,39.2,60.2,39.4,60.4
				C39.3,60.4,39.3,60.4,39.4,60.4L39.4,60.4z"/>
		</g>
	</g>
	<g>
		<g>
			<path class="st0" d="M40.6,60.1L40.6,60.1c0.4-0.1,0.5-0.2,0.7-0.5s0.7-0.3,0.7-0.3l1.1-0.1L42,60l0,0l1-0.7h-1
				c0,0-0.4,0-0.6,0.3C41.2,59.9,41,60.1,40.6,60.1z"/>
		</g>
		<g>
			<path class="st0" d="M42,60.8c-0.3,0-0.5-0.1-0.7-0.3c0,0,0,0-0.1-0.1s-0.2-0.3-0.7-0.3l0,0h1.4l1.2,0.7H42L42,60.8z M40.9,60.1
				c0.3,0.1,0.4,0.2,0.5,0.3c0,0,0,0,0.1,0.1l0,0c0.2,0.2,0.4,0.3,0.7,0.3l0,0h1l-1-0.6L40.9,60.1z"/>
		</g>
	</g>
	<g>
		<g>
			<path class="st0" d="M42.6,60L42.6,60c0.4-0.1,0.5-0.3,0.6-0.5c0.2-0.3,0.6-0.4,0.6-0.4l1.1-0.2l-1,0.9l0,0l0.9-0.8l-1,0.1
				c0,0-0.4,0-0.6,0.4C43.1,59.7,43,59.9,42.6,60z"/>
		</g>
		<g>
			<path class="st0" d="M43.9,60.5c-0.2,0-0.4-0.1-0.6-0.2l0,0c0,0,0,0-0.1-0.1S43,60,42.5,60l0,0l0,0l1.4-0.2l0,0l1.2,0.6L44,60.5
				C44,60.5,44,60.5,43.9,60.5z M42.8,60c0.3,0,0.4,0.1,0.5,0.2c0,0,0,0,0.1,0.1l0,0c0.2,0.2,0.4,0.2,0.7,0.2l1-0.1L44,59.9L42.8,60
				z"/>
		</g>
	</g>
	<g>
		<g>
			<path class="st0" d="M44.5,59.7L44.5,59.7c0.4-0.2,0.5-0.3,0.6-0.6c0.2-0.4,0.6-0.4,0.6-0.5l1.1-0.3l-0.9,1l0,0l0.8-0.9l-1,0.2
				c0,0-0.4,0.1-0.6,0.4C45,59.4,44.9,59.6,44.5,59.7z"/>
		</g>
		<g>
			<path class="st0" d="M45.8,60.1c-0.2,0-0.4-0.1-0.5-0.2c0,0,0,0-0.1-0.1s-0.3-0.2-0.7-0.2l0,0l1.3-0.3l0,0l1.3,0.5L46,60
				C46,60.1,45.9,60.1,45.8,60.1z M44.8,59.6c0.3,0,0.4,0.1,0.5,0.2c0,0,0,0,0.1,0.1l0,0c0.2,0.1,0.4,0.2,0.7,0.1l1-0.2l-1.2-0.4
				L44.8,59.6z"/>
		</g>
	</g>
	<g>
		<g>
			<path class="st0" d="M46.5,59.2L46.5,59.2c0.3-0.2,0.4-0.4,0.5-0.6c0.1-0.4,0.5-0.5,0.5-0.5l1.1-0.4l-0.8,1.1l0,0l0.7-1l-0.9,0.3
				c0,0-0.4,0.1-0.5,0.5C46.9,58.8,46.8,59,46.5,59.2z"/>
		</g>
		<g>
			<path class="st0" d="M47.7,59.5c-0.2,0-0.3,0-0.4-0.1l0,0c0,0,0,0-0.1,0c-0.2-0.2-0.3-0.3-0.8-0.2l0,0l1.3-0.4l0,0l1.3,0.4
				l-1.1,0.3C47.9,59.4,47.8,59.5,47.7,59.5z M47.3,59.3c0.2,0.1,0.4,0.1,0.7,0.1l1-0.3l-1.2-0.3l-1.1,0.4
				C47,59.1,47.1,59.2,47.3,59.3C47.2,59.3,47.2,59.3,47.3,59.3L47.3,59.3z"/>
		</g>
	</g>
	<g>
		<g>
			<path class="st0" d="M48.3,58.5L48.3,58.5c0.3-0.2,0.4-0.4,0.4-0.7c0.1-0.4,0.5-0.6,0.5-0.6l1-0.5l-0.7,1.1l0,0l0.6-1l-0.9,0.4
				c0,0-0.4,0.2-0.5,0.5C48.7,58.1,48.7,58.3,48.3,58.5z"/>
		</g>
		<g>
			<path class="st0" d="M49.4,58.7c-0.1,0-0.2,0-0.4-0.1l0,0h-0.1c-0.2-0.1-0.3-0.2-0.7,0l0,0l1.3-0.6l0,0l1.4,0.2l-1.1,0.5
				C49.7,58.6,49.6,58.7,49.4,58.7z M49.1,58.5c0.2,0.1,0.5,0.1,0.7,0l0.9-0.4l-1.2-0.2l-1,0.5C48.8,58.4,48.9,58.4,49.1,58.5
				L49.1,58.5L49.1,58.5z"/>
		</g>
	</g>
	<g>
		<g>
			<path class="st0" d="M50.1,57.6L50.1,57.6c0.3-0.3,0.3-0.5,0.4-0.7c0-0.4,0.4-0.6,0.4-0.6l1-0.6l-0.6,1.2l0,0l0.5-1.1l-0.9,0.6
				c0,0-0.4,0.2-0.4,0.6C50.4,57.2,50.4,57.4,50.1,57.6z"/>
		</g>
		<g>
			<path class="st0" d="M51.1,57.7c-0.1,0-0.2,0-0.3-0.1l0,0h-0.1c-0.2-0.1-0.3-0.1-0.7,0.1l0,0l1.2-0.7l1.4,0.1l-1,0.6
				C51.5,57.6,51.3,57.7,51.1,57.7z M50.9,57.6c0.2,0.1,0.5,0.1,0.7-0.1l0.9-0.5l-1.2-0.1l-1,0.6C50.5,57.5,50.7,57.5,50.9,57.6
				C50.8,57.6,50.9,57.6,50.9,57.6L50.9,57.6z"/>
		</g>
	</g>
	<g>
		<g>
			<path class="st0" d="M51.7,56.6L51.7,56.6c0.3-0.3,0.3-0.5,0.3-0.7c0-0.4,0.4-0.6,0.4-0.6l0.9-0.7l-0.4,1.2l0,0l0.4-1.1l-0.9,0.5
				c0,0-0.4,0.2-0.4,0.6C52.1,56.1,52.1,56.3,51.7,56.6z"/>
		</g>
		<g>
			<path class="st0" d="M51.7,56.6L51.7,56.6l1.1-0.8l0,0l1.4-0.1l-0.9,0.7c-0.2,0.2-0.5,0.2-0.7,0.2l0,0h-0.1
				C52.3,56.4,52.1,56.4,51.7,56.6z M52.5,56.5c0.2,0.1,0.5,0,0.7-0.1l0.8-0.6h-1.2l-0.9,0.7C52.2,56.4,52.3,56.4,52.5,56.5
				L52.5,56.5L52.5,56.5z"/>
		</g>
	</g>
	<g>
		<g>
			<path class="st0" d="M53.3,55.4L53.3,55.4c0.2-0.3,0.2-0.5,0.2-0.8c0-0.4,0.3-0.7,0.3-0.7l0.8-0.8l-0.3,1.3l0,0l0.3-1.2L53.9,54
				c0,0-0.3,0.3-0.3,0.6C53.6,54.9,53.6,55.1,53.3,55.4z"/>
		</g>
		<g>
			<path class="st0" d="M53.3,55.4L53.3,55.4l1-1l0,0l1.4-0.2l-0.9,0.7c-0.2,0.2-0.5,0.3-0.7,0.2H54C53.8,55.2,53.7,55.2,53.3,55.4z
				 M54.3,54.5l-0.9,0.8c0.3-0.1,0.4-0.1,0.5-0.1H54l0,0c0.2,0,0.5,0,0.7-0.2l0.8-0.6L54.3,54.5z"/>
		</g>
	</g>
	<g>
		<g>
			<path class="st0" d="M54.7,54.1L54.7,54.1c0.2-0.3,0.2-0.5,0.1-0.8c-0.1-0.4,0.2-0.7,0.2-0.7l0.8-0.9L55.6,53l0,0l0.2-1.2
				l-0.7,0.7c0,0-0.3,0.3-0.2,0.7C55,53.5,55,53.7,54.7,54.1z"/>
		</g>
		<g>
			<path class="st0" d="M54.7,54.1L54.7,54.1l0.9-1.1l1.3-0.3l-0.8,0.8c-0.2,0.2-0.4,0.3-0.7,0.3h-0.1
				C55.2,53.8,55.1,53.8,54.7,54.1z M55.7,53.1l-0.8,0.8c0.2-0.2,0.4-0.1,0.5-0.1h0.1l0,0c0.2,0,0.5-0.1,0.7-0.3l0.7-0.7L55.7,53.1z
				"/>
		</g>
	</g>
	<g>
		<g>
			<path class="st0" d="M56,52.6L56,52.6c0.2-0.4,0.1-0.5,0.1-0.8c-0.1-0.4,0.2-0.7,0.2-0.7l0.7-0.9l-0.1,1.3l0,0l0.1-1.2l-0.6,0.8
				c0,0-0.3,0.3-0.2,0.7C56.2,52,56.3,52.2,56,52.6z"/>
		</g>
		<g>
			<path class="st0" d="M56,52.6L56,52.6l0.8-1.1l0,0l1.3-0.5l-0.7,0.9c-0.2,0.2-0.4,0.4-0.7,0.4l0,0h-0.1
				C56.5,52.3,56.4,52.3,56,52.6z M56.9,51.5l-0.7,0.9c0.2-0.2,0.4-0.2,0.5-0.2h0.1l0,0c0.2,0,0.5-0.1,0.6-0.3l0.6-0.8L56.9,51.5z"
				/>
		</g>
	</g>
	<g>
		<g>
			<path class="st0" d="M57.2,51L57.2,51c0.1-0.4,0.1-0.6,0-0.8c-0.1-0.4,0.1-0.7,0.1-0.7l0.6-1l0.1,1.3l0,0l-0.1-1.2l-0.5,0.9
				c0,0-0.2,0.4-0.1,0.7C57.3,50.4,57.4,50.6,57.2,51z"/>
		</g>
		<g>
			<path class="st0" d="M57.2,51L57.2,51l0.7-1.2l0,0l1.2-0.6l-0.6,1c-0.2,0.2-0.4,0.4-0.6,0.4l0,0h-0.1
				C57.6,50.6,57.5,50.6,57.2,51z M57.9,49.8l-0.6,1c0.2-0.2,0.3-0.2,0.5-0.2h0.1l0,0c0.2,0,0.4-0.2,0.6-0.4l0.5-0.8L57.9,49.8z"/>
		</g>
	</g>
	<g>
		<g>
			<path class="st0" d="M58.2,49.3L58.2,49.3c0.1-0.4,0-0.6-0.1-0.8c-0.2-0.3,0-0.7,0-0.7l0.5-1l0.2,1.3l0,0l-0.2-1.2l-0.4,0.9
				c0,0-0.2,0.4,0,0.7C58.2,48.7,58.3,48.9,58.2,49.3z"/>
		</g>
		<g>
			<path class="st0" d="M58.2,49.3L58.2,49.3l0.6-1.3l1.2-0.7l-0.5,1c-0.1,0.3-0.3,0.4-0.6,0.5l0,0h-0.1
				C58.6,48.9,58.4,48.9,58.2,49.3z M58.7,48l-0.5,1c0.2-0.2,0.3-0.2,0.5-0.3h0.1c0.2-0.1,0.4-0.2,0.5-0.5l0.5-0.9L58.7,48z"/>
		</g>
	</g>
	<g>
		<g>
			<path class="st0" d="M59,47.5L59,47.5c0.1-0.4,0-0.6-0.2-0.8c-0.2-0.3-0.1-0.7-0.1-0.7l0.4-1.1l0.3,1.3l0,0L59.1,45l-0.3,0.9
				c0,0-0.2,0.4,0.1,0.7C59,46.9,59.1,47.1,59,47.5z"/>
		</g>
		<g>
			<path class="st0" d="M59,47.5L59,47.5l0.4-1.3l0,0l1.1-0.8l-0.4,1.1C60,46.8,59.8,47,59.6,47l0,0h-0.1C59.3,47,59.2,47.1,59,47.5
				z M59.4,46.2l-0.4,1c0.2-0.2,0.3-0.3,0.4-0.3h0.1l0,0c0.2-0.1,0.4-0.3,0.5-0.5l0.4-0.9L59.4,46.2z"/>
		</g>
	</g>
	<g>
		<g>
			<path class="st0" d="M59.6,45.6L59.6,45.6c0-0.4-0.1-0.6-0.3-0.8c-0.2-0.3-0.1-0.7-0.1-0.7l0.3-1.1l0.5,1.3l0,0l-0.4-1.1l-0.2,1
				c0,0-0.1,0.4,0.1,0.7C59.5,45,59.6,45.2,59.6,45.6z"/>
		</g>
		<g>
			<path class="st0" d="M59.6,45.6L59.6,45.6l0.3-1.4l1-0.9l-0.3,1.1c-0.1,0.3-0.2,0.5-0.5,0.6H60C59.9,45.1,59.7,45.2,59.6,45.6z
				 M59.9,44.3l-0.3,1.1c0.1-0.3,0.3-0.3,0.4-0.4h0.1l0,0c0.2-0.1,0.4-0.3,0.4-0.6l0.3-1L59.9,44.3z"/>
		</g>
	</g>
	<g>
		<g>
			<path class="st0" d="M60,43.7L60,43.7c0-0.4-0.1-0.5-0.3-0.7c-0.3-0.3-0.2-0.7-0.2-0.7l0.1-1.1l0.6,1.2l0,0l-0.6-1.2l-0.1,1
				c0,0-0.1,0.4,0.2,0.7C59.9,43.1,60,43.3,60,43.7z"/>
		</g>
		<g>
			<path class="st0" d="M60,43.7L60,43.7l0.2-1.4l0.9-1l-0.2,1.1c0,0.3-0.2,0.5-0.4,0.6l0,0h-0.1C60.3,43.2,60.1,43.2,60,43.7z
				 M60.2,42.3L60,43.4c0.1-0.3,0.2-0.3,0.4-0.4c0,0,0,0,0.1,0l0,0c0.2-0.1,0.3-0.3,0.4-0.6l0.2-1L60.2,42.3z"/>
		</g>
	</g>
	<g>
		<g>
			<path class="st0" d="M60.2,41.7c0-0.4-0.2-0.5-0.4-0.7c-0.3-0.2-0.3-0.7-0.3-0.7v-1.1l0.7,1.2l0,0l-0.6-1v1c0,0,0,0.4,0.3,0.7
				C60.1,41.2,60.2,41.3,60.2,41.7L60.2,41.7z"/>
		</g>
		<g>
			<path class="st0" d="M60.2,41.7L60.2,41.7v-1.4l0,0l0.8-1.1l-0.1,1.1c0,0.3-0.1,0.5-0.3,0.7l0,0c0,0,0,0-0.1,0
				C60.4,41.2,60.3,41.3,60.2,41.7z M60.3,40.3l-0.1,1.1c0.1-0.3,0.2-0.4,0.3-0.4c0,0,0,0,0.1,0l0,0c0.2-0.1,0.3-0.4,0.3-0.6l0.1-1
				L60.3,40.3z"/>
		</g>
	</g>
	<g>
		<g>
			<path class="st0" d="M60.2,39.8c-0.1-0.4-0.2-0.5-0.4-0.7c-0.3-0.2-0.3-0.6-0.3-0.7l-0.1-1.1l0.8,1.1l0,0l-0.7-1l0.1,1
				c0,0,0,0.4,0.3,0.6C60.1,39.2,60.2,39.3,60.2,39.8L60.2,39.8z"/>
		</g>
		<g>
			<path class="st0" d="M60.3,39.8L60.3,39.8l-0.1-1.4l0,0l0.7-1.2v1.1c0,0.3-0.1,0.5-0.3,0.7c0,0,0,0-0.1,0.1
				C60.4,39.2,60.3,39.3,60.3,39.8z M60.2,38.4l0.1,1.1c0.1-0.3,0.2-0.4,0.3-0.5c0,0,0,0,0.1-0.1l0,0c0.2-0.2,0.3-0.4,0.3-0.7v-1
				L60.2,38.4z"/>
		</g>
	</g>
	<g>
		<g>
			<path class="st0" d="M60.1,37.8c-0.1-0.4-0.3-0.5-0.5-0.6c-0.3-0.2-0.4-0.6-0.4-0.6L59,35.5l0.9,1l0,0l-0.8-0.9l0.2,1
				c0,0,0.1,0.4,0.4,0.6C59.9,37.3,60,37.4,60.1,37.8L60.1,37.8z"/>
		</g>
		<g>
			<path class="st0" d="M60.1,37.8l-0.2-1.4l0,0l0.6-1.2l0.1,1.1c0,0.3,0,0.5-0.2,0.7l0,0c0,0,0,0-0.1,0.1
				C60.2,37.2,60.1,37.3,60.1,37.8L60.1,37.8z M59.9,36.4l0.2,1.1c0-0.3,0.1-0.4,0.2-0.5c0,0,0,0,0.1-0.1l0,0
				c0.2-0.2,0.2-0.4,0.2-0.7l-0.1-1L59.9,36.4z"/>
		</g>
	</g>
	<g>
		<g>
			<path class="st0" d="M59.7,35.9c-0.1-0.4-0.3-0.5-0.5-0.6c-0.4-0.1-0.5-0.6-0.5-0.6l-0.3-1.1l1,0.9l0,0l-0.9-0.8l0.3,1
				c0,0,0.1,0.4,0.4,0.6C59.5,35.4,59.6,35.5,59.7,35.9L59.7,35.9z"/>
		</g>
		<g>
			<path class="st0" d="M59.7,35.9l-0.3-1.3l0,0l0.5-1.3l0.3,1.1c0.1,0.3,0,0.5-0.1,0.7l0,0c0,0,0,0-0.1,0.1
				C59.8,35.3,59.7,35.4,59.7,35.9L59.7,35.9z M59.4,34.5l0.3,1.1c0-0.3,0.1-0.4,0.2-0.5c0,0,0,0,0.1-0.1l0,0
				c0.1-0.2,0.2-0.4,0.1-0.7l-0.2-1L59.4,34.5z"/>
		</g>
	</g>
	<g>
		<g>
			<path class="st0" d="M59.2,34c-0.2-0.4-0.4-0.4-0.6-0.5c-0.4-0.1-0.5-0.5-0.5-0.5l-0.4-1.1l1.1,0.8l0,0l-1-0.7l0.4,0.9
				c0,0,0.1,0.4,0.5,0.5C58.9,33.5,59.1,33.6,59.2,34L59.2,34z"/>
		</g>
		<g>
			<path class="st0" d="M59.2,34l-0.5-1.3l0.3-1.3l0.4,1.1c0.1,0.3,0.1,0.5-0.1,0.7l0,0c0,0,0,0,0,0.1C59.2,33.4,59.1,33.5,59.2,34
				L59.2,34z M58.8,32.7l0.4,1.1c0-0.3,0-0.4,0.1-0.5c0,0,0,0,0-0.1l0,0c0.1-0.2,0.1-0.5,0-0.7l-0.3-1L58.8,32.7z"/>
		</g>
	</g>
	<g>
		<g>
			<path class="st0" d="M58.5,32.1c-0.2-0.3-0.4-0.4-0.6-0.4c-0.4-0.1-0.6-0.5-0.6-0.5l-0.5-1l1.2,0.7l0,0l-1-0.6l0.5,0.9
				c0,0,0.2,0.4,0.5,0.5C58.1,31.7,58.3,31.8,58.5,32.1L58.5,32.1z"/>
		</g>
		<g>
			<path class="st0" d="M58.5,32.1l-0.6-1.2l0,0l0.2-1.4l0.5,1c0.1,0.3,0.1,0.5,0,0.8l0,0v0.1C58.4,31.6,58.4,31.7,58.5,32.1
				L58.5,32.1z M57.9,30.9l0.5,1c-0.1-0.3,0-0.4,0.1-0.5c0,0,0,0,0-0.1c0.1-0.2,0.1-0.5,0-0.7l-0.4-0.9L57.9,30.9z"/>
		</g>
	</g>
	<g>
		<g>
			<path class="st0" d="M57.6,30.4c-0.2-0.3-0.4-0.4-0.7-0.4c-0.4,0-0.6-0.4-0.6-0.4l-0.6-1l1.2,0.6l0,0l-1.1-0.5l0.5,0.8
				c0,0,0.2,0.4,0.6,0.4C57.2,30,57.4,30,57.6,30.4L57.6,30.4z"/>
		</g>
		<g>
			<path class="st0" d="M57.6,30.4l-0.8-1.2l0,0l0.1-1.4l0.6,1c0.1,0.3,0.2,0.5,0.1,0.7l0,0v0.1C57.5,29.8,57.4,30,57.6,30.4
				L57.6,30.4z M56.9,29.2l0.6,1c-0.1-0.3,0-0.4,0-0.5v-0.1l0,0c0.1-0.2,0-0.5-0.1-0.7L56.9,28V29.2z"/>
		</g>
	</g>
	<g>
		<g>
			<path class="st0" d="M56.5,28.7c-0.3-0.3-0.5-0.3-0.7-0.3l0,0c-0.4,0-0.6-0.3-0.6-0.4l-0.8-0.8l1.3,0.4l0,0l-1.1-0.4l0.6,0.8
				c0,0,0.3,0.3,0.6,0.3l0,0C56,28.4,56.2,28.4,56.5,28.7L56.5,28.7z"/>
		</g>
		<g>
			<path class="st0" d="M56.5,28.7l-0.8-1.1l-0.1-1.4l0.7,0.9c0.2,0.2,0.2,0.5,0.2,0.7l0,0v0.1C56.3,28.2,56.3,28.3,56.5,28.7
				L56.5,28.7z M55.7,27.6l0.7,0.9c-0.1-0.3-0.1-0.4,0-0.5v-0.1l0,0c0.1-0.2,0-0.5-0.2-0.7l-0.6-0.8L55.7,27.6z"/>
		</g>
	</g>
	<g>
		<g>
			<path class="st0" d="M55.3,27.2c-0.3-0.3-0.5-0.3-0.8-0.2c-0.4,0-0.7-0.3-0.7-0.3L53,25.9l1.3,0.3l0,0l-1.2-0.3l0.7,0.7
				c0,0,0.3,0.3,0.7,0.3C54.8,26.9,55,26.9,55.3,27.2L55.3,27.2z"/>
		</g>
		<g>
			<path class="st0" d="M55.3,27.2l-0.9-1l-0.2-1.4l0.8,0.9c0.2,0.2,0.3,0.5,0.2,0.7v0.1C55.1,26.7,55,26.8,55.3,27.2L55.3,27.2z
				 M54.4,26.2l0.8,0.8c-0.1-0.2-0.1-0.4-0.1-0.5v-0.1l0,0l0,0c0-0.2,0-0.5-0.2-0.7l-0.7-0.8L54.4,26.2z"/>
		</g>
	</g>
	<g>
		<g>
			<path class="st0" d="M53.9,25.8c-0.3-0.2-0.5-0.2-0.8-0.2c-0.4,0.1-0.7-0.2-0.7-0.2l-0.9-0.7l1.3,0.2l0,0l-1.2-0.2l0.8,0.6
				c0,0,0.3,0.3,0.7,0.2C53.4,25.6,53.6,25.5,53.9,25.8L53.9,25.8z"/>
		</g>
		<g>
			<path class="st0" d="M53.9,25.8l-1-0.9l0,0l-0.4-1.3l0.8,0.8c0.2,0.2,0.3,0.4,0.3,0.7v0.1C53.6,25.3,53.6,25.4,53.9,25.8
				L53.9,25.8z M52.9,24.9l0.9,0.8c-0.2-0.2-0.2-0.4-0.1-0.5v-0.1l0,0c0-0.2-0.1-0.5-0.3-0.7l-0.7-0.7L52.9,24.9z"/>
		</g>
	</g>
	<g>
		<g>
			<path class="st0" d="M52.4,24.6c-0.3-0.2-0.5-0.2-0.8-0.1c-0.4,0.1-0.7-0.1-0.7-0.1l-1-0.7h1.3l0,0H50l0.8,0.6
				c0,0,0.3,0.3,0.7,0.1C51.8,24.4,52,24.3,52.4,24.6L52.4,24.6z"/>
		</g>
		<g>
			<path class="st0" d="M52.4,24.6l-1.1-0.8l0,0l-0.5-1.3l0.9,0.7c0.2,0.2,0.4,0.4,0.4,0.6l0,0v0.1C52.1,24.1,52.1,24.2,52.4,24.6
				L52.4,24.6z M51.3,23.7l0.9,0.7C52,24.2,52,24,52,23.9v-0.1c0-0.2-0.1-0.5-0.4-0.6l-0.8-0.6L51.3,23.7z"/>
		</g>
	</g>
	<g>
		<g>
			<path class="st0" d="M49.7,23.5c-0.3,0-0.5-0.1-0.5-0.1l-1-0.6l1.3-0.1l0,0l-1.2,0.1l0.9,0.5c0,0,0.4,0.2,0.7,0.1s0.4-0.2,0.8,0
				l0,0c-0.4-0.2-0.5-0.1-0.8,0C49.9,23.5,49.8,23.5,49.7,23.5z"/>
		</g>
		<g>
			<path class="st0" d="M50.7,23.5l-1.2-0.7l0,0l-0.6-1.3l1,0.6c0.3,0.2,0.4,0.4,0.4,0.6l0,0v0.1C50.4,23,50.4,23.1,50.7,23.5
				L50.7,23.5z M49.6,22.7l1,0.6c-0.2-0.2-0.2-0.3-0.2-0.5v-0.1l0,0c0-0.2-0.2-0.4-0.4-0.6l-0.9-0.5L49.6,22.7z"/>
		</g>
	</g>
	<g>
		<g>
			<path class="st0" d="M47.9,22.7c-0.2,0-0.4-0.1-0.4-0.1l-1-0.4l1.3-0.2l0,0l-1.2,0.2l0.9,0.4c0,0,0.4,0.2,0.7,0
				c0.2-0.1,0.4-0.2,0.8-0.1l0,0c-0.4-0.1-0.6-0.1-0.8,0.1C48.1,22.7,48,22.7,47.9,22.7z"/>
		</g>
		<g>
			<path class="st0" d="M49,22.5l-1.3-0.6L47,20.7l1,0.5c0.3,0.1,0.4,0.3,0.5,0.6l0,0v0.1C48.6,22.1,48.6,22.2,49,22.5L49,22.5z
				 M47.8,21.9l1,0.5c-0.2-0.2-0.3-0.3-0.3-0.5v-0.1c-0.1-0.2-0.2-0.4-0.5-0.5l-0.9-0.4L47.8,21.9z"/>
		</g>
	</g>
	<g>
		<g>
			<path class="st0" d="M46,22c-0.2,0-0.3,0-0.3-0.1l-1.1-0.3l1.3-0.4l0,0l-1.2,0.3l1,0.3c0,0,0.4,0.1,0.7-0.1
				c0.2-0.2,0.4-0.3,0.8-0.2l0,0c-0.4-0.1-0.6,0-0.8,0.2C46.3,22,46.1,22,46,22z"/>
		</g>
		<g>
			<path class="st0" d="M47.2,21.8l-1.3-0.5l0,0L45,20.2l1.1,0.4c0.3,0.1,0.5,0.3,0.6,0.5l0,0v0.1C46.8,21.4,46.8,21.5,47.2,21.8
				L47.2,21.8z M45.9,21.3l1.1,0.4c-0.2-0.2-0.3-0.3-0.3-0.4v-0.1l0,0c-0.1-0.2-0.3-0.4-0.5-0.5l-0.9-0.3L45.9,21.3z"/>
		</g>
	</g>
	<g>
		<g>
			<path class="st0" d="M44.1,21.6c-0.1,0-0.2,0-0.2,0l-1.1-0.2l1.3-0.5l0,0l-1.2,0.4l1,0.2c0,0,0.4,0.1,0.7-0.1
				c0.2-0.2,0.4-0.3,0.8-0.2l0,0c-0.4,0-0.6,0.1-0.8,0.2C44.4,21.6,44.2,21.6,44.1,21.6z"/>
		</g>
		<g>
			<path class="st0" d="M45.3,21.2l-1.4-0.3l0,0l-0.9-1l1.1,0.3c0.3,0.1,0.5,0.2,0.6,0.5v0.1C44.8,20.9,44.9,21,45.3,21.2L45.3,21.2
				z M44,20.8l1.1,0.2c-0.3-0.1-0.3-0.3-0.4-0.4v-0.1l0,0c-0.1-0.2-0.3-0.4-0.6-0.4l-1-0.2L44,20.8z"/>
		</g>
	</g>
	<g>
		<g>
			<path class="st0" d="M42.1,21.3C42,21.3,42,21.3,42.1,21.3l-1.3-0.1l1.2-0.6l0,0l-1,0.6L42.1,21.3c-0.1,0,0.3,0.1,0.6-0.2
				c0.2-0.2,0.3-0.3,0.8-0.3l0,0c-0.4,0-0.5,0.1-0.7,0.3C42.5,21.3,42.2,21.3,42.1,21.3z"/>
		</g>
		<g>
			<path class="st0" d="M43.4,20.8L42,20.6l-1-0.9l1.1,0.2c0.3,0,0.5,0.2,0.6,0.4c0,0,0,0,0,0.1C42.9,20.5,43,20.7,43.4,20.8
				L43.4,20.8z M42,20.6l1.1,0.1c-0.3-0.1-0.3-0.2-0.4-0.3c0,0,0,0,0-0.1c-0.1-0.2-0.3-0.3-0.6-0.4l-1-0.1L42,20.6z"/>
		</g>
	</g>
</g>
</svg>
