<?xml version="1.0" encoding="utf-8"?>
<!-- Generator: Adobe Illustrator 22.0.0, SVG Export Plug-In . SVG Version: 6.00 Build 0)  -->
<svg version="1.1" id="Layer_1" xmlns="http://www.w3.org/2000/svg" xmlns:xlink="http://www.w3.org/1999/xlink" x="0px" y="0px"
	 viewBox="0 0 84.9 78.7" style="enable-background:new 0 0 84.9 78.7;" xml:space="preserve">
<style type="text/css">
	.st0{fill:#898B95;}
</style>
<g>
	<g>
		<path class="st0" d="M84.9,0.3C76.5,19,68.1,37.8,59.6,56.5c-0.3-0.1-0.6-0.2-0.9-0.3c2.2-7.8,4.4-15.6,6.6-23.4
			c-0.2-0.2-0.4-0.3-0.6-0.5c-2.1,1.8-4.3,3.5-6.2,5.5c-8.2,8.8-13.3,19.6-17.7,30.7c-1.3,3.3-2.4,6.8-4.3,10.2
			c-0.1-1.9-0.5-3.8-0.3-5.6c1.9-16.4,6.5-31.9,15.7-45.7C59.5,16,69.2,7,81.6,1.1c0.9-0.4,1.8-0.7,2.7-1.1
			C84.5,0,84.7,0.2,84.9,0.3z"/>
	</g>
	<g>
		<g>
			<path class="st0" d="M19.2,55.6C12.8,43.4,6.4,31.2,0,19.1c0.1-0.2,0.3-0.4,0.4-0.6c2.2,0.9,4.6,1.6,6.7,2.7
				c7.5,3.9,12.9,10,17.2,17.2c4.5,7.5,7.4,15.6,9.5,24c0.4,1.8,0.1,3.8-0.2,5.8c-4.7-9.7-8.2-20-17.8-26.5
				c1.4,4.6,2.7,9.2,4.1,13.8C19.6,55.4,19.4,55.5,19.2,55.6z"/>
		</g>
	</g>
</g>
</svg>
