<?xml version="1.0" encoding="utf-8"?>
<!-- Generator: Adobe Illustrator 22.0.0, SVG Export Plug-In . SVG Version: 6.00 Build 0)  -->
<svg version="1.1" id="Layer_1" xmlns="http://www.w3.org/2000/svg" xmlns:xlink="http://www.w3.org/1999/xlink" x="0px" y="0px"
	 viewBox="0 0 80.8 80.8" style="enable-background:new 0 0 80.8 80.8;" xml:space="preserve">
<style type="text/css">
	.st0{fill:#FFFFFF;}
	.st1{fill:#636467;}
	.st2{fill:#DA2129;}
	.st3{fill:#626466;}
</style>
<g>
	<circle class="st0" cx="40.4" cy="40.4" r="34.7"/>
	<g>
		<g>
			<circle class="st1" cx="40.4" cy="8.4" r="0.8"/>
			<circle class="st1" cx="37.2" cy="8.6" r="0.8"/>
			<circle class="st1" cx="34.1" cy="9.1" r="0.8"/>
			<circle class="st1" cx="31" cy="9.8" r="0.8"/>
			<circle class="st1" cx="28" cy="10.9" r="0.8"/>
			<circle class="st1" cx="25.1" cy="12.3" r="0.8"/>
			<circle class="st1" cx="22.4" cy="14" r="0.8"/>
			<circle class="st1" cx="19.9" cy="15.9" r="0.8"/>
			<circle class="st1" cx="17.5" cy="18.1" r="0.8"/>
			<circle class="st1" cx="15.4" cy="20.5" r="0.8"/>
			<circle class="st1" cx="13.5" cy="23" r="0.8"/>
			<circle class="st1" cx="12" cy="25.8" r="0.8"/>
			<circle class="st1" cx="10.6" cy="28.7" r="0.8"/>
			<circle class="st1" cx="9.6" cy="31.7" r="0.8"/>
			<circle class="st1" cx="8.9" cy="34.8" r="0.8"/>
			<circle class="st1" cx="8.5" cy="38" r="0.8"/>
			<circle class="st1" cx="8.4" cy="41.2" r="0.8"/>
			<circle class="st1" cx="8.7" cy="44.4" r="0.8"/>
			<circle class="st1" cx="9.2" cy="47.5" r="0.8"/>
			<circle class="st1" cx="10.1" cy="50.6" r="0.8"/>
			<circle class="st1" cx="11.2" cy="53.6" r="0.8"/>
			<circle class="st1" cx="12.7" cy="56.4" r="0.8"/>
			<circle class="st1" cx="14.4" cy="59.1" r="0.8"/>
			<circle class="st1" cx="16.4" cy="61.6" r="0.8"/>
			<circle class="st1" cx="18.6" cy="63.9" r="0.8"/>
			<circle class="st1" cx="21.1" cy="65.9" r="0.8"/>
			<circle class="st1" cx="23.7" cy="67.7" r="0.8"/>
			<circle class="st1" cx="26.5" cy="69.2" r="0.8"/>
			<circle class="st1" cx="29.5" cy="70.5" r="0.8"/>
			<circle class="st1" cx="32.5" cy="71.4" r="0.8"/>
			<circle class="st1" cx="35.6" cy="72.1" r="0.8"/>
			<circle class="st1" cx="38.8" cy="72.4" r="0.8"/>
			<circle class="st1" cx="42" cy="72.4" r="0.8"/>
			<circle class="st1" cx="45.2" cy="72.1" r="0.8"/>
			<circle class="st1" cx="48.3" cy="71.4" r="0.8"/>
			<circle class="st1" cx="51.3" cy="70.5" r="0.8"/>
			<circle class="st1" cx="54.3" cy="69.3" r="0.8"/>
			<circle class="st1" cx="57.1" cy="67.7" r="0.8"/>
			<circle class="st1" cx="59.7" cy="65.9" r="0.8"/>
			<circle class="st1" cx="62.2" cy="63.9" r="0.8"/>
			<circle class="st1" cx="64.4" cy="61.6" r="0.8"/>
			<circle class="st1" cx="66.4" cy="59.1" r="0.8"/>
			<circle class="st1" cx="68.1" cy="56.4" r="0.8"/>
			<circle class="st1" cx="69.6" cy="53.6" r="0.8"/>
			<circle class="st1" cx="70.7" cy="50.6" r="0.8"/>
			<circle class="st1" cx="71.6" cy="47.6" r="0.8"/>
			<circle class="st1" cx="72.2" cy="44.4" r="0.8"/>
			<circle class="st1" cx="72.4" cy="41.2" r="0.8"/>
			<circle class="st1" cx="72.3" cy="38" r="0.8"/>
			<circle class="st1" cx="71.9" cy="34.9" r="0.8"/>
			<circle class="st1" cx="71.2" cy="31.8" r="0.8"/>
			<circle class="st1" cx="70.2" cy="28.7" r="0.8"/>
			<circle class="st1" cx="68.9" cy="25.8" r="0.8"/>
			<circle class="st1" cx="67.3" cy="23.1" r="0.8"/>
			<circle class="st1" cx="65.4" cy="20.5" r="0.8"/>
			<circle class="st1" cx="63.3" cy="18.1" r="0.8"/>
			<circle class="st1" cx="61" cy="15.9" r="0.8"/>
			<circle class="st1" cx="58.5" cy="14" r="0.8"/>
			<circle class="st1" cx="55.7" cy="12.3" r="0.8"/>
			<circle class="st1" cx="52.9" cy="10.9" r="0.8"/>
			<circle class="st1" cx="49.9" cy="9.8" r="0.8"/>
			<circle class="st1" cx="46.8" cy="9.1" r="0.8"/>
			<circle class="st1" cx="43.6" cy="8.6" r="0.8"/>
		</g>
		<path class="st2" d="M78.3,32.1c-1.2-2.1-2.4-4.1-3.6-5.9c-0.5-2.1-1-4.4-1.7-6.7c-1.6-5.9-4.3-9.2-10.7-11.3
			c-2.6-0.9-5.3-1.6-7.9-2.1c-1.8-1.2-3.7-2.3-5.8-3.5C43.4-0.5,39.1-1,33.2,2c-2.4,1.2-4.8,2.6-7,4c-2.6,0.6-5.2,1.2-7.8,2.1
			c-6.3,2.1-9.1,5.5-10.7,11.3c-0.6,2.3-1.2,4.5-1.6,6.6c-1.5,2.3-2.8,4.6-4.1,7.1c-3,6-2.6,10.3,0.5,15.6c1.2,2.1,2.4,4.1,3.6,5.9
			c0.5,2.1,1,4.4,1.7,6.7c1.6,5.9,4.3,9.2,10.7,11.3c2.6,0.9,5.3,1.6,7.9,2.1c1.8,1.2,3.7,2.3,5.8,3.5c5.3,3,9.6,3.5,15.6,0.5
			c2.4-1.2,4.8-2.6,7-4c2.6-0.6,5.2-1.3,7.8-2.1c6.3-2.1,9.1-5.5,10.7-11.3c0.6-2.3,1.2-4.5,1.6-6.6c1.5-2.3,2.8-4.6,4.1-7.1
			C81.8,41.7,81.4,37.4,78.3,32.1z M40.4,75.1c-19.2,0-34.7-15.5-34.7-34.7c0-19.2,15.5-34.7,34.7-34.7s34.7,15.5,34.7,34.7
			C75.1,59.5,59.6,75.1,40.4,75.1z"/>
		<g>
			<path class="st3" d="M20.4,27.2L20.4,27.2c0.2,0.2,0.4,0.5,0.5,0.7l-1,1l0,0c-0.1-0.3-0.3-0.5-0.6-0.8l-2.9-2.2l0.8-1.1l2.4,1.8
				c0.7,0,1.2-0.3,1.5-0.7c0.4-0.5,0.2-1-0.5-1.5l-2-1.5l0.8-1.1l2.2,1.6c1.1,0.8,1.4,1.9,0.6,2.9C21.7,26.9,21.1,27.2,20.4,27.2z"
				/>
			<path class="st3" d="M21,20.1l1.1-0.9l0.9,1.1l0.3-0.3c0.7-0.7,0.8-1.4,0.7-2.5l1.3-0.7l0,0c0.2,0.6,0.2,1.2-0.2,2.1
				c0.8-0.4,1.4-0.2,1.9,0.4l1,1.3l-1.1,0.9l-1-1.2c-0.3-0.4-0.7-0.4-1.1-0.1l-1.2,1l1.4,1.8L24,23.9L21,20.1z"/>
			<path class="st3" d="M29.3,16.7c-0.2-0.5-0.6-0.6-1.2-0.4c-0.3,0.2-0.6,0.4-0.8,0.8l-0.9-0.6c0.3-0.5,0.7-0.9,1.3-1.2
				c1.2-0.6,2.2-0.3,2.7,0.8l1.3,2.7l-1.2,0.6L29.3,16.7z"/>
			<path class="st3" d="M32.4,17.8l0.5-1.1c0.4,0.2,0.9,0.2,1.4,0.1c0.8-0.2,1.2-0.8,1-1.7c-0.2-0.8-0.8-1.2-1.6-1
				c-0.4,0.1-0.8,0.4-1.2,0.7l-0.9-0.7c0.4-0.5,1-0.9,1.9-1.1c1.6-0.4,2.9,0.3,3.2,1.8c0.4,1.5-0.4,2.7-2,3.1
				C33.7,18.1,33,18,32.4,17.8z"/>
			<path class="st3" d="M31.3,11.7l4-0.7l0.2,1l-4,0.7L31.3,11.7z"/>
			<path class="st3" d="M38.1,12.3l1.3,0l0,0.8l0,0c0.5-0.6,1.1-0.9,1.8-0.9c1.2,0,2,0.9,2,2.3l0,2.7l-1.4,0l0-2.5
				c0-0.9-0.3-1.3-1-1.3c-0.5,0-1,0.2-1.4,0.8l0,3l-1.4,0L38.1,12.3z"/>
			<path class="st3" d="M50.4,14.1l-0.9,3.1c-0.3,1.1-1.3,1.4-2.9,1c-1.6-0.4-2.3-1.2-2-2.1c0.1-0.4,0.4-0.6,0.7-0.8
				C45,15,44.9,14.5,45,14c0.3-0.9,1.1-1.2,2.3-0.9c0.3,0.1,0.6,0.2,0.9,0.3l-0.3,0.9c-0.2-0.1-0.4-0.2-0.6-0.2
				c-0.5-0.2-0.9-0.1-1,0.2c-0.1,0.3,0.2,0.5,0.7,0.7c0.2,0.1,0.4,0.1,0.6,0.1l-0.3,0.9c-0.3,0-0.6-0.1-0.9-0.2
				c-0.1,0-0.2-0.1-0.3-0.1C46.1,16,46,16.1,46,16.2c-0.1,0.4,0.2,0.7,0.9,0.9c0.7,0.2,1.2,0.1,1.3-0.4l0.8-3L50.4,14.1z"/>
			<path class="st3" d="M53.2,17.6c0.3-0.5,0.1-0.9-0.4-1.2c-0.3-0.2-0.7-0.3-1.1-0.2l0-1.1c0.6-0.1,1.2,0,1.8,0.4
				c1.2,0.7,1.5,1.6,0.9,2.7L53,20.9l-1.2-0.7L53.2,17.6z"/>
			<path class="st3" d="M59.6,22.2l-2.1,2.4l-1-0.9l1.2-1.4c-0.2-0.3-0.4-0.6-0.7-0.8c-0.5-0.5-1-0.6-1.2-0.3
				c-0.2,0.2-0.1,0.6,0.4,1c0.2,0.1,0.3,0.3,0.5,0.4L56,23.2c-0.3-0.1-0.5-0.3-0.8-0.6c-1-0.9-1.2-1.7-0.5-2.5
				c0.7-0.8,1.7-0.7,2.8,0.3c0.4,0.3,0.7,0.7,0.9,1l0.1-0.1c0.4-0.4,0.2-1-0.5-1.5c-0.4-0.4-0.9-0.6-1.3-0.7l0.4-1
				c0.6,0.2,1.3,0.5,1.9,1.1C60.1,20.3,60.4,21.3,59.6,22.2z"/>
			<path class="st3" d="M60.6,18.1c0.1-0.1,0.3-0.2,0.4-0.3l0.8,0.9c-0.1,0-0.1,0.1-0.2,0.1c-0.2,0.2-0.2,0.4,0,0.7l1,1.1l-0.7,0.6
				l-1.3-1.4C60.1,19.2,60,18.6,60.6,18.1z"/>
			<path class="st3" d="M65,26.8l-2.7,1.8c-0.9,0.6-1.9,0.2-2.9-1.1c-0.9-1.3-1-2.4-0.2-2.9c0.3-0.2,0.7-0.3,1-0.1
				c0-0.5,0.2-0.9,0.6-1.1c0.8-0.5,1.6-0.2,2.3,0.8c0.2,0.3,0.3,0.6,0.4,0.8l-0.8,0.6c-0.1-0.2-0.2-0.4-0.3-0.6
				c-0.3-0.5-0.6-0.6-0.9-0.5c-0.3,0.2-0.2,0.5,0.1,1c0.1,0.2,0.3,0.3,0.4,0.5l-0.8,0.5c-0.2-0.2-0.4-0.4-0.6-0.7
				c-0.1-0.1-0.1-0.2-0.2-0.3c-0.1,0-0.3,0-0.4,0c-0.3,0.2-0.3,0.7,0.1,1.3c0.4,0.6,0.9,0.8,1.3,0.6l2.6-1.7L65,26.8z"/>
		</g>
		<g>
			<g>
				<rect x="34.3" y="25.2" class="st3" width="0.6" height="30.1"/>
				<rect x="40.2" y="24.1" class="st3" width="0.6" height="32.6"/>
				<rect x="46" y="25.2" class="st3" width="0.6" height="30.1"/>
				<rect x="51.9" y="27.2" class="st3" width="0.6" height="26.1"/>
				<rect x="28.5" y="27.2" class="st3" width="0.6" height="26.1"/>
				<rect x="27.5" y="28.5" class="st3" width="26.1" height="0.6"/>
				<rect x="25.4" y="34.3" class="st3" width="30.2" height="0.6"/>
				<rect x="23.8" y="40.1" class="st3" width="33.3" height="0.6"/>
				<rect x="25.4" y="46" class="st3" width="30.2" height="0.6"/>
				<rect x="27.5" y="51.8" class="st3" width="26.1" height="0.6"/>
			</g>
			<rect x="39.2" y="27" class="st2" width="2.4" height="26.6"/>
			<rect x="26.9" y="39.1" class="st2" width="26.9" height="2.4"/>
			<path class="st2" d="M26.9,35.3v2.4c0,0,18.9,1.5,23.4-9.4l-2.2-1.1C48.1,27.3,45.5,36.7,26.9,35.3"/>
		</g>
		<g>
			<path class="st1" d="M18.2,48.9L18.2,48.9c-0.4-0.1-0.8-0.3-1.1-0.7c-0.2,0.3-0.5,0.4-0.9,0.5l-2.9,0.7l-0.3-1.3l2.7-0.6
				c0.7-0.2,0.9-0.7,0.7-1.5c-0.2-0.8-0.6-1.2-1.3-1l-0.7,0.2l0,0c0.5,0.1,0.8,0.5,0.9,1c0,0.1,0,0.3,0,0.4l-1.1,0.3
				c0-0.1,0-0.2-0.1-0.3c-0.2-0.8-0.5-1.1-1.2-1l-0.6,0.1L12,44.3l2.9-0.7c1.2-0.3,2.1,0.5,2.5,2.1c0.1,0.6,0.2,1.1,0.1,1.5
				c0.2,0.2,0.4,0.3,0.7,0.4L18.2,48.9z"/>
			<path class="st1" d="M14.5,51.5l1.1,0c0,0.5,0.1,1.2,0.5,1.8c0.3,0.5,0.6,0.8,0.8,0.7c0.2-0.1,0.2-0.6-0.1-1.5
				c-0.4-1.2-0.1-1.9,0.5-2.2c0.8-0.4,1.7,0,2.3,1.1c0.4,0.7,0.6,1.5,0.6,2.2l-1.1,0c0-0.5-0.1-1.1-0.4-1.6
				c-0.2-0.4-0.5-0.7-0.7-0.6c-0.2,0.1-0.2,0.6,0.1,1.6c0.4,1.3,0.1,1.9-0.6,2.3c-0.9,0.5-1.7,0-2.4-1.4
				C14.7,53,14.5,52.2,14.5,51.5z"/>
			<path class="st1" d="M21.7,50.8l0.6,0.9L21,52.6l-2.3-3.3l0.8-0.5l1.7,2.5L21.7,50.8z"/>
			<path class="st1" d="M19,56.1l2-1.8l0.9,1l-1.9,1.7c-0.7,0.6-0.8,1.1-0.3,1.6c0.3,0.4,0.9,0.6,1.5,0.5l2.2-2l0.9,1l-2.7,2.4
				c-0.3,0.3-0.5,0.6-0.5,0.8l0,0l-1.1-0.8c0.1-0.3,0.2-0.5,0.5-0.7l0,0c-0.7,0-1.4-0.2-1.9-0.7C17.9,58.1,18,57,19,56.1z"/>
			<path class="st1" d="M28.7,63.2l-1.6,2.5L25.9,65l1.5-2.3c0.4-0.6,0.2-1.1-0.5-1.6s-1.3-0.4-1.6,0.2l-0.4,0.6l0,0
				c0.5-0.3,0.9-0.2,1.4,0.1c0.1,0.1,0.2,0.2,0.3,0.3l-0.6,1c-0.1-0.1-0.2-0.2-0.3-0.2c-0.7-0.4-1.1-0.4-1.6,0.1l-0.3,0.5l-1.2-0.8
				l1.6-2.5c0.7-1,1.9-1.1,3.3-0.2C29,61.1,29.4,62.2,28.7,63.2z"/>
			<path class="st1" d="M29,66.2l0.8-0.7c0.4,0.4,0.9,0.8,1.6,1c0.6,0.2,1,0.2,1.1-0.1c0.1-0.3-0.2-0.5-1.1-1.1
				c-1.1-0.7-1.4-1.3-1.1-2c0.3-0.9,1.2-1.2,2.5-0.7c0.8,0.3,1.5,0.7,2,1.2l-0.8,0.7c-0.3-0.4-0.8-0.7-1.4-0.9
				c-0.5-0.2-0.8-0.2-0.9,0.1c-0.1,0.3,0.2,0.5,1.1,1.1c1.1,0.7,1.4,1.4,1.1,2c-0.3,0.9-1.3,1.1-2.7,0.6
				C30.2,67.2,29.5,66.7,29,66.2z"/>
			<path class="st1" d="M30.8,60.7l3.9,0.9l-0.2,0.9l-3.9-0.9L30.8,60.7z"/>
			<path class="st1" d="M35.5,66.4l0.2-2.7l1.4,0.1l-0.2,2.5c-0.1,0.9,0.2,1.3,0.8,1.4c0.5,0,1.1-0.2,1.5-0.7l0.3-3l1.4,0.1
				l-0.3,3.6c0,0.4,0,0.7,0.2,1l0,0L39.3,69c-0.1-0.2-0.2-0.5-0.1-0.9l0,0c-0.5,0.5-1.1,0.8-1.9,0.7C36,68.7,35.3,67.8,35.5,66.4z"
				/>
			<path class="st1" d="M42,64.1l1.3-0.2l0.1,0.8l0,0c0.3-0.6,0.9-1.1,1.6-1.2c1.2-0.2,2.1,0.5,2.3,1.9l0.5,2.7l-1.4,0.2l-0.4-2.4
				c-0.2-0.9-0.6-1.2-1.2-1.1c-0.5,0.1-1,0.4-1.3,1l0.5,2.9l-1.4,0.2L42,64.1z"/>
			<path class="st1" d="M49.6,67.1l0.1-1.1c0.5,0,1.2-0.1,1.8-0.3c0.5-0.2,0.9-0.5,0.7-0.8c-0.1-0.3-0.5-0.2-1.5,0
				c-1.3,0.3-1.9-0.1-2.2-0.7c-0.4-0.8,0.1-1.7,1.3-2.2c0.7-0.3,1.5-0.5,2.2-0.5L52,62.6c-0.5,0-1.1,0-1.6,0.3
				c-0.4,0.2-0.7,0.4-0.6,0.7c0.1,0.3,0.6,0.2,1.6,0c1.3-0.3,1.9,0.1,2.2,0.7c0.4,0.9-0.2,1.7-1.5,2.3
				C51.1,66.9,50.3,67.1,49.6,67.1z"/>
			<path class="st1" d="M55.1,64.3l0-1.2c0.5,0,0.9-0.2,1.3-0.5c0.7-0.5,0.8-1.2,0.3-1.9c-0.5-0.7-1.2-0.8-1.9-0.3
				c-0.3,0.3-0.6,0.7-0.8,1.1l-1.1-0.3c0.2-0.6,0.6-1.3,1.3-1.8c1.3-1,2.8-0.8,3.7,0.4c0.9,1.2,0.7,2.7-0.7,3.7
				C56.5,64.1,55.8,64.3,55.1,64.3z"/>
			<path class="st1" d="M51.7,59.8l3-2.7l0.7,0.7l-3,2.7L51.7,59.8z"/>
			<path class="st1" d="M59.5,59.5l-2.2-2.1c-0.5-0.4-1-0.6-1.3-0.3l-0.2,0.2l-0.7-0.7l2.5-2.6l0.7,0.6l-1.4,1.5
				c0.4-0.3,1,0,1.4,0.3l2,1.9c0.3,0.3,0.5,0.3,0.8,0c0.1-0.1,0.1-0.2,0.2-0.3l0.8,0.8c-0.1,0.2-0.3,0.4-0.5,0.6
				C60.9,60.3,60.2,60.2,59.5,59.5z"/>
			<path class="st1" d="M62.6,57.8l-0.5-1c0.5-0.3,1-0.7,1.3-1.3c0.3-0.5,0.4-0.9,0.2-1.1s-0.6,0.1-1.3,0.8c-0.9,0.9-1.6,1-2.2,0.6
				c-0.8-0.5-0.8-1.4-0.1-2.6c0.4-0.7,1-1.2,1.6-1.6l0.5,1c-0.4,0.2-0.9,0.6-1.2,1.1c-0.3,0.4-0.4,0.8-0.2,0.9
				c0.2,0.2,0.6-0.1,1.3-0.8c0.9-0.9,1.7-1,2.3-0.6c0.8,0.6,0.8,1.5-0.1,2.8C63.8,56.9,63.2,57.5,62.6,57.8z"/>
			<path class="st1" d="M67.4,47L67.4,47c0.3,0.1,0.6,0.3,0.8,0.5l-0.7,1.3l0,0c-0.2-0.2-0.5-0.4-0.8-0.5l-1.7-0.5
				c-0.4-0.1-0.8,0-1,0.3l0.2,0.6l-0.1,0.3l-0.5,0.4c0.1,0.6,0.5,1,1.2,1.2c0.7,0.2,1.3-0.1,1.5-0.9c0-0.2,0.1-0.4,0.1-0.5l1.1,0.3
				c0,0.3-0.1,0.6-0.1,0.9c-0.4,1.4-1.4,2-2.9,1.6c-1.4-0.4-2.1-1.4-1.9-2.9l0.7-0.5l0,0l-0.3-0.8c0.5-1.2,1.3-1.6,2.4-1.3l1.2,0.3
				c0.5-0.2,0.9-0.6,1-1c0.1-0.5-0.1-0.9-0.9-1.1L64,44l0.4-1.3l2.8,0.8c1.2,0.3,1.8,1.2,1.5,2.3C68.5,46.3,68,46.8,67.4,47z"/>
		</g>
		<g>
			<g>
				<path class="st3" d="M39.9,21.4C39.9,21.4,39.9,21.4,39.9,21.4l-1.2,0l1.1-0.7l0,0l-1,0.7L39.9,21.4c0,0,0.4,0,0.6-0.3
					c0.2-0.2,0.3-0.4,0.7-0.4l0,0c-0.4,0-0.5,0.2-0.7,0.4C40.3,21.3,40,21.4,39.9,21.4z"/>
				<path class="st3" d="M41.2,20.7l-1.4,0l0,0l-1.1-0.8l1.1,0c0.3,0,0.5,0.1,0.7,0.3l0,0c0,0,0,0,0.1,0.1
					C40.7,20.5,40.8,20.6,41.2,20.7L41.2,20.7z M39.9,20.6l1.1,0c-0.3-0.1-0.4-0.2-0.4-0.3c0,0,0,0-0.1-0.1l0,0
					c-0.2-0.2-0.4-0.3-0.6-0.3l-1,0L39.9,20.6z"/>
			</g>
			<g>
				<path class="st3" d="M36.8,21.6l1.1-0.8l0,0L37,21.6l1-0.1c0,0,0.4,0,0.6-0.3c0.1-0.2,0.3-0.4,0.7-0.5l0,0
					c-0.4,0.1-0.5,0.2-0.6,0.4c-0.2,0.3-0.6,0.4-0.7,0.4L36.8,21.6z"/>
				<path class="st3" d="M37.9,20.8L37.9,20.8l-1.2-0.7l1.1-0.1c0.3,0,0.5,0.1,0.7,0.2l0,0c0,0,0,0,0.1,0.1c0.1,0.1,0.2,0.2,0.7,0.3
					l0,0L37.9,20.8z M36.8,20.2l1.1,0.6l1.1-0.1c-0.3,0-0.4-0.1-0.5-0.3c0,0,0,0-0.1-0.1l0,0c-0.2-0.2-0.4-0.3-0.7-0.2L36.8,20.2z"
					/>
			</g>
			<g>
				<path class="st3" d="M35,22.1l1-0.9l0,0L35.1,22l1-0.2c0,0,0.4-0.1,0.6-0.4c0.1-0.2,0.2-0.4,0.6-0.5l0,0
					c-0.4,0.1-0.5,0.3-0.6,0.5c-0.2,0.3-0.6,0.4-0.6,0.4L35,22.1z"/>
				<path class="st3" d="M36,21.2l-1.3-0.5l1.1-0.2c0.3,0,0.5,0,0.7,0.2l0,0c0,0,0,0,0.1,0.1c0.1,0.1,0.2,0.2,0.7,0.2l0,0L36,21.2z
					 M34.9,20.6l1.1,0.5l1.1-0.2c-0.3,0-0.4-0.1-0.5-0.2c0,0,0,0-0.1-0.1h0c-0.2-0.2-0.4-0.2-0.7-0.2L34.9,20.6z"/>
			</g>
			<g>
				<path class="st3" d="M33.2,22.7l0.9-1l0,0l-0.8,0.9l1-0.3c0,0,0.4-0.1,0.5-0.5c0.1-0.3,0.2-0.4,0.6-0.6l0,0
					c-0.4,0.1-0.5,0.3-0.5,0.6c-0.1,0.4-0.6,0.5-0.6,0.5L33.2,22.7z"/>
				<path class="st3" d="M34.1,21.7l-1.3-0.4l1.1-0.3c0.3-0.1,0.5,0,0.7,0.1c0,0,0,0,0.1,0.1c0.1,0.1,0.3,0.2,0.7,0.1l0,0L34.1,21.7
					z M32.9,21.3l1.2,0.4l1.1-0.3c-0.3,0-0.4-0.1-0.5-0.2c0,0,0,0-0.1,0l0,0C34.4,21,34.2,21,33.9,21L32.9,21.3z"/>
			</g>
			<g>
				<path class="st3" d="M31.5,23.5l0.8-1.1l0,0l-0.7,1l0.9-0.4c0,0,0.4-0.2,0.5-0.5c0.1-0.3,0.1-0.5,0.5-0.6l0,0
					c-0.3,0.2-0.4,0.4-0.5,0.6c-0.1,0.4-0.5,0.5-0.5,0.5L31.5,23.5z"/>
				<path class="st3" d="M32.3,22.4L32.3,22.4l-1.3-0.3l1.1-0.4c0.3-0.1,0.5-0.1,0.7,0l0,0c0,0,0.1,0,0.1,0c0.2,0.1,0.3,0.2,0.7,0.1
					l0,0L32.3,22.4z M31.1,22.1l1.2,0.3l1.1-0.4c-0.3,0-0.4,0-0.5-0.1c0,0,0,0-0.1,0l0,0c-0.2-0.1-0.5-0.1-0.7,0L31.1,22.1z"/>
			</g>
			<g>
				<path class="st3" d="M29.9,24.5l0.6-1.2l0,0L30,24.4l0.9-0.5c0,0,0.4-0.2,0.4-0.6c0-0.3,0.1-0.5,0.4-0.7l0,0
					c-0.3,0.2-0.4,0.4-0.4,0.7c-0.1,0.4-0.4,0.6-0.5,0.6L29.9,24.5z"/>
				<path class="st3" d="M30.5,23.3L30.5,23.3l-1.4-0.1l1-0.5c0.3-0.1,0.5-0.1,0.7,0l0,0c0,0,0.1,0,0.1,0c0.2,0.1,0.3,0.1,0.7,0l0,0
					L30.5,23.3z M29.3,23.2l1.2,0.1l1-0.5c-0.3,0.1-0.4,0-0.5-0.1c0,0,0,0-0.1,0l0,0c-0.2-0.1-0.5-0.1-0.7,0L29.3,23.2z"/>
			</g>
			<g>
				<path class="st3" d="M28.3,25.6l0.5-1.2l0,0l-0.5,1.1l0.8-0.6c0,0,0.4-0.2,0.4-0.6c0-0.3,0.1-0.5,0.4-0.7l0,0
					c-0.3,0.2-0.3,0.4-0.4,0.7c0,0.4-0.4,0.6-0.4,0.6L28.3,25.6z"/>
				<path class="st3" d="M28.9,24.4l-1.4,0l1-0.6c0.2-0.2,0.5-0.2,0.7-0.1h0c0,0,0.1,0,0.1,0c0.2,0.1,0.3,0.1,0.7-0.1l0,0L28.9,24.4
					z M27.6,24.3l1.2,0l1-0.6c-0.3,0.1-0.4,0-0.5,0c0,0-0.1,0-0.1,0l0,0c-0.2-0.1-0.5,0-0.7,0.1L27.6,24.3z"/>
			</g>
			<g>
				<path class="st3" d="M26.9,26.9l0.4-1.3l0,0L27,26.8l0.8-0.6c0,0,0.3-0.3,0.3-0.6c0-0.3,0-0.5,0.3-0.8l0,0
					c-0.3,0.3-0.3,0.5-0.3,0.7c0,0.4-0.3,0.7-0.3,0.7L26.9,26.9z"/>
				<path class="st3" d="M26,25.8l0.9-0.7c0.2-0.2,0.5-0.2,0.7-0.2l0,0c0,0,0.1,0,0.1,0c0.2,0,0.3,0.1,0.7-0.2l0,0l-1.1,0.9L26,25.8
					z M27.4,24.9c-0.2,0-0.4,0.1-0.5,0.2l-0.8,0.6l1.2-0.1l0.9-0.7c-0.3,0.1-0.4,0.1-0.5,0.1c0,0-0.1,0-0.1,0l0,0
					C27.5,24.9,27.5,24.9,27.4,24.9z"/>
			</g>
			<g>
				<path class="st3" d="M25.6,28.3l0.3-1.3l0,0l-0.2,1.2l0.7-0.7c0,0,0.3-0.3,0.3-0.7c0-0.3,0-0.5,0.2-0.8l0,0
					c-0.3,0.3-0.2,0.5-0.2,0.8c0.1,0.4-0.3,0.7-0.3,0.7L25.6,28.3z"/>
				<path class="st3" d="M24.6,27.3l0.8-0.8c0.2-0.2,0.4-0.3,0.7-0.3l0,0c0,0,0.1,0,0.1,0c0.2,0,0.3,0,0.7-0.2l0,0l-1,1l0,0
					L24.6,27.3z M26,26.3c-0.2,0-0.4,0.1-0.6,0.3l-0.7,0.7l1.2-0.2l0.8-0.8c-0.2,0.1-0.4,0.1-0.5,0.1C26.2,26.3,26.1,26.3,26,26.3
					L26,26.3C26.1,26.3,26.1,26.3,26,26.3z"/>
			</g>
			<g>
				<path class="st3" d="M24.5,29.8l0.1-1.3l0,0l-0.1,1.2l0.6-0.8c0,0,0.3-0.3,0.2-0.7c-0.1-0.3-0.1-0.5,0.1-0.8l0,0
					c-0.2,0.3-0.2,0.5-0.1,0.8c0.1,0.4-0.2,0.7-0.2,0.7L24.5,29.8z"/>
				<path class="st3" d="M23.4,28.9l0.7-0.9c0.2-0.2,0.4-0.3,0.7-0.3c0,0,0,0,0,0l0,0c0,0,0.1,0,0.1,0c0.2,0,0.3,0,0.7-0.3l0,0
					l-0.9,1.1L23.4,28.9z M24.8,27.8c-0.2,0-0.5,0.1-0.6,0.3l-0.7,0.8l1.2-0.3l0.7-0.9C25.1,27.8,25,27.8,24.8,27.8
					C24.8,27.8,24.8,27.7,24.8,27.8z"/>
			</g>
			<g>
				<path class="st3" d="M23.5,31.5l0-1.3h0l0,1.2l0.5-0.8c0,0,0.2-0.4,0.1-0.7c-0.1-0.3-0.1-0.5,0.1-0.8l0,0
					c-0.2,0.3-0.1,0.5-0.1,0.8c0.1,0.4-0.1,0.7-0.1,0.7L23.5,31.5z"/>
				<path class="st3" d="M22.3,30.7l0.7-0.9c0.2-0.2,0.4-0.4,0.6-0.4l0,0c0,0,0.1,0,0.1,0c0.2,0,0.3,0,0.6-0.4l0,0l-0.8,1.1l0,0
					L22.3,30.7z M23.6,29.4c-0.2,0-0.4,0.2-0.6,0.4l-0.6,0.8l1.1-0.5l0.6-0.9C24,29.3,23.8,29.4,23.6,29.4
					C23.7,29.4,23.6,29.4,23.6,29.4L23.6,29.4z"/>
			</g>
			<g>
				<path class="st3" d="M22.7,33.2l-0.1-1.3l0,0l0.1,1.2l0.5-0.9c0,0,0.2-0.4,0.1-0.7c-0.1-0.2-0.2-0.4,0-0.8l0,0
					c-0.2,0.4-0.1,0.5,0,0.8c0.2,0.4,0,0.7-0.1,0.7L22.7,33.2z"/>
				<path class="st3" d="M21.4,32.5l0.6-1c0.1-0.3,0.3-0.4,0.6-0.5l0,0c0,0,0.1,0,0.1,0c0.2,0,0.3,0,0.6-0.4l0,0l-0.7,1.2l0,0
					L21.4,32.5z M22.6,31.1c-0.2,0-0.4,0.2-0.6,0.4l-0.5,0.9l1.1-0.6l0.5-1C23,31,22.8,31.1,22.6,31.1
					C22.7,31.1,22.6,31.1,22.6,31.1L22.6,31.1z"/>
			</g>
			<g>
				<path class="st3" d="M22.1,35l-0.3-1.3l0,0l0.2,1.2l0.4-0.9c0,0,0.2-0.4,0-0.7c-0.1-0.2-0.2-0.4-0.1-0.8l0,0
					c-0.1,0.4,0,0.6,0.1,0.8c0.2,0.3,0,0.7,0,0.7L22.1,35z"/>
				<path class="st3" d="M20.7,34.4l0.5-1c0.1-0.3,0.3-0.4,0.5-0.5l0,0c0,0,0.1,0,0.1,0c0.2,0,0.3-0.1,0.5-0.5l0,0l-0.5,1.3l0,0
					L20.7,34.4z M21.8,32.9c-0.2,0.1-0.4,0.2-0.5,0.5l-0.4,0.9l1-0.7l0.4-1.1C22.1,32.8,22,32.9,21.8,32.9
					C21.8,32.9,21.8,32.9,21.8,32.9L21.8,32.9z"/>
			</g>
			<g>
				<path class="st3" d="M21.7,36.8l-0.4-1.3l0,0l0.4,1.2l0.3-1c0,0,0.1-0.4-0.1-0.7c-0.2-0.2-0.3-0.4-0.2-0.8l0,0
					c-0.1,0.4,0,0.6,0.2,0.8c0.2,0.3,0.1,0.7,0.1,0.7L21.7,36.8z"/>
				<path class="st3" d="M20.2,36.4l0.4-1.1c0.1-0.3,0.3-0.5,0.5-0.6l0,0c0,0,0.1,0,0.1,0c0.2-0.1,0.3-0.1,0.5-0.5l0,0l-0.4,1.3l0,0
					L20.2,36.4z M21.6,34.4c-0.1,0.2-0.3,0.3-0.4,0.3c0,0-0.1,0-0.1,0h0c-0.2,0.1-0.4,0.3-0.5,0.5l-0.3,1l0.9-0.8L21.6,34.4z"/>
			</g>
			<g>
				<path class="st3" d="M21.4,38.7l-0.5-1.2l0,0l0.5,1.1l0.2-1c0,0,0.1-0.4-0.2-0.7c-0.2-0.2-0.3-0.4-0.3-0.8l0,0
					c0,0.4,0.1,0.5,0.3,0.7c0.3,0.3,0.2,0.7,0.2,0.7L21.4,38.7z"/>
				<path class="st3" d="M20,38.4l0.2-1.1c0.1-0.3,0.2-0.5,0.4-0.6l0,0c0,0,0.1,0,0.1,0c0.2-0.1,0.3-0.1,0.4-0.6l0,0l-0.3,1.4l0,0
					L20,38.4z M20.7,36.8c-0.2,0.1-0.4,0.3-0.4,0.6l-0.2,1l0.9-0.9l0.2-1.1C21,36.6,20.9,36.7,20.7,36.8
					C20.7,36.7,20.7,36.7,20.7,36.8L20.7,36.8z"/>
			</g>
			<g>
				<path class="st3" d="M21.3,40.6l-0.6-1.2l0,0l0.6,1.1l0.1-1c0,0,0-0.4-0.2-0.7c-0.2-0.2-0.3-0.3-0.3-0.7l0,0
					c0,0.4,0.1,0.5,0.3,0.7c0.3,0.3,0.2,0.7,0.2,0.7L21.3,40.6z"/>
				<path class="st3" d="M19.9,40.5l0.1-1.1c0-0.3,0.2-0.5,0.4-0.7l0,0c0,0,0,0,0.1,0c0.1-0.1,0.3-0.2,0.4-0.6l0,0l-0.1,1.4
					L19.9,40.5z M20.4,38.7L20.4,38.7c-0.2,0.1-0.3,0.3-0.4,0.6l-0.1,1l0.8-0.9l0.1-1.1C20.7,38.5,20.6,38.6,20.4,38.7
					C20.4,38.7,20.4,38.7,20.4,38.7L20.4,38.7z"/>
			</g>
			<g>
				<path class="st3" d="M21.5,42.5l-0.8-1.1l0,0l0.7,1l0-1c0,0,0-0.4-0.3-0.6c-0.2-0.2-0.4-0.3-0.4-0.7l0,0c0,0.4,0.2,0.5,0.4,0.7
					c0.3,0.2,0.3,0.7,0.3,0.7L21.5,42.5z"/>
				<path class="st3" d="M20,42.5l0-1.1c0-0.3,0.1-0.5,0.3-0.7l0,0c0,0,0,0,0.1-0.1c0.1-0.1,0.3-0.2,0.3-0.6l0,0l0,1.4L20,42.5z
					 M20.3,40.7c-0.2,0.2-0.3,0.4-0.3,0.7l0,1l0.7-1l0-1.1C20.6,40.5,20.5,40.6,20.3,40.7C20.4,40.7,20.4,40.7,20.3,40.7L20.3,40.7z
					"/>
			</g>
			<g>
				<path class="st3" d="M21.8,44.4l-0.9-1l0,0l0.8,0.9l-0.1-1c0,0,0-0.4-0.4-0.6c-0.2-0.1-0.4-0.3-0.5-0.7l0,0
					c0.1,0.4,0.2,0.5,0.5,0.6c0.3,0.2,0.4,0.6,0.4,0.6L21.8,44.4z"/>
				<path class="st3" d="M20.3,44.6l-0.1-1.1c0-0.3,0.1-0.5,0.2-0.7l0,0c0,0,0,0,0.1-0.1c0.1-0.1,0.2-0.2,0.2-0.7l0,0l0.1,1.4l0,0
					L20.3,44.6z M20.8,42.2c0,0.3-0.1,0.4-0.2,0.5c0,0,0,0-0.1,0.1l0,0c-0.2,0.2-0.2,0.4-0.2,0.7l0.1,1l0.6-1.1L20.8,42.2z"/>
			</g>
			<g>
				<path class="st3" d="M22.3,46.2l-1-0.9l0,0l0.9,0.8l-0.2-1c0,0-0.1-0.4-0.4-0.6c-0.2-0.1-0.4-0.2-0.5-0.6l0,0
					c0.1,0.4,0.3,0.5,0.5,0.6c0.4,0.2,0.4,0.6,0.4,0.6L22.3,46.2z"/>
				<path class="st3" d="M20.8,46.5l-0.2-1.1c-0.1-0.3,0-0.5,0.2-0.7l0,0c0,0,0,0,0.1-0.1c0.1-0.1,0.2-0.2,0.2-0.7l0,0l0.3,1.4
					L20.8,46.5z M20.8,44.7c-0.2,0.2-0.2,0.4-0.2,0.7l0.2,1l0.5-1.1l-0.2-1.1C21,44.4,21,44.5,20.8,44.7
					C20.8,44.7,20.8,44.7,20.8,44.7L20.8,44.7z"/>
			</g>
			<g>
				<path class="st3" d="M22.9,48l-1.1-0.8l0,0l0.9,0.8l-0.3-0.9c0,0-0.1-0.4-0.5-0.5c-0.3-0.1-0.4-0.2-0.6-0.6l0,0
					c0.2,0.4,0.3,0.4,0.6,0.5c0.4,0.1,0.5,0.5,0.5,0.6L22.9,48z"/>
				<path class="st3" d="M21.5,48.5l-0.3-1.1c-0.1-0.3-0.1-0.5,0.1-0.7l0,0c0,0,0,0,0-0.1c0.1-0.1,0.2-0.3,0.1-0.7l0,0l0.4,1.3l0,0
					L21.5,48.5z M21.5,46.1c0,0.3-0.1,0.4-0.1,0.5c0,0,0,0,0,0.1v0c-0.1,0.2-0.2,0.4-0.1,0.7l0.3,1l0.3-1.2L21.5,46.1z"/>
			</g>
			<g>
				<path class="st3" d="M23.8,49.7L22.6,49l0,0l1,0.7l-0.4-0.9c0,0-0.2-0.4-0.5-0.5c-0.3-0.1-0.5-0.1-0.7-0.5l0,0
					c0.2,0.3,0.4,0.4,0.6,0.5c0.4,0.1,0.5,0.5,0.5,0.5L23.8,49.7z"/>
				<path class="st3" d="M22.4,50.3L22,49.2c-0.1-0.3-0.1-0.5,0-0.7c0,0,0-0.1,0-0.1c0.1-0.2,0.2-0.3,0-0.7l0,0l0.5,1.3L22.4,50.3z
					 M22.2,47.9c0,0.3,0,0.4-0.1,0.5c0,0,0,0,0,0.1l0,0c-0.1,0.2-0.1,0.5,0,0.7l0.4,0.9l0.2-1.2L22.2,47.9z"/>
			</g>
			<g>
				<path class="st3" d="M24.8,51.3l-1.2-0.6l0,0l1.1,0.6l-0.5-0.9c0,0-0.2-0.4-0.6-0.4c-0.3,0-0.5-0.1-0.7-0.4l0,0
					c0.2,0.3,0.4,0.4,0.7,0.4c0.4,0.1,0.6,0.4,0.6,0.4L24.8,51.3z"/>
				<path class="st3" d="M23.5,52L23,51c-0.1-0.3-0.2-0.5-0.1-0.7l0,0c0,0,0-0.1,0-0.1c0.1-0.2,0.1-0.3,0-0.7l0,0l0.7,1.2l0,0
					L23.5,52z M22.9,50.3L22.9,50.3c-0.1,0.2,0,0.5,0.1,0.7l0.5,0.9l0.1-1.2l-0.6-1C23.1,50,23,50.1,22.9,50.3
					C23,50.2,23,50.3,22.9,50.3L22.9,50.3z"/>
			</g>
			<g>
				<path class="st3" d="M25.9,52.8l-1.3-0.5l0,0l1.1,0.4l-0.6-0.8c0,0-0.2-0.4-0.6-0.4c-0.3,0-0.5,0-0.7-0.4l0,0
					c0.3,0.3,0.4,0.3,0.7,0.3c0.4,0,0.6,0.4,0.6,0.4L25.9,52.8z"/>
				<path class="st3" d="M24.7,53.7l-0.6-1C24,52.5,23.9,52.2,24,52l0,0l0,0c0,0,0-0.1,0-0.1c0.1-0.2,0.1-0.3-0.1-0.7l0,0l0.8,1.1
					l0,0L24.7,53.7z M24,51.4c0.1,0.3,0.1,0.4,0,0.5c0,0,0,0.1,0,0.1l0,0c-0.1,0.2,0,0.5,0.1,0.7l0.5,0.8l0-1.2L24,51.4z"/>
			</g>
			<g>
				<path class="st3" d="M27.3,54.2L26,53.8l0,0l1.2,0.3l-0.7-0.8c0,0-0.3-0.3-0.6-0.3c-0.3,0-0.5,0-0.8-0.3l0,0
					c0.3,0.3,0.5,0.3,0.7,0.3c0.4,0,0.7,0.3,0.7,0.3L27.3,54.2z"/>
				<path class="st3" d="M26.1,55.2l-0.7-0.9c-0.2-0.2-0.3-0.5-0.2-0.7l0,0l0,0c0,0,0-0.1,0-0.1c0-0.2,0.1-0.3-0.2-0.7l0,0l0.9,1.1
					L26.1,55.2z M25.2,52.9c0.1,0.3,0.1,0.4,0.1,0.5c0,0,0,0.1,0,0.1c0,0.2,0,0.5,0.2,0.7l0.6,0.8L26,53.8L25.2,52.9z"/>
			</g>
			<g>
				<path class="st3" d="M28.7,55.4l-1.3-0.2l0,0l1.2,0.2l-0.7-0.7c0,0-0.3-0.3-0.7-0.2c-0.3,0-0.5,0.1-0.8-0.2l0,0
					c0.3,0.2,0.5,0.2,0.8,0.2c0.4-0.1,0.7,0.2,0.7,0.3L28.7,55.4z"/>
				<path class="st3" d="M27.7,56.5l-0.8-0.8c-0.2-0.2-0.3-0.4-0.3-0.7c0,0,0-0.1,0-0.1c0-0.2,0-0.3-0.2-0.7l0,0l1,1L27.7,56.5z
					 M26.7,55c0,0.2,0.1,0.5,0.3,0.7l0.7,0.7l-0.3-1.2l-0.8-0.8C26.7,54.6,26.7,54.8,26.7,55C26.7,54.9,26.7,55,26.7,55L26.7,55z"/>
			</g>
			<g>
				<path class="st3" d="M30.3,56.5l-1.3-0.1l0,0l1.2,0.1l-0.8-0.6c0,0-0.3-0.3-0.7-0.2c-0.3,0.1-0.5,0.1-0.8-0.1l0,0
					c0.3,0.2,0.5,0.2,0.8,0.1c0.4-0.1,0.7,0.2,0.7,0.2L30.3,56.5z"/>
				<path class="st3" d="M29.4,57.7L28.5,57c-0.2-0.2-0.3-0.4-0.3-0.7l0,0c0,0,0-0.1,0-0.1c0-0.2,0-0.3-0.3-0.6l0,0l1.1,0.9l0,0
					L29.4,57.7z M28.2,56.3c0,0.2,0.1,0.5,0.3,0.6l0.8,0.6l-0.4-1.2L28,55.7C28.2,55.9,28.2,56.1,28.2,56.3
					C28.2,56.2,28.2,56.3,28.2,56.3L28.2,56.3z"/>
			</g>
			<g>
				<path class="st3" d="M30.6,57.5L30.6,57.5l1.2-0.1l-0.9-0.5c0,0-0.4-0.2-0.7-0.1c-0.3,0.1-0.4,0.1-0.8,0l0,0
					c0.4,0.2,0.5,0.1,0.8,0c0.4-0.1,0.7,0.1,0.7,0.1l1,0.6L30.6,57.5z"/>
				<path class="st3" d="M31.1,58.7l-0.9-0.6c-0.2-0.2-0.4-0.4-0.4-0.6l0,0c0,0,0-0.1,0-0.1c0-0.2,0-0.3-0.4-0.6l0,0l1.2,0.7l0,0
					L31.1,58.7z M29.8,57.4c0,0.2,0.2,0.4,0.4,0.6l0.8,0.6l-0.5-1.1l-1-0.6C29.8,57.1,29.8,57.2,29.8,57.4
					C29.8,57.4,29.8,57.4,29.8,57.4L29.8,57.4z"/>
			</g>
			<g>
				<path class="st3" d="M32.3,58.4L32.3,58.4l1.2-0.2l-0.9-0.4c0,0-0.4-0.2-0.7,0c-0.2,0.1-0.4,0.2-0.8,0l0,0
					c0.4,0.1,0.5,0.1,0.8,0c0.3-0.2,0.7,0,0.7,0l1,0.5L32.3,58.4z"/>
				<path class="st3" d="M33,59.5L32,59c-0.3-0.1-0.4-0.3-0.5-0.6l0,0c0,0,0-0.1,0-0.1c0-0.2-0.1-0.3-0.4-0.6l0,0l1.2,0.6l0,0
					L33,59.5z M31.3,57.9c0.2,0.2,0.2,0.3,0.3,0.5c0,0,0,0.1,0,0.1l0,0c0.1,0.2,0.2,0.4,0.5,0.6l0.9,0.5l-0.6-1.1L31.3,57.9z"/>
			</g>
			<g>
				<path class="st3" d="M34.1,59.1L34.1,59.1l1.2-0.3l-0.9-0.3c0,0-0.4-0.2-0.7,0c-0.2,0.1-0.4,0.2-0.8,0.1l0,0
					c0.4,0.1,0.6,0,0.8-0.1c0.3-0.2,0.7,0,0.7,0l1.1,0.4L34.1,59.1z"/>
				<path class="st3" d="M35,60.2l-1.1-0.4c-0.3-0.1-0.4-0.3-0.5-0.5l0,0c0,0,0-0.1,0-0.1c0-0.2-0.1-0.3-0.5-0.5l0,0l1.3,0.5
					L35,60.2z M33.4,59.2c0.1,0.2,0.2,0.4,0.5,0.5l0.9,0.4l-0.7-1l-1.1-0.4C33.3,58.8,33.3,59,33.4,59.2
					C33.4,59.1,33.4,59.2,33.4,59.2L33.4,59.2z"/>
			</g>
			<g>
				<path class="st3" d="M36,59.6L36,59.6l1.1-0.4l-1-0.3c0,0-0.4-0.1-0.7,0.1c-0.2,0.2-0.4,0.3-0.8,0.2l0,0c0.4,0.1,0.6,0,0.8-0.2
					c0.3-0.2,0.7-0.1,0.7-0.1l1.1,0.3L36,59.6z"/>
				<path class="st3" d="M37,60.6l-1.1-0.3c-0.3-0.1-0.5-0.2-0.6-0.5l0,0c0,0,0-0.1,0-0.1c-0.1-0.2-0.1-0.3-0.5-0.5l0,0l1.3,0.4
					L37,60.6z M34.9,59.3c0.2,0.1,0.3,0.3,0.4,0.4c0,0,0,0.1,0,0.1c0.1,0.2,0.3,0.4,0.6,0.5l1,0.3L36,59.6L34.9,59.3z"/>
			</g>
			<g>
				<path class="st3" d="M38,60L38,60l1.1-0.5l-1-0.2c0,0-0.4-0.1-0.7,0.2c-0.2,0.2-0.4,0.3-0.8,0.3l0,0c0.4,0,0.5-0.1,0.7-0.3
					c0.3-0.3,0.7-0.2,0.7-0.2l1.1,0.2L38,60z"/>
				<path class="st3" d="M39,60.9l-1.1-0.2c-0.3-0.1-0.5-0.2-0.6-0.4l0,0c0,0,0-0.1,0-0.1c-0.1-0.2-0.2-0.3-0.6-0.4l0,0l1.4,0.2l0,0
					L39,60.9z M37.3,60.2c0.1,0.2,0.3,0.3,0.6,0.4l1,0.2L38,60l-1.1-0.2C37.1,59.9,37.2,60,37.3,60.2C37.2,60.2,37.3,60.2,37.3,60.2
					L37.3,60.2z"/>
			</g>
			<g>
				<path class="st3" d="M39.9,60.1L39.9,60.1l1-0.6l-1-0.1c0,0-0.4,0-0.7,0.2C39.1,59.9,39,60,38.6,60l0,0c0.4,0,0.5-0.1,0.7-0.3
					c0.3-0.3,0.7-0.3,0.7-0.3l1.1,0.1L39.9,60.1z"/>
				<path class="st3" d="M41,60.9l-1.1-0.1c-0.3,0-0.5-0.1-0.7-0.4l0,0c0,0,0,0,0-0.1c-0.1-0.1-0.2-0.3-0.6-0.4l0,0l1.4,0.1l0,0
					L41,60.9z M39.3,60.4c0.1,0.2,0.4,0.3,0.6,0.3l1,0.1l-1-0.7L38.8,60C39.1,60.1,39.1,60.2,39.3,60.4
					C39.2,60.4,39.2,60.4,39.3,60.4L39.3,60.4z"/>
			</g>
			<g>
				<path class="st3" d="M40.5,60.1L40.5,60.1c0.4-0.1,0.5-0.2,0.7-0.5c0.2-0.3,0.7-0.3,0.7-0.3l1.1-0.1l-1.1,0.8l0,0l1-0.7l-1,0
					c0,0-0.4,0-0.6,0.3C41.1,59.9,40.9,60,40.5,60.1z"/>
				<path class="st3" d="M41.9,60.8c-0.3,0-0.5-0.1-0.7-0.3c0,0,0,0-0.1-0.1c-0.1-0.1-0.2-0.3-0.7-0.3l0,0l1.4,0l1.2,0.7L41.9,60.8
					C41.9,60.8,41.9,60.8,41.9,60.8z M40.8,60.1c0.3,0.1,0.4,0.2,0.5,0.3c0,0,0,0,0.1,0.1l0,0c0.2,0.2,0.4,0.3,0.7,0.3c0,0,0,0,0,0
					l1,0l-1-0.6L40.8,60.1z"/>
			</g>
			<g>
				<path class="st3" d="M42.5,60L42.5,60c0.4-0.1,0.5-0.3,0.6-0.5c0.2-0.3,0.6-0.4,0.6-0.4l1.1-0.2l-1,0.9l0,0l0.9-0.8l-1,0.1
					c0,0-0.4,0-0.6,0.4C43,59.7,42.9,59.9,42.5,60z"/>
				<path class="st3" d="M43.8,60.5c-0.2,0-0.4-0.1-0.6-0.2l0,0c0,0,0,0-0.1-0.1C43,60.1,42.9,60,42.5,60c0,0,0,0,0,0l0,0l1.4-0.2
					l0,0l1.2,0.6l-1.1,0.1C43.9,60.5,43.9,60.5,43.8,60.5z M42.7,60c0.3,0,0.4,0.1,0.5,0.2c0,0,0,0,0.1,0.1l0,0
					c0.2,0.2,0.4,0.2,0.7,0.2l1-0.1l-1.1-0.5L42.7,60z"/>
			</g>
			<g>
				<path class="st3" d="M44.4,59.7L44.4,59.7c0.4-0.2,0.5-0.3,0.6-0.6c0.2-0.4,0.6-0.4,0.6-0.5l1.1-0.3l-0.9,1l0,0l0.8-0.9l-1,0.2
					c0,0-0.4,0.1-0.6,0.4C44.9,59.4,44.8,59.6,44.4,59.7z"/>
				<path class="st3" d="M45.7,60.1c-0.2,0-0.4-0.1-0.5-0.2c0,0,0,0-0.1-0.1c-0.1-0.1-0.3-0.2-0.7-0.2l0,0l1.3-0.3l0,0l1.3,0.5
					L45.9,60C45.9,60.1,45.8,60.1,45.7,60.1z M44.7,59.6c0.3,0,0.4,0.1,0.5,0.2c0,0,0,0,0.1,0.1l0,0c0.2,0.1,0.4,0.2,0.7,0.1l1-0.2
					l-1.1-0.4L44.7,59.6z"/>
			</g>
			<g>
				<path class="st3" d="M46.3,59.2L46.3,59.2c0.3-0.2,0.4-0.4,0.5-0.6c0.1-0.4,0.5-0.5,0.5-0.5l1.1-0.4l-0.8,1.1l0,0l0.7-1
					l-0.9,0.3c0,0-0.4,0.1-0.5,0.5C46.8,58.8,46.7,59,46.3,59.2z"/>
				<path class="st3" d="M47.5,59.5c-0.2,0-0.3,0-0.4-0.1l0,0c0,0,0,0-0.1,0c-0.1-0.1-0.3-0.2-0.7-0.1l0,0l1.3-0.4l0,0l1.3,0.4
					l-1.1,0.3C47.8,59.4,47.6,59.5,47.5,59.5z M47.1,59.3c0.2,0.1,0.4,0.1,0.7,0.1l1-0.3l-1.2-0.3l-1.1,0.4
					C46.8,59.1,47,59.2,47.1,59.3C47.1,59.3,47.1,59.3,47.1,59.3L47.1,59.3z"/>
			</g>
			<g>
				<path class="st3" d="M48.2,58.5L48.2,58.5c0.3-0.2,0.4-0.4,0.4-0.7c0.1-0.4,0.5-0.6,0.5-0.6l1-0.5l-0.7,1.1l0,0l0.6-1l-0.9,0.4
					c0,0-0.4,0.2-0.5,0.5C48.6,58.1,48.5,58.3,48.2,58.5z"/>
				<path class="st3" d="M49.3,58.7c-0.1,0-0.2,0-0.4-0.1l0,0c0,0-0.1,0-0.1,0c-0.2-0.1-0.3-0.2-0.7,0l0,0l1.3-0.6l0,0l1.3,0.2
					l-1.1,0.4C49.6,58.6,49.5,58.7,49.3,58.7z M49,58.5c0.2,0.1,0.5,0.1,0.7,0l0.9-0.4l-1.2-0.2l-1,0.5C48.7,58.4,48.8,58.4,49,58.5
					C48.9,58.5,49,58.5,49,58.5L49,58.5z"/>
			</g>
			<g>
				<path class="st3" d="M49.9,57.6L49.9,57.6c0.3-0.3,0.3-0.5,0.4-0.7c0-0.4,0.4-0.6,0.4-0.6l1-0.6L51.1,57l0,0l0.5-1.1l-0.9,0.5
					c0,0-0.4,0.2-0.4,0.6C50.3,57.2,50.3,57.4,49.9,57.6z"/>
				<path class="st3" d="M51,57.7c-0.1,0-0.2,0-0.3-0.1l0,0c0,0-0.1,0-0.1,0c-0.2-0.1-0.3-0.1-0.7,0.1l0,0l1.2-0.7l1.4,0.1l-1,0.6
					C51.3,57.6,51.2,57.7,51,57.7z M50.8,57.6c0.2,0.1,0.5,0.1,0.7-0.1l0.9-0.5L51.1,57l-1,0.6C50.4,57.5,50.5,57.5,50.8,57.6
					C50.7,57.6,50.7,57.6,50.8,57.6L50.8,57.6z"/>
			</g>
			<g>
				<path class="st3" d="M51.6,56.6L51.6,56.6c0.3-0.3,0.3-0.5,0.3-0.7c0-0.4,0.4-0.6,0.4-0.6l0.9-0.7l-0.5,1.3l0,0l0.4-1.1
					l-0.8,0.6c0,0-0.4,0.2-0.4,0.6C52,56.1,51.9,56.3,51.6,56.6z"/>
				<path class="st3" d="M51.6,56.6L51.6,56.6l1.1-0.8l0,0l1.4-0.1l-0.9,0.6c-0.2,0.2-0.5,0.2-0.7,0.2l0,0c0,0-0.1,0-0.1,0
					C52.2,56.4,52,56.4,51.6,56.6z M52.4,56.5c0.2,0.1,0.5,0,0.7-0.1l0.8-0.6l-1.2,0l-0.9,0.7C52.1,56.4,52.2,56.4,52.4,56.5
					C52.4,56.5,52.4,56.5,52.4,56.5L52.4,56.5z"/>
			</g>
			<g>
				<path class="st3" d="M53.2,55.4L53.2,55.4c0.2-0.3,0.2-0.5,0.2-0.8c0-0.4,0.3-0.7,0.3-0.7l0.8-0.8l-0.3,1.3l0,0l0.3-1.2L53.7,54
					c0,0-0.3,0.3-0.3,0.6C53.5,54.9,53.5,55.1,53.2,55.4z"/>
				<path class="st3" d="M53.2,55.4L53.2,55.4l1-1l0,0l1.4-0.2L54.7,55c-0.2,0.2-0.5,0.3-0.7,0.2c0,0-0.1,0-0.1,0
					C53.7,55.2,53.5,55.2,53.2,55.4z M54.2,54.5l-0.9,0.8c0.3-0.1,0.4-0.1,0.5-0.1c0,0,0.1,0,0.1,0l0,0c0.2,0,0.5,0,0.7-0.2l0.8-0.6
					L54.2,54.5z"/>
			</g>
			<g>
				<path class="st3" d="M54.6,54.1L54.6,54.1c0.2-0.3,0.2-0.5,0.1-0.8c-0.1-0.4,0.2-0.7,0.2-0.7l0.8-0.8l-0.2,1.3l0,0l0.2-1.2
					L55,52.6c0,0-0.3,0.3-0.2,0.7C54.8,53.5,54.9,53.7,54.6,54.1z"/>
				<path class="st3" d="M54.6,54.1L54.6,54.1l0.9-1l1.3-0.3l-0.8,0.8c-0.2,0.2-0.4,0.3-0.7,0.3c0,0-0.1,0-0.1,0
					C55.1,53.8,55,53.8,54.6,54.1z M55.5,53.1l-0.8,0.8c0.2-0.2,0.4-0.1,0.5-0.1c0,0,0.1,0,0.1,0l0,0c0.2,0,0.5-0.1,0.7-0.3l0.7-0.7
					L55.5,53.1z"/>
			</g>
			<g>
				<path class="st3" d="M55.9,52.6L55.9,52.6c0.2-0.4,0.1-0.5,0.1-0.8c-0.1-0.4,0.2-0.7,0.2-0.7l0.7-0.9l-0.1,1.3l0,0l0.1-1.2
					l-0.6,0.8c0,0-0.3,0.3-0.2,0.7C56.1,52,56.1,52.2,55.9,52.6z"/>
				<path class="st3" d="M55.9,52.6L55.9,52.6l0.8-1.1l0,0L58,51l-0.7,0.9c-0.2,0.2-0.4,0.4-0.7,0.4l0,0c0,0-0.1,0-0.1,0
					C56.4,52.3,56.2,52.3,55.9,52.6z M56.7,51.5L56,52.4c0.2-0.2,0.4-0.2,0.5-0.2c0,0,0.1,0,0.1,0l0,0c0.2,0,0.5-0.1,0.6-0.3
					l0.6-0.8L56.7,51.5z"/>
			</g>
			<g>
				<path class="st3" d="M57,51L57,51c0.1-0.4,0.1-0.6,0-0.8c-0.1-0.4,0.1-0.7,0.1-0.7l0.6-1l0.1,1.3l0,0l-0.1-1.2l-0.5,0.9
					c0,0-0.2,0.4-0.1,0.7C57.2,50.4,57.2,50.6,57,51z"/>
				<path class="st3" d="M57,51L57,51l0.7-1.2l0,0l1.2-0.6l-0.6,1c-0.2,0.2-0.4,0.4-0.6,0.4l0,0c0,0-0.1,0-0.1,0
					C57.5,50.6,57.3,50.6,57,51z M57.8,49.8l-0.6,1c0.2-0.2,0.3-0.2,0.5-0.2c0,0,0.1,0,0.1,0l0,0c0.2,0,0.4-0.2,0.6-0.4l0.5-0.8
					L57.8,49.8z"/>
			</g>
			<g>
				<path class="st3" d="M58,49.3L58,49.3c0.1-0.4,0-0.6-0.1-0.8c-0.2-0.3,0-0.7,0-0.7l0.5-1l0.2,1.3l0,0l-0.2-1.2L58,47.8
					c0,0-0.2,0.4,0,0.7C58.1,48.7,58.2,48.9,58,49.3z"/>
				<path class="st3" d="M58,49.3L58,49.3l0.6-1.3l1.2-0.7l-0.5,1c-0.1,0.3-0.3,0.4-0.6,0.5l0,0c0,0-0.1,0-0.1,0
					C58.4,48.9,58.3,48.9,58,49.3z M58.6,48l-0.5,1c0.2-0.2,0.3-0.2,0.5-0.3c0,0,0.1,0,0.1,0c0.2-0.1,0.4-0.2,0.5-0.5l0.5-0.9
					L58.6,48z"/>
			</g>
			<g>
				<path class="st3" d="M58.8,47.5L58.8,47.5c0.1-0.4,0-0.6-0.2-0.8c-0.2-0.3-0.1-0.7-0.1-0.7l0.4-1.1l0.3,1.3l0,0L59,45L58.6,46
					c0,0-0.2,0.4,0.1,0.7C58.8,46.9,58.9,47.1,58.8,47.5z"/>
				<path class="st3" d="M58.8,47.5L58.8,47.5l0.4-1.3l0,0l1.1-0.8l-0.4,1.1c-0.1,0.3-0.3,0.5-0.5,0.5l0,0c0,0-0.1,0-0.1,0
					C59.2,47,59,47.1,58.8,47.5z M59.3,46.2l-0.4,1.1c0.2-0.2,0.3-0.3,0.4-0.3c0,0,0.1,0,0.1,0l0,0c0.2-0.1,0.4-0.3,0.5-0.5l0.4-0.9
					L59.3,46.2z"/>
			</g>
			<g>
				<path class="st3" d="M59.4,45.6L59.4,45.6c0-0.4-0.1-0.6-0.3-0.8c-0.2-0.3-0.1-0.7-0.1-0.7l0.3-1.1l0.5,1.3l0,0l-0.4-1.1l-0.2,1
					c0,0-0.1,0.4,0.1,0.7C59.4,45,59.5,45.2,59.4,45.6z"/>
				<path class="st3" d="M59.4,45.6L59.4,45.6l0.3-1.4l1-0.9l-0.3,1.1c-0.1,0.3-0.2,0.5-0.5,0.6c0,0-0.1,0-0.1,0
					C59.7,45.1,59.6,45.2,59.4,45.6z M59.8,44.3l-0.3,1.1c0.1-0.3,0.3-0.3,0.4-0.4c0,0,0.1,0,0.1,0h0c0.2-0.1,0.4-0.3,0.4-0.6l0.3-1
					L59.8,44.3z"/>
			</g>
			<g>
				<path class="st3" d="M59.9,43.7L59.9,43.7c0-0.4-0.1-0.5-0.3-0.7c-0.3-0.3-0.2-0.7-0.2-0.7l0.1-1.1l0.6,1.2l0,0l-0.5-1.1l-0.1,1
					c0,0-0.1,0.4,0.2,0.7C59.8,43.1,59.9,43.3,59.9,43.7z"/>
				<path class="st3" d="M59.9,43.7L59.9,43.7l0.2-1.4l0.9-1l-0.2,1.1c0,0.3-0.2,0.5-0.4,0.6l0,0c0,0-0.1,0-0.1,0
					C60.1,43.2,60,43.3,59.9,43.7z M60.1,42.3l-0.2,1.1c0.1-0.3,0.2-0.3,0.4-0.4c0,0,0,0,0.1,0l0,0c0.2-0.1,0.3-0.3,0.4-0.6l0.2-1
					L60.1,42.3z"/>
			</g>
			<g>
				<path class="st3" d="M60.1,41.8c0-0.4-0.2-0.5-0.4-0.7c-0.3-0.2-0.3-0.7-0.3-0.7l0-1.1l0.7,1.2l0,0l-0.6-1l0,1
					c0,0,0,0.4,0.3,0.7C59.9,41.2,60.1,41.3,60.1,41.8L60.1,41.8z"/>
				<path class="st3" d="M60.1,41.8L60.1,41.8l0-1.4l0,0l0.8-1.1l-0.1,1.1c0,0.3-0.1,0.5-0.3,0.7l0,0c0,0,0,0-0.1,0
					C60.3,41.2,60.2,41.3,60.1,41.8z M60.2,40.4l-0.1,1.1c0.1-0.3,0.2-0.4,0.3-0.4c0,0,0,0,0.1,0l0,0c0.2-0.1,0.3-0.4,0.3-0.6l0.1-1
					L60.2,40.4z"/>
			</g>
			<g>
				<path class="st3" d="M60.1,39.8c-0.1-0.4-0.2-0.5-0.4-0.7c-0.3-0.2-0.3-0.6-0.3-0.7l-0.1-1.1l0.8,1.1l0,0l-0.7-1l0.1,1
					c0,0,0,0.4,0.3,0.6C59.9,39.2,60.1,39.4,60.1,39.8L60.1,39.8z"/>
				<path class="st3" d="M60.1,39.8L60.1,39.8L60,38.4l0,0l0.7-1.2l0,1.1c0,0.3-0.1,0.5-0.3,0.7c0,0,0,0-0.1,0.1
					C60.3,39.2,60.2,39.3,60.1,39.8z M60.1,38.4l0.1,1.1c0.1-0.3,0.2-0.4,0.3-0.5c0,0,0,0,0.1-0.1l0,0c0.2-0.2,0.3-0.4,0.3-0.7l0-1
					L60.1,38.4z"/>
			</g>
			<g>
				<path class="st3" d="M59.9,37.8c-0.1-0.4-0.3-0.5-0.5-0.6c-0.3-0.2-0.4-0.6-0.4-0.6l-0.2-1.1l0.9,1l0,0l-0.8-0.9l0.2,1
					c0,0,0.1,0.4,0.4,0.6C59.7,37.3,59.9,37.4,59.9,37.8L59.9,37.8z"/>
				<path class="st3" d="M59.9,37.8l-0.2-1.4l0,0l0.6-1.2l0.1,1.1c0,0.3,0,0.5-0.2,0.7l0,0c0,0,0,0-0.1,0.1
					C60.1,37.3,60,37.4,59.9,37.8L59.9,37.8z M59.8,36.5l0.2,1.1c0-0.3,0.1-0.4,0.2-0.5c0,0,0,0,0.1-0.1l0,0
					c0.2-0.2,0.2-0.4,0.2-0.7l-0.1-1L59.8,36.5z"/>
			</g>
			<g>
				<path class="st3" d="M59.6,35.9c-0.1-0.4-0.3-0.5-0.5-0.6c-0.4-0.1-0.5-0.6-0.5-0.6l-0.3-1.1l1,0.9l0,0l-0.9-0.8l0.3,1
					c0,0,0.1,0.4,0.4,0.6C59.3,35.4,59.5,35.5,59.6,35.9L59.6,35.9z"/>
				<path class="st3" d="M59.6,35.9l-0.3-1.3l0,0l0.5-1.3l0.3,1.1c0.1,0.3,0,0.5-0.1,0.7l0,0c0,0,0,0-0.1,0.1
					C59.7,35.3,59.6,35.4,59.6,35.9L59.6,35.9z M59.3,34.6l0.3,1.1c0-0.3,0.1-0.4,0.2-0.5c0,0,0,0,0.1-0.1l0,0
					c0.1-0.2,0.2-0.4,0.1-0.7l-0.2-1L59.3,34.6z"/>
			</g>
			<g>
				<path class="st3" d="M59.1,34c-0.2-0.4-0.3-0.4-0.6-0.5c-0.4-0.1-0.5-0.5-0.5-0.5l-0.4-1.1l1.1,0.8l0,0l-1-0.7L58,33
					c0,0,0.1,0.4,0.5,0.5C58.7,33.6,58.9,33.6,59.1,34L59.1,34z"/>
				<path class="st3" d="M59.1,34l-0.5-1.3l0.3-1.3l0.4,1.1c0.1,0.3,0.1,0.5-0.1,0.7l0,0c0,0,0,0,0,0.1C59.1,33.4,59,33.6,59.1,34
					L59.1,34z M58.6,32.7l0.4,1.1c0-0.3,0-0.4,0.1-0.5c0,0,0,0,0-0.1l0,0c0.1-0.2,0.1-0.4,0-0.7l-0.3-0.9L58.6,32.7z"/>
			</g>
			<g>
				<path class="st3" d="M58.3,32.2c-0.2-0.3-0.4-0.4-0.6-0.4c-0.4-0.1-0.6-0.5-0.6-0.5l-0.5-1l1.2,0.7l0,0l-1-0.6l0.5,0.9
					c0,0,0.2,0.4,0.5,0.5C58,31.8,58.2,31.8,58.3,32.2L58.3,32.2z"/>
				<path class="st3" d="M58.3,32.2L57.7,31l0,0l0.2-1.4l0.5,1c0.1,0.3,0.1,0.5,0,0.7l0,0c0,0,0,0.1,0,0.1
					C58.3,31.6,58.2,31.8,58.3,32.2L58.3,32.2z M57.8,30.9l0.5,1c-0.1-0.3,0-0.4,0.1-0.5c0,0,0,0,0-0.1c0.1-0.2,0.1-0.5,0-0.7
					l-0.4-0.9L57.8,30.9z"/>
			</g>
			<g>
				<path class="st3" d="M57.4,30.5c-0.2-0.3-0.4-0.4-0.7-0.4c-0.4,0-0.6-0.4-0.6-0.4l-0.6-1l1.2,0.6l0,0l-1.1-0.5l0.5,0.8
					c0,0,0.2,0.4,0.6,0.4C57,30.1,57.2,30.1,57.4,30.5L57.4,30.5z"/>
				<path class="st3" d="M57.4,30.5l-0.7-1.2l0,0l0.1-1.4l0.6,1c0.1,0.3,0.2,0.5,0.1,0.7l0,0c0,0,0,0.1,0,0.1
					C57.3,29.9,57.3,30,57.4,30.5L57.4,30.5z M56.7,29.3l0.6,1c-0.1-0.3,0-0.4,0-0.5c0,0,0-0.1,0-0.1l0,0c0.1-0.2,0-0.5-0.1-0.7
					L56.8,28L56.7,29.3z"/>
			</g>
			<g>
				<path class="st3" d="M56.4,28.8c-0.3-0.3-0.5-0.3-0.7-0.3c0,0,0,0,0,0c-0.4,0-0.6-0.3-0.6-0.4l-0.7-0.9l1.3,0.4l0,0l-1.1-0.4
					l0.6,0.8c0,0,0.3,0.3,0.6,0.3c0,0,0,0,0,0C55.9,28.5,56.1,28.5,56.4,28.8L56.4,28.8z"/>
				<path class="st3" d="M56.4,28.8l-0.8-1.1l-0.1-1.4l0.7,0.9c0.2,0.2,0.2,0.5,0.2,0.7l0,0c0,0,0,0.1,0,0.1
					C56.2,28.2,56.2,28.4,56.4,28.8L56.4,28.8z M55.6,27.7l0.7,0.9c-0.1-0.3-0.1-0.4,0-0.5c0,0,0-0.1,0-0.1l0,0
					c0.1-0.2,0-0.5-0.2-0.7l-0.6-0.8L55.6,27.7z"/>
			</g>
			<g>
				<path class="st3" d="M55.1,27.3C54.8,27,54.6,27,54.4,27c-0.4,0-0.7-0.3-0.7-0.3l-0.8-0.8l1.3,0.3l0,0L53,26l0.7,0.7
					c0,0,0.3,0.3,0.7,0.3C54.6,27,54.8,27,55.1,27.3L55.1,27.3z"/>
				<path class="st3" d="M55.1,27.3l-0.9-1L54,24.9l0.8,0.9c0.2,0.2,0.3,0.5,0.2,0.7c0,0,0,0.1,0,0.1C54.9,26.7,54.9,26.9,55.1,27.3
					L55.1,27.3z M54.2,26.3l0.8,0.8c-0.1-0.2-0.1-0.4-0.1-0.5c0,0,0-0.1,0-0.1l0,0l0,0c0-0.2,0-0.5-0.2-0.7L54,25.1L54.2,26.3z"/>
			</g>
			<g>
				<path class="st3" d="M53.8,25.9c-0.3-0.2-0.5-0.2-0.8-0.2c-0.4,0.1-0.7-0.2-0.7-0.2l-0.9-0.7l1.3,0.2l0,0l-1.2-0.2l0.8,0.6
					c0,0,0.3,0.3,0.7,0.2C53.2,25.6,53.4,25.6,53.8,25.9L53.8,25.9z"/>
				<path class="st3" d="M53.8,25.9l-1-0.9l0,0l-0.4-1.3l0.8,0.8c0.2,0.2,0.3,0.4,0.3,0.7c0,0,0,0.1,0,0.1
					C53.5,25.4,53.5,25.5,53.8,25.9L53.8,25.9z M52.8,24.9l0.9,0.8c-0.2-0.2-0.2-0.4-0.1-0.5c0,0,0-0.1,0-0.1l0,0
					c0-0.2-0.1-0.5-0.3-0.7l-0.7-0.7L52.8,24.9z"/>
			</g>
			<g>
				<path class="st3" d="M52.2,24.6c-0.3-0.2-0.5-0.2-0.8-0.1c-0.4,0.1-0.7-0.1-0.7-0.1l-0.9-0.6l1.3,0l0,0l-1.2,0l0.8,0.6
					c0,0,0.3,0.3,0.7,0.1C51.7,24.4,51.9,24.4,52.2,24.6L52.2,24.6z"/>
				<path class="st3" d="M52.2,24.6l-1.1-0.8l0,0l-0.5-1.3l0.9,0.7c0.2,0.2,0.4,0.4,0.4,0.6l0,0c0,0,0,0.1,0,0.1
					C51.9,24.1,51.9,24.3,52.2,24.6L52.2,24.6z M51.2,23.8l0.9,0.7c-0.2-0.2-0.2-0.4-0.2-0.5c0,0,0-0.1,0-0.1c0-0.2-0.1-0.4-0.4-0.6
					l-0.8-0.6L51.2,23.8z"/>
			</g>
			<g>
				<path class="st3" d="M49.6,23.6c-0.3,0-0.5-0.1-0.5-0.1l-1-0.6l1.3-0.1l0,0l-1.2,0.1l0.9,0.5c0,0,0.4,0.2,0.7,0.1
					c0.3-0.1,0.4-0.2,0.8,0l0,0c-0.4-0.2-0.5-0.1-0.8,0C49.7,23.6,49.7,23.6,49.6,23.6z"/>
				<path class="st3" d="M50.6,23.5l-1.2-0.7l0,0l-0.6-1.2l1,0.6c0.2,0.2,0.4,0.4,0.4,0.6l0,0c0,0,0,0.1,0,0.1
					C50.3,23.1,50.3,23.2,50.6,23.5L50.6,23.5z M49.5,22.8l1,0.6c-0.2-0.2-0.2-0.3-0.2-0.5c0,0,0-0.1,0-0.1l0,0
					c0-0.2-0.2-0.4-0.4-0.6l-0.9-0.5L49.5,22.8z"/>
			</g>
			<g>
				<path class="st3" d="M47.8,22.8c-0.2,0-0.4-0.1-0.4-0.1l-1-0.4l1.3-0.2l0,0l-1.2,0.2l0.9,0.4c0,0,0.4,0.2,0.7,0
					c0.2-0.1,0.4-0.2,0.8-0.1l0,0c-0.4-0.1-0.6-0.1-0.8,0.1C48,22.7,47.9,22.8,47.8,22.8z"/>
				<path class="st3" d="M48.9,22.6L47.6,22l-0.7-1.2l1,0.5c0.3,0.1,0.4,0.3,0.5,0.6l0,0c0,0,0,0.1,0,0.1
					C48.5,22.2,48.5,22.3,48.9,22.6L48.9,22.6z M47.7,22l1,0.5c-0.2-0.2-0.3-0.3-0.3-0.5c0,0,0-0.1,0-0.1c-0.1-0.2-0.2-0.4-0.5-0.5
					L47,21L47.7,22z"/>
			</g>
			<g>
				<path class="st3" d="M45.9,22.1c-0.2,0-0.3,0-0.3-0.1l-1.1-0.3l1.3-0.4l0,0l-1.2,0.3l1,0.3c0,0,0.4,0.1,0.7-0.1
					c0.2-0.2,0.4-0.3,0.8-0.2l0,0c-0.4-0.1-0.6,0-0.8,0.2C46.2,22.1,46,22.1,45.9,22.1z"/>
				<path class="st3" d="M47.1,21.8l-1.3-0.4l0,0l-0.8-1.1l1.1,0.4c0.3,0.1,0.5,0.3,0.6,0.5l0,0c0,0,0,0.1,0,0.1
					C46.6,21.5,46.7,21.6,47.1,21.8L47.1,21.8z M45.8,21.4l1.1,0.4c-0.2-0.2-0.3-0.3-0.3-0.4c0,0,0-0.1,0-0.1l0,0
					c-0.1-0.2-0.3-0.4-0.5-0.5l-0.9-0.3L45.8,21.4z"/>
			</g>
			<g>
				<path class="st3" d="M44,21.7c-0.1,0-0.2,0-0.2,0l-1.1-0.2l1.3-0.5l0,0l-1.1,0.4l1,0.2c0,0,0.4,0.1,0.7-0.1
					c0.2-0.2,0.4-0.3,0.8-0.2l0,0c-0.4,0-0.6,0.1-0.7,0.2C44.3,21.6,44.1,21.7,44,21.7z"/>
				<path class="st3" d="M45.2,21.3L43.9,21l0,0l-0.9-1l1.1,0.3c0.3,0.1,0.5,0.2,0.6,0.4c0,0,0,0.1,0,0.1
					C44.7,20.9,44.8,21.1,45.2,21.3L45.2,21.3z M43.9,20.9l1.1,0.2c-0.3-0.1-0.3-0.3-0.4-0.4c0,0,0-0.1,0-0.1l0,0
					c-0.1-0.2-0.3-0.4-0.6-0.4L43,20L43.9,20.9z"/>
			</g>
			<g>
				<path class="st3" d="M42,21.4c-0.1,0-0.1,0-0.1,0l-1.1-0.1l1.2-0.6l0,0l-1.1,0.5l1,0.1c0,0,0.4,0.1,0.7-0.2
					c0.2-0.2,0.3-0.3,0.8-0.3l0,0c-0.4,0-0.5,0.1-0.7,0.3C42.4,21.4,42.1,21.4,42,21.4z"/>
				<path class="st3" d="M43.3,20.9l-1.4-0.2l-1-0.9L42,20c0.3,0,0.5,0.2,0.6,0.4c0,0,0,0,0,0.1C42.8,20.6,42.9,20.7,43.3,20.9
					L43.3,20.9z M41.9,20.7l1.1,0.1c-0.3-0.1-0.3-0.2-0.4-0.3c0,0,0,0,0-0.1c-0.1-0.2-0.3-0.3-0.6-0.4l-1-0.1L41.9,20.7z"/>
			</g>
		</g>
		<g>
			<path class="st2" d="M65.1,35.3l-0.4,1.3c0,0.1-0.2,0.2-0.3,0l-0.7-1l0.1-1.2c0-0.1,0.2-0.2,0.3-0.1L65.1,35.3z"/>
			<path class="st2" d="M65.3,35.1l-1.1-1c-0.1-0.1-0.2-0.3-0.2-0.5l0.1-2.5l1.5,2.1c0.1,0.1,0.1,0.3,0.1,0.5L65.3,35.1z"/>
			<path class="st2" d="M65.6,35.2l0.3-1.3c0-0.1,0.2-0.2,0.3,0l0.7,1L66.8,36c0,0.1-0.2,0.2-0.3,0.1L65.6,35.2z"/>
			<path class="st2" d="M65.4,35.5l1.1,1c0.1,0.1,0.2,0.3,0.2,0.5l-0.1,2.6l-1.4-2.1C65,37.3,65,37.1,65,37L65.4,35.5z"/>
		</g>
		<g>
			<path class="st2" d="M15.7,35.3l0.4,1.3c0,0.1,0.2,0.2,0.3,0l0.7-1L17,34.5c0-0.1-0.2-0.2-0.3-0.1L15.7,35.3z"/>
			<path class="st2" d="M15.5,35.1l1.1-1c0.1-0.1,0.2-0.3,0.2-0.5L16.7,31l-1.5,2.1c-0.1,0.1-0.1,0.3-0.1,0.5L15.5,35.1z"/>
			<path class="st2" d="M15.2,35.2L14.9,34c0-0.1-0.2-0.2-0.3,0l-0.7,1L14,36c0,0.1,0.2,0.2,0.3,0.1L15.2,35.2z"/>
			<path class="st2" d="M15.4,35.5l-1.1,1c-0.1,0.1-0.2,0.3-0.2,0.5l0.1,2.6l1.4-2.1c0.1-0.1,0.1-0.3,0.1-0.5L15.4,35.5z"/>
		</g>
	</g>
</g>
</svg>
