<?xml version="1.0" encoding="utf-8"?>
<!-- Generator: Adobe Illustrator 22.0.0, SVG Export Plug-In . SVG Version: 6.00 Build 0)  -->
<svg version="1.0" id="Layer_1" xmlns="http://www.w3.org/2000/svg" xmlns:xlink="http://www.w3.org/1999/xlink" x="0px" y="0px"
	 viewBox="0 0 262 262" style="enable-background:new 0 0 262 262;" xml:space="preserve">
<style type="text/css">
	.st0{fill:#232121;}
</style>
<g>
	<path class="st0" d="M0,0l262,262V0H0z M191.7,152c-2.6-15.7-8.5-30-16.8-41.4v-1.5c0-3.2,3.1-5.8,7-5.9l19.4-0.6
		c3.8-0.1,7.1,2.4,7.2,5.5v2C200,121.9,194.2,136.1,191.7,152z M232.2,89.6c-6.3,3.4-12.1,7.7-17.2,12.9c-2.5-4.7-7.8-8.1-14-8
		l-19.3,0.6c-5.9,0.1-11,3.3-13.3,7.8c-5.2-5.3-11.1-9.8-17.6-13.2c-4.2-2.1-14.7-5.5-14.7-5.5s10.5-3.4,14.7-5.7
		c21.5-11.5,36-34.5,40.4-62.4c4.6,27.9,19.3,51,40.9,62.2c4.2,2.1,14.7,5.5,14.7,5.5S236.4,87.4,232.2,89.6z"/>
	<g>
		<g>
			<g>
				<path class="st0" d="M191.6,92.2c-8.6,0-15.6-7-15.6-15.6S183,61,191.6,61s15.6,7,15.6,15.6C207.2,85.2,200.2,92.2,191.6,92.2z
					 M191.6,69.2c-4.1,0-7.5,3.4-7.5,7.5s3.4,7.5,7.5,7.5s7.5-3.4,7.5-7.5S195.7,69.2,191.6,69.2z"/>
			</g>
		</g>
	</g>
</g>
</svg>
