<?xml version="1.0" encoding="utf-8"?>
<!-- Generator: Adobe Illustrator 22.0.0, SVG Export Plug-In . SVG Version: 6.00 Build 0)  -->
<svg version="1.1" id="Layer_1" xmlns="http://www.w3.org/2000/svg" xmlns:xlink="http://www.w3.org/1999/xlink" x="0px" y="0px"
	 viewBox="0 0 93.7 78.2" style="enable-background:new 0 0 93.7 78.2;" xml:space="preserve">
<style type="text/css">
	.st0{fill:#969198;}
	.st1{fill:#FFFFFF;}
</style>
<g>
	<path class="st0" d="M50.6,69.8c0-2.3,0-4.8,0-7c0-0.8,0.3-1.1,1.1-1.1c2.3,0,4.5,0,6.8,0c1.2,0,2.5,0.3,3.6,1.2
		c1.6,1.6,1.6,4.1-0.3,5.7c-0.4,0.4-0.4,0.4,0,0.8c1.9,1.1,2.5,2.5,2,4.8c-0.4,1.6-1.9,2.9-3.6,3.1c-2.9,0.4-6,0.3-8.9,0.3
		c-0.7,0-0.7-0.4-0.7-0.8C50.6,74.6,50.6,72.2,50.6,69.8L50.6,69.8z M56.4,75c0.7,0,1.5,0,2,0c1.2,0,2-0.8,2.3-2
		c0.3-1.1-0.7-1.6-1.9-2s-2.3-0.3-3.3-0.3c-1.9,0-1.5-0.3-1.5,1.5c0,0.8-0.4,1.9,0.3,2.5C54.6,75.4,55.6,74.8,56.4,75z M56.7,64.6
		c-2.7,0-2.7,0-2.7,2.7c0,0.3,0,0.3,0,0.3c0,0.4,0.3,0.7,0.7,0.7c1.2,0,2.3,0,3.7,0c0.3,0,0.7-0.3,0.8-0.3c0.7-0.4,1.2-1.1,1.2-1.6
		s-0.4-1.2-1.2-1.5C58,64.5,57.2,64.6,56.7,64.6z"/>
</g>
<g>
	<path class="st0" d="M91.5,66.7c-0.4,0-0.7,0-1.2,0c-0.3,0-0.4-0.3-0.4-0.4c-0.7-1.9-2.3-2.5-4.1-1.9c-0.4,0.3-1.1,0.3-1.2,0.7
		c-0.4,0.7-0.3,1.6,0.7,2c1.5,0.7,2.9,0.8,4.4,1.2c1.2,0.4,2.7,1.1,3.3,2.3c1.5,2.3,0.7,6-2.7,7c-2,0.7-4.4,0.7-6.4-0.3
		c-1.9-0.8-2.7-2.3-3.1-4.1c-0.3-0.4,0.3-0.7,0.4-0.7c0.7-0.3,1.2-0.3,2-0.3c0.4,0,0.7,0.3,0.7,0.4c0.7,2.7,3.7,2.9,5.6,2
		c0.7-0.3,1.1-1.1,1.1-1.6s-0.4-1.1-1.1-1.5c-1.1-0.4-2-0.7-3.1-1.1c-1.2-0.4-2.5-0.7-3.3-1.5c-2.3-1.9-2-5.6,0.7-7
		c2.7-1.2,5.3-1.2,7.9,0.4c1.2,0.7,1.6,2,1.9,3.3c0.3,0.4-0.3,0.7-0.7,0.7C92.2,66.7,91.8,66.7,91.5,66.7L91.5,66.7z"/>
</g>
<g>
	<path class="st0" d="M72.5,74.2c-0.8,0-1.9,0-2.7,0c-0.4,0-0.7,0.3-0.8,0.7c-0.3,0.8-0.7,1.6-1.1,2.5c-0.3,0.3-0.3,0.4-0.4,0.7
		c-1.1,0-1.9,0.3-2.9,0c-0.4,0-0.3-0.4-0.3-0.7c0.7-1.5,1.2-3.1,1.9-4.8c1.2-3.1,2.7-6.4,3.7-9.6c0.3-0.7,0.7-1.1,1.5-1.1
		c2.9,0.3,2-0.4,3.1,2c1.5,3.7,3.1,7.4,4.5,11.2c0.3,0.7,0.4,1.5,0.8,2c0.3,0.4,0.3,0.7-0.4,0.7c0,0,0,0-0.3,0
		c-2.7,0.3-2.7,0.3-3.7-2.3c-0.4-1.1-0.8-1.5-1.9-1.2C73.7,74.3,73.2,74.2,72.5,74.2L72.5,74.2z M72.8,66.3c-0.8,1.5-1.5,3.1-2,4.8
		c-0.3,0.4,0.3,0.4,0.4,0.4c1.1,0,2,0,3.1,0c0.4,0,0.4-0.3,0.4-0.7C73.7,69.3,73.2,67.8,72.8,66.3z"/>
</g>
<g>
	<g>
		<path class="st0" d="M39.6,52.7c-1.8,0.3-3.8-0.6-5.3-1.7c-0.9-0.5-1.8-1.2-2.9-1.7c-1.7-0.9-3.8-1.2-5.6-1.7
			c-4.3-0.9-6.4-3.5-7.4-7.7c-0.5-1.8-0.6-3.5-1.7-5.2c-0.5-0.9-1.2-1.8-1.8-2.9c-1.4-2.1-2.3-4.4-1.8-7.2c0.3-1.7,0.9-3.1,1.8-4.3
			c1.8-2.5,2.9-5.3,3.1-8.5c0.9-3.7,3.1-6.2,7-7.1c1.8-0.5,3.9-0.6,5.9-1.7c1.4-0.6,2.5-1.7,3.9-2.3C36.1,0,37.7,0,39.2,0
			c1.8,0,3.5,0.5,5.2,1.4c1.2,0.5,2.3,1.2,3.1,1.8c1.7,0.9,3.5,1.4,5.3,1.7c4.3,0.6,7,3.1,7.8,7.2c0.3,1.4,0.5,2.5,0.9,3.9
			c0.5,1.8,1.7,3.1,2.9,4.8c2.1,3.5,2.1,6.8,0,10.2c-0.6,1.2-1.4,2.3-2.1,3.5c-0.6,1.4-0.9,2.9-1.4,4.3c-0.5,1.8-0.9,3.8-2.1,5.2
			c-1.4,1.8-3.5,2.9-5.6,3.5c-1.8,0.5-3.9,0.6-5.6,1.8c-1.2,0.6-2.1,1.2-3.1,1.8C43,52,41.3,52.7,39.6,52.7z M16.9,26.2
			c-0.2,12.3,9.9,22.7,22.3,22.9c12.3,0.3,23.2-9.9,23-23.2C62.1,13.6,52.7,3.8,39.7,3.7C27.2,3.3,16.9,13.6,16.9,26.2z"/>
	</g>
	<g>
		<path class="st0" d="M0,69.2c2.1-0.5,3.9-0.5,6-0.6c2.5-0.3,5.3-0.5,7.8-0.9c1.7-0.3,3.1-0.5,4.8-0.9c3.5-0.6,7.2-1.4,10.7-2.5
			c3.5-0.9,7-2.1,10.2-3.5c3.1-1.2,5.9-2.5,8.6-4.3c3.8-2.1,7.2-4.4,10.6-7c4.4-3.5,8.5-7.7,11.6-12.3c3.5-4.8,6.3-10.2,8.2-16.2
			c1.7-5.2,2.9-10.2,3.1-15.5c0-0.9,0.3-2.1,0.5-2.9c0.3,0.9,0.1,2.3,0.3,3.5c0,3.5-0.3,6.8-0.9,10.2c-0.6,4.6-2.1,9.1-4.3,13.6
			c-2.1,4.6-4.6,9.1-8.2,13c-2.3,2.9-4.8,5.6-7.8,7.8c-2.5,2.1-5.3,3.9-8.2,5.9c-3.8,2.3-7.7,4.3-11.6,6c-2.9,1.2-5.6,2.1-8.6,2.9
			c-3.1,0.9-6.4,1.7-9.8,2.3c-2.5,0.5-5.3,0.6-7.8,0.9C10.2,69.5,4.9,69.7,0,69.2z"/>
	</g>
	<g>
		<path class="st0" d="M39.7,47.1c-11.3,0-20.7-9.3-20.5-20.7c0-11.3,9.3-20.7,20.7-20.5C51.2,6.2,60.4,15,60.4,26.6
			C60.3,38.1,50.9,47.1,39.7,47.1z M58.1,26.5c0.1-10-8.5-18.5-18.4-18.5c-10.6,0-18.8,8.5-18.8,18.4c0,10.6,8.5,18.9,18.8,18.8
			C49.9,45,58.3,36.7,58.1,26.5z"/>
	</g>
	<g>
		<path class="st0" d="M49,13.6c0.5,0.5,0.9,0.9,0.3,1.7c-0.5,0.3-0.3,0.6-0.3,1.2c-0.3,0-0.5,0.5-0.6,0.5c-0.6,0.5-1.2,0.9-1.7,1.7
			c-0.3,0.3-0.5,0.3-0.6,0.6c-0.5,0-0.6,0.3-0.9,0.5c-0.6,0.5-1.4,0.9-2.3,1.4c-1.7,0.9-1.7,0.9-1.7,3.1l0,0c0,0.5,0.3,0.6,0.6,0.6
			c1.2,0,2.5,0,3.8,0c0.9,0,1.8,0.3,2.9-0.3c0.3,0,0.5,0,0.6,0c0.9,0.3,1.8,0,3.1,0.3c1.2,0,1.2,0,1.4,1.2c0,0.3,0,0.5,0,0.6
			c0,0.6-0.3,0.9-0.9,0.9c-0.9,0-1.7,0-2.5,0c-0.3,0-0.5,0-0.6,0.3c-0.3,0-0.5,0-0.6,0c-2.3-0.3-4.4-0.3-6.8,0
			c-0.5,0-0.5,0.3-0.5,0.6c0,1.8-0.3,3.5,0,5.3c0,0.3-0.3,0.5,0,0.6c-0.5,0.1-0.5,0.5-0.5,0.9c0,1.2,0,2.5,0,3.8
			c0,0.6-0.6,1.4-1.7,1.2c-0.6-0.3-0.9-0.5-0.9-1.2c0-1.2,0-2.5,0-3.8c0-0.3,0-0.5-0.3-0.6c0-0.3,0-0.5,0-0.5c0-0.3,0.3-0.3,0.3-0.5
			c0-1.7,0-3.1,0-4.8c0-0.5-0.3-0.6-0.6-0.6c-2.1,0-4.3,0-6.3,0c-0.3-0.3-0.5-0.3-0.6,0c-1.2,0-2.3,0-3.5,0c-0.6,0-0.9-0.3-1.2-0.9
			c0-0.3,0-0.5,0-0.6c0.3-1.2,0.3-1.2,1.4-1.2c1,0,2.1,0,3.1,0c0.3,0,0.5,0.3,0.6,0c1.8,0,3.8,0,5.6,0c1.8,0,1.4,0.3,1.7-1.7
			c0-0.6-0.3-0.6-0.6-0.5c-0.9,0.3-1.8,0.5-3.1,0.5c-1.2,0.3-2.3,0-3.5,0.5c-0.3,0-0.5,0-0.6,0c-1.2-0.3-2.5,0-3.8,0
			c-0.6,0-0.9-0.3-0.9-0.6v-0.3c0-1.7,0-1.7,1.7-1.7c0.6,0,1.7,0,2.3,0c0.3,0,0.6,0,0.9-0.3c0.3,0,0.5,0.3,0.5,0
			c0.6,0.3,1.2,0,1.8,0c1.4,0,3.1-0.5,4.4-0.6c0.9-0.3,1.2-0.5,0.6-1.2c0-0.3,0-0.5,0-0.6c0.3-0.3,0.3-0.5,0.3-0.6
			c0-1.4,0-2.9,0-4.3c0-0.5,0-0.9,0.6-0.9l0.3-0.3c0.3-0.5,0.5-0.5,0.6,0c0,0,0,0,0,0.3c1.2,0.3,0.6,1.2,0.9,1.8c0,1.2,0,2.3,0,3.5
			c0,0.6,0.3,0.6,0.6,0.6c1.2-0.3,1.8-0.9,2.9-1.7c1.2-0.9,2.1-2.1,2.9-3.5c0.3,0,0.3,0,0.5,0c0.1,0,0.5,0,0.5,0
			C48.7,13.6,48.9,13.6,49,13.6z"/>
	</g>
	<g>
		<path class="st0" d="M41.2,33.9c-0.3-0.3-0.3-0.5,0-0.6c2.1,0,4.3,0,6.3,0c0.6,0,0.9-0.3,0.9-0.6c0-1.7,0-3.1,0-4.8
			c0.3,0,0.5,0,0.6,0c0,1.7,0,3.1,0,4.8c0,0.6,0.3,0.6,0.6,0.6c1.2,0,2.3,0,3.5,0c0.3,0,0.6,0,0.6,0.3c0,0.5-0.5,0.3-0.6,0.3
			c-1.2,0-2.1,0-3.1,0c-0.6,0-1.2,0.3-0.9,0.9c0,1.4,0,2.9,0,4.3c0,0.3,0,0.3,0,0.5c0,0.3,0,0.5-0.5,0.5c-0.5,0-0.5-0.3-0.5-0.5
			c0-1.7,0-3.1,0-4.6c0-0.6-0.3-0.9-0.9-0.9C45.2,33.9,43.3,33.9,41.2,33.9z"/>
	</g>
	<g>
		<path class="st0" d="M38.3,33.4c0,0.3,0.3,0.3,0,0.5c-2.1,0-4.3,0-6.3,0c-0.5,0.1-0.5,0.3-0.5,0.8c0,1.7,0,3.1,0,4.6
			c0,0.3,0.3,0.6-0.3,0.6c-0.5,0-0.3-0.5-0.3-0.6c0-1.4,0-3.1,0-4.4c0-0.6-0.3-0.9-0.9-0.9c-1.4,0-2.9,0-4.3,0
			c-0.3,0-0.6,0.3-0.6-0.3c0-0.5,0.5-0.3,0.6-0.3c1.4,0,2.9,0,4.3,0c0.5,0,0.6-0.3,0.6-0.6c0-1.7,0-3.5,0-5.2c0.3-0.3,0.5-0.3,0.6,0
			c0,1.7,0,3.1,0,4.8c0,0.6,0.3,0.9,0.9,0.9C34.4,33.1,36.2,33.1,38.3,33.4z"/>
	</g>
	<g>
		<path class="st0" d="M38.3,18.8c0,0.3,0,0.5,0,0.6c-1.7,0-3.5,0-5.2,0c-1.8,0-1.8,0-1.8,1.7c-0.3,0-0.5,0-0.5,0
			c-0.3-1.7-0.3-1.7-1.8-1.7c-0.9,0-2.1,0-3.1,0c-0.3,0-0.6,0.3-0.6-0.3c0-0.5,0.5-0.3,0.6-0.5c1.4,0,2.9,0,3.9,0
			c0.5,0,0.6-0.3,0.6-0.6c0-1.7,0-3.5,0-5.2c0-0.3-0.3-0.6,0.3-0.6c0.7,0,0.3,0.5,0.3,0.6c0,1.7,0,3.5,0,5.2c0,0.5,0.3,0.6,0.6,0.6
			C34.3,18.8,36.2,18.8,38.3,18.8z"/>
	</g>
	<g>
		<path class="st0" d="M49,24.9c-0.3,0-0.5,0-0.6,0c0-1.7,0-3.1,0-4.6c0-0.6-0.3-0.9-0.9-0.9c-0.5,0-0.9,0-1.4,0
			c0-0.5,0.5-0.5,0.6-0.6c1.7,0,1.7,0,1.7-1.7c0.3-0.3,0.5-0.5,0.6-0.5c0.3,0.5,0,1.2,0,1.7c0,0.5,0.3,0.6,0.6,0.6
			c1.2,0,2.5,0,3.8,0c0.3,0,0.6,0,0.6,0.5s-0.5,0.3-0.6,0.3c-1.2,0-2.3,0-3.1,0c-0.6,0-0.9,0.3-0.9,0.9C49,21.7,49,23.1,49,24.9z"/>
	</g>
	<g>
		<path class="st0" d="M49,13.6c-0.3,0-0.5,0-0.6-0.3c0-0.3,0-0.5,0-0.9c0-0.3,0-0.5,0.3-0.5c0.3,0,0.5,0.3,0.5,0.5
			C49,12.9,49,13.3,49,13.6z"/>
	</g>
	<path class="st1" d="M31.4,24.9c-0.3,0-0.5,0-0.6,0c0-0.3,0-0.6,0-0.9c0.3-0.3,0.5,0,0.6,0C31.4,24,31.4,24.5,31.4,24.9z"/>
	<path class="st1" d="M26.2,26c0,0.3,0,0.5,0,0.6l0,0c-0.3-0.3-0.9,0.3-0.9-0.5C25.1,25.8,25.8,26,26.2,26z"/>
	<path class="st1" d="M53.3,26.6c0-0.3,0-0.5,0-0.6c0.3,0,0.6-0.3,0.6,0.3C54.1,26.6,53.4,26.6,53.3,26.6z"/>
	<g>
		<path class="st0" d="M48,13.3c0,0.3-0.3,0.3-0.5,0C47.4,13.2,47.6,13.2,48,13.3z"/>
	</g>
</g>
</svg>
