<?xml version="1.0" encoding="utf-8"?>
<!-- Generator: Adobe Illustrator 22.0.0, SVG Export Plug-In . SVG Version: 6.00 Build 0)  -->
<svg version="1.1" id="Layer_1" xmlns="http://www.w3.org/2000/svg" xmlns:xlink="http://www.w3.org/1999/xlink" x="0px" y="0px"
	 viewBox="0 0 89.2 86.4" style="enable-background:new 0 0 89.2 86.4;" xml:space="preserve">
<style type="text/css">
	.st0{opacity:0.2;fill:none;enable-background:new    ;}
	.st1{fill:#EFEFF0;}
	.st2{fill:#969198;}
	.st3{fill:#FFFFFF;}
</style>
<path class="st0" d="M0.5,0v86.4h89.2V0H0.5z M82.2,34.2c0.1,2,0.4,3.9,0.8,5.8c0.1,0.5-0.2,0.7-0.6,0.7c-0.4,0-0.7-0.1-0.8-0.6
	c-0.5-2-0.6-2-2.6-1.7c-1.3,0.2-2.5,0.4-3.8,0.6c-0.7,0.2-0.8-0.2-0.9-0.7c-0.1-0.6,0.2-0.7,0.7-0.8c1.6-0.3,3.3-0.6,4.9-0.8
	c1.1-0.1,1.3-0.5,1-1.4c-0.1-0.3,0-0.6-0.1-0.8c-0.1-0.5,0.1-0.7,0.6-0.8C81.9,33.6,82.1,33.7,82.2,34.2z M81,31.3
	c0.1,0.3,0.5,0.8,0,1c-2.4,0.8-4.8,1.6-7.2,2.4c-0.6,0-0.5-0.5-0.7-0.8c-0.2-0.4,0-0.6,0.3-0.7c2.3-0.7,4.6-1.5,6.9-2.3
	C80.7,30.8,80.9,30.9,81,31.3z M77.5,24.9c1.1,0.4,2.2,2.2,1.8,3.2c-0.1,0.6-0.8,0.6-1.5,1.1c0.3-1,0.4-1.7,0-2.4
	c-0.2-0.4-0.5-0.8-1-0.6c-0.4,0.1-0.6,0.5-0.6,0.9c-0.1,0.7-0.1,1.4-0.2,2.1c-0.3,1.6-1.6,2.5-3.1,2.1C71.6,31,70.6,29,71,27.8
	c0.3-0.7,1-0.7,1.8-1.2c-0.3,0.9-0.5,1.5-0.4,2.2c0.1,0.6,0.4,1.1,1,1.2c0.8,0,0.9-0.6,1-1.2c0.1-0.8,0.1-1.5,0.3-2.3
	C75,25.2,76.3,24.5,77.5,24.9z M72.5,43.5c0,15.3-12.4,27.7-27.7,27.7c-15.2,0-27.7-12.4-27.8-27.7c-0.2-15.4,12.4-27.9,28-27.8
	C60.2,15.7,72.5,28.2,72.5,43.5z M73.4,17.8c0.3,0.5,0.8,1,1.1,1.5c1.1,1.8,0.2,3.6-1.9,3.7c-0.7,0-0.8,0.3-1,0.9
	c-0.3,1.2-0.7,2.3-1.1,3.6c-1.1-0.7-1.2-1.4-0.8-2.4c0.3-0.7,0.5-1.4,0.7-2.2c0.1-0.4,0.1-0.9-0.3-1.2c-0.4-0.3-0.6,0.2-0.9,0.4
	c-0.4,0.3-0.8,0.6-1.2,1c-0.4,0.3-0.7,0.6-1.1,0c-0.4-0.6-0.3-0.9,0.2-1.3c1.7-1.3,3.4-2.7,5.1-4.1C72.7,17.3,73,17.2,73.4,17.8z
	 M67.5,12.6c0.8,0.7,1.6,1.3,2.5,1.9c0.5,0.4,0.6,0.6,0.2,1.2c-0.4,0.5-0.7,0.3-1,0c-0.1-0.1-0.2-0.2-0.3-0.3
	c-0.8-0.2-1.1-2.1-2.3-0.6c-1.2,1.5,0.6,1.5,1,2.1c0.1,0.4,0.5,0.5,0.7,0.9c-0.2,0.2-0.4,0.5-0.6,0.8c-0.3,0.3-0.5-0.1-0.7-0.2
	c-0.4-0.2-0.7-0.5-1-0.8c-0.6-0.5-1-0.9-1.7,0c-0.7,0.9-0.3,1.2,0.3,1.6c0.4,0.3,0.8,0.7,1.2,1c0.5,0.3,0.4,0.6,0.1,1
	c-0.3,0.4-0.6,0.5-0.9,0.1c-0.1-0.1-0.1-0.1-0.2-0.2c-1-0.8-2.7-1.6-2.9-2.6s1.4-2.1,2.2-3.1c0.7-0.9,1.5-1.8,2.1-2.7
	C66.7,12.1,67,12.1,67.5,12.6z M58.2,15.8c0.1-2.4,0.3-4.7,0.4-7.1c0-0.4-0.2-1,0.4-0.9c0.5,0.1,1.1,0.3,1,1.1
	c-0.2,1.7-0.2,3.3-0.3,5.1c1.3-1.1,2.5-2,3.6-3c0.3-0.3,0.6-0.7,1.1-0.5c0.3,0.1,0.7,0.3,0.8,0.5c0.1,0.3-0.3,0.4-0.5,0.6
	c-1.8,1.6-3.7,3.1-5.5,4.7c-0.2,0.2-0.5,0.6-0.8,0.4C58,16.5,58.2,16.1,58.2,15.8z M53.5,13.9c0.7-2.1,1.4-4.3,2.1-6.5
	c0.1-0.4,0.2-0.9,0.8-0.6c0.3,0.3,0.8,0.3,0.8,0.9c-0.4,1.3-0.9,2.7-1.3,4c-0.3,0.9-0.6,1.9-0.9,2.8c-0.2,0.6-0.5,0.6-1.1,0.4
	C53.4,14.7,53.4,14.4,53.5,13.9z M44.3,12.2c0.2-2.1,0.5-4.1,0.7-6.2c0-0.3-0.2-0.9,0.5-1c0.5-0.1,0.9,0.1,1.2,0.6
	c1.1,1.7,2.3,3.3,3.5,5c0.1,0.2,0.2,0.4,0.5,0.8c0.2-1.8,0.4-3.4,0.6-5c0.1-0.5,0.2-0.8,0.8-0.7c0.5,0.1,0.8,0.3,0.7,0.8
	c-0.3,2.3-0.5,4.6-0.8,6.9c0,0.3,0,0.6-0.4,0.6c-0.5,0-1-0.1-1.3-0.7c-1.1-1.6-2.2-3.2-3.3-4.8c-0.1-0.2-0.3-0.4-0.5-0.7
	c-0.5,1.6-0.4,3.1-0.7,4.6c-0.1,0.5,0,0.9-0.8,0.9C44.2,13.2,44.3,12.8,44.3,12.2z M35.4,6.2c0.7-0.1,0.8,0.2,0.9,0.7
	c0.2,1.3,0.5,2.6,0.7,3.9c0.3,1.5,1.1,2.1,2.3,1.8c1.5-0.3,2-1,1.8-2.5c-0.2-1.2-0.4-2.4-0.6-3.6c-0.1-0.6-0.3-1.2,0.7-1.3
	c1-0.1,0.7,0.6,0.8,1c0.3,1.5,0.5,3,0.7,4.2c0,2.3-1.2,3.5-3.5,3.8c-1.8,0.2-3.2-0.7-3.6-2.5c-0.3-1.5-0.5-3-0.8-4.5
	C34.7,6.7,34.7,6.3,35.4,6.2z M27,10c2.3,0,4.2,1.9,4.3,4.2c-0.1,2.6-2.2,4.7-4.8,4.6c-2.3,0-4.3-2-4.2-4.3
	C22.3,12.1,24.5,10.1,27,10z M17.8,18.2c1.3,0.3,1.8-0.1,1.4-1.5c-0.3-1-0.4-2.1,1-2.7c0.4,0.5,0.4,1.2,0.4,1.8c0,2.3,1,4,2.8,5.3
	c0.5,0.4,0.9,0.7,0.2,1.3c-0.4,0.3-0.7,0.5-1,0c-1.9-2.6-4.6-3-7.6-3C15.6,17.8,16.7,18,17.8,18.2z M8.1,32.9c0.2-0.6,0.5-0.7,1-0.5
	c0.7,0.3,1.3,0.5,2.2,0.8c-0.2-1.1-0.8-1.9-1.2-2.7c-0.6-1-0.7-1.8,0.1-2.9c0.6,1.2,1.3,2.3,1.8,3.4c0.4,0.9,0.8,1.1,1.7,0.6
	c1.3-0.7,2.7-1.4,4.3-2.2c-2-1.3-3.9-2.6-5.8-3.9c-0.3-0.2-1-0.3-0.5-1c0.3-0.5,0.6-0.8,1.2-0.4c0.3,0.5,0.9,0.8,1.6,1.3
	c0.3-2-1.9-3.8,0.3-5.6c0.4,1.4,0.7,2.8,1,4.2c0.1,0.6,0.3,0.8,1.1,0.7c1.6-0.4,3.3-0.7,5.2-1.1c-1.2,2.9-4.1,1.8-5.9,2.9
	c0.1,0.1,0.3,0.3,0.5,0.4c0.7,0.6,2.3,1.1,2.1,1.6c-0.6,1.3-0.9,3-2.7,3.6c-1.1,0.3-2,1-3.3,1.6c1,0.4,1.8,0.7,2.6,0.9
	c0.5,0.2,0.9,0.3,0.6,1c-0.2,0.6-0.4,0.7-1,0.5c-2.1-0.8-4.3-1.6-6.4-2.3C8.1,33.6,8,33.4,8.1,32.9z M7,37.8c0-0.7,0.3-1,0.8-0.8
	c2.3,0.4,4.5,0.7,6.6,1c0.6,0.1,0.9,0.2,0.8,1c-0.1,0.8-0.6,0.6-1,0.6c-2.2-0.3-4.3-0.7-6.4-1C7.4,38.5,6.8,38.6,7,37.8z M3.1,46.2
	c0-1.8,0-3.6,0-5.4C3.6,42.6,3.6,44.4,3.1,46.2z M6.6,46.8c-0.4-0.8,0.1-3.7,0.8-4.3c0.9-0.7,1.9-0.8,2.8-0.1
	c0.7,0.6,1.1,0.5,1.6-0.1c0.2-0.2,0.5-0.4,0.8-0.6c0.7-0.5,1.4-1,2.1-1.5c0.4,1.2,0,1.9-1,2.5c-0.7,0.4-1.3,0.9-1.9,1.5
	c-0.2,0.2-0.5,0.5-0.3,0.9c0.1,0.5,0.6,0.2,0.8,0.3c0.6,0,1.2,0,1.9,0c0.5,0,0.8,0.2,0.7,0.7c0,0.5-0.2,0.8-0.7,0.8
	c-2.3,0-4.6,0.1-7,0.2C7,47.1,6.7,47.1,6.6,46.8z M12.9,51.6c-0.1,0.7-0.5,1.1-1.3,1.1c-0.8,0-1.3-0.5-1.3-1.2
	c0-0.8,0.5-1.3,1.3-1.3C12.4,50.2,12.9,50.7,12.9,51.6z M12.6,64.3c-0.4-0.7,0-0.8,0.5-1.1c1.4-0.5,2.7-1.2,4.3-2.1
	c-1.1-0.2-1.9-0.3-2.7-0.5c-0.7-0.1-1-0.4-0.6-1.2c0.4-0.7,0.6-1.5,1-2.5c-1.6,0.9-2.9,1.6-4.3,2.3c-0.5,0.3-0.9,0.5-1.3-0.2
	c-0.4-0.7,0.1-0.9,0.5-1.1c1.9-1,3.7-2.1,5.6-3.1c0.3-0.2,0.6-0.6,1-0.2c0.3,0.4,0.6,0.8,0.4,1.3c-0.3,0.8-0.6,1.7-1,2.5
	c-0.3,0.7-0.1,0.9,0.6,1c0.8,0.1,1.6,0.3,2.4,0.4c0.6,0.1,1,0.4,1.1,0.9c0.2,0.7-0.5,0.7-0.8,0.9c-1.8,1-3.7,2-5.5,3
	C13.3,64.9,12.9,65,12.6,64.3z M20.7,71.6c-1.6-0.1-5-2.4-5.4-3.5c-0.1-0.4,0.1-0.5,0.3-0.7c1.6-1.6,3.3-3.3,4.9-4.9
	c0.3-0.3,0.6-0.4,0.9-0.1c0.9,0.9,1.9,1.7,2.6,2.8c0.9,1.4,1,2.9,0.1,4.3C23.4,71,22.1,71.6,20.7,71.6z M27,70.7
	c-1.2,0.5-1.9,1.9-1.7,3.1c0.3,1.5,1.9,2.4,4.5,2.7c-0.2,1.4-1,1.5-2.2,1.2c-3-0.9-4.5-3.4-3.5-5.9c0.6-1.6,1.8-2.5,3.5-2.7
	c2.1-0.2,3.6,0.8,4.7,2.4c0.6,0.5-0.1,1-0.5,1.5C30.6,71.4,29.4,69.8,27,70.7z M39.8,75.3c-0.5-0.4-1-0.7-1.5-1
	c-1.4-0.8-2.8-0.8-3.8,0.1c-1,0.9-1.2,2-0.7,3.2s2.1,2,3.6,1.8c0.1,0,0.3-0.1,0.4-0.1c0.3,0.1,0.9-0.5,1,0.2c0.1,0.5,0,1.1-0.7,1.2
	c-1.8,0.3-3.5-0.1-4.9-1.4c-1.2-1.2-1.5-3-0.9-4.6c0.7-1.7,2.1-2.5,3.9-2.6c1.1,0,2,0.3,3,0.8C40.2,73.6,40.6,74.2,39.8,75.3z
	 M42.9,79.3c1.1,1.3,2.6,1.4,5.1,0.3c0.4,1.5,0.4,1.6-1.1,2c-1.9,0.5-3.7,0.3-5.1-1.3c-1.1-1.3-1.3-2.8-0.7-4.4
	c1-2.6,4.1-3.4,6.8-2.1c0.7,0.4,0.2,1.1,0.2,1.7c-2.9-1.1-4.3-1-5.3,0.4C42.1,77,42.1,78.4,42.9,79.3z M55.3,80.2
	c-1.2,0.4-2.5,0.7-3.6,0.9c-0.8,0.2-0.9-0.1-1-0.5c-0.5-2.2-1-4.3-1.4-6.5c-0.1-0.5-0.2-1,0.6-1.1c0.7-0.1,0.8,0.2,0.9,0.7
	c0.3,1.6,0.8,3.2,1.1,4.8c0.2,0.8,0.4,1.2,1.3,0.8c0.6-0.2,1.3-0.3,1.9-0.4c0.5-0.1,0.6,0.3,0.7,0.6C55.9,79.9,55.7,80.1,55.3,80.2z
	 M70.7,70.1c-2.6-0.4-2.6-0.4-2.5,2.2c0,1,0,2-1.3,2.5c-0.3-1.4-0.2-2.8-0.2-4.1c0-0.9-0.2-1.3-1.2-1.4c-1.3-0.2-2.6-0.4-3.9-0.6
	c-0.3,1.3-0.6,2.7-1,4c-0.2,0.7,0,1,0.6,1.3c1.3,0.6,2.7,1.2,4.1,1.9c-0.9,0.8-1.7,1-2.6,0.4c-0.4-0.3-0.9-0.4-1.3-0.6
	c-1.1-0.7-1.6-0.2-1.7,0.9c-0.1,0.5-0.3,0.9-0.3,1.4c-0.1,1.1-0.7,1.7-1.9,1.8c0.3-1.3,0.6-2.6,1-3.9c0.3-0.9,0.2-1.6-0.9-1.9
	c-1.2-0.4-2.2-1-3.4-1.5c1.1-1.3,2.1-0.6,3.2-0.1c1.7,0.8,1.7,0.8,2.1-1c0.3-1.4,0.4-2.7,2.1-2.7c0.5-1.5,1.7-1.3,2.9-1.1
	c2,0.3,2,0.3,2-1.7c0-1.1-0.2-2.2,1.4-2.7c0,1.3,0,2.5,0,3.7c0,1,0.4,1.4,1.4,1.5c1.3,0.1,2.6,0.4,4,0.6
	C72.8,70.3,71.8,70.2,70.7,70.1z M75,66.8c-0.3,0.3-0.5,0.1-0.7,0c-1.9-1.5-3.8-2.9-5.8-4.4c-0.4-0.3-0.3-0.5-0.1-0.8
	c0.2-0.2,0.4-0.8,0.8-0.5c2.1,1.5,4.1,3.1,6.1,4.6c0.2,0.1,0.2,0.2,0.3,0.3C75.4,66.3,75.2,66.5,75,66.8z M78.4,60.8
	c-2.6-0.2-5.3-0.3-7.9-0.5c-0.3,0-0.7,0-0.5-0.4c0.2-0.5,0.3-1,1-1c1.3,0.1,2.5,0.2,3.8,0.3c0.3,0.1,0.7,0.2,1.2-0.1
	c-0.9-1.1-1.8-2.2-2.7-3.3c-0.8-1-0.8-1-0.1-2.3c1.9,2.2,3.8,4.4,5.6,6.6C79.2,60.6,79,60.9,78.4,60.8z M77.8,52.7
	c-0.7-0.1-1.1-0.5-1.1-1.3s0.4-1.3,1.2-1.3s1.3,0.5,1.3,1.4C79.2,52.3,78.7,52.7,77.8,52.7z M82.7,48.6c-0.6-0.4-1.2-0.8-1.6-1.3
	c-1.4-1.7-3.3-2.1-5.3-2c-0.5,0-1.2,0.2-1.1-0.8c0-1,0.7-0.8,1.2-0.7c2.4,0.5,4.3-0.4,6.1-2c0.2-0.1,0.5-0.5,1-0.5
	c0.6,2.2-1.7,2.3-2.5,3.5C81.3,46,83.5,46.3,82.7,48.6z"/>
<path class="st1" d="M3.1,46.2c0.5-1.8,0.5-3.6,0-5.4C3.1,42.6,3.1,44.4,3.1,46.2z"/>
<g>
	<path class="st2" d="M45,15.7c-15.6-0.1-28.2,12.4-28,27.8c0.1,15.3,12.6,27.7,27.8,27.7c15.3,0,27.7-12.4,27.7-27.7
		C72.5,28.2,60.2,15.7,45,15.7z M63.2,52.9c-1.9,5.1-5.2,9-9.7,12c-2.5,1.7-5.2,3.1-8,4.4c-0.4,0.2-0.8,0.4-1.3,0.2
		c-5-2.5-10-5-13.8-9.4c-3.7-4.4-5.5-9.6-6.3-15.2c-0.2-2.1-0.3-4.1-0.2-5.8c-0.1-4.2,0.5-8,1.3-11.8c0.1-0.7,0.3-1.1,1.2-1
		c6.8,0.9,12.5-1.5,17.4-5.9c0.8-0.7,1.1-0.7,1.9,0c5,4.4,10.6,6.9,17.4,6c0.6-0.1,0.9,0,1.1,0.7C66.1,35.8,66.4,44.4,63.2,52.9z"/>
</g>
<g>
	<g>
		<path class="st2" d="M8.6,33.8c2.1,0.7,4.3,1.5,6.4,2.3c0.6,0.2,0.8,0.1,1-0.5c0.3-0.7-0.1-0.8-0.6-1c-0.8-0.2-1.6-0.5-2.6-0.9
			c1.3-0.6,2.2-1.3,3.3-1.6c1.8-0.6,2.1-2.3,2.7-3.6c0.2-0.5-1.4-1-2.1-1.6c-0.2-0.1-0.4-0.3-0.5-0.4c1.8-1.1,4.7,0,5.9-2.9
			c-1.9,0.4-3.6,0.7-5.2,1.1c-0.8,0.1-1-0.1-1.1-0.7c-0.3-1.4-0.6-2.8-1-4.2c-2.2,1.8,0,3.6-0.3,5.6c-0.7-0.5-1.3-0.8-1.6-1.3
			c-0.6-0.4-0.9-0.1-1.2,0.4c-0.5,0.7,0.2,0.8,0.5,1c1.9,1.3,3.8,2.6,5.8,3.9c-1.6,0.8-3,1.5-4.3,2.2c-0.9,0.5-1.3,0.3-1.7-0.6
			c-0.5-1.1-1.2-2.2-1.8-3.4c-0.8,1.1-0.7,1.9-0.1,2.9c0.4,0.8,1,1.6,1.2,2.7c-0.9-0.3-1.5-0.5-2.2-0.8c-0.5-0.2-0.8-0.1-1,0.5
			C8,33.4,8.1,33.6,8.6,33.8z"/>
	</g>
	<g>
		<path class="st2" d="M20.1,60.7c-0.1-0.5-0.5-0.8-1.1-0.9c-0.8-0.1-1.6-0.3-2.4-0.4c-0.7-0.1-0.9-0.3-0.6-1c0.4-0.8,0.7-1.7,1-2.5
			c0.2-0.5-0.1-0.9-0.4-1.3c-0.4-0.4-0.7,0-1,0.2c-1.9,1-3.7,2.1-5.6,3.1c-0.4,0.2-0.9,0.4-0.5,1.1c0.4,0.7,0.8,0.5,1.3,0.2
			c1.4-0.7,2.7-1.4,4.3-2.3c-0.4,1-0.6,1.8-1,2.5c-0.4,0.8-0.1,1.1,0.6,1.2c0.8,0.2,1.6,0.3,2.7,0.5c-1.6,0.9-2.9,1.6-4.3,2.1
			c-0.5,0.3-0.9,0.4-0.5,1.1c0.3,0.7,0.7,0.6,1.2,0.3c1.8-1,3.7-2,5.5-3C19.6,61.4,20.3,61.4,20.1,60.7z"/>
	</g>
	<g>
		<path class="st2" d="M45,13.3c0.8,0,0.7-0.4,0.8-0.9c0.3-1.5,0.2-3,0.7-4.6c0.2,0.3,0.4,0.5,0.5,0.7c1.1,1.6,2.2,3.2,3.3,4.8
			c0.3,0.6,0.8,0.7,1.3,0.7c0.4,0,0.4-0.3,0.4-0.6c0.3-2.3,0.5-4.6,0.8-6.9c0.1-0.5-0.2-0.7-0.7-0.8c-0.6-0.1-0.7,0.2-0.8,0.7
			c-0.2,1.6-0.4,3.2-0.6,5c-0.3-0.4-0.4-0.6-0.5-0.8c-1.2-1.7-2.4-3.3-3.5-5C46.4,5.1,46,4.9,45.5,5C44.8,5.1,45,5.7,45,6
			c-0.2,2.1-0.5,4.1-0.7,6.2C44.3,12.8,44.2,13.2,45,13.3z"/>
	</g>
	<g>
		<path class="st2" d="M26.5,18.8c2.6,0.1,4.7-2,4.8-4.6c-0.1-2.3-2-4.2-4.3-4.2c-2.5,0.1-4.7,2.1-4.7,4.5
			C22.2,16.8,24.2,18.8,26.5,18.8z M26.9,11.6c1.5,0,2.8,1.3,2.8,2.8c0,1.6-1.4,2.9-3,2.9c-1.5,0-2.8-1.3-2.8-2.8
			C23.9,12.9,25.3,11.6,26.9,11.6z"/>
	</g>
	<g>
		<path class="st2" d="M24,65.2c-0.7-1.1-1.7-1.9-2.6-2.8c-0.3-0.3-0.6-0.2-0.9,0.1c-1.6,1.6-3.3,3.3-4.9,4.9
			c-0.2,0.2-0.4,0.3-0.3,0.7c0.4,1.1,3.8,3.4,5.4,3.5c1.4,0,2.7-0.6,3.4-2.1C25,68.1,24.9,66.6,24,65.2z M19.5,70
			c-0.4-0.2-0.7-0.4-1.1-0.7c-1.3-1.1-1.3-1.1-0.1-2.4c0.7-0.7,1.4-1.3,2-2c0.6-0.7,1-0.6,1.5,0c0.8,0.7,1.4,1.4,1.5,2.4
			C23.3,69.3,21.2,70.7,19.5,70z"/>
	</g>
	<g>
		<path class="st2" d="M14.9,46.1c0.1-0.5-0.2-0.7-0.7-0.7c-0.7,0-1.3,0-1.9,0c-0.2-0.1-0.7,0.2-0.8-0.3c-0.2-0.4,0.1-0.7,0.3-0.9
			c0.6-0.6,1.2-1.1,1.9-1.5c1-0.6,1.4-1.3,1-2.5c-0.7,0.5-1.4,1-2.1,1.5c-0.3,0.2-0.6,0.4-0.8,0.6c-0.5,0.6-0.9,0.7-1.6,0.1
			c-0.9-0.7-1.9-0.6-2.8,0.1c-0.7,0.6-1.2,3.5-0.8,4.3c0.1,0.3,0.4,0.3,0.6,0.3c2.4-0.1,4.7-0.2,7-0.2
			C14.7,46.9,14.9,46.6,14.9,46.1z M9,45.4c-0.5,0-1.1,0.1-1.1-0.7c0-0.6,0.2-1.1,1-1.1c0.8,0,1,0.5,1.1,1.2
			C10.1,45.6,9.4,45.3,9,45.4z"/>
	</g>
	<g>
		<path class="st2" d="M66.9,23.1c0.4,0.6,0.7,0.3,1.1,0c0.4-0.4,0.8-0.7,1.2-1c0.3-0.2,0.5-0.7,0.9-0.4c0.4,0.3,0.4,0.8,0.3,1.2
			c-0.2,0.8-0.4,1.5-0.7,2.2c-0.4,1-0.3,1.7,0.8,2.4c0.4-1.3,0.8-2.4,1.1-3.6c0.2-0.6,0.3-0.9,1-0.9c2.1-0.1,3-1.9,1.9-3.7
			c-0.3-0.5-0.8-1-1.1-1.5c-0.4-0.6-0.7-0.5-1.2-0.1c-1.7,1.4-3.4,2.8-5.1,4.1C66.6,22.2,66.5,22.5,66.9,23.1z M71.2,20.6
			c0.2-0.5,0.9-0.8,1.3-1.3c0.6,0.4,0.9,0.8,0.9,1.4c-0.1,0.6-0.5,0.9-1.1,0.9C71.7,21.5,71,21,71.2,20.6z"/>
	</g>
	<g>
		<path class="st2" d="M59.5,71.4c-0.4,1.8-0.4,1.8-2.1,1c-1.1-0.5-2.1-1.2-3.2,0.1c1.2,0.5,2.2,1.1,3.4,1.5c1.1,0.3,1.2,1,0.9,1.9
			c-0.4,1.3-0.7,2.6-1,3.9c1.2-0.1,1.8-0.7,1.9-1.8c0-0.5,0.2-0.9,0.3-1.4c0.1-1.1,0.6-1.6,1.7-0.9c0.4,0.2,0.9,0.3,1.3,0.6
			c0.9,0.6,1.7,0.4,2.6-0.4c-1.4-0.7-2.8-1.3-4.1-1.9c-0.6-0.3-0.8-0.6-0.6-1.3c0.4-1.3,0.7-2.7,1-4C59.9,68.7,59.8,70,59.5,71.4z"
			/>
	</g>
	<g>
		<path class="st2" d="M67.9,66.9c0-1.2,0-2.4,0-3.7c-1.6,0.5-1.4,1.6-1.4,2.7c0,2,0,2-2,1.7c-1.2-0.2-2.4-0.4-2.9,1.1
			c1.3,0.2,2.6,0.4,3.9,0.6c1,0.1,1.2,0.5,1.2,1.4c0,1.3-0.1,2.7,0.2,4.1c1.3-0.5,1.3-1.5,1.3-2.5c-0.1-2.6-0.1-2.6,2.5-2.2
			c1.1,0.1,2.1,0.2,2.6-1.1c-1.4-0.2-2.7-0.5-4-0.6C68.3,68.3,67.9,67.9,67.9,66.9z"/>
	</g>
	<g>
		<path class="st2" d="M35.6,11.7c0.4,1.8,1.8,2.7,3.6,2.5c2.3-0.3,3.5-1.5,3.5-3.8c-0.2-1.2-0.4-2.7-0.7-4.2
			c-0.1-0.4,0.2-1.1-0.8-1c-1,0.1-0.8,0.7-0.7,1.3c0.2,1.2,0.4,2.4,0.6,3.6c0.2,1.5-0.3,2.2-1.8,2.5c-1.2,0.3-2-0.3-2.3-1.8
			c-0.2-1.3-0.5-2.6-0.7-3.9c-0.1-0.5-0.2-0.8-0.9-0.7c-0.7,0.1-0.7,0.5-0.6,1C35.1,8.7,35.3,10.2,35.6,11.7z"/>
	</g>
	<g>
		<path class="st2" d="M61.9,18.5c0.2,1,1.9,1.8,2.9,2.6c0.1,0.1,0.1,0.1,0.2,0.2c0.3,0.4,0.6,0.3,0.9-0.1c0.3-0.4,0.4-0.7-0.1-1
			c-0.4-0.3-0.8-0.7-1.2-1c-0.6-0.4-1-0.7-0.3-1.6c0.7-0.9,1.1-0.5,1.7,0c0.3,0.3,0.6,0.6,1,0.8c0.2,0.1,0.4,0.5,0.7,0.2
			c0.2-0.3,0.4-0.6,0.6-0.8c-0.2-0.4-0.6-0.5-0.7-0.9c-0.4-0.6-2.2-0.6-1-2.1c1.2-1.5,1.5,0.4,2.3,0.6c0.1,0.1,0.2,0.2,0.3,0.3
			c0.3,0.3,0.6,0.5,1,0c0.4-0.6,0.3-0.8-0.2-1.2c-0.9-0.6-1.7-1.2-2.5-1.9c-0.5-0.5-0.8-0.5-1.3,0.1c-0.6,0.9-1.4,1.8-2.1,2.7
			C63.3,16.4,61.7,17.5,61.9,18.5z"/>
	</g>
	<g>
		<path class="st2" d="M39.2,72.9c-1-0.5-1.9-0.8-3-0.8c-1.8,0.1-3.2,0.9-3.9,2.6c-0.6,1.6-0.3,3.4,0.9,4.6c1.4,1.3,3.1,1.7,4.9,1.4
			c0.7-0.1,0.8-0.7,0.7-1.2c-0.1-0.7-0.7-0.1-1-0.2c-0.1,0-0.3,0.1-0.4,0.1c-1.5,0.2-3.1-0.6-3.6-1.8s-0.3-2.3,0.7-3.2
			c1-0.9,2.4-0.9,3.8-0.1c0.5,0.3,1,0.6,1.5,1C40.6,74.2,40.2,73.6,39.2,72.9z"/>
	</g>
	<g>
		<path class="st2" d="M48.1,75.5c0-0.6,0.5-1.3-0.2-1.7c-2.7-1.3-5.8-0.5-6.8,2.1c-0.6,1.6-0.4,3.1,0.7,4.4
			c1.4,1.6,3.2,1.8,5.1,1.3c1.5-0.4,1.5-0.5,1.1-2c-2.5,1.1-4,1-5.1-0.3c-0.8-0.9-0.8-2.3-0.1-3.4C43.8,74.5,45.2,74.4,48.1,75.5z"
			/>
	</g>
	<g>
		<path class="st2" d="M32.3,71.5c-1.1-1.6-2.6-2.6-4.7-2.4c-1.7,0.2-2.9,1.1-3.5,2.7c-1,2.5,0.5,5,3.5,5.9c1.2,0.3,2,0.2,2.2-1.2
			c-2.6-0.3-4.2-1.2-4.5-2.7c-0.2-1.2,0.5-2.6,1.7-3.1c2.4-0.9,3.6,0.7,4.8,2.3C32.2,72.5,32.9,72,32.3,71.5z"/>
	</g>
	<g>
		<path class="st2" d="M74.4,28.8c-0.1,0.6-0.2,1.2-1,1.2c-0.6-0.1-0.9-0.6-1-1.2c-0.1-0.7,0.1-1.3,0.4-2.2
			c-0.8,0.5-1.5,0.5-1.8,1.2c-0.4,1.2,0.6,3.2,1.9,3.5c1.5,0.4,2.8-0.5,3.1-2.1c0.1-0.7,0.1-1.4,0.2-2.1c0-0.4,0.2-0.8,0.6-0.9
			c0.5-0.2,0.8,0.2,1,0.6c0.4,0.7,0.3,1.4,0,2.4c0.7-0.5,1.4-0.5,1.5-1.1c0.4-1-0.7-2.8-1.8-3.2c-1.2-0.4-2.5,0.3-2.8,1.6
			C74.5,27.3,74.5,28,74.4,28.8z"/>
	</g>
	<g>
		<path class="st2" d="M73.2,53.5c-0.7,1.3-0.7,1.3,0.1,2.3c0.9,1.1,1.8,2.2,2.7,3.3c-0.5,0.3-0.9,0.2-1.2,0.1
			c-1.3-0.1-2.5-0.2-3.8-0.3c-0.7,0-0.8,0.5-1,1c-0.2,0.4,0.2,0.4,0.5,0.4c2.6,0.2,5.3,0.3,7.9,0.5c0.6,0.1,0.8-0.2,0.4-0.7
			C77,57.9,75.1,55.7,73.2,53.5z"/>
	</g>
	<g>
		<path class="st2" d="M58.4,16.7c0.3,0.2,0.6-0.2,0.8-0.4c1.8-1.6,3.7-3.1,5.5-4.7c0.2-0.2,0.6-0.3,0.5-0.6
			c-0.1-0.2-0.5-0.4-0.8-0.5c-0.5-0.2-0.8,0.2-1.1,0.5c-1.1,1-2.3,1.9-3.6,3c0.1-1.8,0.1-3.4,0.3-5.1c0.1-0.8-0.5-1-1-1.1
			c-0.6-0.1-0.4,0.5-0.4,0.9c-0.1,2.4-0.3,4.7-0.4,7.1C58.2,16.1,58,16.5,58.4,16.7z"/>
	</g>
	<g>
		<path class="st2" d="M80.8,34.5c0.1,0.2,0,0.5,0.1,0.8c0.3,0.9,0.1,1.3-1,1.4c-1.6,0.2-3.3,0.5-4.9,0.8c-0.5,0.1-0.8,0.2-0.7,0.8
			c0.1,0.5,0.2,0.9,0.9,0.7c1.3-0.2,2.5-0.4,3.8-0.6c2-0.3,2.1-0.3,2.6,1.7c0.1,0.5,0.4,0.6,0.8,0.6c0.4,0,0.7-0.2,0.6-0.7
			c-0.4-1.9-0.7-3.8-0.8-5.8c-0.1-0.5-0.3-0.6-0.8-0.5C80.9,33.8,80.7,34,80.8,34.5z"/>
	</g>
	<g>
		<path class="st2" d="M22.6,22.4c0.3,0.5,0.6,0.3,1,0c0.7-0.6,0.3-0.9-0.2-1.3c-1.8-1.3-2.8-3-2.8-5.3c0-0.6,0-1.3-0.4-1.8
			c-1.4,0.6-1.3,1.7-1,2.7c0.4,1.4-0.1,1.8-1.4,1.5c-1.1-0.2-2.2-0.4-2.8,1.2C18,19.4,20.7,19.8,22.6,22.4z"/>
	</g>
	<g>
		<path class="st2" d="M83,41.3c-0.5,0-0.8,0.4-1,0.5c-1.8,1.6-3.7,2.5-6.1,2c-0.5-0.1-1.2-0.3-1.2,0.7c-0.1,1,0.6,0.8,1.1,0.8
			c2-0.1,3.9,0.3,5.3,2c0.4,0.5,1,0.9,1.6,1.3c0.8-2.3-1.4-2.6-2.2-3.8C81.3,43.6,83.6,43.5,83,41.3z"/>
	</g>
	<g>
		<path class="st2" d="M55.1,78.9c-0.6,0.1-1.3,0.2-1.9,0.4c-0.9,0.4-1.1,0-1.3-0.8c-0.3-1.6-0.8-3.2-1.1-4.8
			c-0.1-0.5-0.2-0.8-0.9-0.7c-0.8,0.1-0.7,0.6-0.6,1.1c0.4,2.2,0.9,4.3,1.4,6.5c0.1,0.4,0.2,0.7,1,0.5c1.1-0.2,2.4-0.5,3.6-0.9
			c0.4-0.1,0.6-0.3,0.5-0.7C55.7,79.2,55.6,78.8,55.1,78.9z"/>
	</g>
	<g>
		<path class="st2" d="M75.3,65.7c-2-1.5-4-3.1-6.1-4.6c-0.4-0.3-0.6,0.3-0.8,0.5c-0.2,0.3-0.3,0.5,0.1,0.8c2,1.5,3.9,2.9,5.8,4.4
			c0.2,0.1,0.4,0.3,0.7,0c0.2-0.3,0.4-0.5,0.6-0.8C75.5,65.9,75.5,65.8,75.3,65.7z"/>
	</g>
	<g>
		<path class="st2" d="M73.1,33.9c0.2,0.3,0.1,0.8,0.7,0.8c2.4-0.8,4.8-1.6,7.2-2.4c0.5-0.2,0.1-0.7,0-1c-0.1-0.4-0.3-0.5-0.7-0.4
			c-2.3,0.8-4.6,1.6-6.9,2.3C73.1,33.3,72.9,33.5,73.1,33.9z"/>
	</g>
	<g>
		<path class="st2" d="M7.8,38.6c2.1,0.3,4.2,0.7,6.4,1c0.4,0,0.9,0.2,1-0.6c0.1-0.8-0.2-0.9-0.8-1c-2.1-0.3-4.3-0.6-6.6-1
			C7.3,36.8,7,37.1,7,37.8C6.8,38.6,7.4,38.5,7.8,38.6z"/>
	</g>
	<g>
		<path class="st2" d="M53.9,14.9c0.6,0.2,0.9,0.2,1.1-0.4c0.3-0.9,0.6-1.9,0.9-2.8c0.4-1.3,0.9-2.7,1.3-4c0-0.6-0.5-0.6-0.8-0.9
			c-0.6-0.3-0.7,0.2-0.8,0.6c-0.7,2.2-1.4,4.4-2.1,6.5C53.4,14.4,53.4,14.7,53.9,14.9z"/>
	</g>
	<g>
		<path class="st2" d="M77.9,50.1c-0.8,0-1.2,0.5-1.2,1.3s0.4,1.2,1.1,1.3c0.9,0,1.4-0.4,1.4-1.2C79.2,50.6,78.7,50.1,77.9,50.1z"/>
	</g>
	<g>
		<path class="st2" d="M10.3,51.5c0,0.7,0.5,1.2,1.3,1.2c0.8,0,1.2-0.4,1.3-1.1c0-0.9-0.5-1.4-1.3-1.4
			C10.8,50.2,10.3,50.7,10.3,51.5z"/>
	</g>
</g>
<path class="st3" d="M63.1,26.4c-6.8,0.9-12.4-1.6-17.4-6c-0.8-0.7-1.1-0.7-1.9,0c-4.9,4.4-10.6,6.8-17.4,5.9
	c-0.9-0.1-1.1,0.3-1.2,1c-0.8,3.8-1.4,7.6-1.3,11.8c-0.1,1.7,0,3.7,0.2,5.8c0.8,5.6,2.6,10.8,6.3,15.2c3.8,4.4,8.8,6.9,13.8,9.4
	c0.5,0.2,0.9,0,1.3-0.2c2.8-1.3,5.5-2.7,8-4.4c4.5-3,7.8-6.9,9.7-12c3.2-8.5,2.9-17.1,1-25.8C64,26.4,63.7,26.3,63.1,26.4z M39,26.9
	c1.8-1.1,3.6-2.2,5.4-3.4c0.5-0.3,0.9-0.1,1.3,0.2c1.6,1,3.2,1.9,4.7,2.9c0.4,0.2,1.1,0.3,0.6,1.1c-0.4,0.7-0.8,0.4-1.3,0.1
	c-0.2,0-0.3,0-0.6-0.1c-0.2,0.9-0.3,1.6-0.4,2.4c-0.2,1.1-0.8,2.2,1.2,2c0.5-0.1,0.5,0.4,0.5,0.8c0,0.6-0.5,0.5-0.8,0.5
	c-2.3,0-4.6,0-6.8,0c-1,0-1.9,0-2.9,0c-0.4,0-0.8,0-0.8-0.6c0-0.6,0.3-0.8,0.8-0.7c1.3,0.2,1.4-0.4,1.1-1.5
	c-0.3-0.9-0.4-1.9-0.5-2.8c-0.4-0.1-0.6,0.2-0.9,0.3c-0.5,0.3-0.7-0.1-0.9-0.4C38.4,27.3,38.6,27.1,39,26.9z M55.5,51.2
	c0,0.6,0.1,1.1-0.9,0.8c-3.1-0.9-6.2-0.6-9.3,0.7c-0.3-0.8-0.1-1.6-0.1-2.4c0-2.6,0-5.1,0-7.7c0-0.6,0-1.2,0.7-1.3
	c0.1-0.1,0.2-0.2,0.3-0.2c2.8-1.5,5.5-1.5,8.3,0c0.7,0.4,1,0.8,1,1.7C55.4,45.6,55.5,48.4,55.5,51.2z M44.2,39.9
	c-0.8-0.3-1.5-0.7-2.4-0.9c-0.6-0.2-0.8-0.4-0.8-1.1c0-2.2-0.1-2.2,2.2-2.2c0.5,0,1,0,1.5,0c0.6,0,1.1,0,1.7,0c2.1,0,2.4,0.5,2,2.6
	c0,0.1,0,0.2,0,0.3C48.3,38.9,44.5,40,44.2,39.9z M44.4,42.2c-0.1,3.5-0.1,6.9-0.1,10.5c-2.5-1-4.8-1.5-7.3-1.2
	c-0.4,0.1-0.8,0.1-1.3,0.2C34,52.1,34,52.1,34,50.2c0-2.5,0-5,0-7.5c0-0.7,0.2-1.2,0.9-1.6c2.9-1.7,5.9-1.5,8.8,0.1
	C44.1,41.4,44.4,41.7,44.4,42.2z M28.7,35.7c1.3,0,2.6,0,3.9,0c2,0,4.1,0,6.1,0c0.9,0,1.1,0.5,0.9,1.1c-0.2,0.6,0.7,1.7-0.8,1.8
	c-1.7,0-3.3,0.5-4.7,1.4c-0.4,0.3-0.9,0.4-1.3,0.4c-2.1,0-4.2,0-6.3,0c-0.8,0-1.1-0.3-1.1-1.1C25.3,35.7,25.2,35.7,28.7,35.7z
	 M26.4,47c-0.8-1.3-0.7-3.1-0.8-4.7c0-0.6,0.4-0.5,0.8-0.5c0.9,0,1.8,0,2.7,0c3.5,0,3.5,0,3.5,3.4c0,2.1,0,2.1-2.1,2.1
	c-0.3,0-0.6,0-0.9,0C28.5,47.2,26.8,47.8,26.4,47z M39.6,65c-5.4-2.9-9.4-6.8-11.7-12.3c-1.6-3.8-1.6-3.8,2.5-3.8c0.3,0,0.6,0,0.9,0
	c1-0.2,1.3,0.3,1.3,1.3c-0.1,1.3-0.1,2.8-0.1,4.5c2-1.2,4-1.8,6.2-1.7c0.6,0,0.9,0.1,0.9,0.8C39.6,57.5,39.6,61.2,39.6,65z
	 M48.2,65.8c-0.9,0.8-2.1,1.5-3.3,1.6c-1.3,0.2-2.4-0.9-3.6-1.5c-0.7-0.4-0.3-1.1-0.3-1.7c0-3.3,0-6.7,0-10c0-0.8,0.1-1.2,1-0.8h0.1
	c2.1,0.7,2.9,0.7,5.2,0c0.9-0.3,1.2-0.2,1.1,0.8c0,1.9,0.1,3.7,0.1,5.5c0,1.2,0,2.5,0,3.7C48.5,64.2,48.9,65.3,48.2,65.8z
	 M62.5,49.8c-1.9,6.9-6.2,11.7-12.6,15.2c0-3.9,0-7.5,0-11.2c0-0.7,0.3-0.8,0.9-0.9c2.2-0.1,4.2,0.6,6.2,1.7c0-1.7,0-3.3,0-4.8
	c0-0.7,0.1-1.1,1-1.1c1.3,0.1,2.6,0.1,3.8,0C62.8,48.7,62.8,49,62.5,49.8z M63.6,45.4c-0.2,1.4-0.6,2.2-2.2,1.9c-0.1,0-0.2,0-0.3,0
	c-1.3-0.1-3.4,0.6-3.9-0.3c-0.7-1.2-0.2-3-0.3-4.6c0-0.6,0.3-0.7,0.8-0.7c1,0.2,1.9,0.1,2.8,0.1C64.2,41.8,64.1,41.8,63.6,45.4z
	 M60.7,40.4c-0.7,0-1.4,0-2.1,0c-1.4,0.1-2.8-0.1-4.1-0.9c-1.1-0.7-2.4-0.9-3.7-0.9c-1.6,0-0.7-1.2-0.9-1.8c-0.2-0.8,0.2-1.1,1-1
	c2-0.1,4-0.1,6-0.1s4.1,0,6.1,0c0.6,0,0.9,0.1,1,0.8C64.5,40.2,64.5,40.4,60.7,40.4z"/>
<path class="st1" d="M26.7,17.3c1.6,0,3-1.3,3-2.9c0-1.5-1.3-2.8-2.8-2.8c-1.6,0-3,1.3-3,2.9C23.9,16,25.2,17.3,26.7,17.3z"/>
<path class="st1" d="M21.8,64.9c-0.5-0.6-0.9-0.7-1.5,0c-0.6,0.7-1.3,1.3-2,2c-1.2,1.3-1.2,1.3,0.1,2.4c0.4,0.3,0.7,0.5,1.1,0.7
	c1.7,0.7,3.8-0.7,3.8-2.7C23.2,66.3,22.6,65.6,21.8,64.9z"/>
<path class="st1" d="M8.9,43.6c-0.8,0-1,0.5-1,1.1c0,0.8,0.6,0.7,1.1,0.7c0.4-0.1,1.1,0.2,1-0.6C9.9,44.1,9.7,43.6,8.9,43.6z"/>
<path class="st1" d="M72.3,21.6c0.6,0,1-0.3,1.1-0.9c0-0.6-0.3-1-0.9-1.4c-0.4,0.5-1.1,0.8-1.3,1.3C71,21,71.7,21.5,72.3,21.6z"/>
<g>
	<g>
		<path class="st2" d="M38.7,53c-2.2-0.1-4.2,0.5-6.2,1.7c0-1.7,0-3.2,0.1-4.5c0-1-0.3-1.5-1.3-1.3c-0.3,0-0.6,0-0.9,0
			c-4.1,0-4.1,0-2.5,3.8c2.3,5.5,6.3,9.4,11.7,12.3c0-3.8,0-7.5,0-11.2C39.6,53.1,39.3,53,38.7,53z"/>
	</g>
	<g>
		<path class="st2" d="M61.8,48.7c-1.2,0.1-2.5,0.1-3.8,0c-0.9,0-1,0.4-1,1.1c0,1.5,0,3.1,0,4.8c-2-1.1-4-1.8-6.2-1.7
			c-0.6,0.1-0.9,0.2-0.9,0.9c0,3.7,0,7.3,0,11.2c6.4-3.5,10.7-8.3,12.6-15.2C62.8,49,62.8,48.7,61.8,48.7z"/>
	</g>
	<g>
		<path class="st2" d="M43.7,41.2c-2.9-1.6-5.9-1.8-8.8-0.1C34.2,41.5,34,42,34,42.7c0,2.5,0,5,0,7.5c0,1.9,0,1.9,1.7,1.5
			c0.5-0.1,0.9-0.1,1.3-0.2c2.5-0.3,4.8,0.2,7.3,1.2c0-3.6,0-7,0.1-10.5C44.4,41.7,44.1,41.4,43.7,41.2z M35.6,44.2
			c-0.6,0-0.3-0.4-0.3-0.7c0-0.3-0.1-0.7,0-1c0.1-0.3-0.4-0.8,0.3-0.9c0.4,0,1-0.2,1.3,0.2c0.3,0.5,0.1,0.9-0.5,1.3
			c-0.3-0.4,0.3-0.9-0.4-1.1c0,0.5,0,1.1-0.1,1.6C35.9,43.9,36.1,44.2,35.6,44.2z M37,49.7c-0.2,0.1-0.3,0.1-0.5,0.2
			c-0.4,0.2,0.5,1.1-0.4,1c-0.7-0.1-0.1-0.9-0.4-1.3c0.3-0.5-0.5-1.5,0.8-1.4c0.5,0,0.9,0.1,1,0.6C37.6,49.2,37.4,49.5,37,49.7z
			 M38.5,43.8c-0.8,0-0.3-0.6-0.3-1c-0.1-0.4,0.1-0.8,0-1.1C37.9,41,38.3,41,38.7,41c0.5,0,1.3,0.1,1,0.7c-0.4,0.9,0.2,1.3,0.6,1.9
			c-0.8,0.3-0.9-0.6-1.4-0.7C38.4,43.1,39.2,43.8,38.5,43.8z M39.3,47.9c0.4,1,0.8,1.9,1.3,3C38.7,49.7,38.5,49.3,39.3,47.9z
			 M40.4,47.4c-0.2-0.8-0.2-1.7,0.1-2.5c0.1-0.3,0.9-0.1,1.4-0.1c-0.1,0.6-0.9-0.1-0.8,0.6c0,0.7,0.8,0.2,0.8,0.7
			c-0.1,0.4-0.9-0.3-0.9,0.5c0,0.7,0.5,0.6,0.9,1C41.3,47.5,40.6,47.9,40.4,47.4z M42.1,51.1c-0.7-0.8,0.5-2.1-1.1-2.6
			c0.8,0,1.5,0,2.1,0C41.7,48.9,43.1,50.5,42.1,51.1z M42.5,44.1c-0.8,0.4-1.3,0-1.4-0.7c-0.2-0.8-0.3-1.6,0.8-1.8c0,0,0-0.1,0-0.1
			c0.9-0.3,1.4,0.1,1.5,0.9C43.5,43.2,43.5,44,42.5,44.1z"/>
	</g>
	<g>
		<path class="st2" d="M42.5,43.7c0-0.5-0.2-1.1-0.4-1.6C42.1,42.6,42.1,43.2,42.5,43.7z"/>
	</g>
	<g>
		<path class="st2" d="M48.5,59.7c0-1.8-0.1-3.6-0.1-5.5c0.1-1-0.2-1.1-1.1-0.8c-2.3,0.7-3.1,0.7-5.2,0H42c-0.9-0.4-1,0-1,0.8
			c0,3.3,0,6.7,0,10c0,0.6-0.4,1.3,0.3,1.7c1.2,0.6,2.3,1.7,3.6,1.5c1.2-0.1,2.4-0.8,3.3-1.6c0.7-0.5,0.3-1.6,0.3-2.4
			C48.5,62.2,48.5,60.9,48.5,59.7z"/>
	</g>
	<g>
		<path class="st2" d="M54.5,41.1c-2.8-1.5-5.5-1.5-8.3,0c0.5,0.5,1.2,0,1.7,0.5c1,0.9,1.1,1.4,0.2,2.4c-0.1,0.1-0.1,0.2-0.2,0.3
			c-1.6,0.5-1.7,0.4-1.7-1.2c0-0.6,0-1.2-0.3-1.8c-0.7,0.1-0.7,0.7-0.7,1.3c0,2.6,0,5.1,0,7.7c0,0.8-0.2,1.6,0.1,2.4
			c3.1-1.3,6.2-1.6,9.3-0.7c1,0.3,0.9-0.2,0.9-0.8c0-2.8-0.1-5.6,0-8.4C55.5,41.9,55.2,41.5,54.5,41.1z M47.2,50.2
			c-0.5,0.2,0.3,0.9-0.4,0.9c-0.8,0-0.2-0.6-0.3-1c-0.1-0.3,0-0.7,0-1c-0.1-0.5-0.1-0.9,0.6-0.8c0.6,0.1,1.3,0.1,1,0.7
			c-0.4,1.1,0,1.5,0.6,2.1C47.8,51.2,47.6,50.5,47.2,50.2z M48.6,46.9c0,0.2,0.4,0.6-0.1,0.7S48.1,47.3,48,47
			c-0.2-0.7,0.6-1.7-1-1.9c0.8-0.5,1.6-0.3,2.5-0.2C48.1,45.1,48.7,46.1,48.6,46.9z M50.2,50.4c0,0.2-0.1,0.4-0.3,0.3
			c-0.2,0-0.3-0.2-0.2-0.4c0-0.7,0-1.4,0-2.2c0,0,0.2,0,0.4,0C50.4,48.8,50.2,49.6,50.2,50.4z M49.5,43.8v-0.1l0.1-0.1
			c0-0.5,0.1-1,0-1.4c-0.3-1.2,0.4-1.3,1.3-1.1c-0.2,0.3-1,0.3-0.7,0.5c0.9,0.7-0.2,1.1,0,1.7c0.4,0,0.7,0,1.2,0
			C50.9,44.2,50.2,43.9,49.5,43.8z M51.6,50.3c0.3-0.7,0.5-1.3,0.9-2.3c0.5,1.2,0.9,2,1.3,2.9C52.8,51.3,52.7,49.3,51.6,50.3z
			 M53.6,44.1c-1.1,0.5-1.5-0.2-1.6-1c-0.1-0.9,0.2-1.6,1.3-1.4c0.8-0.3,1,0.3,1.1,0.8C54.5,43.2,54.5,43.9,53.6,44.1z"/>
	</g>
	<g>
		<path class="st2" d="M53.6,43.7c-0.1-0.5-0.1-1-0.2-1.5C53,42.8,53,43.2,53.6,43.7z"/>
	</g>
	<g>
		<path class="st2" d="M63,35.7c-2,0-4.1,0-6.1,0s-4,0-6,0.1c-0.8-0.1-1.2,0.2-1,1c0.2,0.6-0.7,1.8,0.9,1.8c1.3,0,2.6,0.2,3.7,0.9
			c1.3,0.8,2.7,1,4.1,0.9c0.7,0,1.4,0,2.1,0c3.8,0,3.8-0.2,3.3-3.9C63.9,35.8,63.6,35.7,63,35.7z"/>
	</g>
	<g>
		<path class="st2" d="M26.5,40.4c2.1,0,4.2,0,6.3,0c0.4,0,0.9-0.1,1.3-0.4c1.4-0.9,3-1.4,4.7-1.4c1.5-0.1,0.6-1.2,0.8-1.8
			c0.2-0.6,0-1.1-0.9-1.1c-2,0-4.1,0-6.1,0c-1.3,0-2.6,0-3.9,0c-3.5,0-3.4,0-3.3,3.6C25.4,40.1,25.7,40.4,26.5,40.4z"/>
	</g>
	<g>
		<path class="st2" d="M39.6,28.1c0.3-0.1,0.5-0.4,0.9-0.3c0.1,0.9,0.2,1.9,0.5,2.8c0.3,1.1,0.2,1.7-1.1,1.5
			c-0.5-0.1-0.8,0.1-0.8,0.7c0,0.6,0.4,0.6,0.8,0.6c1,0,1.9,0,2.9,0c2.2,0,4.5,0,6.8,0c0.3,0,0.8,0.1,0.8-0.5c0-0.4,0-0.9-0.5-0.8
			c-2,0.2-1.4-0.9-1.2-2c0.1-0.8,0.2-1.5,0.4-2.4c0.3,0.1,0.4,0.1,0.6,0.1c0.5,0.3,0.9,0.6,1.3-0.1c0.5-0.8-0.2-0.9-0.6-1.1
			c-1.5-1-3.1-1.9-4.7-2.9c-0.4-0.3-0.8-0.5-1.3-0.2c-1.8,1.2-3.6,2.3-5.4,3.4c-0.4,0.2-0.6,0.4-0.3,0.8
			C38.9,28,39.1,28.4,39.6,28.1z M44.3,25.1c0.8-0.4,1.1,0.1,1.6,0.4c2,1.2,2,1.2,1.6,3.5c-0.1,0.3-0.1,0.6-0.1,0.8
			c-0.5,2.3-0.5,2.3-2.7,2.3c-2.4,0-1.9,0.4-2.4-2.1c-0.1-0.2-0.1-0.5-0.1-0.7C41.7,26.5,41.8,26.4,44.3,25.1z"/>
	</g>
	<g>
		<path class="st2" d="M29.6,47.3c0.3,0,0.6,0,0.9,0c2.1,0,2.1,0,2.1-2.1c0-3.4,0-3.4-3.5-3.4c-0.9,0-1.8,0-2.7,0
			c-0.4,0-0.8-0.1-0.8,0.5c0.1,1.6,0,3.4,0.8,4.7C26.8,47.8,28.5,47.2,29.6,47.3z"/>
	</g>
	<g>
		<path class="st2" d="M60.5,41.8c-0.9,0-1.8,0.1-2.8-0.1c-0.5,0-0.8,0.1-0.8,0.7c0.1,1.6-0.4,3.4,0.3,4.6c0.5,0.9,2.6,0.2,3.9,0.3
			c0.1,0,0.2,0,0.3,0c1.6,0.3,2-0.5,2.2-1.9C64.1,41.8,64.2,41.8,60.5,41.8z"/>
	</g>
	<g>
		<path class="st2" d="M48.4,38.6c0-0.1,0-0.2,0-0.3c0.4-2.1,0.1-2.6-2-2.6c-0.6,0-1.1,0-1.7,0c-0.5,0-1,0-1.5,0
			c-2.3,0-2.2,0-2.2,2.2c0,0.7,0.2,0.9,0.8,1.1c0.9,0.2,1.6,0.6,2.4,0.9C44.5,40,48.3,38.9,48.4,38.6z"/>
	</g>
</g>
<path class="st1" d="M42.1,41.8c0-0.1-0.1-0.1-0.1-0.2c0,0,0,0-0.1,0c0.1,0.1,0.1,0.3,0.2,0.4C42.1,42,42.1,41.9,42.1,41.8z"/>
<path class="st1" d="M42.3,30c0.5,2.5,0,2.1,2.4,2.1c2.2,0,2.2,0,2.7-2.3c0-0.2,0-0.5,0.1-0.8c0.4-2.3,0.4-2.3-1.6-3.5
	c-0.5-0.3-0.8-0.8-1.6-0.4c-2.5,1.3-2.6,1.4-2.1,4.2C42.2,29.5,42.2,29.8,42.3,30z"/>
<path class="st1" d="M46.7,41.6C46.7,41.6,46.7,41.6,46.7,41.6C46.7,41.6,46.7,41.6,46.7,41.6C46.7,41.6,46.7,41.6,46.7,41.6z"/>
<g>
	<path class="st2" d="M44.8,3.6c21.7,0,39.4,17.7,39.4,39.4S66.5,82.3,44.8,82.3S5.4,64.7,5.4,43S23,3.6,44.8,3.6 M44.8,2.6
		C22.5,2.6,4.4,20.7,4.4,43s18.1,40.4,40.4,40.4S85.1,65.2,85.1,43S67,2.6,44.8,2.6L44.8,2.6z"/>
</g>
</svg>
