<?xml version="1.0" encoding="utf-8"?>
<!-- Generator: Adobe Illustrator 22.0.0, SVG Export Plug-In . SVG Version: 6.00 Build 0)  -->
<svg version="1.1" id="Layer_1" xmlns="http://www.w3.org/2000/svg" xmlns:xlink="http://www.w3.org/1999/xlink" x="0px" y="0px"
	 viewBox="0 0 442 34.5" style="enable-background:new 0 0 442 34.5;" xml:space="preserve">
<style type="text/css">
	.st0{fill:none;stroke:#938E94;stroke-width:0.5853;stroke-miterlimit:10;}
	.st1{fill:#938E94;}
	.st2{fill:none;stroke:#938E94;stroke-miterlimit:10;}
	.st3{fill:#FFFFFF;}
</style>
<rect x="68.2" y="0.3" class="st0" width="33.9" height="33.9"/>
<rect x="102.2" y="0.3" class="st0" width="33.9" height="33.9"/>
<rect x="136.1" y="0.3" class="st0" width="33.9" height="33.9"/>
<rect x="170.1" y="0.3" class="st0" width="33.9" height="33.9"/>
<rect x="204" y="0.3" class="st0" width="33.9" height="33.9"/>
<rect x="237.9" y="0.3" class="st0" width="33.9" height="33.9"/>
<rect x="271.9" y="0.3" class="st0" width="33.9" height="33.9"/>
<rect x="305.8" y="0.3" class="st0" width="33.9" height="33.9"/>
<rect x="339.8" y="0.3" class="st0" width="33.9" height="33.9"/>
<rect x="373.8" y="0.3" class="st0" width="33.9" height="33.9"/>
<rect x="407.8" y="0.3" class="st0" width="33.9" height="33.9"/>
<g>
	<path class="st1" d="M121.9,16.8l-0.6-0.1c-0.8,0-1.4,0.3-1.9,1c-0.2,0.3-0.3,0.6-0.4,1c0,0.2-0.1,0.4-0.1,0.6s0,0.4,0,0.6v3.6h1.6
		v1.1h-4.6v-1.1h1.3v-7.1h-1.3v-1.1h2.9v1.9c0.1-0.6,0.4-1.1,0.9-1.5c0.4-0.4,1-0.6,1.6-0.6l0.6,0.1V16.8z"/>
</g>
<g>
	<path class="st1" d="M154.1,24.7h-4.4v-1.2h1.4v-7.1h-1.4v-1.2h3.2v8.3h1.3v1.2H154.1z M152.9,13.7H151v-1.8h1.9V13.7z"/>
</g>
<g>
	<path class="st1" d="M192.5,24.7h-4.3v-1.2h1.3v-5c0-0.7-0.1-1.2-0.3-1.5c-0.3-0.5-0.7-0.7-1.3-0.7c-0.7,0-1.2,0.3-1.7,0.8
		c-0.2,0.3-0.3,0.6-0.4,0.9c0,0.2-0.1,0.3-0.1,0.5s0,0.4,0,0.6v4.4h1.3v1.2h-4.4v-1.2h1.3v-7.1h-1.3v-1.2h3V17
		c0.2-0.6,0.5-1.1,1-1.4c0.2-0.1,0.5-0.3,0.8-0.4c0.1,0,0.3-0.1,0.5-0.1s0.3,0,0.5,0s0.4,0,0.6,0c0.2,0,0.4,0.1,0.6,0.1
		c0.3,0.1,0.6,0.3,0.9,0.6c0.5,0.5,0.8,1.2,0.8,2.1v5.6h1.2L192.5,24.7L192.5,24.7z"/>
</g>
<g>
	<path class="st1" d="M257.5,13l-0.5-0.1l-0.5-0.1c-0.6,0-1,0.2-1.2,0.5c-0.1,0.1-0.1,0.4-0.2,0.6c0,0.2-0.1,0.4-0.1,0.6
		c0,0.2,0,0.3,0,0.4v0.4h1.8v1.2H255v7.1h1.6v1.1H252v-1.1h1.3v-7.1h-1.4v-1.2h1.4v-0.8c0-0.9,0.2-1.6,0.7-2.2
		c0.4-0.5,1.1-0.8,2.1-0.8h0.3h0.4c0.2,0,0.5,0.1,0.7,0.2V13z"/>
</g>
<g>
	<path class="st1" d="M359,24.7h-4.4v-1.2h1.4v-7.1h-1.4v-1.2h3.2v8.3h1.3v1.2H359z M357.7,13.7h-1.9v-1.8h1.9V13.7z"/>
</g>
<g>
	<path class="st1" d="M293.7,19.9c0,1.4-0.3,2.5-0.8,3.4c-0.7,1.1-1.7,1.6-3,1.6c-1.4,0-2.4-0.6-2.9-1.9v3.6h1.4v1.1h-4.5v-1.1h1.3
		V16.4h-1.3v-1.1h2.9v2c0.2-0.7,0.5-1.3,1.1-1.6c0.6-0.4,1.2-0.5,1.9-0.5c1.2,0,2.2,0.5,2.9,1.5c0.3,0.4,0.5,0.9,0.6,1.4
		C293.7,18.6,293.7,19.2,293.7,19.9z M292,19.8c0-0.9-0.2-1.7-0.5-2.3c-0.4-0.8-1.1-1.2-1.9-1.2s-1.5,0.4-2,1.3
		c-0.3,0.6-0.5,1.5-0.5,2.5c0,0.9,0.2,1.7,0.5,2.4c0.4,0.8,1.1,1.3,1.9,1.3c0.9,0,1.6-0.4,2-1.3C291.8,21.7,292,20.8,292,19.8z"/>
</g>
<g>
	<path class="st1" d="M324.4,16.8l-0.6-0.1c-0.8,0-1.4,0.3-1.9,1c-0.2,0.3-0.3,0.6-0.4,1c0,0.2-0.1,0.4-0.1,0.6s0,0.4,0,0.6v3.6h1.6
		v1.1h-4.6v-1.1h1.3v-7.1h-1.3v-1.1h2.9v1.9c0.1-0.6,0.4-1.1,0.9-1.5c0.4-0.4,1-0.6,1.6-0.6l0.6,0.1V16.8z"/>
</g>
<g>
	<path class="st1" d="M90.1,19.9c0,1.4-0.3,2.5-0.8,3.4c-0.7,1.1-1.7,1.6-3,1.6c-1.4,0-2.4-0.6-2.9-1.9v3.6h1.4v1.1h-4.5v-1.1h1.3
		V16.4h-1.3v-1.1h2.9v2c0.2-0.7,0.5-1.3,1.1-1.6c0.6-0.4,1.2-0.5,1.9-0.5c1.2,0,2.2,0.5,2.9,1.5c0.3,0.4,0.5,0.9,0.6,1.4
		C90,18.6,90.1,19.2,90.1,19.9z M88.3,19.8c0-0.9-0.2-1.7-0.5-2.3c-0.4-0.8-1.1-1.2-1.9-1.2s-1.5,0.4-2,1.3
		c-0.3,0.6-0.5,1.5-0.5,2.5c0,0.9,0.2,1.7,0.5,2.4c0.4,0.8,1.1,1.3,1.9,1.3c0.9,0,1.6-0.4,2-1.3C88.2,21.7,88.3,20.8,88.3,19.8z"/>
</g>
<g>
	<path class="st1" d="M224.8,20c0,1.4-0.4,2.5-1.1,3.5c-0.8,1-1.9,1.5-3.2,1.5c-1.4,0-2.5-0.5-3.3-1.4c-0.7-1-1.1-2.2-1.1-3.6
		s0.4-2.5,1.2-3.5c0.8-0.9,1.9-1.4,3.2-1.4s2.4,0.5,3.2,1.5c0.3,0.5,0.6,1,0.8,1.5C224.8,18.6,224.8,19.3,224.8,20z M223,19.9
		c0-1-0.2-1.8-0.5-2.4c-0.4-0.9-1.1-1.3-2-1.3c-0.4,0-0.8,0.1-1.1,0.3s-0.6,0.5-0.9,1c-0.4,0.7-0.6,1.5-0.6,2.5s0.2,1.8,0.5,2.5
		c0.4,0.9,1.1,1.3,2,1.3s1.6-0.4,2-1.3C222.8,21.7,223,20.9,223,19.9z"/>
</g>
<g>
	<path class="st1" d="M395.8,24.7h-4.3v-1.2h1.3v-5c0-0.7-0.1-1.2-0.3-1.5c-0.3-0.5-0.7-0.7-1.3-0.7c-0.7,0-1.2,0.3-1.7,0.8
		c-0.2,0.3-0.3,0.6-0.4,0.9c0,0.2-0.1,0.3-0.1,0.5s0,0.4,0,0.6v4.4h1.3v1.2H386v-1.2h1.3v-7.1H386v-1.2h3V17c0.2-0.6,0.5-1.1,1-1.4
		c0.2-0.1,0.5-0.3,0.8-0.4c0.1,0,0.3-0.1,0.5-0.1s0.3,0,0.5,0s0.4,0,0.6,0s0.4,0.1,0.6,0.1c0.3,0.1,0.6,0.3,0.9,0.6
		c0.5,0.5,0.8,1.2,0.8,2.1v5.6h1.2v1.2C395.9,24.7,395.8,24.7,395.8,24.7z"/>
</g>
<g>
	<rect x="0.3" y="0.3" class="st0" width="33.9" height="33.9"/>
	<rect x="34.2" y="0.3" class="st0" width="33.9" height="33.9"/>
	<g>
		<path class="st1" d="M51,18.1c0,0.4-0.1,0.7-0.3,0.9c-0.1,0.1-0.2,0.2-0.4,0.3c-0.1,0-0.2,0-0.2,0.1c-0.1,0-0.2,0-0.3,0
			c-0.2,0-0.3,0-0.5-0.1c-0.1-0.1-0.3-0.1-0.4-0.3c-0.2-0.2-0.4-0.5-0.4-0.9s0.1-0.7,0.3-0.9c0.2-0.2,0.5-0.3,0.9-0.3
			c0.3,0,0.6,0.1,0.9,0.3C50.9,17.5,51,17.8,51,18.1z M51,24.6c0,0.4-0.1,0.7-0.3,0.9c-0.2,0.2-0.5,0.3-0.9,0.3s-0.7-0.1-0.9-0.3
			c-0.2-0.2-0.3-0.5-0.3-0.9s0.1-0.7,0.3-0.9c0.2-0.2,0.5-0.3,0.9-0.3s0.7,0.1,0.9,0.3C50.9,24,51,24.3,51,24.6z"/>
	</g>
</g>
<g>
	<path class="st2" d="M28.9,16.1c0-5.1-5.1-9.2-11.4-9.2S6.1,11,6.1,16.1c0,4.6,4,8.4,9.5,9.1c0.4,0.1,0.9,0.2,1,0.6
		c0.1,0.3,0.1,0.7,0,1c0,0-0.1,0.8-0.2,1c0,0.3-0.2,1.1,1,0.6s6.5-3.9,8.9-6.6l0,0C28.1,20,28.9,18.1,28.9,16.1"/>
	<path class="st1" d="M25.1,19h-3.2l0,0c-0.1,0-0.2-0.1-0.2-0.2l0,0l0,0v-4.9l0,0l0,0c0-0.1,0.1-0.2,0.2-0.2l0,0h3.2
		c0.1,0,0.2,0.1,0.2,0.2v0.8c0,0.1-0.1,0.2-0.2,0.2h-2.2v0.8h2.2c0.1,0,0.2,0.1,0.2,0.2v0.8c0,0.1-0.1,0.2-0.2,0.2h-2.2v0.8h2.2
		c0.1,0,0.2,0.1,0.2,0.2v0.8C25.3,18.9,25.2,19,25.1,19"/>
	<path class="st1" d="M13.3,19c0.1,0,0.2-0.1,0.2-0.2V18c0-0.1-0.1-0.2-0.2-0.2h-2.2v-3.9c0-0.1-0.1-0.2-0.2-0.2h-0.8
		c-0.1,0-0.2,0.1-0.2,0.2v5l0,0l0,0c0,0.1,0.1,0.2,0.2,0.2l0,0h3.2V19z"/>
	<path class="st1" d="M15.2,13.6h-0.8c-0.1,0-0.2,0.1-0.2,0.2v5c0,0.1,0.1,0.2,0.2,0.2h0.8c0.1,0,0.2-0.1,0.2-0.2v-5
		C15.4,13.7,15.4,13.6,15.2,13.6"/>
	<path class="st1" d="M20.7,13.6h-0.8c-0.1,0-0.2,0.1-0.2,0.2v2.9l-2.3-3.1l0,0l0,0l0,0l0,0l0,0l0,0l0,0l0,0l0,0l0,0l0,0l0,0l0,0
		l0,0l0,0l0,0l0,0l0,0l0,0h-0.8c-0.1,0-0.2,0.1-0.2,0.2v5c0,0.1,0.1,0.2,0.2,0.2h0.8c0.1,0,0.2-0.1,0.2-0.2v-2.9l2.3,3.1
		c0,0,0,0,0.1,0.1l0,0l0,0l0,0l0,0l0,0l0,0l0,0l0,0c0,0,0,0,0.1,0h0.8c0.1,0,0.2-0.1,0.2-0.2v-5C20.9,13.7,20.8,13.6,20.7,13.6"/>
</g>
<rect x="441.5" y="0.6" class="st3" width="0.5" height="33.3"/>
<rect x="0.2" y="0.3" transform="matrix(-1 -1.224647e-16 1.224647e-16 -1 1.0063 34.5875)" class="st1" width="0.6" height="34"/>
</svg>
