<?xml version="1.0" encoding="utf-8"?>
<!-- Generator: Adobe Illustrator 25.0.1, SVG Export Plug-In . SVG Version: 6.00 Build 0)  -->
<svg version="1.1" id="Layer_1" xmlns="http://www.w3.org/2000/svg" xmlns:xlink="http://www.w3.org/1999/xlink" x="0px" y="0px"
	 viewBox="0 0 96.8 92.6" style="enable-background:new 0 0 96.8 92.6;" xml:space="preserve">
<style type="text/css">
	.st0{fill:#938E94;}
</style>
<rect x="82.8" y="15.9" transform="matrix(0.9424 -0.3345 0.3345 0.9424 -1.3785 29.7777)" class="st0" width="5.9" height="5.9"/>
<rect x="79.2" y="23.5" transform="matrix(0.9424 -0.3345 0.3345 0.9424 -4.109 29.0122)" class="st0" width="5.9" height="5.9"/>
<rect x="75.3" y="31.3" transform="matrix(0.9435 -0.3312 0.3312 0.9435 -6.9294 27.8542)" class="st0" width="5.9" height="5.9"/>
<rect x="72" y="38.6" transform="matrix(0.9424 -0.3345 0.3345 0.9424 -9.5752 27.4766)" class="st0" width="5.9" height="5.9"/>
<rect x="68.4" y="46.1" transform="matrix(0.9424 -0.3345 0.3345 0.9424 -12.3073 26.7081)" class="st0" width="5.9" height="5.9"/>
<rect x="64.8" y="53.7" transform="matrix(0.9424 -0.3345 0.3345 0.9424 -15.0421 25.9379)" class="st0" width="5.9" height="5.9"/>
<rect x="61.3" y="61.2" transform="matrix(0.9424 -0.3345 0.3345 0.9424 -17.7733 25.1748)" class="st0" width="5.9" height="5.9"/>
<rect x="57.6" y="68.8" transform="matrix(0.9424 -0.3345 0.3345 0.9424 -20.5075 24.4038)" class="st0" width="5.9" height="5.9"/>
<rect x="54.1" y="76.3" transform="matrix(0.9424 -0.3345 0.3345 0.9424 -23.2411 23.6362)" class="st0" width="5.9" height="5.9"/>
<polygon class="st0" points="55.2,83.1 49.6,85.1 47.7,79.5 45.7,73.9 43.7,68.3 41.7,62.8 36.2,64.7 30.6,66.7 32.5,72.3 
	38.1,70.3 40.1,75.9 42.1,81.5 44.1,87 46,92.6 51.6,90.6 57.2,88.7 "/>
<polygon class="st0" points="21.4,76.2 23.4,81.8 29,79.8 34.5,77.9 32.5,72.3 27,74.3 "/>
<polygon class="st0" points="12.2,85.8 14.2,91.4 19.8,89.4 25.4,87.4 23.4,81.8 17.8,83.8 "/>
<polygon class="st0" points="8.3,74.6 2.7,76.6 4.7,82.2 6.7,87.8 12.2,85.8 10.2,80.2 "/>
<polygon class="st0" points="19.4,70.7 17.5,65.1 11.9,67.1 6.3,69.1 8.3,74.6 13.9,72.7 "/>
<polygon class="st0" points="28.6,61.1 26.6,55.6 21,57.5 15.5,59.5 17.5,65.1 23,63.1 "/>
<polygon class="st0" points="13.1,35.2 18.7,33.3 24.3,31.3 29.9,29.3 35.4,27.3 41,25.4 46.6,23.4 52.2,21.4 57.7,19.4 63.3,17.4 
	68.9,15.5 74.4,13.5 80,11.5 85.6,9.5 87.6,15.1 93.2,13.1 91.2,7.5 96.8,5.6 94.8,0 89.2,2 83.6,4 78.1,5.9 72.5,7.9 66.9,9.9 
	61.3,11.9 55.8,13.8 50.2,15.8 44.6,17.8 39,19.8 33.5,21.8 27.9,23.7 22.3,25.7 16.7,27.7 11.1,29.7 5.6,31.6 0,33.6 2,39.2 
	4,44.8 9.5,42.8 7.6,37.2 "/>
<rect x="10.4" y="41.6" transform="matrix(0.9424 -0.3345 0.3345 0.9424 -14.1504 7.0205)" class="st0" width="5.9" height="5.9"/>
<rect x="17.9" y="45.2" transform="matrix(0.9424 -0.3345 0.3345 0.9424 -14.9189 9.7526)" class="st0" width="5.9" height="5.9"/>
<rect x="25.5" y="48.8" transform="matrix(0.9424 -0.3345 0.3345 0.9424 -15.689 12.4883)" class="st0" width="5.9" height="5.9"/>
<rect x="150.2" y="91.4" class="st0" width="97" height="97"/>
</svg>
