<?xml version="1.0" encoding="utf-8"?>
<!-- Generator: Adobe Illustrator 22.0.0, SVG Export Plug-In . SVG Version: 6.00 Build 0)  -->
<svg version="1.1" id="Layer_1" xmlns="http://www.w3.org/2000/svg" xmlns:xlink="http://www.w3.org/1999/xlink" x="0px" y="0px"
	 viewBox="0 0 73.4 114.6" style="enable-background:new 0 0 73.4 114.6;" xml:space="preserve">
<style type="text/css">
	.st0{fill:#1B1B1B;}
	.st1{fill:#FFFFFF;}
</style>
<polygon class="st0" points="59,109.6 14.1,109.6 14.1,51.2 49.8,51.2 59,61.8 "/>
<g>
	<path class="st1" d="M60.6,60.5l-9.4-10.6c-0.3-0.3-0.6-0.4-1-0.4H13.8c-0.7,0-1.3,0.6-1.3,1.3v58.7c0,0.8,0.6,1.3,1.3,1.3h45.7
		c0.8,0,1.3-0.6,1.3-1.3V61.4C61,61.1,60.8,60.8,60.6,60.5z M51.8,54.7l5,5.5h-5V54.7z M15.3,108.2V52.3H49v9.4
		c0,0.8,0.6,1.3,1.3,1.3h7.8v45.2H15.3z"/>
	<path class="st1" d="M51.5,67.6h-30c-0.8,0-1.3,0.6-1.3,1.3c0,0.7,0.6,1.3,1.3,1.3h30c0.8,0,1.3-0.6,1.3-1.3
		C52.9,68.3,52.3,67.6,51.5,67.6z"/>
	<path class="st1" d="M51.5,78.7h-30c-0.8,0-1.3,0.6-1.3,1.3c0,0.7,0.5,1.4,1.3,1.4h30c0.8,0,1.3-0.6,1.3-1.3
		C52.9,79.5,52.3,78.7,51.5,78.7z"/>
	<path class="st1" d="M51.5,91h-30c-0.8,0-1.3,0.6-1.3,1.3c0,0.7,0.6,1.3,1.3,1.3h30c0.8,0,1.3-0.6,1.3-1.3
		C52.9,91.6,52.3,91,51.5,91z"/>
</g>
<rect x="-5518" y="-4461" class="st0" width="1850" height="1114"/>
</svg>
