<?xml version="1.0" encoding="utf-8"?>
<!-- Generator: Adobe Illustrator 22.0.0, SVG Export Plug-In . SVG Version: 6.00 Build 0)  -->
<svg version="1.1" id="Layer_1" xmlns="http://www.w3.org/2000/svg" xmlns:xlink="http://www.w3.org/1999/xlink" x="0px" y="0px"
	 viewBox="0 0 178.2 89.7" style="enable-background:new 0 0 178.2 89.7;" xml:space="preserve">
<style type="text/css">
	.st0{fill:none;stroke:#FFFFFF;stroke-miterlimit:10;}
</style>
<g>
	<path class="st0" d="M75.5,81.1C73,68.4,56,62.7,56,62.7C60.1,77.8,75.5,81.1,75.5,81.1z"/>
	<path class="st0" d="M1.6,37.4c6.6,13.3,20.5,14.4,20.5,14.4C16.7,39.9,1.6,37.4,1.6,37.4z"/>
	<path class="st0" d="M48,72.7c-11.9-11.9-24.8-7.8-24.8-7.8C36.2,77.4,48,72.7,48,72.7z"/>
	<path class="st0" d="M39.4,65c3.9-7.5-10.6-18.8-10.6-18.8C26.1,58.5,39.4,65,39.4,65z"/>
	<path class="st0" d="M31,62.5C25.2,51.6,9.4,50.3,9.4,50.3C17.1,62.8,31,62.5,31,62.5z"/>
	<path class="st0" d="M25,51.1c5.5-5.8-2.8-19.2-2.8-19.2C15.5,40.4,25,51.1,25,51.1z"/>
	<path class="st0" d="M11.9,39C13.9,30,0,22.3,0,22.3C0.4,34.5,11.9,39,11.9,39z"/>
	<path class="st0" d="M15.6,37.8c8.5-4.4,2.2-14.8,2.2-14.8C8.3,28.5,15.6,37.8,15.6,37.8z"/>
	<path class="st0" d="M9.6,27.1c3.5-8.1-7.4-15.9-7.4-15.9C-1.7,20.4,9.6,27.1,9.6,27.1z"/>
	<path class="st0" d="M14.2,23.2c6.9-4.2,1-12.5,1-12.5C6.3,16.8,14.2,23.2,14.2,23.2z"/>
	<path class="st0" d="M9.1,0C0.2,4.6,8.3,14.3,8.3,14.3C16.6,10.4,9.1,0,9.1,0z"/>
	<path class="st0" d="M122.2,63c0,0-17,5.7-19.5,18.4C102.7,81.3,118.1,78,122.2,63z"/>
	<path class="st0" d="M156.1,52.1c0,0,14-1.1,20.5-14.4C176.6,37.7,161.4,40.2,156.1,52.1z"/>
	<path class="st0" d="M113.4,80.6c0,0,1.1,0.9,3.2,1.7c-1.1,0.2-2.2,0.5-3.4,0.7c-1.5-0.5-3.3-0.8-5.7-0.8c5.7-2.3,10-5,12.9-7.1
		c3.6-1.2,14.2-5.8,17.3-18.6c0,0-15.8,5.9-18.5,18.7c-9.3,5.6-19.2,8.2-28.5,9.2C80.4,83.8,69.4,81.3,59,75
		c-2.7-12.9-18.5-18.7-18.5-18.7c3.1,12.8,13.7,17.3,17.3,18.6c2.9,2.1,7.2,4.8,12.9,7.1c-2.9,0-5.1,0.5-6.6,1.2
		c-1.2-0.2-2.3-0.5-3.4-0.7c2.7-0.8,4.2-2,4.2-2c-14-10.3-24.5-2.5-24.5-2.5c7.8,5.1,14,5.7,18.2,5c1.3,0.4,2.6,0.8,3.9,1.2
		c-2,1.5-2.4,3.2-2.4,3.2c9.8,3.9,15.4,1.9,18.3-0.4c4.4,0.3,8.5,0.2,12.4-0.3c2.9,0.2,5.9,0.2,9.1,0.1c2.7,2.5,8.3,5.1,18.8,0.9
		c0,0-0.4-2-3-3.5c1.1-0.3,2.3-0.6,3.4-1c4.2,0.9,10.7,0.7,19.2-4.8C138,78.2,127.4,70.3,113.4,80.6z"/>
	<path class="st0" d="M130.2,73c0,0,11.8,4.7,24.8-7.8C155.1,65.2,142.1,61.1,130.2,73z"/>
	<path class="st0" d="M149.3,46.5c0,0-14.5,11.3-10.6,18.8C138.8,65.3,152.1,58.8,149.3,46.5z"/>
	<path class="st0" d="M147.2,62.8c0,0,13.9,0.3,21.6-12.2C168.8,50.6,153,51.9,147.2,62.8z"/>
	<path class="st0" d="M156,32.1c0,0-8.4,13.4-2.9,19.2C153.2,51.4,162.6,40.7,156,32.1z"/>
	<path class="st0" d="M166.3,39.3c0,0,11.5-4.5,11.9-16.8C178.2,22.5,164.2,30.3,166.3,39.3z"/>
	<path class="st0" d="M162.6,38c0,0,7.2-9.2-2.2-14.8C160.4,23.2,154.2,33.6,162.6,38z"/>
	<path class="st0" d="M168.6,27.4c0,0,11.3-6.8,7.4-15.9C176,11.5,165.1,19.3,168.6,27.4z"/>
	<path class="st0" d="M164,23.5c0,0,7.9-6.4-1-12.5C163,11.1,157.1,19.3,164,23.5z"/>
	<path class="st0" d="M169.9,14.5c0,0,8.1-9.6-0.8-14.3C169.1,0.3,161.6,10.6,169.9,14.5z"/>
</g>
</svg>
