<?xml version="1.0" encoding="utf-8"?>
<!-- Generator: Adobe Illustrator 22.0.0, SVG Export Plug-In . SVG Version: 6.00 Build 0)  -->
<svg version="1.1" id="Layer_1" xmlns="http://www.w3.org/2000/svg" xmlns:xlink="http://www.w3.org/1999/xlink" x="0px" y="0px"
	 viewBox="0 0 257.2 256.6" style="enable-background:new 0 0 257.2 256.6;" xml:space="preserve">
<style type="text/css">
	.st0{fill:#938E94;}
</style>
<g>
	<g>
		<g>
			<g>
				<rect x="127.8" y="9.8" class="st0" width="1.6" height="12.7"/>
			</g>
			<g>
				<polygon class="st0" points="129.4,248 127.8,248 125.3,235.3 132,235.3 				"/>
			</g>
			<g>
				
					<rect x="108.9" y="16.4" transform="matrix(0.9847 -0.1741 0.1741 0.9847 -1.8524 19.3819)" class="st0" width="1.3" height="7.7"/>
			</g>
			<g>
				
					<rect x="147.1" y="232.6" transform="matrix(0.9847 -0.174 0.174 0.9847 -38.8883 29.3155)" class="st0" width="1.3" height="7.7"/>
			</g>
			<g>
				<polygon class="st0" points="91.7,29.1 89.1,21.8 90.3,21.4 92.9,28.6 				"/>
			</g>
			<g>
				<polygon class="st0" points="167,235.3 164.3,228.1 165.5,227.6 168.2,234.8 				"/>
			</g>
			<g>
				<polygon class="st0" points="75,37 71.2,30.3 72.3,29.7 76.1,36.3 				"/>
			</g>
			<g>
				<polygon class="st0" points="185,227 181.1,220.4 182.2,219.7 186.1,226.4 				"/>
			</g>
			<g>
				<polygon class="st0" points="59.9,47.6 55,41.8 55.9,40.9 60.9,46.8 				"/>
			</g>
			<g>
				<polygon class="st0" points="201.3,215.8 196.4,209.9 197.3,209 202.3,214.9 				"/>
			</g>
			<g>
				<polygon class="st0" points="46.9,60.8 41,55.8 41.8,54.9 47.7,59.8 				"/>
			</g>
			<g>
				<polygon class="st0" points="215.4,201.8 209.5,196.9 210.3,195.9 216.2,200.9 				"/>
			</g>
			<g>
				<polygon class="st0" points="36.4,76 29.7,72.1 30.4,71 37,74.9 				"/>
			</g>
			<g>
				<polygon class="st0" points="226.9,185.7 220.2,181.8 220.9,180.7 227.5,184.6 				"/>
			</g>
			<g>
				<polygon class="st0" points="28.7,92.7 21.4,90.1 21.9,88.9 29.1,91.5 				"/>
			</g>
			<g>
				<polygon class="st0" points="235.4,167.8 228.1,165.2 228.6,164 235.8,166.6 				"/>
			</g>
			<g>
				
					<rect x="19.7" y="105.4" transform="matrix(0.1731 -0.9849 0.9849 0.1731 -90.7069 110.4092)" class="st0" width="1.3" height="7.7"/>
			</g>
			<g>
				
					<rect x="236.3" y="143.5" transform="matrix(0.1732 -0.9849 0.9849 0.1732 50.8508 355.1763)" class="st0" width="1.3" height="7.7"/>
			</g>
			<g>
				<rect x="9.8" y="127.5" class="st0" width="12.7" height="1.6"/>
			</g>
			<g>
				<rect x="234.8" y="127.5" class="st0" width="12.7" height="1.6"/>
			</g>
			<g>
				
					<rect x="16.6" y="146.8" transform="matrix(0.9847 -0.174 0.174 0.9847 -25.3444 5.8076)" class="st0" width="7.7" height="1.3"/>
			</g>
			<g>
				
					<rect x="233.2" y="108.7" transform="matrix(0.9847 -0.174 0.174 0.9847 -15.4107 42.9148)" class="st0" width="7.7" height="1.3"/>
			</g>
			<g>
				<polygon class="st0" points="21.9,167.8 21.4,166.6 28.7,164 29.1,165.2 				"/>
			</g>
			<g>
				<polygon class="st0" points="228.6,92.7 228.1,91.5 235.4,88.9 235.8,90.1 				"/>
			</g>
			<g>
				<polygon class="st0" points="30.4,185.7 29.7,184.6 36.4,180.7 37,181.8 				"/>
			</g>
			<g>
				<polygon class="st0" points="220.9,76 220.2,74.9 226.9,71 227.5,72.1 				"/>
			</g>
			<g>
				<polygon class="st0" points="41.8,201.8 41,200.9 46.9,195.9 47.7,196.9 				"/>
			</g>
			<g>
				<polygon class="st0" points="210.3,60.8 209.5,59.8 215.4,54.9 216.2,55.8 				"/>
			</g>
			<g>
				<polygon class="st0" points="55.9,215.8 55,214.9 59.9,209 60.9,209.9 				"/>
			</g>
			<g>
				<polygon class="st0" points="197.3,47.6 196.4,46.8 201.3,40.9 202.3,41.8 				"/>
			</g>
			<g>
				<polygon class="st0" points="72.3,227 71.2,226.4 75,219.7 76.1,220.4 				"/>
			</g>
			<g>
				<polygon class="st0" points="182.2,37 181.1,36.3 185,29.7 186.1,30.3 				"/>
			</g>
			<g>
				<polygon class="st0" points="90.3,235.3 89.1,234.8 91.7,227.6 92.9,228.1 				"/>
			</g>
			<g>
				<polygon class="st0" points="165.5,29.1 164.3,28.6 167,21.4 168.2,21.8 				"/>
			</g>
			<g>
				
					<rect x="105.8" y="235.8" transform="matrix(0.1732 -0.9849 0.9849 0.1732 -142.2343 303.461)" class="st0" width="7.7" height="1.3"/>
			</g>
			<g>
				
					<rect x="143.9" y="19.6" transform="matrix(0.1732 -0.9849 0.9849 0.1732 102.251 162.274)" class="st0" width="7.7" height="1.3"/>
			</g>
		</g>
		<g>
			<g>
				
					<rect x="124.6" y="18.1" transform="matrix(0.9994 -3.487388e-02 3.487388e-02 0.9994 -0.6215 4.3662)" class="st0" width="0.5" height="3.8"/>
			</g>
			<g>
				
					<rect x="120.9" y="18.3" transform="matrix(0.9976 -6.982403e-02 6.982403e-02 0.9976 -1.1148 8.5088)" class="st0" width="0.5" height="3.8"/>
			</g>
			<g>
				
					<rect x="135.9" y="234.6" transform="matrix(0.9976 -6.986509e-02 6.986509e-02 0.9976 -16.1911 10.0904)" class="st0" width="0.5" height="3.8"/>
			</g>
			<g>
				
					<rect x="117" y="18.6" transform="matrix(0.9945 -0.1046 0.1046 0.9945 -1.5011 12.3768)" class="st0" width="0.5" height="3.8"/>
			</g>
			<g>
				
					<rect x="139.7" y="234.3" transform="matrix(0.9945 -0.1047 0.1047 0.9945 -23.9609 15.951)" class="st0" width="0.5" height="3.8"/>
			</g>
			<g>
				
					<rect x="113.2" y="19.1" transform="matrix(0.9902 -0.1394 0.1394 0.9902 -1.8196 16.02)" class="st0" width="0.5" height="3.8"/>
			</g>
			<g>
				
					<rect x="143.5" y="233.8" transform="matrix(0.9902 -0.1395 0.1395 0.9902 -31.4745 22.3578)" class="st0" width="0.5" height="3.8"/>
			</g>
			<g>
				<polygon class="st0" points="106.2,24.2 105.4,20.5 105.9,20.4 106.7,24.1 				"/>
			</g>
			<g>
				
					<rect x="151" y="232.5" transform="matrix(0.978 -0.2084 0.2084 0.978 -45.5278 36.6672)" class="st0" width="0.5" height="3.8"/>
			</g>
			<g>
				<polygon class="st0" points="102.5,25 101.6,21.3 102.1,21.2 103.1,24.9 				"/>
			</g>
			<g>
				<polygon class="st0" points="155.1,235.5 154.2,231.8 154.7,231.7 155.6,235.3 				"/>
			</g>
			<g>
				<polygon class="st0" points="98.9,26 97.9,22.4 98.4,22.2 99.4,25.9 				"/>
			</g>
			<g>
				<polygon class="st0" points="158.8,234.5 157.8,230.8 158.3,230.7 159.4,234.3 				"/>
			</g>
			<g>
				<polygon class="st0" points="95.4,27.1 94.2,23.5 94.7,23.3 95.9,26.9 				"/>
			</g>
			<g>
				<polygon class="st0" points="162.5,233.4 161.4,229.8 161.9,229.6 163.1,233.2 				"/>
			</g>
			<g>
				<polygon class="st0" points="88.4,29.7 86.9,26.1 87.4,25.9 88.9,29.5 				"/>
			</g>
			<g>
				<polygon class="st0" points="169.8,230.8 168.4,227.2 168.9,227 170.3,230.6 				"/>
			</g>
			<g>
				<polygon class="st0" points="84.9,31.1 83.4,27.7 83.9,27.4 85.4,30.9 				"/>
			</g>
			<g>
				<polygon class="st0" points="173.4,229.3 171.8,225.8 172.3,225.6 173.9,229 				"/>
			</g>
			<g>
				<polygon class="st0" points="81.6,32.7 79.9,29.3 80.4,29 82.1,32.5 				"/>
			</g>
			<g>
				<polygon class="st0" points="176.9,227.6 175.2,224.2 175.7,224 177.4,227.4 				"/>
			</g>
			<g>
				<polygon class="st0" points="78.2,34.4 76.5,31 76.9,30.8 78.7,34.1 				"/>
			</g>
			<g>
				<polygon class="st0" points="180.3,225.9 178.5,222.6 179,222.3 180.8,225.6 				"/>
			</g>
			<g>
				<polygon class="st0" points="71.8,38.1 69.8,34.9 70.2,34.6 72.3,37.8 				"/>
			</g>
			<g>
				<polygon class="st0" points="187,222.1 185,218.8 185.5,218.6 187.5,221.8 				"/>
			</g>
			<g>
				<polygon class="st0" points="68.7,40.2 66.5,37 67,36.7 69.1,39.9 				"/>
			</g>
			<g>
				<polygon class="st0" points="190.2,220 188.1,216.8 188.6,216.5 190.7,219.7 				"/>
			</g>
			<g>
				<polygon class="st0" points="65.6,42.3 63.4,39.2 63.8,38.9 66.1,42 				"/>
			</g>
			<g>
				<polygon class="st0" points="193.4,217.8 191.2,214.7 191.6,214.4 193.9,217.5 				"/>
			</g>
			<g>
				<polygon class="st0" points="62.7,44.6 60.3,41.6 60.7,41.2 63.1,44.2 				"/>
			</g>
			<g>
				<polygon class="st0" points="196.5,215.5 194.2,212.5 194.6,212.1 196.9,215.1 				"/>
			</g>
			<g>
				<polygon class="st0" points="57,49.3 54.4,46.5 54.8,46.2 57.4,49 				"/>
			</g>
			<g>
				<polygon class="st0" points="202.4,210.5 199.9,207.7 200.3,207.3 202.8,210.2 				"/>
			</g>
			<g>
				<polygon class="st0" points="54.2,51.9 51.6,49.2 52,48.8 54.6,51.5 				"/>
			</g>
			<g>
				<polygon class="st0" points="205.3,207.9 202.6,205.2 203,204.8 205.7,207.5 				"/>
			</g>
			<g>
				<polygon class="st0" points="51.6,54.5 48.9,51.9 49.3,51.5 52,54.1 				"/>
			</g>
			<g>
				<polygon class="st0" points="208,205.2 205.3,202.6 205.6,202.2 208.4,204.8 				"/>
			</g>
			<g>
				<polygon class="st0" points="49.1,57.3 46.2,54.7 46.6,54.3 49.4,56.8 				"/>
			</g>
			<g>
				<polygon class="st0" points="210.6,202.4 207.8,199.8 208.2,199.4 211,202 				"/>
			</g>
			<g>
				<polygon class="st0" points="44.3,63 41.3,60.6 41.6,60.2 44.6,62.5 				"/>
			</g>
			<g>
				<polygon class="st0" points="215.6,196.5 212.6,194.2 213,193.7 216,196.1 				"/>
			</g>
			<g>
				<polygon class="st0" points="42.1,65.9 39,63.7 39.3,63.3 42.4,65.5 				"/>
			</g>
			<g>
				<polygon class="st0" points="217.9,193.4 214.9,191.2 215.2,190.8 218.3,193 				"/>
			</g>
			<g>
				<polygon class="st0" points="39.9,69 36.8,66.9 37.1,66.4 40.2,68.5 				"/>
			</g>
			<g>
				<polygon class="st0" points="220.2,190.3 217,188.2 217.3,187.7 220.5,189.8 				"/>
			</g>
			<g>
				<polygon class="st0" points="37.9,72.1 34.7,70.1 35,69.6 38.2,71.7 				"/>
			</g>
			<g>
				<polygon class="st0" points="222.3,187.1 219.1,185 219.3,184.6 222.6,186.6 				"/>
			</g>
			<g>
				<polygon class="st0" points="34.2,78.6 30.8,76.8 31.1,76.3 34.5,78.1 				"/>
			</g>
			<g>
				<polygon class="st0" points="226.2,180.4 222.8,178.6 223.1,178.1 226.4,179.9 				"/>
			</g>
			<g>
				<polygon class="st0" points="32.5,81.9 29.1,80.2 29.3,79.7 32.8,81.4 				"/>
			</g>
			<g>
				<polygon class="st0" points="227.9,177 224.5,175.3 224.7,174.8 228.2,176.5 				"/>
			</g>
			<g>
				<polygon class="st0" points="30.9,85.3 27.5,83.7 27.7,83.2 31.2,84.8 				"/>
			</g>
			<g>
				<polygon class="st0" points="229.6,173.5 226.1,171.9 226.3,171.4 229.8,173 				"/>
			</g>
			<g>
				<polygon class="st0" points="29.5,88.7 26,87.3 26.2,86.8 29.7,88.2 				"/>
			</g>
			<g>
				<polygon class="st0" points="231.1,169.9 227.5,168.5 227.8,168 231.3,169.4 				"/>
			</g>
			<g>
				<polygon class="st0" points="27,95.7 23.3,94.5 23.5,94 27.1,95.2 				"/>
			</g>
			<g>
				<polygon class="st0" points="233.7,162.7 230.1,161.5 230.3,161 233.9,162.2 				"/>
			</g>
			<g>
				<polygon class="st0" points="25.9,99.2 22.2,98.2 22.4,97.7 26,98.7 				"/>
			</g>
			<g>
				
					<rect x="232.9" y="156.4" transform="matrix(0.2752 -0.9614 0.9614 0.2752 16.815 338.8476)" class="st0" width="0.5" height="3.8"/>
			</g>
			<g>
				
					<rect x="22.9" y="100.2" transform="matrix(0.2415 -0.9704 0.9704 0.2415 -81.5352 99.9641)" class="st0" width="0.5" height="3.8"/>
			</g>
			<g>
				<polygon class="st0" points="235.9,155.3 232.2,154.4 232.3,153.9 236,154.8 				"/>
			</g>
			<g>
				
					<rect x="22.1" y="104" transform="matrix(0.2077 -0.9782 0.9782 0.2077 -85.9091 105.7144)" class="st0" width="0.5" height="3.8"/>
			</g>
			<g>
				<polygon class="st0" points="236.8,151.6 233,150.8 233.1,150.2 236.9,151 				"/>
			</g>
			<g>
				
					<rect x="20.8" y="111.4" transform="matrix(0.1389 -0.9903 0.9903 0.1389 -94.1353 118.4253)" class="st0" width="0.5" height="3.8"/>
			</g>
			<g>
				
					<rect x="236.1" y="141.5" transform="matrix(0.1389 -0.9903 0.9903 0.1389 61.4874 357.613)" class="st0" width="0.5" height="3.8"/>
			</g>
			<g>
				
					<rect x="20.3" y="115.2" transform="matrix(0.1045 -0.9945 0.9945 0.1045 -98.0535 125.3811)" class="st0" width="0.5" height="3.8"/>
			</g>
			<g>
				
					<rect x="236.6" y="137.7" transform="matrix(0.1045 -0.9945 0.9945 0.1045 73.1884 360.571)" class="st0" width="0.5" height="3.8"/>
			</g>
			<g>
				
					<rect x="20" y="118.9" transform="matrix(6.967531e-02 -0.9976 0.9976 6.967531e-02 -101.6706 132.5414)" class="st0" width="0.5" height="3.8"/>
			</g>
			<g>
				
					<rect x="236.9" y="134.1" transform="matrix(6.945883e-02 -0.9976 0.9976 6.945883e-02 85.0317 363.0749)" class="st0" width="0.5" height="3.8"/>
			</g>
			<g>
				
					<rect x="19.8" y="122.7" transform="matrix(3.504472e-02 -0.9994 0.9994 3.504472e-02 -105.2649 140.2791)" class="st0" width="0.5" height="3.8"/>
			</g>
			<g>
				
					<rect x="237.1" y="130.3" transform="matrix(3.483296e-02 -0.9994 0.9994 3.483296e-02 96.9621 364.7635)" class="st0" width="0.5" height="3.8"/>
			</g>
			<g>
				
					<rect x="18.1" y="131.9" transform="matrix(0.9994 -3.489455e-02 3.489455e-02 0.9994 -4.5992 0.7784)" class="st0" width="3.8" height="0.5"/>
			</g>
			<g>
				
					<rect x="235.4" y="124.3" transform="matrix(0.9994 -3.489455e-02 3.489455e-02 0.9994 -4.2016 8.3564)" class="st0" width="3.8" height="0.5"/>
			</g>
			<g>
				
					<rect x="18.3" y="135.6" transform="matrix(0.9976 -6.971495e-02 6.971495e-02 0.9976 -9.4219 1.7388)" class="st0" width="3.8" height="0.5"/>
			</g>
			<g>
				
					<rect x="235.3" y="120.5" transform="matrix(0.9976 -6.971495e-02 6.971495e-02 0.9976 -7.8413 16.8307)" class="st0" width="3.8" height="0.5"/>
			</g>
			<g>
				
					<rect x="18.6" y="139.4" transform="matrix(0.9945 -0.1046 0.1046 0.9945 -14.4949 2.9104)" class="st0" width="3.8" height="0.5"/>
			</g>
			<g>
				
					<rect x="234.9" y="116.7" transform="matrix(0.9945 -0.1052 0.1052 0.9945 -10.9892 25.5603)" class="st0" width="3.8" height="0.5"/>
			</g>
			<g>
				
					<rect x="19.1" y="143.2" transform="matrix(0.9902 -0.1395 0.1395 0.9902 -19.8059 4.3322)" class="st0" width="3.8" height="0.5"/>
			</g>
			<g>
				
					<rect x="234.4" y="113" transform="matrix(0.9902 -0.1395 0.1395 0.9902 -13.4878 34.0712)" class="st0" width="3.8" height="0.5"/>
			</g>
			<g>
				<polygon class="st0" points="20.5,151.6 20.4,151 24.1,150.2 24.2,150.8 				"/>
			</g>
			<g>
				<polygon class="st0" points="233.1,106.5 233,105.9 236.8,105.1 236.9,105.7 				"/>
			</g>
			<g>
				
					<rect x="21.2" y="154.3" transform="matrix(0.9702 -0.2424 0.2424 0.9702 -36.7738 10.2085)" class="st0" width="3.8" height="0.5"/>
			</g>
			<g>
				<polygon class="st0" points="232.3,102.8 232.2,102.3 235.9,101.4 236,101.9 				"/>
			</g>
			<g>
				<polygon class="st0" points="22.4,159 22.2,158.5 25.9,157.5 26,158 				"/>
			</g>
			<g>
				<polygon class="st0" points="231.4,99.2 231.2,98.7 234.9,97.7 235,98.2 				"/>
			</g>
			<g>
				<polygon class="st0" points="23.5,162.7 23.3,162.2 27,161 27.1,161.5 				"/>
			</g>
			<g>
				<polygon class="st0" points="230.3,95.7 230.1,95.2 233.7,94 233.9,94.5 				"/>
			</g>
			<g>
				<polygon class="st0" points="26.2,169.9 26,169.4 29.5,168 29.7,168.5 				"/>
			</g>
			<g>
				<polygon class="st0" points="227.8,88.7 227.5,88.2 231.1,86.8 231.3,87.3 				"/>
			</g>
			<g>
				<polygon class="st0" points="27.7,173.5 27.5,173 30.9,171.4 31.2,171.9 				"/>
			</g>
			<g>
				<polygon class="st0" points="226.3,85.3 226.1,84.8 229.6,83.2 229.8,83.7 				"/>
			</g>
			<g>
				<polygon class="st0" points="29.3,177 29.1,176.5 32.5,174.8 32.8,175.3 				"/>
			</g>
			<g>
				<polygon class="st0" points="224.7,81.9 224.5,81.4 227.9,79.7 228.2,80.2 				"/>
			</g>
			<g>
				<polygon class="st0" points="31.1,180.4 30.8,179.9 34.2,178.1 34.5,178.6 				"/>
			</g>
			<g>
				<polygon class="st0" points="223.1,78.6 222.8,78.1 226.2,76.3 226.4,76.8 				"/>
			</g>
			<g>
				<polygon class="st0" points="35,187.1 34.7,186.6 37.9,184.6 38.2,185 				"/>
			</g>
			<g>
				<polygon class="st0" points="219.3,72.1 219.1,71.7 222.3,69.6 222.6,70.1 				"/>
			</g>
			<g>
				<polygon class="st0" points="37.1,190.3 36.8,189.8 39.9,187.7 40.2,188.2 				"/>
			</g>
			<g>
				<polygon class="st0" points="217.3,69 217,68.5 220.2,66.4 220.5,66.9 				"/>
			</g>
			<g>
				<polygon class="st0" points="39.3,193.4 39,193 42.1,190.8 42.4,191.2 				"/>
			</g>
			<g>
				<polygon class="st0" points="215.2,65.9 214.9,65.5 217.9,63.3 218.3,63.7 				"/>
			</g>
			<g>
				<polygon class="st0" points="41.6,196.5 41.3,196.1 44.3,193.7 44.6,194.2 				"/>
			</g>
			<g>
				<polygon class="st0" points="213,63 212.6,62.5 215.6,60.2 216,60.6 				"/>
			</g>
			<g>
				<polygon class="st0" points="46.6,202.4 46.2,202 49.1,199.4 49.4,199.8 				"/>
			</g>
			<g>
				<polygon class="st0" points="208.2,57.3 207.8,56.8 210.6,54.3 211,54.7 				"/>
			</g>
			<g>
				<polygon class="st0" points="49.3,205.2 48.9,204.8 51.6,202.2 52,202.6 				"/>
			</g>
			<g>
				<polygon class="st0" points="205.6,54.5 205.3,54.1 208,51.5 208.4,51.9 				"/>
			</g>
			<g>
				<polygon class="st0" points="52,207.9 51.6,207.5 54.2,204.8 54.6,205.2 				"/>
			</g>
			<g>
				<polygon class="st0" points="203,51.9 202.6,51.5 205.3,48.8 205.7,49.2 				"/>
			</g>
			<g>
				<polygon class="st0" points="54.8,210.5 54.4,210.2 57,207.3 57.4,207.7 				"/>
			</g>
			<g>
				<polygon class="st0" points="200.3,49.3 199.9,49 202.4,46.2 202.8,46.5 				"/>
			</g>
			<g>
				<polygon class="st0" points="60.7,215.5 60.3,215.1 62.7,212.1 63.1,212.5 				"/>
			</g>
			<g>
				<polygon class="st0" points="194.6,44.6 194.2,44.2 196.5,41.2 196.9,41.6 				"/>
			</g>
			<g>
				<polygon class="st0" points="63.8,217.8 63.4,217.5 65.6,214.4 66.1,214.7 				"/>
			</g>
			<g>
				<polygon class="st0" points="191.6,42.3 191.2,42 193.4,38.9 193.9,39.2 				"/>
			</g>
			<g>
				<polygon class="st0" points="67,220 66.5,219.7 68.7,216.5 69.1,216.8 				"/>
			</g>
			<g>
				<polygon class="st0" points="188.6,40.2 188.1,39.9 190.2,36.7 190.7,37 				"/>
			</g>
			<g>
				<polygon class="st0" points="70.2,222.1 69.8,221.8 71.8,218.6 72.3,218.8 				"/>
			</g>
			<g>
				<polygon class="st0" points="185.5,38.1 185,37.8 187,34.6 187.5,34.9 				"/>
			</g>
			<g>
				<polygon class="st0" points="76.9,225.9 76.5,225.6 78.2,222.3 78.7,222.5 				"/>
			</g>
			<g>
				<polygon class="st0" points="179,34.4 178.5,34.1 180.3,30.8 180.8,31 				"/>
			</g>
			<g>
				<polygon class="st0" points="80.4,227.6 79.9,227.4 81.6,224 82.1,224.2 				"/>
			</g>
			<g>
				<polygon class="st0" points="175.7,32.7 175.2,32.5 176.9,29 177.4,29.3 				"/>
			</g>
			<g>
				<polygon class="st0" points="83.9,229.3 83.4,229 84.9,225.6 85.4,225.8 				"/>
			</g>
			<g>
				<polygon class="st0" points="172.3,31.1 171.8,30.9 173.4,27.4 173.9,27.6 				"/>
			</g>
			<g>
				<polygon class="st0" points="87.4,230.8 86.9,230.6 88.4,227 88.9,227.2 				"/>
			</g>
			<g>
				<polygon class="st0" points="168.9,29.7 168.4,29.5 169.8,25.9 170.3,26.1 				"/>
			</g>
			<g>
				<polygon class="st0" points="94.7,233.4 94.2,233.2 95.4,229.6 95.9,229.8 				"/>
			</g>
			<g>
				<polygon class="st0" points="161.9,27.1 161.4,26.9 162.5,23.3 163.1,23.5 				"/>
			</g>
			<g>
				<polygon class="st0" points="98.4,234.5 97.9,234.3 98.9,230.7 99.5,230.8 				"/>
			</g>
			<g>
				<polygon class="st0" points="158.3,26 157.8,25.9 158.8,22.2 159.4,22.3 				"/>
			</g>
			<g>
				<polygon class="st0" points="102.1,235.5 101.6,235.3 102.5,231.7 103.1,231.8 				"/>
			</g>
			<g>
				<polygon class="st0" points="154.7,25 154.2,24.9 155.1,21.2 155.6,21.3 				"/>
			</g>
			<g>
				
					<rect x="104.1" y="234.2" transform="matrix(0.2077 -0.9782 0.9782 0.2077 -145.3698 289.5012)" class="st0" width="3.8" height="0.5"/>
			</g>
			<g>
				<polygon class="st0" points="151.1,24.2 150.6,24.1 151.4,20.4 151.9,20.5 				"/>
			</g>
			<g>
				
					<rect x="111.6" y="235.5" transform="matrix(0.1389 -0.9903 0.9903 0.1389 -135.663 315.3871)" class="st0" width="3.8" height="0.5"/>
			</g>
			<g>
				
					<rect x="142" y="20.7" transform="matrix(0.1389 -0.9903 0.9903 0.1389 103.1443 160.5035)" class="st0" width="3.8" height="0.5"/>
			</g>
			<g>
				
					<rect x="115.5" y="235.9" transform="matrix(0.1042 -0.9946 0.9946 0.1042 -129.7062 328.2644)" class="st0" width="3.8" height="0.5"/>
			</g>
			<g>
				
					<rect x="138.1" y="20.2" transform="matrix(0.1042 -0.9946 0.9946 0.1042 105.1217 157.5227)" class="st0" width="3.8" height="0.5"/>
			</g>
			<g>
				
					<rect x="119.2" y="236.3" transform="matrix(6.944160e-02 -0.9976 0.9976 6.944160e-02 -123.3132 340.8837)" class="st0" width="3.8" height="0.5"/>
			</g>
			<g>
				
					<rect x="134.4" y="20" transform="matrix(6.944160e-02 -0.9976 0.9976 6.944160e-02 106.6762 154.7641)" class="st0" width="3.8" height="0.5"/>
			</g>
			<g>
				
					<rect x="130.6" y="19.7" transform="matrix(3.527586e-02 -0.9994 0.9994 3.527586e-02 107.8095 151.6629)" class="st0" width="3.8" height="0.5"/>
			</g>
		</g>
	</g>
</g>
</svg>
