<?xml version="1.0" encoding="utf-8"?>
<!-- Generator: Adobe Illustrator 25.0.1, SVG Export Plug-In . SVG Version: 6.00 Build 0)  -->
<svg version="1.1" id="Layer_1" xmlns="http://www.w3.org/2000/svg" xmlns:xlink="http://www.w3.org/1999/xlink" x="0px" y="0px"
	 viewBox="0 0 367.8 367.8" style="enable-background:new 0 0 367.8 367.8;" xml:space="preserve">
<style type="text/css">
	.st0{fill:none;stroke:#938E94;stroke-width:0.3083;stroke-miterlimit:10;}
	.st1{fill:none;stroke:#938E94;stroke-width:0.3041;stroke-miterlimit:10;}
	.st2{fill:none;stroke:#938E94;stroke-width:0.2;stroke-miterlimit:10.0022;}
	.st3{fill:none;stroke:#938E94;stroke-width:0.5;stroke-miterlimit:10.0022;}
	.st4{fill:#938E94;}
	.st5{fill:#938E94;stroke:#938E94;stroke-width:2.521734e-03;stroke-miterlimit:10.0015;}
	.st6{fill:#938E94;stroke:#938E94;stroke-width:2.521268e-03;stroke-miterlimit:9.9996;}
	.st7{fill:#938E94;stroke:#938E94;stroke-width:3.986762e-03;stroke-miterlimit:10.0004;}
	.st8{fill:#938E94;stroke:#938E94;stroke-width:2.521518e-03;stroke-miterlimit:10.0009;}
	.st9{fill:#938E94;stroke:#938E94;stroke-width:3.465795e-03;stroke-miterlimit:10.0015;}
	.st10{fill:#938E94;stroke:#938E94;stroke-width:3.464921e-03;stroke-miterlimit:9.9989;}
	.st11{fill:#938E94;stroke:#938E94;stroke-width:2.521368e-03;stroke-miterlimit:10.0003;}
	.st12{fill:#938E94;stroke:#938E94;stroke-width:3.986827e-03;stroke-miterlimit:10.0006;}
	.st13{fill:#938E94;stroke:#938E94;stroke-width:2.520868e-03;stroke-miterlimit:9.9981;}
	.st14{fill:#938E94;stroke:#938E94;stroke-width:3.465601e-03;stroke-miterlimit:10.0011;}
	.st15{fill:#938E94;stroke:#938E94;stroke-width:2.521142e-03;stroke-miterlimit:9.9992;}
	.st16{fill:#938E94;stroke:#938E94;stroke-width:3.986584e-03;stroke-miterlimit:10;}
	.st17{fill:#938E94;stroke:#938E94;stroke-width:2.521053e-03;stroke-miterlimit:9.9989;}
	.st18{fill:#938E94;stroke:#938E94;stroke-width:2.521417e-03;stroke-miterlimit:10.0003;}
	.st19{fill:#938E94;stroke:#938E94;stroke-width:2.521235e-03;stroke-miterlimit:9.9995;}
	.st20{fill:#938E94;stroke:#938E94;stroke-width:2.521722e-03;stroke-miterlimit:10.0015;}
	.st21{fill:#938E94;stroke:#938E94;stroke-width:2.521720e-03;stroke-miterlimit:10.0014;}
	.st22{fill:#938E94;stroke:#938E94;stroke-width:2.521426e-03;stroke-miterlimit:10.0004;}
	.st23{fill:#938E94;stroke:#938E94;stroke-width:2.521245e-03;stroke-miterlimit:9.9994;}
	.st24{fill:#938E94;stroke:#938E94;stroke-width:3.986931e-03;stroke-miterlimit:10.0008;}
	.st25{fill:#938E94;stroke:#938E94;stroke-width:2.521292e-03;stroke-miterlimit:10;}
	.st26{fill:#938E94;stroke:#938E94;stroke-width:3.338332e-03;stroke-miterlimit:10.0006;}
	.st27{fill:#938E94;stroke:#938E94;stroke-width:3.338124e-03;stroke-miterlimit:10;}
	.st28{fill:#938E94;stroke:#938E94;stroke-width:2.520986e-03;stroke-miterlimit:9.9987;}
	.st29{fill:#938E94;stroke:#938E94;stroke-width:3.986397e-03;stroke-miterlimit:9.9997;}
	.st30{fill:#938E94;stroke:#938E94;stroke-width:2.521481e-03;stroke-miterlimit:10.0004;}
	.st31{fill:#938E94;stroke:#938E94;stroke-width:3.465270e-03;stroke-miterlimit:10;}
	.st32{fill:#938E94;stroke:#938E94;stroke-width:2.521551e-03;stroke-miterlimit:10.0009;}
	.st33{fill:#938E94;stroke:#938E94;stroke-width:3.986193e-03;stroke-miterlimit:9.999;}
	.st34{fill:#938E94;stroke:#938E94;stroke-width:2.521374e-03;stroke-miterlimit:10.0001;}
	.st35{fill:#938E94;stroke:#938E94;stroke-width:3.464852e-03;stroke-miterlimit:9.999;}
	.st36{fill:#938E94;stroke:#938E94;stroke-width:3.986922e-03;stroke-miterlimit:10.0009;}
	.st37{fill:#938E94;stroke:#938E94;stroke-width:2.520992e-03;stroke-miterlimit:9.9986;}
	.st38{fill:#938E94;stroke:#938E94;stroke-width:2.521006e-03;stroke-miterlimit:9.9986;}
	.st39{fill:#938E94;stroke:#938E94;stroke-width:3.986113e-03;stroke-miterlimit:9.9989;}
	.st40{fill:#938E94;stroke:#938E94;stroke-width:2.521558e-03;stroke-miterlimit:10.0008;}
	.st41{fill:#938E94;stroke:#938E94;stroke-width:2.521677e-03;stroke-miterlimit:10.0013;}
	.st42{fill:#938E94;stroke:#938E94;stroke-width:2.521222e-03;stroke-miterlimit:9.9996;}
	.st43{fill:#938E94;stroke:#938E94;stroke-width:3.465008e-03;stroke-miterlimit:9.9993;}
	.st44{fill:#938E94;stroke:#938E94;stroke-width:2.521245e-03;stroke-miterlimit:9.9997;}
	.st45{fill:#938E94;stroke:#938E94;stroke-width:3.987073e-03;stroke-miterlimit:10.0012;}
	.st46{fill:#938E94;stroke:#938E94;stroke-width:2.521418e-03;stroke-miterlimit:10.0002;}
	.st47{fill:#938E94;stroke:#938E94;stroke-width:3.465231e-03;stroke-miterlimit:10.0002;}
	.st48{fill:#938E94;stroke:#938E94;stroke-width:2.521174e-03;stroke-miterlimit:9.9996;}
	.st49{fill:#938E94;stroke:#938E94;stroke-width:3.987246e-03;stroke-miterlimit:10.0017;}
	.st50{fill:#938E94;stroke:#938E94;stroke-width:2.521642e-03;stroke-miterlimit:10.0014;}
	.st51{fill:#938E94;stroke:#938E94;stroke-width:3.986954e-03;stroke-miterlimit:10.001;}
	.st52{fill:#938E94;stroke:#938E94;stroke-width:2.520967e-03;stroke-miterlimit:9.9984;}
	.st53{fill:#938E94;stroke:#938E94;stroke-width:3.465590e-03;stroke-miterlimit:10.0008;}
	.st54{fill:#938E94;stroke:#938E94;stroke-width:2.521107e-03;stroke-miterlimit:9.9992;}
	.st55{fill:#938E94;stroke:#938E94;stroke-width:3.987229e-03;stroke-miterlimit:10.0015;}
	.st56{fill:#938E94;stroke:#938E94;stroke-width:3.673766e-03;stroke-miterlimit:10;}
	.st57{fill:#938E94;stroke:#938E94;stroke-width:3.985883e-03;stroke-miterlimit:9.9983;}
	.st58{fill:#938E94;stroke:#938E94;stroke-width:2.521248e-03;stroke-miterlimit:9.9997;}
	.st59{fill:#938E94;stroke:#938E94;stroke-width:3.465271e-03;stroke-miterlimit:10;}
	.st60{fill:#938E94;stroke:#938E94;stroke-width:2.521652e-03;stroke-miterlimit:10.0011;}
	.st61{fill:#938E94;stroke:#938E94;stroke-width:3.986851e-03;stroke-miterlimit:10.0006;}
	.st62{fill:#938E94;stroke:#938E94;stroke-width:2.521388e-03;stroke-miterlimit:10.0004;}
	.st63{fill:#938E94;stroke:#938E94;stroke-width:3.465604e-03;stroke-miterlimit:10.001;}
	.st64{fill:#938E94;stroke:#938E94;stroke-width:2.521210e-03;stroke-miterlimit:9.9996;}
	.st65{fill:#938E94;stroke:#938E94;stroke-width:3.986415e-03;stroke-miterlimit:9.9995;}
	.st66{fill:#938E94;stroke:#938E94;stroke-width:2.521657e-03;stroke-miterlimit:10.0012;}
	.st67{fill:#938E94;stroke:#938E94;stroke-width:3.582385e-03;stroke-miterlimit:9.9986;}
	.st68{fill:#938E94;stroke:#938E94;stroke-width:2.521349e-03;stroke-miterlimit:10;}
	.st69{fill:#938E94;stroke:#938E94;stroke-width:3.987061e-03;stroke-miterlimit:10.0013;}
	.st70{fill:#938E94;stroke:#938E94;stroke-width:2.521149e-03;stroke-miterlimit:9.9993;}
	.st71{fill:#938E94;stroke:#938E94;stroke-width:3.465404e-03;stroke-miterlimit:10.0005;}
	.st72{fill:#938E94;stroke:#938E94;stroke-width:2.521458e-03;stroke-miterlimit:10.0004;}
	.st73{fill:#938E94;stroke:#938E94;stroke-width:3.986708e-03;stroke-miterlimit:10.0003;}
	.st74{fill:#938E94;stroke:#938E94;stroke-width:3.986850e-03;stroke-miterlimit:10.0006;}
	.st75{fill:#938E94;stroke:#938E94;stroke-width:2.521224e-03;stroke-miterlimit:9.9996;}
	.st76{fill:#938E94;stroke:#938E94;stroke-width:3.465762e-03;stroke-miterlimit:10.0015;}
	.st77{fill:#938E94;stroke:#938E94;stroke-width:2.521101e-03;stroke-miterlimit:9.9991;}
	.st78{fill:#938E94;stroke:#938E94;stroke-width:2.521203e-03;stroke-miterlimit:9.9993;}
	.st79{fill:#938E94;stroke:#938E94;stroke-width:3.583357e-03;stroke-miterlimit:10.0015;}
	.st80{fill:#938E94;stroke:#938E94;stroke-width:2.520808e-03;stroke-miterlimit:9.998;}
	.st81{fill:#938E94;stroke:#938E94;stroke-width:3.986413e-03;stroke-miterlimit:9.9995;}
	.st82{fill:#938E94;stroke:#938E94;stroke-width:2.521458e-03;stroke-miterlimit:10.0007;}
	.st83{fill:#938E94;stroke:#938E94;stroke-width:3.465115e-03;stroke-miterlimit:9.9997;}
	.st84{fill:#938E94;stroke:#938E94;stroke-width:2.521548e-03;stroke-miterlimit:10.0009;}
	.st85{fill:#938E94;stroke:#938E94;stroke-width:3.986527e-03;stroke-miterlimit:9.9998;}
	.st86{fill:#938E94;stroke:#938E94;stroke-width:2.521486e-03;stroke-miterlimit:10.0007;}
	.st87{fill:#938E94;stroke:#938E94;stroke-width:3.464877e-03;stroke-miterlimit:9.999;}
	.st88{fill:#938E94;stroke:#938E94;stroke-width:2.521774e-03;stroke-miterlimit:10.0017;}
	.st89{fill:#938E94;stroke:#938E94;stroke-width:3.986570e-03;stroke-miterlimit:10.0001;}
	.st90{fill:#938E94;stroke:#938E94;stroke-width:2.521666e-03;stroke-miterlimit:10.0012;}
	.st91{fill:#938E94;stroke:#938E94;stroke-width:3.582821e-03;stroke-miterlimit:10;}
	.st92{fill:#938E94;stroke:#938E94;stroke-width:2.521497e-03;stroke-miterlimit:10.0005;}
	.st93{fill:#938E94;stroke:#938E94;stroke-width:3.986525e-03;stroke-miterlimit:9.9998;}
</style>
<circle class="st0" cx="183.9" cy="183.9" r="183.8"/>
<circle class="st1" cx="183.9" cy="183.9" r="181.3"/>
<ellipse transform="matrix(0.0624 -0.9981 0.9981 0.0624 -8.8502 351.4869)" class="st2" cx="182.65" cy="180.45" rx="160.32" ry="160.42"/>
<ellipse transform="matrix(0.0624 -0.9981 0.9981 0.0624 -7.5194 350.4747)" class="st3" cx="182.78" cy="179.24" rx="163.92" ry="164.02"/>
<path class="st4" d="M303.4,299.8l-0.5,0.6c-0.1,0.1-0.1,0.1-0.1,0.2s0,0.1,0.1,0.2l4.7,4.6c0.1,0.1,0.1,0.1,0.2,0.1s0.1,0,0.2-0.1
	l0.5-0.6l0.3,0.2l-2.8,2.8c-0.3,0.4-0.7,0.7-1.1,0.7c-0.4,0.2-0.8,0.3-1.1,0.1c-0.4,0-0.7-0.2-1-0.6c-0.3-0.3-0.5-0.6-0.5-1
	c-0.1-0.4-0.1-0.8,0.2-1.2c0.1-0.4,0.4-0.8,0.8-1.2l0.8-0.9l-2.2-2.1c-0.1-0.1-0.1-0.1-0.2-0.1s-0.1,0-0.2,0.1l-0.6,0.7l-0.3-0.2
	l2.8-2.8L303.4,299.8z M303.4,305.1c-0.3,0.3-0.3,0.6-0.2,0.9c0.1,0.3,0.4,0.7,0.7,1c0.4,0.4,0.8,0.6,1.1,0.8c0.3,0.1,0.6,0,0.9-0.3
	l0.5-0.6c0.1-0.1,0.1-0.1,0.1-0.2s0-0.1-0.1-0.2l-2.2-2.2L303.4,305.1z"/>
<path class="st4" d="M298.2,305l-0.3,0.3l-0.1,0.1c0,0,0,0.1,0.1,0.1l2.9,3.2l0.1,0.1c0,0,0.1,0,0.1-0.1l0.3-0.3l0.2,0.2l-1.4,1.2
	l-0.8-0.7l0,0c0.2,0.3,0.3,0.6,0.2,1c0,0.3-0.1,0.6-0.2,0.8c-0.2,0.2-0.4,0.3-0.6,0.3c-0.3,0-0.5-0.1-0.7-0.3
	c-0.2-0.2-0.3-0.4-0.3-0.6s0-0.4,0.2-0.6c0.1-0.1,0.3-0.2,0.5-0.2s0.3,0,0.5,0.2c0.1,0.1,0.2,0.3,0.2,0.6c0,0.2,0,0.2,0.1,0.3
	c0.1,0.1,0.1,0,0.2,0c0.1-0.1,0.1-0.3,0.1-0.5c0-0.3-0.2-0.5-0.3-0.8c-0.2-0.3-0.4-0.6-0.7-0.9l-1.5-1.6l-0.1-0.1c0,0-0.1,0-0.1,0.1
	l-0.2,0.3l-0.2-0.2l1.7-1.6L298.2,305z"/>
<path class="st4" d="M293.8,308.8c0.4-0.1,0.8,0,1.3,0.2c0.4,0.2,0.8,0.4,1.2,0.9c0.4,0.4,0.6,0.8,0.6,1.2s0.2,0.9,0,1.3
	c-0.1,0.4-0.3,0.7-0.6,1c-0.3,0.3-0.6,0.4-1,0.4c-0.4,0.1-0.8,0-1.3-0.2c-0.4-0.2-0.8-0.4-1.2-0.9c-0.4-0.4-0.6-0.8-0.6-1.2
	c-0.1-0.4-0.2-0.9,0-1.3s0.3-0.7,0.6-1C293.1,309.1,293.4,308.9,293.8,308.8z M292.8,310.4c0.2,0.4,0.6,0.8,1.1,1.6
	c0.6,0.6,1,1.1,1.3,1.3c0.4,0.2,0.6,0.2,0.9,0c0.2-0.2,0.2-0.5,0.1-0.9c-0.2-0.4-0.6-0.8-1.1-1.6c-0.6-0.6-1-1.1-1.3-1.3
	c-0.4-0.2-0.6-0.2-0.9,0C292.7,309.8,292.6,310,292.8,310.4z"/>
<path class="st4" d="M289.6,309.4c0.3,0,0.6,0.1,0.9,0.4c0.2,0.2,0.2,0.4,0.2,0.6s-0.1,0.4-0.2,0.6c-0.1,0.1-0.3,0.2-0.4,0.2
	c-0.2,0-0.3,0-0.4-0.2c-0.2-0.2-0.2-0.4-0.2-0.7c0-0.2,0-0.3-0.1-0.4s-0.1-0.1-0.2-0.1s-0.2,0.1-0.2,0.1c-0.1,0.1-0.1,0.3-0.1,0.5
	c0.1,0.2,0.3,0.5,0.7,0.9l3.6,4.3l0.1,0.1c0,0,0.1,0,0.1-0.1l0.4-0.4l0.2,0.2l-1.6,1.3l-3.6-4.3c-0.3-0.3-0.5-0.7-0.5-1
	s-0.1-0.7,0.1-1s0.2-0.6,0.5-0.8C288.9,309.5,289.2,309.4,289.6,309.4z M294,317.1c0.2,0,0.4,0.1,0.6,0.3s0.2,0.4,0.2,0.6
	s-0.1,0.4-0.3,0.6c-0.2,0.2-0.4,0.2-0.6,0.2s-0.4-0.1-0.6-0.3s-0.2-0.4-0.2-0.6s0.1-0.4,0.3-0.6C293.5,317.1,293.8,317.1,294,317.1z
	"/>
<path class="st4" d="M287.1,314.6c0.4-0.1,0.8,0,1.3,0.3c0.4,0.2,0.8,0.5,1.1,0.9c0.3,0.4,0.6,0.8,0.6,1.2c0.1,0.4,0.1,0.9-0.1,1.3
	c-0.1,0.4-0.3,0.7-0.7,1c-0.3,0.3-0.7,0.4-1.2,0.3c-0.4,0-0.9-0.2-1.3-0.6c-0.2-0.1-0.5-0.4-0.8-0.8l2.1-1.7
	c-0.2-0.3-0.4-0.5-0.6-0.6c-0.1-0.1-0.3-0.3-0.5-0.4c-0.2-0.2-0.5-0.2-0.7-0.2s-0.5,0.1-0.6,0.2c-0.3,0.2-0.4,0.5-0.3,0.9
	c0,0.4,0.2,0.7,0.3,1.1l-0.2,0.2c-0.3-0.4-0.5-0.8-0.4-1.3c0-0.5,0.1-0.9,0.7-1.3C286.3,314.7,286.7,314.7,287.1,314.6z
	 M287.3,317.6c0.5,0.6,0.8,1,1.1,1.3c0.3,0.2,0.6,0.2,0.8,0s0.2-0.4,0-0.8c-0.2-0.3-0.5-0.8-0.9-1.5L287.3,317.6z"/>
<path class="st4" d="M283.1,317.7c0.4,0,0.8,0,1.3,0.3c0.4,0.2,0.8,0.5,1.1,1s0.5,0.8,0.5,1.2s0.1,0.9-0.1,1.3
	c-0.1,0.4-0.3,0.8-0.8,1c-0.3,0.2-0.5,0.4-0.8,0.4s-0.5,0-0.8-0.1c-0.2-0.1-0.4-0.2-0.6-0.4s-0.2-0.4-0.2-0.7c0-0.2,0.1-0.4,0.3-0.6
	c0.1-0.1,0.3-0.2,0.4-0.2s0.3,0.1,0.4,0.2c0.1,0.2,0.2,0.4,0.1,0.7c0,0.2,0,0.4,0.1,0.5s0.2,0.2,0.4,0.2c0.2,0,0.3,0,0.5-0.2
	c0.3-0.2,0.3-0.5,0.3-1c-0.2-0.4-0.5-0.9-0.9-1.6c-0.2-0.3-0.4-0.5-0.6-0.7c-0.1-0.2-0.3-0.3-0.5-0.4c-0.2-0.2-0.5-0.2-0.7-0.3
	c-0.2,0-0.5,0.1-0.6,0.2c-0.3,0.2-0.4,0.5-0.4,0.9s0.2,0.7,0.3,1.1l-0.2,0.2c-0.3-0.4-0.4-0.9-0.4-1.3c0-0.5,0.2-0.9,0.7-1.2
	C282.2,317.8,282.6,317.8,283.1,317.7z"/>
<path class="st4" d="M279.3,320.5c0.3,0,0.6,0.2,0.9,0.5l2,2.9l0.5-0.4l0.2,0.2c-0.3,0.3-0.5,0.7-0.6,1c0,0.4,0.1,0.8,0.3,1.1
	l0.2,0.3l-0.4,0.3l-1.2-1.7l-0.9,0.7l-0.2-0.2l0.9-0.7l-2.1-3c-0.1-0.2-0.3-0.3-0.4-0.4s-0.3,0-0.4,0.1c-0.2,0.2-0.3,0.5-0.1,0.9
	c0.2,0.4,0.4,0.8,0.6,1.2l-0.2,0.2c-0.3-0.3-0.5-0.6-0.6-0.9c-0.2-0.3-0.3-0.6-0.3-0.8c0-0.4,0.1-0.8,0.6-1.1
	C278.6,320.6,279,320.4,279.3,320.5z"/>
<path class="st4" d="M277.6,323.8l-0.2,0.1l-0.9-0.4c-0.7-0.3-1.3-0.4-1.8,0c-0.2,0.2-0.3,0.3-0.4,0.5c0,0.2,0,0.3,0.1,0.5
	c0.1,0.1,0.2,0.2,0.3,0.2c0.1,0,0.3,0,0.5,0s0.5-0.1,1,0c0.5-0.1,1,0,1.4,0s0.8,0.2,1,0.7c0.3,0.4,0.4,0.7,0.2,1.1
	c-0.1,0.4-0.3,0.7-0.6,0.9c-0.3,0.2-0.6,0.3-1.1,0.3c-0.2,0-0.3,0-0.3,0.1c-0.1,0.1-0.1,0.1,0,0.2l0.1,0.2l-0.2,0.1l-0.9-1.5
	l0.2-0.1l0.4,0.2c0.4,0.2,0.7,0.3,1.1,0.4c0.3,0,0.6-0.1,0.8-0.2c0.2-0.1,0.3-0.3,0.3-0.4c0-0.2,0-0.3-0.1-0.5
	c-0.3-0.3-0.8-0.4-1.6-0.4c-0.5,0.1-0.9,0.2-1.2,0.1c-0.3,0-0.6,0-0.8-0.1c-0.2-0.1-0.4-0.3-0.6-0.5c-0.3-0.4-0.4-0.7-0.2-1.1
	c0.1-0.4,0.3-0.7,0.7-1c0.3-0.2,0.7-0.3,1.1-0.3c0.2,0,0.3,0,0.4-0.1s0.1-0.1,0.2-0.2c0-0.1,0-0.2,0-0.3l-0.1-0.2l0.2-0.1
	L277.6,323.8z"/>
<path class="st4" d="M189.5,357.6c0.1,0.2,0.2,0.4,0.4,0.5s0.4,0.1,0.7,0.1h0.2v0.3h-3.5v-0.3h0.3c0.1,0,0.2,0,0.2-0.1
	c0.1-0.1,0.1-0.2,0.1-0.3c0-0.1,0-0.2-0.1-0.3l-1.5-4.2l-1,3.5l0.3,0.7c0.1,0.2,0.2,0.4,0.3,0.5s0.3,0.1,0.6,0.1h0.2v0.3l-3.6,0.1
	v-0.3h0.5c0.1,0,0.2,0,0.2-0.1c0.1-0.1,0.1-0.1,0.1-0.2s0-0.2,0-0.2l-1.5-4.2l-0.9,3.6c0,0.1,0,0.1,0,0.3c0,0.1,0,0.2,0,0.3
	c0,0.2,0.1,0.3,0.2,0.4c0.1,0.1,0.3,0.2,0.5,0.2h0.5v0.3h-2.9v-0.3h0.3c0.5,0,0.8-0.4,1.1-1l1.8-6.6h0.5l1.9,5.5l1.5-5.5h0.5
	L189.5,357.6z"/>
<path class="st4" d="M179,351.3c0.3,0.2,0.6,0.5,0.8,0.9s0.3,0.9,0.2,1.4c0,0.5-0.2,1-0.4,1.4s-0.5,0.7-0.9,1
	c-0.3,0.2-0.7,0.4-1.1,0.3c-0.4,0-0.8-0.1-1.1-0.4c-0.3-0.2-0.6-0.5-0.8-0.9s-0.3-0.9-0.2-1.4c0-0.5,0.2-1,0.4-1.4s0.5-0.7,0.9-1
	c0.3-0.2,0.7-0.4,1.1-0.3C178.3,350.8,178.6,351,179,351.3z M177.2,351.7c-0.1,0.4-0.3,1-0.2,1.9c0,0.9,0,1.5,0.1,1.9
	s0.4,0.6,0.7,0.6s0.5-0.2,0.6-0.6s0.3-1,0.2-1.9c0-0.9,0-1.5-0.1-1.9s-0.3-0.6-0.7-0.6C177.5,351.1,177.4,351.3,177.2,351.7z"/>
<path class="st4" d="M174.8,351.2h-0.4c-0.1,0-0.1,0-0.1,0v0.1l-0.2,4.3c0,0.1,0,0.1,0,0.1h0.1h0.4v0.3l-1.8-0.1l0.1-1.1h-0.1
	c-0.1,0.3-0.3,0.6-0.5,0.9c-0.2,0.2-0.5,0.4-0.7,0.4c-0.3,0-0.5-0.1-0.6-0.3c-0.2-0.2-0.2-0.4-0.2-0.7c0-0.3,0.1-0.5,0.2-0.7
	c0.2-0.2,0.3-0.3,0.6-0.3c0.2,0,0.4,0.1,0.5,0.2s0.2,0.3,0.2,0.4c0,0.2-0.1,0.4-0.3,0.6c-0.1,0.1-0.2,0.2-0.2,0.2
	c0,0.1,0,0.1,0.1,0.1s0.3-0.1,0.4-0.3c0.1-0.2,0.3-0.5,0.4-0.8c0.1-0.3,0.1-0.7,0.2-1.1l0.1-2.2c0-0.1,0-0.1,0-0.1h-0.1h-0.3v-0.3
	l2.4,0.1L174.8,351.2z"/>
<path class="st4" d="M170.3,350.9h-0.6c-0.1,0-0.1,0-0.1,0v0.1l-0.6,6.9c0,0.1,0,0.1,0,0.1h0.1h0.6v0.3l-2-0.2l0.5-5.4l-1.6,1.6
	c-0.2,0.2-0.2,0.3-0.2,0.5c0,0.1,0,0.2,0.1,0.2c0.1,0.1,0.1,0.1,0.2,0.1h0.3v0.3l-2.1-0.2v-0.3h0.2c0.2,0,0.3,0,0.5-0.2
	c0.1-0.1,0.3-0.3,0.5-0.5l0.7-0.8l-1.4-2.9c-0.1-0.1-0.1-0.2-0.2-0.3c-0.1-0.1-0.1-0.1-0.2-0.1h-0.2v-0.3l2.5,0.2v0.3h-0.2
	c-0.1,0-0.1,0-0.2,0.1c-0.1,0-0.1,0.1-0.1,0.2c0,0.2,0,0.3,0.1,0.5l0.7,1.5l0.5-0.6l0.2-1.4c0-0.1,0-0.1,0-0.1s-0.1,0-0.2,0h-0.4
	v-0.3l2.6,0.2L170.3,350.9z"/>
<path class="st4" d="M163.7,352.1h-0.2l-0.5-0.9c-0.3-0.7-0.7-1.1-1.3-1.2c-0.3,0-0.5,0-0.6,0.2c-0.1,0.1-0.2,0.3-0.2,0.4
	s0,0.3,0.1,0.4s0.2,0.2,0.4,0.4c0.2,0.1,0.5,0.3,0.8,0.5c0.4,0.3,0.8,0.5,1.1,0.9c0.3,0.3,0.4,0.7,0.3,1.1c0,0.4-0.2,0.8-0.6,1
	c-0.3,0.2-0.7,0.4-1.1,0.2c-0.3,0-0.7-0.2-1.1-0.5c-0.1-0.1-0.2-0.1-0.3-0.2c-0.1,0-0.1,0-0.2,0.2l-0.1,0.2H160l0.2-1.7h0.2l0.2,0.4
	c0.2,0.4,0.4,0.7,0.6,0.9c0.2,0.2,0.5,0.3,0.7,0.3s0.4,0,0.5-0.1s0.2-0.2,0.2-0.4c0-0.4-0.3-0.8-1-1.4c-0.5-0.3-0.8-0.5-1-0.8
	c-0.2-0.2-0.4-0.4-0.5-0.6s-0.1-0.5-0.1-0.8c0-0.4,0.2-0.8,0.6-1c0.3-0.2,0.7-0.3,1.1-0.2c0.4,0,0.7,0.2,1.1,0.5
	c0.2,0.1,0.3,0.2,0.4,0.2c0.1,0,0.2,0,0.3-0.1c0.1,0,0.1-0.1,0.2-0.2l0.1-0.2h0.2L163.7,352.1z"/>
<g>
	<path class="st4" d="M59.5,294.8l-0.5-0.5c-0.1-0.1-0.1-0.1-0.2-0.1s-0.1,0.1-0.2,0.1l-4.8,4.3c-0.1,0.1-0.1,0.1-0.1,0.2
		s0.1,0.1,0.1,0.2l0.5,0.5l-0.2,0.3l-2.5-2.9c-0.3-0.4-0.6-0.7-0.6-1.1s-0.2-0.7,0-1.1c0.1-0.4,0.2-0.7,0.5-0.9
		c0.2-0.3,0.6-0.4,1-0.5c0.4,0,0.8,0,1.2,0.2s0.7,0.4,1.2,0.9l0.9,0.8l2.3-2.1c0.1-0.1,0.1-0.1,0.1-0.2s-0.1-0.1-0.1-0.2l-0.7-0.7
		l0.2-0.3l2.5,2.9L59.5,294.8z M54.2,294.5c-0.3-0.2-0.5-0.4-0.9-0.2c-0.4,0.2-0.7,0.3-1,0.6c-0.4,0.3-0.6,0.7-0.8,1
		c0,0.3,0,0.6,0.3,0.9l0.6,0.6c0.1,0.1,0.1,0.1,0.2,0.1c0.1,0,0.1,0,0.2-0.1l2.3-2.1L54.2,294.5z"/>
	<path class="st4" d="M54.6,289.2l-0.2-0.3c-0.1,0-0.1-0.1-0.1-0.1s-0.1,0-0.1,0.1l-3.3,2.8c0,0.1-0.1,0.1-0.1,0.1s0,0.1,0.1,0.1
		l0.2,0.3l-0.2,0.2l-1.2-1.4l0.8-0.7l0,0c-0.3,0.2-0.6,0.2-1,0.2c-0.3,0.1-0.6-0.1-0.8-0.3c-0.2-0.2-0.2-0.4-0.2-0.6
		c0-0.3,0.2-0.5,0.3-0.7c0.2-0.2,0.4-0.2,0.7-0.3c0.2-0.1,0.4,0.1,0.6,0.2c0.2,0.1,0.2,0.3,0.2,0.4c0,0.2,0,0.3-0.2,0.5
		c-0.1,0.1-0.3,0.2-0.6,0.2c-0.2,0-0.2,0.1-0.3,0.1c0,0.1,0,0.1,0,0.2c0.1,0.1,0.3,0.1,0.5,0.1c0.2-0.1,0.5-0.1,0.9-0.3
		c0.3-0.2,0.6-0.4,0.9-0.7l1.6-1.4c0-0.1,0.1-0.1,0.1-0.1s0-0.1-0.1-0.1l-0.3-0.2l0.2-0.2L54.6,289.2L54.6,289.2z"/>
	<path class="st4" d="M50.9,284.7c0,0.4,0,0.8-0.3,1.3c-0.2,0.4-0.4,0.8-1,1.1c-0.4,0.3-0.8,0.6-1.2,0.6c-0.4,0.1-0.8,0.2-1.2-0.1
		c-0.4-0.1-0.8-0.3-1-0.7c-0.2-0.3-0.4-0.7-0.3-1.1s0-0.8,0.3-1.3c0.2-0.4,0.4-0.8,1-1.1c0.4-0.3,0.8-0.6,1.2-0.6s0.8-0.2,1.2,0.1
		c0.4,0.1,0.8,0.3,1,0.7S50.9,284.3,50.9,284.7z M49.5,283.7c-0.3,0.2-0.9,0.6-1.6,1c-0.7,0.6-1.2,0.9-1.4,1.2
		c-0.3,0.4-0.2,0.7,0,0.9c0.2,0.2,0.5,0.3,0.9,0.1c0.3-0.2,0.9-0.6,1.6-1c0.7-0.6,1.2-0.9,1.4-1.2c0.3-0.4,0.2-0.7,0-0.9
		C50.1,283.6,49.8,283.6,49.5,283.7z"/>
	<path class="st4" d="M48.4,281.5L48,281l-0.1-0.1c0,0-0.1,0-0.1,0.1l-3.5,2.6l0.5,0.6l-0.2,0.2l-0.5-0.6l-0.2,0.2
		c-0.4,0.3-0.8,0.5-1.2,0.5s-0.8,0-1.2-0.3s-0.6-0.4-1-0.9c-0.2-0.3-0.4-0.6-0.5-0.9s0-0.5,0-0.8c0-0.2,0.2-0.4,0.3-0.5
		c0.2-0.2,0.4-0.2,0.6-0.2s0.4,0.1,0.6,0.3c0.1,0.1,0.2,0.3,0.1,0.5c0,0.2,0,0.3-0.3,0.5c-0.1,0.2-0.3,0.2-0.5,0.1
		c-0.2,0-0.3,0-0.4,0c-0.1,0.1-0.1,0.2-0.1,0.4s0.2,0.3,0.2,0.5c0.1,0.1,0.3,0.2,0.5,0.3c0.2,0,0.4,0.1,0.6,0
		c0.2-0.1,0.5-0.2,0.8-0.5l0.7-0.5l-1.7-2.3l3.8-2.8l0.1-0.1c0,0,0-0.1-0.1-0.1l-0.2-0.3l0.2-0.2l1.4,2l-0.2,0.2l-0.2-0.3l-0.1-0.1
		c0,0-0.1,0-0.1,0.1l-3.4,2.5l-0.1,0.1c0,0,0,0.1,0.1,0.1l0.7,1l3.5-2.6l0.1-0.1c0,0,0-0.1-0.1-0.1l-0.3-0.2l0.2-0.2L48.4,281.5
		L48.4,281.5z"/>
	<path class="st4" d="M44.9,276.7l-0.3-0.5l-0.1-0.1c0,0-0.1,0-0.1,0.1l-5.6,3.9l-0.1,0.1c0,0,0,0.1,0.1,0.1l0.3,0.5l-0.2,0.2
		l-1.2-1.7l6-4.2l0.1-0.1c0,0,0-0.1-0.1-0.1l-0.3-0.5l0.2-0.2l1.7,2.3L44.9,276.7z"/>
	<path class="st4" d="M42.2,272.9c0,0.4-0.1,0.8-0.4,1.3c-0.3,0.4-0.5,0.7-1,1.1c-0.5,0.3-0.8,0.5-1.3,0.5c-0.4,0.1-0.8,0.1-1.2-0.2
		s-0.7-0.3-0.9-0.7c-0.2-0.3-0.4-0.8-0.2-1.2c0.1-0.4,0.2-0.9,0.7-1.2c0.1-0.2,0.5-0.4,0.8-0.7l1.5,2.3c0.2-0.2,0.5-0.3,0.7-0.5
		c0.1-0.2,0.2-0.3,0.4-0.4c0.1-0.2,0.3-0.5,0.3-0.7s0-0.5-0.2-0.6c-0.3-0.2-0.5-0.4-0.8-0.4c-0.4,0-0.7,0.1-1.1,0.2l-0.2-0.2
		c0.4-0.2,0.9-0.4,1.4-0.3c0.5,0,0.9,0.2,1.2,0.8C42,272,42.2,272.5,42.2,272.9z M39.3,272.8c-0.6,0.4-1,0.7-1.4,1
		c-0.3,0.3-0.3,0.6-0.1,0.8c0.2,0.2,0.4,0.3,0.8,0.1c0.3-0.2,0.9-0.5,1.5-0.8L39.3,272.8z"/>
</g>
<g id="XMLID_3146_">
	<g id="XMLID_3299_">
		<g id="XMLID_3300_">
			<path id="XMLID_3301_" class="st4" d="M166.4,323.8L166.4,323.8L166.4,323.8L166.4,323.8L166.4,323.8L166.4,323.8L166.4,323.8
				L166.4,323.8L166.4,323.8L166.4,323.8L166.4,323.8L166.4,323.8L166.4,323.8L166.4,323.8L166.4,323.8L166.4,323.8L166.4,323.8
				L166.4,323.8L166.4,323.8L166.4,323.8L166.4,323.8L166.4,323.8L166.4,323.8L166.4,323.8L166.4,323.8L166.4,323.8L166.4,323.8
				L166.4,323.8L166.4,323.8L166.4,323.8"/>
		</g>
	</g>
</g>
<rect x="305.05" y="318.91" transform="matrix(0.7499 -0.6616 0.6616 0.7499 -135.5027 282.116)" class="st5" width="0.6" height="2.7"/>
<rect x="290.12" y="330.7" transform="matrix(0.8147 -0.5799 0.5799 0.8147 -138.7368 229.946)" class="st6" width="0.6" height="2.7"/>
<rect x="284.42" y="334.32" transform="matrix(0.8344 -0.5512 0.5512 0.8344 -137.7881 212.7767)" class="st7" width="1.5" height="2.7"/>
<rect x="279.59" y="337.7" transform="matrix(0.8531 -0.5218 0.5218 0.8531 -135.7903 195.8576)" class="st8" width="0.6" height="2.7"/>
<rect x="309.42" y="312.02" transform="matrix(0.7499 -0.6616 0.6616 0.7499 -130.6113 283.5746)" class="st9" width="0.6" height="5"/>
<g>
	
		<rect x="341.33" y="270.41" transform="matrix(0.4918 -0.8707 0.8707 0.4918 -64.0073 436.1552)" class="st10" width="0.6" height="5"/>
	
		<rect x="339.25" y="277.68" transform="matrix(0.5218 -0.8531 0.8531 0.5218 -75.658 423.0994)" class="st11" width="0.6" height="2.7"/>
	
		<rect x="335.52" y="283.09" transform="matrix(0.5511 -0.8344 0.8344 0.5511 -86.4014 408.2692)" class="st12" width="1.5" height="2.7"/>
	
		<rect x="332.07" y="288.45" transform="matrix(0.5798 -0.8147 0.8147 0.5798 -96.4594 392.5625)" class="st13" width="0.6" height="2.7"/>
	
		<rect x="327.78" y="291.73" transform="matrix(0.6078 -0.7941 0.7941 0.6078 -104.9723 375.925)" class="st14" width="0.6" height="5"/>
	
		<rect x="324.43" y="298.5" transform="matrix(0.6351 -0.7725 0.7725 0.6351 -113.1161 360.2615)" class="st15" width="0.6" height="2.7"/>
	
		<rect x="320.15" y="303.41" transform="matrix(0.6616 -0.7499 0.7499 0.6616 -119.9354 343.7705)" class="st16" width="1.5" height="2.7"/>
	
		<rect x="316.28" y="308.01" transform="matrix(0.6873 -0.7264 0.7264 0.6873 -125.7176 326.6988)" class="st17" width="0.6" height="2.7"/>
</g>
<rect x="195.79" y="364.6" transform="matrix(0.9981 -0.0616 0.0616 0.9981 -22.1704 12.7743)" class="st18" width="0.6" height="2.7"/>
<rect x="189.48" y="364.96" transform="matrix(0.9996 -0.0268 0.0268 0.9996 -9.7495 5.218)" class="st19" width="0.6" height="2.7"/>
<rect x="182.04" y="366.09" transform="matrix(8.009100e-03 -1 1 8.009100e-03 -184.4585 546.848)" class="st20" width="2.7" height="0.6"/>
<rect x="163.09" y="365.03" transform="matrix(0.1122 -0.9937 0.9937 0.1122 -217.0387 487.7421)" class="st21" width="2.7" height="0.6"/>
<rect x="156.89" y="364.28" transform="matrix(0.1467 -0.9892 0.9892 0.1467 -225.6148 467.6219)" class="st22" width="2.7" height="0.6"/>
<rect x="150.51" y="363.22" transform="matrix(0.1811 -0.9835 0.9835 0.1811 -233.148 447.0377)" class="st23" width="2.7" height="0.6"/>
<rect x="144.19" y="361.63" transform="matrix(0.2151 -0.9766 0.9766 0.2151 -239.6633 426.56)" class="st24" width="2.7" height="1.5"/>
<rect x="138.03" y="360.62" transform="matrix(0.249 -0.9685 0.9685 0.249 -244.8726 406.0426)" class="st25" width="2.7" height="0.6"/>
<rect x="131.09" y="357.82" transform="matrix(0.2826 -0.9592 0.9592 0.2826 -247.6363 385.0138)" class="st26" width="5" height="0.5"/>
<polygon class="st27" points="174.2,367.5 173.7,367.4 173.8,362.7 174.4,362.8 "/>
<rect x="125.94" y="357.11" transform="matrix(0.3158 -0.9488 0.9488 0.3158 -252.0222 365.3148)" class="st28" width="2.7" height="0.6"/>
<rect x="119.91" y="354.46" transform="matrix(0.3486 -0.9373 0.9373 0.3486 -253.9375 345.0374)" class="st29" width="2.7" height="1.5"/>
<rect x="113.85" y="352.62" transform="matrix(0.381 -0.9246 0.9246 0.381 -254.9974 324.9692)" class="st30" width="2.7" height="0.6"/>
<rect x="107.67" y="349.3" transform="matrix(0.413 -0.9107 0.9107 0.413 -253.7205 305.5474)" class="st31" width="5" height="0.6"/>
<rect x="102.51" y="347.59" transform="matrix(0.4444 -0.8958 0.8958 0.4444 -253.9403 286.3222)" class="st32" width="2.7" height="0.6"/>
<rect x="96.7" y="344.15" transform="matrix(0.4753 -0.8798 0.8798 0.4753 -252.0069 267.2349)" class="st33" width="2.7" height="1.5"/>
<rect x="91.24" y="341.53" transform="matrix(0.5057 -0.8627 0.8627 0.5057 -249.133 248.8479)" class="st34" width="2.7" height="0.6"/>
<rect x="85.26" y="337.36" transform="matrix(0.5353 -0.8446 0.8446 0.5353 -244.4195 231.0299)" class="st35" width="5" height="0.6"/>
<rect x="80.42" y="334.22" transform="matrix(0.5645 -0.8255 0.8255 0.5645 -240.8885 213.3869)" class="st36" width="2.7" height="1.5"/>
<rect x="75.15" y="331" transform="matrix(0.5928 -0.8053 0.8053 0.5928 -235.6619 196.5046)" class="st37" width="2.7" height="0.6"/>
<rect x="70.19" y="327.22" transform="matrix(0.6205 -0.7842 0.7842 0.6205 -229.6945 180.3966)" class="st38" width="2.7" height="0.6"/>
<rect x="65.24" y="322.81" transform="matrix(0.6474 -0.7621 0.7621 0.6474 -223.1179 164.8324)" class="st39" width="2.7" height="1.5"/>
<rect x="50.75" y="309.71" transform="matrix(0.6474 -0.7621 0.7621 0.6474 -218.2371 149.1685)" class="st39" width="2.7" height="1.5"/>
<rect x="60.53" y="319.22" transform="matrix(0.6735 -0.7392 0.7392 0.6735 -215.985 150.065)" class="st40" width="2.7" height="0.6"/>
<rect x="55.84" y="314.81" transform="matrix(0.6988 -0.7153 0.7153 0.6988 -208.1743 135.8165)" class="st41" width="2.7" height="0.6"/>
<rect x="46.96" y="305.67" transform="matrix(0.7469 -0.6649 0.6649 0.7469 -191.2191 109.5605)" class="st42" width="2.7" height="0.6"/>
<rect x="42.41" y="300.28" transform="matrix(0.7696 -0.6385 0.6385 0.7696 -181.5753 97.9216)" class="st43" width="5" height="0.6"/>
<rect x="38.8" y="295.92" transform="matrix(0.7914 -0.6113 0.6113 0.7914 -172.7039 86.3368)" class="st44" width="2.7" height="0.6"/>
<rect x="35.07" y="290.38" transform="matrix(0.8122 -0.5834 0.5834 0.8122 -163.005 75.9227)" class="st45" width="2.7" height="1.5"/>
<rect x="31.41" y="285.57" transform="matrix(0.832 -0.5548 0.5548 0.832 -153.0963 66.2063)" class="st46" width="2.7" height="0.6"/>
<rect x="27.68" y="279.84" transform="matrix(0.8508 -0.5255 0.5255 0.8508 -142.7095 57.6584)" class="st47" width="5" height="0.6"/>
<rect x="24.71" y="274.9" transform="matrix(0.8685 -0.4957 0.4957 0.8685 -132.9886 49.1095)" class="st48" width="2.7" height="0.6"/>
<rect x="21.49" y="268.92" transform="matrix(0.8853 -0.4651 0.4651 0.8853 -122.7963 41.5637)" class="st49" width="2.7" height="1.5"/>
<g>
	
		<rect x="19.2" y="265.69" transform="matrix(0.8982 -0.4396 0.4396 0.8982 -114.8377 36.1133)" class="st50" width="2.7" height="0.6"/>
	
		<rect x="16.51" y="259.5" transform="matrix(0.913 -0.408 0.408 0.913 -104.6274 29.9328)" class="st51" width="2.7" height="1.5"/>
	<rect x="14" y="254" transform="matrix(0.9266 -0.376 0.376 0.9266 -94.4907 24.4326)" class="st52" width="2.7" height="0.6"/>
	
		<rect x="11.6" y="247.71" transform="matrix(0.9391 -0.3436 0.3436 0.9391 -84.3577 19.9447)" class="st53" width="5" height="0.6"/>
	
		<rect x="9.61" y="242.19" transform="matrix(0.9505 -0.3106 0.3106 0.9505 -74.7789 15.3979)" class="st54" width="2.7" height="0.6"/>
	
		<rect x="7.68" y="235.61" transform="matrix(0.9608 -0.2774 0.2774 0.9608 -65.2091 11.781)" class="st55" width="2.7" height="1.5"/>
</g>
<polygon class="st56" points="301.6,325 297.6,328.2 297.3,323.6 297.3,323.6 "/>
<polygon class="st56" points="37.2,294.2 33.8,290.3 38.3,289.8 38.3,289.8 "/>
<rect x="273.68" y="340.96" transform="matrix(0.8707 -0.4918 0.4918 0.8707 -132.8677 179.2223)" class="st57" width="1.5" height="2.7"/>
<rect x="268.52" y="344.1" transform="matrix(0.8873 -0.4612 0.4612 0.8873 -129.0243 162.913)" class="st58" width="0.6" height="2.7"/>
<rect x="262.36" y="344.5" transform="matrix(0.9028 -0.43 0.43 0.9028 -123.6914 146.6677)" class="st59" width="0.6" height="5"/>
<rect x="257.14" y="349.63" transform="matrix(0.9173 -0.3983 0.3983 0.9173 -118.4897 131.5724)" class="st60" width="0.6" height="2.7"/>
<rect x="250.93" y="352.06" transform="matrix(0.9305 -0.3662 0.3662 0.9305 -111.9385 116.7209)" class="st61" width="1.5" height="2.7"/>
<rect x="245.29" y="354.29" transform="matrix(0.9427 -0.3336 0.3336 0.9427 -104.5737 102.3019)" class="st62" width="0.6" height="2.7"/>
<rect x="239.1" y="354.31" transform="matrix(0.9538 -0.3005 0.3005 0.9538 -96.1542 88.4275)" class="st63" width="0.6" height="5"/>
<rect x="233.23" y="358.19" transform="matrix(0.9636 -0.2672 0.2672 0.9636 -87.5814 75.4742)" class="st64" width="0.6" height="2.7"/>
<rect x="226.71" y="359.83" transform="matrix(0.9724 -0.2334 0.2334 0.9724 -78.0148 63.0621)" class="st65" width="1.5" height="2.7"/>
<rect x="220.92" y="361.3" transform="matrix(0.9799 -0.1995 0.1995 0.9799 -67.9015 51.4235)" class="st66" width="0.6" height="2.7"/>
<rect x="214.38" y="360.08" transform="matrix(0.9862 -0.1653 0.1653 0.9862 -56.9829 40.4762)" class="st67" width="0.6" height="5"/>
<rect x="208.41" y="363.39" transform="matrix(0.9914 -0.1309 0.1309 0.9914 -45.9487 30.4585)" class="st68" width="0.6" height="2.7"/>
<rect x="201.62" y="364.14" transform="matrix(0.9954 -0.0963 0.0963 0.9954 -34.2545 21.1854)" class="st69" width="1.5" height="2.7"/>
<rect x="5.59" y="229.19" transform="matrix(0.9707 -0.2402 0.2402 0.9707 -54.9226 8.3857)" class="st70" width="2.7" height="0.6"/>
<rect x="4.4" y="222.89" transform="matrix(0.9785 -0.2063 0.2063 0.9785 -45.8958 6.2246)" class="st71" width="5" height="0.6"/>
<rect x="3.01" y="216.9" transform="matrix(0.9851 -0.1721 0.1721 0.9851 -37.3151 3.9912)" class="st72" width="2.7" height="0.6"/>
<rect x="1.89" y="210.22" transform="matrix(0.9905 -0.1377 0.1377 0.9905 -29.0184 2.4559)" class="st73" width="2.7" height="1.5"/>
<rect x="0" y="184.32" transform="matrix(0.999 -0.0456 0.0456 0.999 -8.4373 0.2539)" class="st74" width="2.7" height="1.5"/>
<rect x="1.1" y="204.32" transform="matrix(0.9947 -0.1032 0.1032 0.9947 -21.1027 1.3454)" class="st75" width="2.7" height="0.6"/>
<rect x="0.29" y="198.02" transform="matrix(0.9977 -0.0684 0.0684 0.9977 -13.5579 0.6553)" class="st76" width="5" height="0.6"/>
<rect x="0.2" y="191.58" transform="matrix(0.9994 -0.0337 0.0337 0.9994 -6.4658 0.1613)" class="st77" width="2.7" height="0.6"/>
<rect x="1.16" y="177.94" transform="matrix(0.0359 -0.9994 0.9994 0.0359 -177.763 174.3114)" class="st78" width="0.6" height="2.7"/>
<rect x="2.67" y="170.3" transform="matrix(0.0706 -0.9975 0.9975 0.0706 -169.614 163.564)" class="st79" width="0.6" height="5"/>
<rect x="2.05" y="165.28" transform="matrix(0.1053 -0.9944 0.9944 0.1053 -163.5998 151.418)" class="st80" width="0.6" height="2.7"/>
<rect x="2.28" y="158.88" transform="matrix(0.1398 -0.9902 0.9902 0.1398 -156.0448 140.8332)" class="st81" width="1.5" height="2.7"/>
<g>
	<rect x="3.3" y="154.52" transform="matrix(0.155 -0.9879 0.9879 0.155 -150.941 135.26)" class="st82" width="0.6" height="2.7"/>
	
		<rect x="5.47" y="147.64" transform="matrix(0.1894 -0.9819 0.9819 0.1894 -142.7464 127.373)" class="st83" width="0.6" height="5"/>
	
		<rect x="5.55" y="142.1" transform="matrix(0.2234 -0.9747 0.9747 0.2234 -135.2853 117.1071)" class="st84" width="0.6" height="2.7"/>
	
		<rect x="6.57" y="136.03" transform="matrix(0.2572 -0.9664 0.9664 0.2572 -127.3207 109.1205)" class="st85" width="1.5" height="2.7"/>
	
		<rect x="8.7" y="129.95" transform="matrix(0.2907 -0.9568 0.9568 0.2907 -119.2461 101.7461)" class="st86" width="0.6" height="2.7"/>
	
		<rect x="11.43" y="123.06" transform="matrix(0.3239 -0.9461 0.9461 0.3239 -110.8634 95.99)" class="st87" width="0.6" height="5"/>
	
		<rect x="12.9" y="117.87" transform="matrix(0.3566 -0.9343 0.9343 0.3566 -102.8957 89.0376)" class="st88" width="0.6" height="2.7"/>
	
		<rect x="14.71" y="112.04" transform="matrix(0.3889 -0.9213 0.9213 0.3889 -95.0169 83.5327)" class="st89" width="1.5" height="2.7"/>
	
		<rect x="17.61" y="106.01" transform="matrix(0.4207 -0.9072 0.9072 0.4207 -87.0271 78.4388)" class="st90" width="0.6" height="2.7"/>
	
		<rect x="21.44" y="99.73" transform="matrix(0.4519 -0.8921 0.8921 0.4519 -79.2805 75.4237)" class="st91" width="0.6" height="5"/>
	
		<rect x="23.34" y="94.79" transform="matrix(0.4827 -0.8758 0.8758 0.4827 -71.9657 70.4374)" class="st92" width="0.6" height="2.7"/>
	
		<rect x="26.02" y="89.19" transform="matrix(0.5129 -0.8584 0.8584 0.5129 -64.6854 67.0868)" class="st93" width="1.5" height="2.7"/>
</g>
<g>
	<g>
		<path class="st4" d="M10.8,163.4L10.8,163.4l4.7,0.5c0.3,0,0.6,0,0.8-0.3c0.2-0.3,0.2-0.6,0.3-0.8H17l-0.3,2.8h-0.4
			c0-0.3,0-0.6-0.2-0.9c-0.1-0.2-0.4-0.3-0.7-0.4l-6-0.5c-0.1,0-0.2,0-0.2,0s0,0.1,0,0.2v0.9H8.8l0.2-2.8l5.8-1.7l-5.5-2l0.3-2.9H10
			v0.8c0,0.1,0,0.2,0,0.2s0.1,0,0.2,0l6.9,0.6c0.1,0,0.2,0,0.2,0s0-0.1,0-0.2v-0.8l0.3,0.2l-0.3,3.8h-0.4v-0.8c0-0.1,0-0.2,0-0.2
			s-0.1,0-0.2,0l-6.5-0.5l7.1,2.5v0.4L10.8,163.4z"/>
		<path class="st4" d="M17.5,155.2c-0.3,0.2-0.6,0.4-1,0.3c-0.5,0-0.9-0.2-1.1-0.7c-0.2-0.4-0.5-0.8-0.5-1.4l-0.2-0.9l-0.8-0.1
			c-0.4,0-0.6,0-0.9,0.2c-0.1,0.2-0.3,0.3-0.3,0.7c0,0.2,0,0.4,0.1,0.5s0.2,0.3,0.3,0.3c0,0,0.1,0,0.2,0c0.1,0,0.1-0.1,0.1-0.2
			c0-0.1,0.1-0.2,0.3-0.2c0.1-0.1,0.2,0,0.3,0c0.2,0,0.3,0.1,0.5,0.2c0.1,0.1,0.1,0.2,0.1,0.4s-0.1,0.4-0.2,0.5
			c-0.1,0.2-0.4,0.2-0.6,0.2c-0.3,0-0.6-0.1-0.8-0.3c-0.3-0.2-0.4-0.4-0.4-0.7c-0.1-0.2-0.2-0.6-0.1-0.8c0-0.5,0.3-1,0.7-1.4
			c0.3-0.4,0.8-0.5,1.5-0.5l2.8,0.3c0.3,0.1,0.4,0,0.5-0.2c0-0.1-0.1-0.2-0.3-0.3c-0.2,0-0.5-0.1-0.8-0.2v-0.3c0.5,0,1,0.2,1.2,0.4
			c0.1,0.1,0.2,0.3,0.3,0.4s0.1,0.3,0.1,0.5c0,0.3-0.1,0.5-0.2,0.7s-0.3,0.2-0.5,0.4l0,0c0.4,0.3,0.5,0.8,0.4,1.3
			C17.9,154.6,17.8,154.9,17.5,155.2z M17.2,152.8l-2.2-0.2l0.1,0.7c0,0.2,0.2,0.5,0.5,0.6c0.3,0.2,0.6,0.2,1,0.3
			c0.4,0,0.6,0,0.8-0.1c0.1-0.2,0.3-0.2,0.2-0.5C17.6,153.2,17.5,153,17.2,152.8z"/>
		<path class="st4" d="M18.1,150v-0.4c0-0.1,0-0.1-0.1-0.1h-0.1l-4.4-0.6c-0.1,0-0.1,0-0.1,0.1v0.1v0.4l-0.3-0.1l0.3-1.9l4.9,0.8
			c0.1,0,0.1,0,0.1-0.1v-0.1v-0.4l0.3,0.1l-0.3,2.5L18.1,150z M11.8,148.4c-0.1,0.2-0.4,0.2-0.7,0.1c-0.2,0-0.5-0.1-0.5-0.3
			c-0.2-0.1-0.2-0.4-0.1-0.7c0-0.2,0.1-0.5,0.2-0.6c0.1-0.2,0.4-0.2,0.7-0.1c0.2,0,0.4,0.1,0.6,0.2c0.2,0.1,0.2,0.4,0.1,0.7
			C12.1,148.1,12,148.2,11.8,148.4z"/>
		<path class="st4" d="M18.6,146.7v-0.4c0-0.1,0-0.1-0.1-0.1h-0.1l-4.5-0.7c-0.1,0-0.1,0-0.1,0.1v0.1v0.4l-0.3-0.1l0.4-1.9l1,0.2
			v-0.1c-0.4-0.2-0.6-0.5-0.8-0.7c-0.1-0.2-0.3-0.6-0.2-0.9c0-0.2,0.1-0.4,0.1-0.5s0.2-0.3,0.2-0.4c0.1-0.2,0.4-0.3,0.6-0.4
			c0.2,0,0.5-0.1,0.8-0.1l3.5,0.7c0.1,0,0.1,0,0.1-0.1v-0.1v-0.4l0.3,0.1l-0.4,2.5l-0.3-0.1l0.1-0.4c0-0.1,0-0.1-0.1-0.1h-0.1
			l-3.8-0.6c-0.6,0-0.8,0.1-0.9,0.4c0,0.2,0,0.3,0.3,0.6c0.2,0.1,0.4,0.4,0.8,0.5c0.4,0.2,0.7,0.3,1.1,0.4l2.4,0.4
			c0.1,0,0.1,0,0.1-0.1v-0.1l0.1-0.4l0.3,0.1l-0.4,2.5L18.6,146.7z"/>
		<path class="st4" d="M20.3,137.2l0.1-0.8c0-0.1,0-0.2,0-0.2s-0.1,0-0.2,0l-6.6-1.6c-0.1,0-0.2,0-0.2,0s0,0.1,0,0.2l-0.1,0.8
			l-0.4-0.1l0.9-4c0.1-0.5,0.3-1,0.6-1.3s0.6-0.7,0.9-0.8c0.4-0.2,0.8-0.2,1.2,0c0.4,0.1,0.8,0.3,1,0.7c0.2,0.3,0.5,0.6,0.5,1.1
			c0.1,0.4,0.1,0.9-0.1,1.5l-0.3,1.3l3.2,0.8c0.1,0,0.2,0,0.2,0s0.1-0.1,0-0.2l0.2-1l0.4,0.1l-0.9,4L20.3,137.2z M17.5,132.4
			c0.1-0.4,0-0.7-0.3-0.9s-0.7-0.4-1.2-0.6c-0.6-0.1-1-0.2-1.3-0.1c-0.3,0.1-0.5,0.4-0.6,0.8l-0.1,0.9c0,0.1,0,0.2,0,0.2
			s0.1,0.1,0.2,0l3.2,0.8L17.5,132.4z"/>
		<path class="st4" d="M22.4,129.7c-0.3,0.2-0.6,0.4-1.1,0.1c-0.5-0.1-0.8-0.4-1-0.9s-0.3-0.9-0.4-1.5l-0.1-0.8l-0.8-0.2
			c-0.4-0.1-0.7-0.1-0.8,0.1c-0.2,0.1-0.4,0.3-0.3,0.5c0,0.2,0,0.4,0.1,0.5c0,0.2,0.1,0.2,0.3,0.3c0,0,0.1,0,0.2,0s0.1-0.1,0.2,0
			c0.1-0.1,0.1-0.2,0.3-0.2c0.1-0.1,0.2,0,0.3,0c0.2,0,0.3,0.2,0.3,0.3c0.1,0.1,0.1,0.3,0.1,0.4c0,0.2-0.2,0.4-0.3,0.4
			c-0.1,0-0.3,0.1-0.6,0s-0.5-0.2-0.7-0.4c-0.1-0.2-0.3-0.5-0.3-0.8s-0.1-0.5,0-0.8c0.1-0.5,0.3-0.9,0.8-1.3
			c0.4-0.3,0.8-0.4,1.5-0.2l2.8,0.7c0.3,0.1,0.4,0,0.4-0.1s0-0.2-0.3-0.4c-0.2-0.1-0.5-0.2-0.8-0.3l0.1-0.3c0.6,0.1,0.9,0.3,1.1,0.6
			c0.1,0.1,0.2,0.3,0.2,0.4c0.1,0.1,0,0.3,0,0.5c-0.1,0.3-0.1,0.5-0.3,0.7c-0.1,0.2-0.3,0.2-0.6,0.3l0,0c0.3,0.4,0.4,0.8,0.3,1.4
			C22.7,129.1,22.6,129.5,22.4,129.7z M22.3,127.3l-2.3-0.6v0.6c0,0.2,0.2,0.5,0.4,0.6c0.3,0.2,0.5,0.3,0.9,0.3c0.4,0.1,0.6,0,0.8,0
			c0.1-0.1,0.3-0.2,0.3-0.4C22.6,127.8,22.6,127.5,22.3,127.3z"/>
		<path class="st4" d="M26.3,124.7c-0.4,0.4-0.8,0.5-1.1,0.3s-0.5-0.2-0.6-0.5c-0.1-0.2-0.2-0.6-0.2-0.9l0,0c0,0.2-0.2,0.4-0.4,0.5
			s-0.5,0.2-0.7,0.1c-0.7-0.2-1.1-0.8-0.8-1.6l0,0c-0.2,0.3-0.4,0.5-0.8,0.6s-0.7,0.1-1-0.1c-0.3-0.1-0.6-0.2-0.8-0.5
			c-0.2-0.3-0.4-0.5-0.4-0.9c0-0.3,0-0.7,0.1-1c0.1-0.6,0.6-1,1.1-1.3l0,0c-0.3-0.3-0.5-0.6-0.4-0.9c0-0.2,0.2-0.4,0.3-0.5
			c0.1-0.2,0.3-0.1,0.5-0.1s0.4,0.2,0.5,0.3c0.2,0.1,0.1,0.3,0.1,0.5c0,0.1,0,0.2-0.2,0.3c-0.1,0.1-0.2,0-0.3,0
			c-0.1,0-0.3-0.2-0.3-0.3c0,0-0.1-0.1-0.2-0.1s-0.1-0.1-0.2-0.1s-0.2,0-0.2,0.1c0,0.2,0.1,0.4,0.3,0.7c0.3-0.1,0.7-0.2,1.2,0
			c0.3,0.1,0.5,0.2,0.7,0.5s0.4,0.5,0.4,0.8c0.1,0.3,0,0.7-0.2,1.1c-0.1,0.5-0.2,0.8-0.3,1.1c0,0.3,0.1,0.4,0.4,0.5s0.4-0.1,0.5-0.5
			l0.5-1.7c0.1-0.5,0.3-0.9,0.8-1.2c0.4-0.3,0.7-0.3,1.3-0.1c0.4,0.1,0.7,0.3,1,0.7c0.2,0.3,0.5,0.6,0.5,1.1
			c0.1,0.4,0.1,0.8-0.2,1.4C27,123.7,26.8,124.3,26.3,124.7z M26.9,121.7c-0.1-0.4-0.3-0.7-0.7-0.8c-0.3-0.1-0.5,0.1-0.7,0.3
			c-0.2,0.3-0.4,0.6-0.6,1.1c-0.1,0.6-0.3,1.1-0.3,1.5s0.2,0.8,0.6,0.9c0.3,0.1,0.6,0,0.9-0.4c0.3-0.3,0.5-0.7,0.7-1.3
			C26.9,122.7,27,122.1,26.9,121.7z M22.3,121.2c-0.2-0.1-0.5-0.3-1-0.6c-0.5-0.1-0.9-0.2-1.1-0.2s-0.5,0.2-0.5,0.4
			c-0.1,0.3,0,0.4,0.3,0.6c0.2,0.1,0.5,0.3,1,0.6c0.5,0.1,0.9,0.1,1.1,0.2c0.2,0,0.5-0.2,0.5-0.4C22.5,121.5,22.4,121.3,22.3,121.2z
			"/>
		<path class="st4" d="M25.9,117.6c-0.4,0.3-0.7,0.4-1.3,0.4c-0.6,0.1-0.9,0.1-1.4-0.2c-0.5-0.1-0.9-0.3-1.3-0.8
			c-0.3-0.3-0.7-0.7-0.7-1.1c-0.1-0.4-0.1-0.8,0.1-1.2c0.1-0.5,0.4-0.8,0.9-1c0.4-0.2,0.9-0.3,1.4-0.2c0.2,0,0.6,0,1.1,0.4l-0.9,2.7
			c0.4,0.1,0.7,0.2,0.9,0.2s0.4,0.1,0.6,0c0.3,0,0.5-0.1,0.8-0.2s0.4-0.3,0.5-0.6c0.1-0.4,0.1-0.7-0.2-1c-0.2-0.3-0.6-0.6-0.9-0.8
			l0.1-0.3c0.5,0.2,0.9,0.5,1.2,1s0.4,0.9,0.1,1.4C26.6,116.9,26.3,117.3,25.9,117.6z M24,115c-0.8-0.2-1.4-0.4-1.8-0.4
			s-0.7,0.1-0.7,0.4c-0.1,0.3,0.1,0.5,0.4,0.7s0.9,0.4,1.7,0.7L24,115z"/>
	</g>
</g>
</svg>
