<?xml version="1.0" encoding="utf-8"?>
<!-- Generator: Adobe Illustrator 22.0.0, SVG Export Plug-In . SVG Version: 6.00 Build 0)  -->
<svg version="1.1" id="Layer_1" xmlns="http://www.w3.org/2000/svg" xmlns:xlink="http://www.w3.org/1999/xlink" x="0px" y="0px"
	 viewBox="0 0 509.8 34.5" style="enable-background:new 0 0 509.8 34.5;" xml:space="preserve">
<style type="text/css">
	.st0{fill:none;stroke:#938E94;stroke-width:0.5853;stroke-miterlimit:10;}
	.st1{fill:none;stroke:#938E94;stroke-width:0.5902;stroke-miterlimit:10;}
	.st2{fill:#938E94;}
	.st3{fill:#FFFFFF;}
</style>
<rect x="0.3" y="0.3" class="st0" width="33.9" height="33.9"/>
<rect x="34.2" y="0.3" class="st0" width="33.9" height="33.9"/>
<rect x="68.2" y="0.3" class="st0" width="33.9" height="33.9"/>
<rect x="102.1" y="0.3" class="st0" width="33.9" height="33.9"/>
<rect x="136.1" y="0.3" class="st0" width="33.9" height="33.9"/>
<rect x="170" y="0.3" class="st0" width="33.9" height="33.9"/>
<rect x="204" y="0.3" class="st0" width="33.9" height="33.9"/>
<rect x="237.9" y="0.3" class="st0" width="33.9" height="33.9"/>
<rect x="271.8" y="0.3" class="st0" width="33.9" height="33.9"/>
<rect x="305.8" y="0.3" class="st0" width="33.9" height="33.9"/>
<rect x="339.7" y="0.3" class="st0" width="33.9" height="33.9"/>
<rect x="373.7" y="0.3" class="st0" width="33.9" height="33.9"/>
<rect x="407.6" y="0.3" class="st0" width="33.9" height="33.9"/>
<rect x="441.6" y="0.3" class="st0" width="33.9" height="33.9"/>
<rect x="475.5" y="0.3" class="st1" width="34.5" height="33.9"/>
<g>
	<path class="st2" d="M88.9,18.3c0,2.2-0.4,3.8-1.1,5c-0.7,1.1-1.7,1.7-3.1,1.7s-2.3-0.5-3.1-1.6c-0.7-1.1-1.1-2.8-1.1-5
		s0.4-3.9,1.1-5s1.7-1.6,3.1-1.6c1.3,0,2.3,0.5,3.1,1.6C88.6,14.4,88.9,16.1,88.9,18.3z M87.1,18.3c0-1.7-0.2-2.9-0.5-3.7
		c-0.4-0.9-1-1.4-1.9-1.4s-1.5,0.5-1.8,1.4c-0.3,0.8-0.5,2.1-0.5,3.7c0,1.7,0.2,2.9,0.5,3.7c0.4,0.9,1,1.4,1.9,1.4s1.5-0.5,1.8-1.4
		C87,21.2,87.1,19.9,87.1,18.3z"/>
</g>
<g>
	<path class="st2" d="M122.9,21.2c0,1.1-0.4,2-1.2,2.7s-1.8,1-3,1s-2.2-0.3-3-1s-1.1-1.6-1.1-2.7c0-0.7,0.2-1.4,0.5-1.9
		c0.4-0.6,0.8-1,1.5-1.2c-0.5-0.2-1-0.6-1.3-1.1s-0.5-1.1-0.5-1.7c0-1.1,0.4-1.9,1.1-2.5s1.7-1,2.8-1c1.2,0,2.1,0.3,2.9,1
		c0.7,0.6,1.1,1.5,1.1,2.5c0,0.6-0.2,1.2-0.5,1.7s-0.8,0.9-1.3,1.1c0.6,0.3,1.1,0.7,1.5,1.2S122.9,20.4,122.9,21.2z M121.1,21.1
		c0-0.7-0.2-1.2-0.6-1.6s-1-0.7-1.6-0.7s-1.2,0.2-1.6,0.7c-0.4,0.4-0.6,1-0.6,1.6c0,0.7,0.2,1.2,0.6,1.7c0.4,0.4,1,0.7,1.6,0.7
		c0.7,0,1.2-0.2,1.6-0.7C120.8,22.3,121.1,21.7,121.1,21.1z M120.9,15.2c0-0.6-0.2-1.1-0.6-1.5s-0.9-0.6-1.5-0.6
		c-0.7,0-1.2,0.2-1.5,0.6c-0.4,0.4-0.6,0.9-0.6,1.5s0.2,1.1,0.6,1.5c0.4,0.4,0.9,0.6,1.5,0.6s1.2-0.2,1.5-0.6
		C120.7,16.3,120.9,15.8,120.9,15.2z"/>
</g>
<g>
	<path class="st2" d="M155.7,24.7h-5.5v-1.3h1.9v-2.1h-5.5v-1.6l5.2-7.8h2.1v8h1.6v1.3H154v2.1h1.7V24.7z M152.1,19.9v-5.8l-3.8,5.8
		H152.1z"/>
</g>
<g>
	<path class="st2" d="M224.3,20.7c0,1.2-0.3,2.1-1,2.9c-0.8,0.9-1.8,1.3-3.1,1.3c-1.5,0-2.6-0.6-3.3-1.7c-0.6-1-0.9-2.4-0.9-4.2
		c0-2.1,0.3-3.8,1-5.1c0.8-1.5,2-2.3,3.7-2.3c1.2,0,2.1,0.3,2.7,1c0.6,0.6,0.9,1.5,0.9,2.6h-1.8c0-0.6-0.1-1.1-0.4-1.4
		c-0.3-0.4-0.8-0.6-1.5-0.6c-0.8,0-1.5,0.5-2,1.4c-0.5,0.8-0.7,1.8-0.7,2.9c0.3-0.3,0.6-0.6,1-0.8c0.5-0.2,1-0.4,1.5-0.4
		c1.3,0,2.3,0.4,3.1,1.3C224,18.4,224.3,19.4,224.3,20.7z M222.5,20.6c0-0.8-0.2-1.5-0.6-2c-0.4-0.5-1-0.8-1.7-0.8s-1.3,0.3-1.7,0.8
		s-0.7,1.2-0.7,2s0.2,1.4,0.6,2c0.4,0.5,1,0.8,1.7,0.8s1.3-0.3,1.7-0.8C222.3,22.1,222.5,21.4,222.5,20.6z"/>
</g>
<g>
	<path class="st2" d="M259.8,21.2c0,1.1-0.4,2-1.1,2.7s-1.7,1-3,1c-1.3,0-2.3-0.4-3-1c-0.7-0.7-1-1.7-1-3h1.9c0,0.1,0,0.1,0,0.2
		s0,0.1,0,0.1c0,0.7,0.2,1.2,0.6,1.6c0.4,0.4,0.9,0.6,1.6,0.6c0.6,0,1.2-0.2,1.6-0.6s0.6-0.9,0.6-1.5c0-0.7-0.2-1.3-0.7-1.7
		c-0.5-0.4-1.2-0.7-2.2-0.7v-1.5c0.9,0,1.7-0.2,2.1-0.6s0.7-0.9,0.7-1.6c0-0.6-0.2-1.1-0.6-1.5s-0.9-0.6-1.5-0.6s-1.2,0.2-1.5,0.6
		c-0.4,0.4-0.6,1-0.6,1.7h-1.8c0-1.1,0.3-2.1,1-2.8c0.7-0.7,1.7-1.1,2.9-1.1s2.1,0.3,2.8,1s1,1.5,1,2.6c0,0.8-0.2,1.4-0.6,1.9
		s-0.9,0.8-1.6,1c0.8,0.2,1.3,0.6,1.8,1.1C259.6,19.8,259.8,20.4,259.8,21.2z"/>
</g>
<g>
	<path class="st2" d="M291.9,21.2c0,1.1-0.4,2-1.2,2.7s-1.8,1-3,1s-2.2-0.3-3-1s-1.1-1.6-1.1-2.7c0-0.7,0.2-1.4,0.5-1.9
		c0.4-0.6,0.8-1,1.5-1.2c-0.5-0.2-1-0.6-1.3-1.1s-0.5-1.1-0.5-1.7c0-1.1,0.4-1.9,1.1-2.5s1.7-1,2.8-1c1.2,0,2.1,0.3,2.9,1
		c0.7,0.6,1.1,1.5,1.1,2.5c0,0.6-0.2,1.2-0.5,1.7s-0.8,0.9-1.3,1.1c0.6,0.3,1.1,0.7,1.5,1.2S291.9,20.4,291.9,21.2z M290,21.1
		c0-0.7-0.2-1.2-0.6-1.6s-1-0.7-1.6-0.7s-1.2,0.2-1.6,0.7c-0.4,0.4-0.6,1-0.6,1.6c0,0.7,0.2,1.2,0.6,1.7c0.4,0.4,1,0.7,1.6,0.7
		c0.7,0,1.2-0.2,1.6-0.7C289.8,22.3,290,21.7,290,21.1z M289.9,15.2c0-0.6-0.2-1.1-0.6-1.5s-0.9-0.6-1.5-0.6c-0.7,0-1.2,0.2-1.5,0.6
		c-0.4,0.4-0.6,0.9-0.6,1.5s0.2,1.1,0.6,1.5c0.4,0.4,0.9,0.6,1.5,0.6s1.2-0.2,1.5-0.6C289.7,16.3,289.9,15.8,289.9,15.2z"/>
</g>
<g>
	<path class="st2" d="M361.3,24.7h-8.2V23c0.5-0.6,1.4-1.5,2.8-2.9c1.1-1.1,1.9-2,2.3-2.6c0.7-0.9,1-1.7,1-2.5c0-0.5-0.2-1-0.5-1.3
		c-0.4-0.4-0.8-0.6-1.4-0.6c-0.7,0-1.3,0.2-1.7,0.7c-0.4,0.5-0.5,1.1-0.5,1.9h-1.9c0-1.3,0.4-2.3,1.1-3s1.7-1.1,2.9-1.1
		c1.2,0,2.1,0.3,2.8,1c0.7,0.6,1,1.5,1,2.5c0,0.8-0.3,1.7-1,2.7c-0.5,0.7-1.2,1.6-2.3,2.7c-1.4,1.5-2.3,2.3-2.5,2.6h4.3v-1.6h1.7
		v3.2H361.3z"/>
</g>
<g>
	<path class="st2" d="M460.8,24.7h-8.2V23c0.5-0.6,1.4-1.5,2.8-2.9c1.1-1.1,1.9-2,2.3-2.6c0.7-0.9,1-1.7,1-2.5c0-0.5-0.2-1-0.5-1.3
		c-0.4-0.4-0.8-0.6-1.4-0.6c-0.7,0-1.3,0.2-1.7,0.7c-0.4,0.5-0.5,1.1-0.5,1.9h-1.9c0-1.3,0.4-2.3,1.1-3s1.7-1.1,2.9-1.1
		c1.2,0,2.1,0.3,2.8,1c0.7,0.6,1,1.5,1,2.5c0,0.8-0.3,1.7-1,2.7c-0.5,0.7-1.2,1.6-2.3,2.7c-1.4,1.5-2.3,2.3-2.5,2.6h4.3v-1.6h1.7
		v3.2H460.8z"/>
</g>
<g>
	<path class="st2" d="M394.5,18.3c0,2.2-0.4,3.8-1.1,5c-0.7,1.1-1.7,1.7-3.1,1.7s-2.3-0.5-3.1-1.6c-0.7-1.1-1.1-2.8-1.1-5
		s0.4-3.9,1.1-5s1.7-1.6,3.1-1.6c1.3,0,2.3,0.5,3.1,1.6C394.2,14.4,394.5,16.1,394.5,18.3z M392.7,18.3c0-1.7-0.2-2.9-0.5-3.7
		c-0.4-0.9-1-1.4-1.9-1.4s-1.5,0.5-1.8,1.4c-0.3,0.8-0.5,2.1-0.5,3.7c0,1.7,0.2,2.9,0.5,3.7c0.4,0.9,1,1.4,1.9,1.4s1.5-0.5,1.8-1.4
		C392.6,21.2,392.7,19.9,392.7,18.3z"/>
</g>
<g>
	<path class="st2" d="M427.8,18.3c0,2.2-0.4,3.8-1.1,5c-0.7,1.1-1.7,1.7-3.1,1.7s-2.3-0.5-3.1-1.6c-0.7-1.1-1.1-2.8-1.1-5
		s0.4-3.9,1.1-5s1.7-1.6,3.1-1.6c1.3,0,2.3,0.5,3.1,1.6C427.4,14.4,427.8,16.1,427.8,18.3z M426,18.3c0-1.7-0.2-2.9-0.5-3.7
		c-0.4-0.9-1-1.4-1.9-1.4s-1.5,0.5-1.8,1.4c-0.3,0.8-0.5,2.1-0.5,3.7c0,1.7,0.2,2.9,0.5,3.7c0.4,0.9,1,1.4,1.9,1.4s1.5-0.5,1.8-1.4
		C425.8,21.2,426,19.9,426,18.3z"/>
</g>
<g>
	<path class="st2" d="M189.2,20.2h-4.4v-1.4h4.4V20.2z"/>
</g>
<g>
	<path class="st2" d="M322.8,20.2h-4.4v-1.4h4.4V20.2z"/>
</g>
<g>
	<path class="st2" d="M51,18.1c0,0.4-0.1,0.7-0.3,0.9c-0.1,0.1-0.2,0.2-0.4,0.3c-0.1,0-0.2,0-0.2,0.1c-0.1,0-0.2,0-0.3,0
		c-0.2,0-0.3,0-0.5-0.1c-0.1-0.1-0.3-0.1-0.4-0.3c-0.2-0.2-0.4-0.5-0.4-0.9s0.1-0.7,0.3-0.9c0.2-0.2,0.5-0.3,0.9-0.3
		c0.3,0,0.6,0.1,0.9,0.3C50.9,17.5,51,17.8,51,18.1z M51,24.6c0,0.4-0.1,0.7-0.3,0.9c-0.2,0.2-0.5,0.3-0.9,0.3s-0.7-0.1-0.9-0.3
		c-0.2-0.2-0.3-0.5-0.3-0.9s0.1-0.7,0.3-0.9c0.2-0.2,0.5-0.3,0.9-0.3s0.7,0.1,0.9,0.3C50.9,24,51,24.3,51,24.6z"/>
</g>
<path class="st2" d="M23.3,21c-0.7-0.5-1.5-1-2.4-0.7c-0.6,0.2-1.1,1.2-1.5,1.6c-0.2,0.2-0.5,0.3-0.8,0.1c-2.3-1.1-3.9-2.8-5.1-5
	c-0.2-0.3-0.1-0.6,0.1-0.9c0.4-0.4,0.9-0.9,1.1-1.5c0.1-0.6-0.1-1.3-0.3-1.9c-0.3-0.7-0.6-1.7-1.3-2.2c-0.6-0.4-1.5-0.3-2.1,0.2
	c-1,0.7-1.6,2-1.7,3.2c0,0.4,0,0.7,0.1,1.1c0.1,0.8,0.5,1.6,0.9,2.4c0.3,0.6,0.6,1.1,1,1.7c1.1,1.8,2.6,3.4,4.3,4.6
	c0.9,0.6,1.8,1.2,2.8,1.6c1.1,0.4,2.1,0.9,3.3,0.7c1.3-0.2,2.6-0.9,3.2-2c0.2-0.4,0.3-0.7,0.2-1.1C24.9,22,23.9,21.5,23.3,21z"/>
<rect x="509.1" y="0.6" class="st3" width="0.9" height="33.3"/>
<rect x="492.4" y="17.1" transform="matrix(6.123234e-17 -1 1 6.123234e-17 458.7067 526.9058)" class="st3" width="0.9" height="34"/>
<rect x="0.3" y="0.3" transform="matrix(-1 -1.224647e-16 1.224647e-16 -1 1.1952 34.5)" class="st2" width="0.6" height="34"/>
</svg>
